<svg width="53" height="46" viewBox="0 0 53 46" fill="none" xmlns="http://www.w3.org/2000/svg">
<path d="M39.75 2.44048H52.75V30.4167H13.5V2.44048H26.5V2.19048L26.5 2.44048H26.5001H26.5005H26.5022H26.5087L26.5345 2.44048L26.6357 2.44048L27.0243 2.44047L28.4502 2.44047L30.9167 2.44048H30.9167H30.9168H30.9174H30.9195L30.928 2.44048H35.322L35.3305 2.44048H35.3326H35.3331H35.3333H35.3333L37.7998 2.44047L39.2257 2.44047L39.6143 2.44048L39.7155 2.44048L39.7413 2.44048H39.7478H39.7495H39.7499H39.75ZM43.1046 40.5684C43.6788 39.9989 44.458 39.6786 45.2708 39.6786C46.0837 39.6786 46.8629 39.9989 47.4371 40.5684C48.0112 41.1379 48.3333 41.9098 48.3333 42.7143C48.3333 43.5187 48.0112 44.2907 47.4371 44.8601C46.8629 45.4297 46.0837 45.75 45.2708 45.75C44.458 45.75 43.6788 45.4297 43.1046 44.8601C42.5305 44.2907 42.2083 43.5187 42.2083 42.7143C42.2083 41.9098 42.5305 41.1379 43.1046 40.5684ZM16.6046 40.5684C17.1788 39.9989 17.958 39.6786 18.7708 39.6786C19.5837 39.6786 20.3629 39.9989 20.9371 40.5684C21.5112 41.1379 21.8333 41.9098 21.8333 42.7143C21.8333 43.5187 21.5112 44.2907 20.9371 44.8601C20.3629 45.4297 19.5837 45.75 18.7708 45.75C17.958 45.75 17.1788 45.4297 16.6046 44.8601C16.0305 44.2907 15.7083 43.5187 15.7083 42.7143C15.7083 41.9098 16.0305 41.1379 16.6046 40.5684ZM2.20833 4.13095H0.25V0.25H2.20833C5.70489 0.25 8.58333 3.10808 8.58333 6.57143V30.6667C8.58333 32.0297 9.05117 33.1915 9.87931 34.013C10.7073 34.8342 11.8776 35.2976 13.25 35.2976H52.75V39.1786H45.2708H18.7708H13.25C8.50574 39.1786 4.66667 35.3676 4.66667 30.6667V6.57143C4.66667 5.21573 3.57011 4.13095 2.20833 4.13095ZM17.6667 6.32143H17.4167V6.57143V26.2857V26.5357H17.6667H48.5833H48.8333V26.2857V6.57143V6.32143H48.5833H17.6667Z" fill="#045CB4" stroke="white" stroke-width="0.5"/>
</svg>
