<svg width="48" height="46" viewBox="0 0 48 46" fill="none" xmlns="http://www.w3.org/2000/svg">
<path d="M46 10.4259C46 6.65467 46 4.76905 44.8284 3.59748C43.6569 2.4259 41.7712 2.4259 38 2.4259H10C6.22876 2.4259 4.34315 2.4259 3.17157 3.59748C2 4.76905 2 6.65467 2 10.4259V40.6972C2 42.2872 2 43.0822 2.39546 43.3823C2.53242 43.4863 2.69387 43.5532 2.86421 43.5765C3.35606 43.6439 3.91823 43.0818 5.04256 41.9574C7.07417 39.9258 8.08998 38.91 9.32707 38.2688C9.78278 38.0326 10.2579 37.8358 10.7471 37.6806C12.0753 37.2592 13.5118 37.2592 16.385 37.2592H38C41.7712 37.2592 43.6569 37.2592 44.8284 36.0877C46 34.9161 46 33.0305 46 29.2592V10.4259Z" fill="white" stroke="#045CB4" stroke-width="3"/>
<path d="M15.75 15.4884L32.25 15.4884" stroke="#045CB4" stroke-width="3" stroke-linecap="round" stroke-linejoin="round"/>
<path d="M15.75 24.1968H24" stroke="#045CB4" stroke-width="3" stroke-linecap="round" stroke-linejoin="round"/>
</svg>
