<svg width="430" height="314" viewBox="0 0 430 314" fill="none" xmlns="http://www.w3.org/2000/svg">
<path opacity="0.2" d="M423.911 58.934H341.071C338.079 58.934 335.652 61.3606 335.652 64.3526V107.679C335.652 110.671 338.079 113.097 341.071 113.097H377.008L362.638 144.514L389.34 113.097H423.911C426.903 113.097 429.329 110.671 429.329 107.679V64.3526C429.329 61.3606 426.903 58.934 423.911 58.934Z" fill="#045CB4"/>
<path opacity="0.3" d="M295.605 34.7855H250.257C247.006 34.7855 244.367 37.4242 244.367 40.6754V67.7688C244.367 71.02 247.006 73.6586 250.257 73.6586H274.097L287.949 89.5613L286.323 73.6586H295.605C298.856 73.6586 301.494 71.02 301.494 67.7688V40.6754C301.494 37.4242 298.856 34.7855 295.605 34.7855Z" fill="#012A53"/>
<path opacity="0.2" d="M160.631 38.4726H72.2898C69.0388 38.4726 66.4004 41.1113 66.4004 44.3625V70.8669C66.4004 74.1181 69.0388 76.7567 72.2898 76.7567H112.585L121.761 103.261L121.29 76.7567H160.631C163.882 76.7567 166.52 74.1181 166.52 70.8669V44.3625C166.52 41.1113 163.882 38.4726 160.631 38.4726Z" fill="#045CB4"/>
<path opacity="0.2" d="M209.713 0H180.266C177.015 0 174.377 2.63866 174.377 5.88987V40.8404C174.377 44.0916 177.015 46.7302 180.266 46.7302H193.235L205.697 61.4549L203.541 46.7773L209.725 46.7302C212.976 46.7302 215.615 44.0916 215.615 40.8404V5.88987C215.603 2.63866 212.964 0 209.713 0Z" fill="#012A53"/>
<g opacity="0.4">
<path d="M106.543 305.767C80.4292 224.91 51.6536 204.979 38.4024 201.881C32.9606 200.609 27.507 204.92 26.6943 212.294C22.7719 248.246 80.1465 306.073 80.1465 306.073L106.543 305.767Z" fill="#045CB4"/>
<mask id="mask0_33_1195" style="mask-type:luminance" maskUnits="userSpaceOnUse" x="26" y="201" width="81" height="106">
<path d="M106.543 305.766C80.4292 224.91 51.6536 204.979 38.4024 201.881C32.9606 200.609 27.507 204.92 26.6943 212.294C22.7719 248.246 80.1465 306.073 80.1465 306.073L106.543 305.766Z" fill="white"/>
</mask>
<g mask="url(#mask0_33_1195)">
<path d="M45.6934 226.465C45.6934 226.465 46.7652 227.62 48.5556 229.705C50.346 231.79 52.8667 234.805 55.776 238.516C57.2248 240.377 58.7914 242.392 60.3933 244.559C61.9952 246.726 63.7032 249.012 65.3757 251.438C67.0601 253.853 68.8269 256.339 70.5113 258.942C72.2192 261.534 73.9154 264.184 75.588 266.846C77.2252 269.532 78.8271 272.253 80.3702 274.939C81.925 277.625 83.3266 280.346 84.6812 282.973C86.0358 285.6 87.249 288.203 88.3326 290.7C88.8745 291.949 89.4045 293.162 89.8639 294.352C90.335 295.542 90.7708 296.708 91.1478 297.827C91.5482 298.946 91.9134 300.03 92.2079 301.078C92.5259 302.115 92.785 303.104 92.997 304.058C93.2326 305.001 93.4446 305.872 93.5506 306.709C93.6802 307.545 93.8451 308.287 93.8804 308.982C93.9393 309.677 93.9865 310.29 94.0336 310.832C94.0453 311.374 94.0218 311.833 94.01 312.198C93.9865 312.94 93.9864 313.329 93.9864 313.329C93.9864 313.329 93.9276 312.94 93.8215 312.21C93.7626 311.845 93.7155 311.397 93.6095 310.879C93.4917 310.361 93.3504 309.772 93.1855 309.112C93.0559 308.452 92.785 307.734 92.5494 306.956C92.3139 306.179 92.0312 305.331 91.6896 304.447C91.3716 303.552 91.0064 302.621 90.5824 301.644C90.1819 300.666 89.7579 299.629 89.2514 298.581C88.7802 297.521 88.262 296.425 87.6848 295.306C87.143 294.175 86.5658 293.009 85.9415 291.831C84.7283 289.452 83.3384 286.99 81.9367 284.445C80.5233 281.889 78.9567 279.309 77.4255 276.659C75.8707 274.02 74.2452 271.358 72.5844 268.707C70.9589 266.045 69.3099 263.395 67.649 260.803C66 258.212 64.3745 255.656 62.7962 253.182C59.6159 248.246 56.6594 243.64 54.1152 239.694C49.0268 231.802 45.6934 226.465 45.6934 226.465Z" fill="white"/>
</g>
<path d="M80.0408 304.695C53.9272 253.252 25.1516 240.577 11.9005 238.61C6.45865 237.797 1.00506 240.542 0.19232 245.23C-3.73002 268.107 53.6445 304.895 53.6445 304.895L80.0408 304.695Z" fill="#045CB4"/>
<mask id="mask1_33_1195" style="mask-type:luminance" maskUnits="userSpaceOnUse" x="0" y="238" width="81" height="67">
<path d="M80.0408 304.499C53.9272 253.057 25.1516 240.382 11.9005 238.414C6.45865 237.602 1.00506 240.346 0.19232 245.035C-3.73002 267.911 53.6445 304.699 53.6445 304.699L80.0408 304.499Z" fill="white"/>
</mask>
<g mask="url(#mask1_33_1195)">
<path d="M28.1201 262.594C28.1201 262.594 29.3569 263.56 31.4653 265.327C33.5737 267.094 36.542 269.662 40.0049 272.866C41.7364 274.468 43.6093 276.199 45.541 278.096C47.4727 279.981 49.5222 281.96 51.5717 284.08C53.6212 286.189 55.765 288.368 57.8498 290.653C59.9464 292.927 62.0431 295.271 64.1279 297.638C66.1774 300.03 68.1916 302.445 70.1469 304.859C72.114 307.262 73.9397 309.713 75.6947 312.092C77.4497 314.472 79.0752 316.839 80.5358 319.125C81.2778 320.267 81.9964 321.375 82.6324 322.494C83.292 323.589 83.9045 324.673 84.4581 325.721C85.0353 326.758 85.5653 327.771 86.0247 328.761C86.5076 329.726 86.9199 330.669 87.285 331.576C87.662 332.459 88.0153 333.296 88.2627 334.109C88.5218 334.91 88.8045 335.616 88.9576 336.3C89.1225 336.971 89.2757 337.572 89.4052 338.102C89.5112 338.632 89.5466 339.091 89.6055 339.456C89.6997 340.187 89.7586 340.576 89.7586 340.576C89.7586 340.576 89.6408 340.199 89.417 339.492C89.2992 339.138 89.1814 338.703 88.993 338.208C88.7927 337.725 88.5572 337.159 88.2862 336.523C88.0507 335.887 87.6738 335.228 87.3204 334.497C86.967 333.767 86.543 332.978 86.0718 332.165C85.6242 331.34 85.106 330.469 84.5288 329.585C83.9752 328.678 83.3863 327.736 82.7266 326.782C82.0906 325.804 81.3956 324.814 80.6536 323.801C79.9351 322.776 79.1812 321.716 78.3685 320.656C76.7901 318.5 75.0233 316.298 73.2212 314.001C71.419 311.703 69.4519 309.418 67.5084 307.039C65.5414 304.683 63.5154 302.315 61.4541 299.971C59.4164 297.603 57.3669 295.247 55.3174 292.962C53.2679 290.665 51.2537 288.403 49.3102 286.224C45.3878 281.865 41.7129 277.79 38.5797 274.303C32.278 267.329 28.1201 262.594 28.1201 262.594Z" fill="white"/>
</g>
</g>
<path d="M225.461 313.93C336.239 313.93 426.042 311.161 426.042 307.746C426.042 304.33 336.239 301.561 225.461 301.561C114.683 301.561 24.8799 304.33 24.8799 307.746C24.8799 311.161 114.683 313.93 225.461 313.93Z" fill="#045CB4" fill-opacity="0.33"/>
<path d="M195.084 145.28V134.878H189.006V153.726H190.773V158.037H247.9V145.28H195.084Z" fill="#022E5A"/>
<path d="M316.087 243.758C316.087 243.758 297.17 233.05 288.854 221.365C276.322 203.766 267.558 163.632 265.25 143.159C264.743 138.659 264.472 125.054 264.472 125.054C264.472 124.406 263.954 123.888 263.306 123.888H244.625C243.977 123.888 243.459 124.406 243.459 125.054V149.685H191.585V125.054C191.585 124.406 191.067 123.888 190.419 123.888H171.738C171.09 123.888 170.572 124.406 170.572 125.054C170.572 125.054 170.301 138.659 169.794 143.159C167.486 163.632 158.734 203.766 146.19 221.365C137.874 233.05 118.403 243.805 118.403 243.805L120.158 247.304L217.534 246.173L314.909 247.304L316.087 243.758Z" fill="#045CB4"/>
<mask id="mask2_33_1195" style="mask-type:luminance" maskUnits="userSpaceOnUse" x="118" y="123" width="199" height="125">
<path d="M316.087 243.758C316.087 243.758 297.17 233.05 288.854 221.365C276.322 203.766 267.558 163.632 265.25 143.159C264.743 138.659 264.472 125.054 264.472 125.054C264.472 124.406 263.954 123.888 263.306 123.888H244.625C243.977 123.888 243.459 124.406 243.459 125.054V149.685H191.585V125.054C191.585 124.406 191.067 123.888 190.419 123.888H171.738C171.09 123.888 170.572 124.406 170.572 125.054C170.572 125.054 170.301 138.659 169.794 143.159C167.486 163.632 158.734 203.766 146.19 221.365C137.874 233.05 118.403 243.805 118.403 243.805L120.158 247.304L217.534 246.173L314.909 247.304L316.087 243.758Z" fill="white"/>
</mask>
<g mask="url(#mask2_33_1195)">
<path opacity="0.1" d="M157.886 238.339C150.183 238.198 149.5 234.593 150.984 232.556C165.625 212.495 176.214 166.471 179.135 142.959C179.595 139.307 179.972 130.414 180.148 125.525L169.571 125.407C168.923 125.395 168.393 125.914 168.393 126.562C168.393 126.562 167.969 140.155 167.404 144.655C164.859 165.105 155.648 205.132 142.915 222.59C134.458 234.169 114.87 244.712 114.87 244.712L116.578 248.234H131.949V266.222H339.551V238.54C339.574 238.54 201.762 239.129 157.886 238.339Z" fill="#022E5A"/>
</g>
<mask id="mask3_33_1195" style="mask-type:luminance" maskUnits="userSpaceOnUse" x="118" y="123" width="199" height="125">
<path d="M316.087 243.758C316.087 243.758 297.17 233.05 288.854 221.365C276.322 203.766 267.558 163.632 265.25 143.159C264.743 138.659 264.472 125.054 264.472 125.054C264.472 124.406 263.954 123.888 263.306 123.888H244.625C243.977 123.888 243.459 124.406 243.459 125.054V149.685H191.585V125.054C191.585 124.406 191.067 123.888 190.419 123.888H171.738C171.09 123.888 170.572 124.406 170.572 125.054C170.572 125.054 170.301 138.659 169.794 143.159C167.486 163.632 158.734 203.766 146.19 221.365C137.874 233.05 118.403 243.805 118.403 243.805L120.158 247.304L217.534 246.173L314.909 247.304L316.087 243.758Z" fill="white"/>
</mask>
<g mask="url(#mask3_33_1195)">
<path d="M173.787 147.435C173.776 147.129 173.54 146.893 173.234 146.87C172.928 146.858 172.668 147.07 172.621 147.365L171.867 152.053C171.773 152.771 171.632 153.561 171.491 154.385C171.349 155.163 171.208 155.976 171.09 156.788L170.607 159.462C170.56 159.757 170.501 160.051 170.454 160.346C170.36 160.958 170.254 161.583 170.112 162.207L169.512 165.388C169.37 166.141 169.229 166.884 169.052 167.602C168.864 168.38 168.711 169.145 168.569 169.876C168.404 170.747 168.24 171.56 168.039 172.29C167.792 173.197 167.604 174.01 167.45 174.694C167.368 175.035 167.297 175.353 167.227 175.636C167.038 176.46 166.944 176.932 166.944 176.932C166.885 177.226 167.062 177.521 167.344 177.603C167.403 177.627 167.462 177.627 167.521 177.627C167.745 177.627 167.969 177.497 168.063 177.273C168.063 177.273 168.251 176.837 168.569 176.036C168.664 175.777 168.781 175.483 168.911 175.153C169.17 174.493 169.476 173.704 169.794 172.821C169.995 172.29 170.171 171.713 170.336 171.112L170.572 170.323C170.784 169.616 170.996 168.874 171.196 168.109C171.491 167.072 171.703 166.212 171.844 165.399L172.421 162.631C172.551 161.995 172.657 161.347 172.751 160.699C172.798 160.405 172.845 160.098 172.892 159.792L173.281 157.059C173.434 155.528 173.611 153.749 173.693 152.194C173.87 149.402 173.787 147.518 173.787 147.435Z" fill="white"/>
</g>
<path d="M316.087 243.758C316.087 243.758 297.17 233.05 288.854 221.365C276.322 203.766 267.558 163.632 265.25 143.159C264.743 138.659 264.472 125.054 264.472 125.054C264.472 124.406 263.954 123.888 263.306 123.888H244.625C243.977 123.888 243.459 124.406 243.459 125.054V149.685H191.585V125.054C191.585 124.406 191.067 123.888 190.419 123.888H171.738C171.09 123.888 170.572 124.406 170.572 125.054C170.572 125.054 170.301 138.659 169.794 143.159C167.486 163.632 158.734 203.766 146.19 221.365C137.874 233.05 118.403 243.805 118.403 243.805L120.158 247.304L217.534 246.173L314.909 247.304L316.087 243.758Z" stroke="#022E5A" stroke-miterlimit="10"/>
<path d="M161.985 300.454C161.985 303.033 159.888 305.13 157.309 305.13H124.411C121.831 305.13 119.734 303.033 119.734 300.454V296.755C119.734 294.175 121.831 292.078 124.411 292.078H157.309C159.888 292.078 161.985 294.175 161.985 296.755V300.454Z" fill="#022E5A"/>
<path d="M314.792 300.454C314.792 303.033 312.695 305.13 310.115 305.13H277.217C274.638 305.13 272.541 303.033 272.541 300.454V296.755C272.541 294.175 274.638 292.078 277.217 292.078H310.115C312.695 292.078 314.792 294.175 314.792 296.755V300.454Z" fill="#022E5A"/>
<path d="M317.125 293.645C317.125 294.941 316.076 295.978 314.781 295.978H119.535C118.24 295.978 117.191 294.929 117.191 293.645V254.902C117.191 253.606 118.24 252.569 119.535 252.569H314.781C316.076 252.569 317.125 253.618 317.125 254.902V293.645Z" fill="#045CB4"/>
<mask id="mask4_33_1195" style="mask-type:luminance" maskUnits="userSpaceOnUse" x="117" y="252" width="201" height="44">
<path d="M317.126 293.645C317.126 294.941 316.077 295.977 314.782 295.977H119.536C118.241 295.977 117.192 294.929 117.192 293.645V254.902C117.192 253.606 118.241 252.569 119.536 252.569H314.782C316.077 252.569 317.126 253.618 317.126 254.902V293.645Z" fill="white"/>
</mask>
<g mask="url(#mask4_33_1195)">
<path opacity="0.4" d="M344.877 289.534H87.71V296.896H344.877V289.534Z" fill="#022E5A"/>
</g>
<mask id="mask5_33_1195" style="mask-type:luminance" maskUnits="userSpaceOnUse" x="117" y="252" width="201" height="44">
<path d="M317.126 293.645C317.126 294.941 316.077 295.977 314.782 295.977H119.536C118.241 295.977 117.192 294.929 117.192 293.645V254.902C117.192 253.606 118.241 252.569 119.536 252.569H314.782C316.077 252.569 317.126 253.618 317.126 254.902V293.645Z" fill="white"/>
</mask>
<g mask="url(#mask5_33_1195)">
<path d="M129.913 284.669H121.868V263.666L129.913 284.669Z" fill="white"/>
</g>
<path d="M317.125 293.645C317.125 294.941 316.076 295.978 314.781 295.978H119.535C118.24 295.978 117.191 294.929 117.191 293.645V254.902C117.191 253.606 118.24 252.569 119.535 252.569H314.781C316.076 252.569 317.125 253.618 317.125 254.902V293.645Z" stroke="#022E5A" stroke-miterlimit="10"/>
<path d="M317.16 257.234C317.16 258.53 316.112 259.566 314.816 259.566H119.559C118.263 259.566 117.215 258.518 117.215 257.234V245.749C117.215 244.453 118.263 243.416 119.559 243.416H314.816C316.112 243.416 317.16 244.465 317.16 245.749V257.234Z" fill="#022E5A" stroke="#022E5A" stroke-miterlimit="10"/>
<path d="M289.302 177.686C288.136 179.983 288.901 182.727 291.022 183.799L357.878 217.819C359.998 218.891 362.66 217.902 363.826 215.605L371.235 201.033C372.401 198.736 371.636 195.991 369.515 194.919L302.659 160.9C300.539 159.828 297.877 160.817 296.711 163.114L289.302 177.686Z" fill="#022E5A"/>
<mask id="mask6_33_1195" style="mask-type:luminance" maskUnits="userSpaceOnUse" x="290" y="163" width="81" height="67">
<path d="M301.311 227.804C302.818 229.894 305.608 230.471 307.532 229.078L368.41 185.254C370.334 183.862 370.675 181.042 369.168 178.953L359.616 165.688C358.109 163.599 355.319 163.021 353.394 164.414L292.517 208.238C290.592 209.631 290.251 212.45 291.758 214.54L301.311 227.804Z" fill="white"/>
</mask>
<g mask="url(#mask6_33_1195)">
<path opacity="0.4" d="M285.194 164.647L283.715 167.515L387.608 221.108L389.087 218.24L285.194 164.647Z" fill="#012A53"/>
</g>
<path d="M371.26 172.455C369.893 160.97 364.275 144.797 359.092 136.975C358.091 135.467 353.992 132.086 352.378 131.285C337.926 124.088 310.116 116.961 295.004 113.91C285.875 112.073 252.942 106.96 220.197 107.043C189.171 107.125 158.252 112.296 150.266 113.91C135.154 116.961 107.344 124.076 92.8914 131.285C91.2777 132.086 87.1787 135.467 86.1775 136.975C81.0066 144.797 75.3763 160.97 74.01 172.455C73.3503 177.992 73.5035 188.794 73.9864 194.213C74.0335 194.778 74.2691 196.227 75.765 195.626C91.7253 189.206 136.591 164.669 136.591 164.669C136.591 164.669 141.514 162.231 142.527 160.77C145.154 156.965 145.06 149.379 151.868 144.808C157.498 141.027 168.217 140.521 168.217 140.521L211.575 140.603V140.615L216.38 140.603L220.197 140.615V140.603L277.053 140.521C277.053 140.521 287.772 141.027 293.402 144.808C300.21 149.379 300.116 156.965 302.743 160.77C303.755 162.231 308.679 164.669 308.679 164.669C308.679 164.669 353.545 189.194 369.505 195.626C371.001 196.227 371.224 194.778 371.283 194.213C371.766 188.794 371.919 177.992 371.26 172.455Z" fill="#045CB4"/>
<mask id="mask7_33_1195" style="mask-type:luminance" maskUnits="userSpaceOnUse" x="73" y="107" width="299" height="89">
<path d="M371.26 172.455C369.893 160.97 364.275 144.797 359.092 136.975C358.091 135.467 353.992 132.086 352.378 131.285C337.926 124.088 310.116 116.961 295.004 113.91C285.875 112.073 252.942 106.96 220.197 107.043C189.171 107.125 158.252 112.296 150.266 113.91C135.154 116.961 107.344 124.076 92.8914 131.285C91.2777 132.086 87.1787 135.467 86.1775 136.975C81.0066 144.797 75.3763 160.97 74.01 172.455C73.3503 177.992 73.5035 188.794 73.9864 194.213C74.0335 194.778 74.2691 196.227 75.765 195.626C91.7253 189.206 136.591 164.669 136.591 164.669C136.591 164.669 141.514 162.231 142.527 160.77C145.154 156.965 145.06 149.379 151.868 144.808C157.498 141.027 168.217 140.521 168.217 140.521L211.575 140.603V140.615L216.38 140.603L220.197 140.615V140.603L277.053 140.521C277.053 140.521 287.772 141.027 293.402 144.808C300.21 149.379 300.116 156.965 302.743 160.77C303.755 162.231 308.679 164.669 308.679 164.669C308.679 164.669 353.545 189.194 369.505 195.626C371.001 196.227 371.224 194.778 371.283 194.213C371.766 188.794 371.919 177.992 371.26 172.455Z" fill="white"/>
</mask>
<g mask="url(#mask7_33_1195)">
<path opacity="0.2" d="M306.217 153.914C303.485 150.109 303.579 142.523 296.488 137.953C290.634 134.171 279.468 133.665 279.468 133.665L220.279 133.747V133.759L216.31 133.747L211.316 133.759V133.747L166.179 133.665C166.179 133.665 155.013 134.171 149.159 137.953C142.068 142.523 142.174 150.109 139.429 153.914C138.381 155.375 133.246 157.813 133.246 157.813C133.246 157.813 91.9373 179.512 73.1973 187.428C73.2562 190.396 73.3975 193.176 73.5742 195.202C73.6213 195.768 73.8569 197.216 75.3528 196.616C91.372 190.196 136.426 165.659 136.426 165.659C136.426 165.659 141.373 163.22 142.386 161.759C145.024 157.955 144.93 150.368 151.762 145.798C157.416 142.017 168.182 141.51 168.182 141.51L211.716 141.593V141.604L216.534 141.593L220.362 141.604V141.593L277.442 141.51C277.442 141.51 288.208 142.017 293.861 145.798C300.705 150.368 296.288 158.461 298.926 162.266C299.939 163.727 309.209 165.659 309.209 165.659C309.209 165.659 354.251 190.184 370.282 196.616C371.778 197.216 372.014 195.768 372.061 195.202C372.249 193.176 372.379 190.396 372.438 187.428C353.698 179.5 312.389 157.813 312.389 157.813C312.389 157.813 307.266 155.375 306.217 153.914Z" fill="#022E5A"/>
</g>
<mask id="mask8_33_1195" style="mask-type:luminance" maskUnits="userSpaceOnUse" x="73" y="107" width="299" height="89">
<path d="M371.26 172.455C369.893 160.97 364.275 144.797 359.092 136.975C358.091 135.467 353.992 132.086 352.378 131.285C337.926 124.088 310.116 116.961 295.004 113.91C285.875 112.073 252.942 106.96 220.197 107.043C189.171 107.125 158.252 112.296 150.266 113.91C135.154 116.961 107.344 124.076 92.8914 131.285C91.2777 132.086 87.1787 135.467 86.1775 136.975C81.0066 144.797 75.3763 160.97 74.01 172.455C73.3503 177.992 73.5035 188.794 73.9864 194.213C74.0335 194.778 74.2691 196.227 75.765 195.626C91.7253 189.206 136.591 164.669 136.591 164.669C136.591 164.669 141.514 162.231 142.527 160.77C145.154 156.965 145.06 149.379 151.868 144.808C157.498 141.027 168.217 140.521 168.217 140.521L211.575 140.603V140.615L216.38 140.603L220.197 140.615V140.603L277.053 140.521C277.053 140.521 287.772 141.027 293.402 144.808C300.21 149.379 300.116 156.965 302.743 160.77C303.755 162.231 308.679 164.669 308.679 164.669C308.679 164.669 353.545 189.194 369.505 195.626C371.001 196.227 371.224 194.778 371.283 194.213C371.766 188.794 371.919 177.992 371.26 172.455Z" fill="white"/>
</mask>
<g mask="url(#mask8_33_1195)">
<path d="M106.79 129.353C106.79 129.353 97.037 132.781 94.0217 134.796C92.7613 135.644 89.5339 138.471 88.4974 140.544C87.0133 143.513 83.6445 152.618 83.6445 152.618L106.79 129.353Z" fill="white"/>
</g>
<path d="M371.26 172.455C369.893 160.97 364.275 144.797 359.092 136.975C358.091 135.467 353.992 132.086 352.378 131.285C337.926 124.088 310.116 116.961 295.004 113.91C285.875 112.073 252.942 106.96 220.197 107.043C189.171 107.125 158.252 112.296 150.266 113.91C135.154 116.961 107.344 124.076 92.8914 131.285C91.2777 132.086 87.1787 135.467 86.1775 136.975C81.0066 144.797 75.3763 160.97 74.01 172.455C73.3503 177.992 73.5035 188.794 73.9864 194.213C74.0335 194.778 74.2691 196.227 75.765 195.626C91.7253 189.206 136.591 164.669 136.591 164.669C136.591 164.669 141.514 162.231 142.527 160.77C145.154 156.965 145.06 149.379 151.868 144.808C157.498 141.027 168.217 140.521 168.217 140.521L211.575 140.603V140.615L216.38 140.603L220.197 140.615V140.603L277.053 140.521C277.053 140.521 287.772 141.027 293.402 144.808C300.21 149.379 300.116 156.965 302.743 160.77C303.755 162.231 308.679 164.669 308.679 164.669C308.679 164.669 353.545 189.194 369.505 195.626C371.001 196.227 371.224 194.778 371.283 194.213C371.766 188.794 371.919 177.992 371.26 172.455Z" stroke="#022E5A" stroke-miterlimit="10"/>
<path d="M155.436 177.686C156.602 179.983 155.837 182.727 153.717 183.799L86.8602 217.819C84.74 218.891 82.078 217.902 80.9119 215.605L73.503 201.033C72.3369 198.736 73.1025 195.991 75.2227 194.919L142.079 160.899C144.199 159.828 146.861 160.817 148.027 163.114L155.436 177.686Z" fill="#022E5A"/>
<mask id="mask9_33_1195" style="mask-type:luminance" maskUnits="userSpaceOnUse" x="79" y="147" width="67" height="80">
<path d="M143.216 157.756C145.305 159.263 145.883 162.053 144.49 163.978L100.666 224.861C99.2736 226.786 96.4543 227.127 94.3651 225.62L81.102 216.067C79.0128 214.561 78.4352 211.77 79.8281 209.846L123.651 148.963C125.044 147.038 127.864 146.697 129.953 148.204L143.216 157.756Z" fill="white"/>
</mask>
<g mask="url(#mask9_33_1195)">
<path opacity="0.4" d="M159.505 164.622L55.6123 218.216L57.0917 221.084L160.985 167.49L159.505 164.622Z" fill="#012A53"/>
</g>
<path d="M220.503 230.565C240.89 230.565 257.417 214.115 257.417 193.824C257.417 173.532 240.89 157.083 220.503 157.083C200.115 157.083 183.588 173.532 183.588 193.824C183.588 214.115 200.115 230.565 220.503 230.565Z" fill="white"/>
<path d="M221.163 226.678C241.05 226.678 257.171 210.903 257.171 191.444C257.171 171.986 241.05 156.211 221.163 156.211C201.277 156.211 185.155 171.986 185.155 191.444C185.155 210.903 201.277 226.678 221.163 226.678Z" fill="#B4CEE9" stroke="#022E5A" stroke-miterlimit="10"/>
<path d="M221.552 208.431C231.687 208.431 239.903 200.214 239.903 190.078C239.903 179.942 231.687 171.725 221.552 171.725C211.416 171.725 203.2 179.942 203.2 190.078C203.2 200.214 211.416 208.431 221.552 208.431Z" fill="#0B2743"/>
<mask id="mask10_33_1195" style="mask-type:luminance" maskUnits="userSpaceOnUse" x="203" y="171" width="37" height="38">
<path d="M221.552 208.431C231.687 208.431 239.903 200.214 239.903 190.078C239.903 179.942 231.687 171.725 221.552 171.725C211.416 171.725 203.2 179.942 203.2 190.078C203.2 200.214 211.416 208.431 221.552 208.431Z" fill="white"/>
</mask>
<g mask="url(#mask10_33_1195)">
<path d="M225.674 208.23C235.809 208.23 244.025 200.014 244.025 189.878C244.025 179.742 235.809 171.525 225.674 171.525C215.538 171.525 207.322 179.742 207.322 189.878C207.322 200.014 215.538 208.23 225.674 208.23Z" fill="#022E5A"/>
</g>
<path d="M257.147 190.196L234.732 191.762L253.991 205.875C256.029 201.457 257.183 196.557 257.183 191.385C257.183 190.985 257.171 190.596 257.147 190.196Z" fill="#022E5A"/>
<mask id="mask11_33_1195" style="mask-type:luminance" maskUnits="userSpaceOnUse" x="234" y="190" width="24" height="16">
<path d="M257.147 190.196L234.732 191.762L253.991 205.874C256.029 201.457 257.183 196.557 257.183 191.385C257.183 190.985 257.171 190.596 257.147 190.196Z" fill="white"/>
</mask>
<g mask="url(#mask11_33_1195)">
<path opacity="0.4" d="M234.249 191.315L255.451 203.884L254.379 206.628L234.249 191.315Z" fill="#012A53"/>
</g>
<path d="M244.261 171.725C244.261 174.022 242.4 175.883 240.103 175.883C237.806 175.883 235.945 174.022 235.945 171.725C235.945 169.428 237.806 167.567 240.103 167.567C242.4 167.567 244.261 169.428 244.261 171.725Z" fill="#0B2743"/>
<mask id="mask12_33_1195" style="mask-type:luminance" maskUnits="userSpaceOnUse" x="235" y="167" width="10" height="9">
<path d="M244.261 171.725C244.261 174.022 242.4 175.883 240.103 175.883C237.806 175.883 235.945 174.022 235.945 171.725C235.945 169.428 237.806 167.567 240.103 167.567C242.4 167.567 244.261 169.428 244.261 171.725Z" fill="white"/>
</mask>
<g mask="url(#mask12_33_1195)">
<path d="M241.046 175.836C243.342 175.836 245.204 173.974 245.204 171.678C245.204 169.381 243.342 167.519 241.046 167.519C238.749 167.519 236.888 169.381 236.888 171.678C236.888 173.974 238.749 175.836 241.046 175.836Z" fill="#022E5A"/>
</g>
<path d="M231.8 164.952C231.8 167.249 229.939 169.11 227.642 169.11C225.345 169.11 223.484 167.249 223.484 164.952C223.484 162.655 225.345 160.793 227.642 160.793C229.939 160.793 231.8 162.655 231.8 164.952Z" fill="#0B2743"/>
<mask id="mask13_33_1195" style="mask-type:luminance" maskUnits="userSpaceOnUse" x="223" y="160" width="9" height="10">
<path d="M231.8 164.952C231.8 167.249 229.939 169.11 227.642 169.11C225.345 169.11 223.484 167.249 223.484 164.952C223.484 162.655 225.345 160.793 227.642 160.793C229.939 160.793 231.8 162.655 231.8 164.952Z" fill="white"/>
</mask>
<g mask="url(#mask13_33_1195)">
<path d="M232.731 164.904C232.731 167.202 230.87 169.063 228.573 169.063C226.276 169.063 224.415 167.202 224.415 164.904C224.415 162.607 226.276 160.746 228.573 160.746C230.87 160.746 232.731 162.607 232.731 164.904Z" fill="#022E5A"/>
</g>
<path d="M217.465 164.952C217.465 167.249 215.604 169.11 213.307 169.11C211.01 169.11 209.149 167.249 209.149 164.952C209.149 162.655 211.01 160.793 213.307 160.793C215.604 160.793 217.465 162.655 217.465 164.952Z" fill="#0B2743"/>
<mask id="mask14_33_1195" style="mask-type:luminance" maskUnits="userSpaceOnUse" x="209" y="160" width="9" height="10">
<path d="M217.465 164.952C217.465 167.249 215.604 169.11 213.307 169.11C211.01 169.11 209.149 167.249 209.149 164.952C209.149 162.655 211.01 160.793 213.307 160.793C215.604 160.793 217.465 162.655 217.465 164.952Z" fill="white"/>
</mask>
<g mask="url(#mask14_33_1195)">
<path d="M214.25 169.063C216.546 169.063 218.408 167.201 218.408 164.904C218.408 162.608 216.546 160.746 214.25 160.746C211.953 160.746 210.092 162.608 210.092 164.904C210.092 167.201 211.953 169.063 214.25 169.063Z" fill="#022E5A"/>
</g>
<path d="M205.498 171.725C205.498 174.022 203.637 175.883 201.341 175.883C199.044 175.883 197.183 174.022 197.183 171.725C197.183 169.428 199.044 167.567 201.341 167.567C203.637 167.567 205.498 169.428 205.498 171.725Z" fill="#0B2743"/>
<mask id="mask15_33_1195" style="mask-type:luminance" maskUnits="userSpaceOnUse" x="197" y="167" width="9" height="9">
<path d="M205.499 171.725C205.499 174.022 203.638 175.883 201.342 175.883C199.045 175.883 197.184 174.022 197.184 171.725C197.184 169.428 199.045 167.567 201.342 167.567C203.638 167.567 205.499 169.428 205.499 171.725Z" fill="white"/>
</mask>
<g mask="url(#mask15_33_1195)">
<path d="M202.272 175.836C204.569 175.836 206.43 173.974 206.43 171.678C206.43 169.381 204.569 167.52 202.272 167.52C199.976 167.52 198.114 169.381 198.114 171.678C198.114 173.974 199.976 175.836 202.272 175.836Z" fill="#022E5A"/>
</g>
<path d="M198.431 183.988C198.431 186.285 196.57 188.146 194.273 188.146C191.976 188.146 190.115 186.285 190.115 183.988C190.115 181.691 191.976 179.829 194.273 179.829C196.57 179.829 198.431 181.691 198.431 183.988Z" fill="#0B2743"/>
<mask id="mask16_33_1195" style="mask-type:luminance" maskUnits="userSpaceOnUse" x="190" y="179" width="9" height="10">
<path d="M198.432 183.988C198.432 186.285 196.571 188.146 194.274 188.146C191.977 188.146 190.116 186.285 190.116 183.988C190.116 181.691 191.977 179.829 194.274 179.829C196.571 179.829 198.432 181.691 198.432 183.988Z" fill="white"/>
</mask>
<g mask="url(#mask16_33_1195)">
<path d="M199.362 183.952C199.362 186.249 197.501 188.111 195.204 188.111C192.907 188.111 191.046 186.249 191.046 183.952C191.046 181.655 192.907 179.794 195.204 179.794C197.501 179.794 199.362 181.655 199.362 183.952Z" fill="#022E5A"/>
</g>
<path d="M198.619 197.735C198.619 200.032 196.758 201.893 194.461 201.893C192.164 201.893 190.303 200.032 190.303 197.735C190.303 195.438 192.164 193.576 194.461 193.576C196.758 193.576 198.619 195.438 198.619 197.735Z" fill="#0B2743"/>
<mask id="mask17_33_1195" style="mask-type:luminance" maskUnits="userSpaceOnUse" x="190" y="193" width="9" height="9">
<path d="M198.618 197.735C198.618 200.032 196.757 201.893 194.46 201.893C192.163 201.893 190.302 200.032 190.302 197.735C190.302 195.438 192.163 193.576 194.46 193.576C196.757 193.576 198.618 195.438 198.618 197.735Z" fill="white"/>
</mask>
<g mask="url(#mask17_33_1195)">
<path d="M199.549 197.688C199.549 199.985 197.688 201.846 195.391 201.846C193.094 201.846 191.233 199.985 191.233 197.688C191.233 195.39 193.094 193.529 195.391 193.529C197.688 193.529 199.549 195.39 199.549 197.688Z" fill="#022E5A"/>
</g>
<path d="M205.686 209.903C205.686 212.2 203.825 214.061 201.528 214.061C199.231 214.061 197.37 212.2 197.37 209.903C197.37 207.606 199.231 205.745 201.528 205.745C203.825 205.745 205.686 207.606 205.686 209.903Z" fill="#0B2743"/>
<mask id="mask18_33_1195" style="mask-type:luminance" maskUnits="userSpaceOnUse" x="197" y="205" width="9" height="10">
<path d="M205.686 209.903C205.686 212.2 203.825 214.061 201.528 214.061C199.231 214.061 197.37 212.2 197.37 209.903C197.37 207.606 199.231 205.745 201.528 205.745C203.825 205.745 205.686 207.606 205.686 209.903Z" fill="white"/>
</mask>
<g mask="url(#mask18_33_1195)">
<path d="M206.617 209.868C206.617 212.165 204.756 214.026 202.459 214.026C200.162 214.026 198.301 212.165 198.301 209.868C198.301 207.571 200.162 205.71 202.459 205.71C204.756 205.71 206.617 207.571 206.617 209.868Z" fill="#022E5A"/>
</g>
<path d="M218.748 217.077C218.748 219.374 216.887 221.235 214.591 221.235C212.294 221.235 210.433 219.374 210.433 217.077C210.433 214.78 212.294 212.919 214.591 212.919C216.887 212.919 218.748 214.78 218.748 217.077Z" fill="#0B2743"/>
<mask id="mask19_33_1195" style="mask-type:luminance" maskUnits="userSpaceOnUse" x="210" y="212" width="9" height="10">
<path d="M218.747 217.077C218.747 219.374 216.886 221.235 214.59 221.235C212.293 221.235 210.432 219.374 210.432 217.077C210.432 214.78 212.293 212.919 214.59 212.919C216.886 212.919 218.747 214.78 218.747 217.077Z" fill="white"/>
</mask>
<g mask="url(#mask19_33_1195)">
<path d="M215.521 221.188C217.818 221.188 219.679 219.326 219.679 217.03C219.679 214.733 217.818 212.872 215.521 212.872C213.225 212.872 211.363 214.733 211.363 217.03C211.363 219.326 213.225 221.188 215.521 221.188Z" fill="#022E5A"/>
</g>
<path d="M233.072 216.877C233.072 219.174 231.211 221.035 228.914 221.035C226.617 221.035 224.756 219.174 224.756 216.877C224.756 214.58 226.617 212.718 228.914 212.718C231.211 212.718 233.072 214.58 233.072 216.877Z" fill="#0B2743"/>
<mask id="mask20_33_1195" style="mask-type:luminance" maskUnits="userSpaceOnUse" x="224" y="212" width="10" height="10">
<path d="M233.072 216.877C233.072 219.174 231.211 221.035 228.914 221.035C226.617 221.035 224.756 219.174 224.756 216.877C224.756 214.58 226.617 212.718 228.914 212.718C231.211 212.718 233.072 214.58 233.072 216.877Z" fill="white"/>
</mask>
<g mask="url(#mask20_33_1195)">
<path d="M234.002 216.83C234.002 219.127 232.141 220.988 229.844 220.988C227.548 220.988 225.687 219.127 225.687 216.83C225.687 214.532 227.548 212.671 229.844 212.671C232.141 212.671 234.002 214.532 234.002 216.83Z" fill="#022E5A"/>
</g>
<path d="M245.346 209.715C245.346 212.012 243.485 213.873 241.188 213.873C238.891 213.873 237.03 212.012 237.03 209.715C237.03 207.417 238.891 205.556 241.188 205.556C243.485 205.556 245.346 207.417 245.346 209.715Z" fill="#0B2743"/>
<mask id="mask21_33_1195" style="mask-type:luminance" maskUnits="userSpaceOnUse" x="237" y="205" width="9" height="9">
<path d="M245.347 209.715C245.347 212.012 243.486 213.873 241.189 213.873C238.892 213.873 237.031 212.012 237.031 209.715C237.031 207.418 238.892 205.556 241.189 205.556C243.486 205.556 245.347 207.418 245.347 209.715Z" fill="white"/>
</mask>
<g mask="url(#mask21_33_1195)">
<path d="M246.278 209.668C246.278 211.965 244.417 213.826 242.12 213.826C239.823 213.826 237.962 211.965 237.962 209.668C237.962 207.37 239.823 205.509 242.12 205.509C244.417 205.509 246.278 207.37 246.278 209.668Z" fill="#022E5A"/>
</g>
<path d="M168.877 31.8053H80.5359C77.2849 31.8053 74.6465 34.4439 74.6465 37.6951V64.1995C74.6465 67.4507 77.2849 70.0894 80.5359 70.0894H120.831L130.007 96.5938L129.536 70.0894H168.877C172.128 70.0894 174.766 67.4507 174.766 64.1995V37.6951C174.766 34.4439 172.128 31.8053 168.877 31.8053Z" fill="white" stroke="#012A53" stroke-miterlimit="10" stroke-linecap="round" stroke-linejoin="round"/>
<path d="M104.099 46.1174V56.7963H101.498V52.4H97.4516V56.7963H94.8504V46.1174H97.4516V50.3007H101.498V46.1174H104.099ZM113.979 52.4152C113.979 52.6586 113.963 52.9121 113.933 53.1758H108.046C108.087 53.7032 108.254 54.1088 108.548 54.3928C108.852 54.6666 109.222 54.8035 109.658 54.8035C110.307 54.8035 110.759 54.5297 111.012 53.982H113.781C113.639 54.5398 113.38 55.0418 113.005 55.488C112.64 55.9343 112.179 56.2841 111.621 56.5377C111.063 56.7912 110.439 56.918 109.75 56.918C108.918 56.918 108.178 56.7405 107.529 56.3855C106.88 56.0306 106.373 55.5235 106.008 54.8643C105.642 54.2052 105.46 53.4344 105.46 52.5521C105.46 51.6698 105.637 50.8991 105.992 50.2399C106.357 49.5807 106.864 49.0736 107.514 48.7187C108.163 48.3637 108.908 48.1863 109.75 48.1863C110.571 48.1863 111.301 48.3587 111.94 48.7035C112.579 49.0483 113.076 49.5401 113.431 50.179C113.796 50.8179 113.979 51.5633 113.979 52.4152ZM111.317 51.7307C111.317 51.2844 111.164 50.9295 110.86 50.6658C110.556 50.4022 110.176 50.2703 109.719 50.2703C109.283 50.2703 108.913 50.3971 108.609 50.6506C108.315 50.9041 108.132 51.2642 108.061 51.7307H111.317ZM117.952 45.5394V56.7963H115.351V45.5394H117.952ZM122.439 45.5394V56.7963H119.837V45.5394H122.439ZM128.187 56.918C127.356 56.918 126.605 56.7405 125.936 56.3855C125.277 56.0306 124.755 55.5235 124.369 54.8643C123.994 54.2052 123.806 53.4344 123.806 52.5521C123.806 51.68 123.999 50.9143 124.384 50.2551C124.77 49.5858 125.297 49.0736 125.967 48.7187C126.636 48.3637 127.386 48.1863 128.218 48.1863C129.049 48.1863 129.8 48.3637 130.469 48.7187C131.139 49.0736 131.666 49.5858 132.051 50.2551C132.437 50.9143 132.629 51.68 132.629 52.5521C132.629 53.4243 132.432 54.195 132.036 54.8643C131.651 55.5235 131.118 56.0306 130.439 56.3855C129.77 56.7405 129.019 56.918 128.187 56.918ZM128.187 54.6666C128.684 54.6666 129.105 54.484 129.45 54.119C129.805 53.7539 129.982 53.2316 129.982 52.5521C129.982 51.8726 129.81 51.3504 129.465 50.9853C129.131 50.6202 128.715 50.4376 128.218 50.4376C127.711 50.4376 127.29 50.6202 126.955 50.9853C126.621 51.3402 126.453 51.8625 126.453 52.5521C126.453 53.2316 126.616 53.7539 126.94 54.119C127.275 54.484 127.691 54.6666 128.187 54.6666Z" fill="#012A53"/>
<path d="M137.432 45.7371L137.128 53.0237H134.922L134.618 45.7371H137.432ZM136.063 56.918C135.607 56.918 135.231 56.7861 134.937 56.5224C134.653 56.2486 134.511 55.914 134.511 55.5185C134.511 55.1128 134.653 54.7731 134.937 54.4993C135.231 54.2254 135.607 54.0885 136.063 54.0885C136.509 54.0885 136.874 54.2254 137.158 54.4993C137.452 54.7731 137.599 55.1128 137.599 55.5185C137.599 55.914 137.452 56.2486 137.158 56.5224C136.874 56.7861 136.509 56.918 136.063 56.918Z" fill="#045CB4"/>
<path d="M302.673 28.8957H257.325C254.074 28.8957 251.436 31.5343 251.436 34.7855V61.8789C251.436 65.1301 254.074 67.7688 257.325 67.7688H281.165L295.017 83.6714L293.392 67.7688H302.673C305.924 67.7688 308.563 65.1301 308.563 61.8789V34.7855C308.563 31.5343 305.924 28.8957 302.673 28.8957Z" fill="white" stroke="#012A53" stroke-miterlimit="10" stroke-linecap="round" stroke-linejoin="round"/>
<path d="M288.822 38.6728C292.697 38.6728 295.406 40.7696 295.406 44.6452C295.406 48.2498 292.815 50.1934 289.152 50.2287L289.01 52.3255H284.829L284.687 47.1307H286.36C288.987 47.1307 290.801 46.6595 290.765 44.6216C290.765 43.3611 289.988 42.5837 288.751 42.5837C287.385 42.5837 286.631 43.42 286.631 44.704H282.143C282.072 41.3586 284.416 38.6728 288.822 38.6728ZM286.984 59.5701C285.288 59.5701 284.134 58.4274 284.134 57.0021C284.134 55.5178 285.276 54.3752 286.984 54.3752C288.657 54.3752 289.799 55.5178 289.799 57.0021C289.799 58.4274 288.657 59.5701 286.984 59.5701Z" fill="#045CB4"/>
<path d="M271.588 59.5701C267.713 59.5701 265.004 57.4733 265.004 53.5977C265.004 49.9931 267.595 48.0495 271.258 48.0141L271.4 45.9173H275.581L275.723 51.1122H274.05C271.423 51.1122 269.609 51.5834 269.645 53.6213C269.645 54.8817 270.422 55.6592 271.659 55.6592C273.025 55.6592 273.779 54.8228 273.779 53.5388H278.267C278.349 56.8961 276.005 59.5701 271.588 59.5701ZM273.438 38.6728C275.134 38.6728 276.288 39.8154 276.288 41.2408C276.288 42.725 275.145 43.8677 273.438 43.8677C271.765 43.8677 270.622 42.725 270.622 41.2408C270.611 39.8154 271.765 38.6728 273.438 38.6728Z" fill="#045CB4"/>
<path d="M415.078 50.6882H332.238C329.246 50.6882 326.819 53.1148 326.819 56.1069V99.4327C326.819 102.425 329.246 104.851 332.238 104.851H368.175L353.805 136.268L380.507 104.851H415.078C418.07 104.851 420.496 102.425 420.496 99.4327V56.1069C420.496 53.1148 418.07 50.6882 415.078 50.6882Z" fill="white" stroke="#012A53" stroke-miterlimit="10" stroke-linecap="round" stroke-linejoin="round"/>
<path d="M341.97 70.6954C341.97 69.9776 342.125 69.3391 342.436 68.78C342.746 68.214 343.178 67.7757 343.73 67.465C344.289 67.1475 344.92 66.9888 345.624 66.9888C346.487 66.9888 347.226 67.2166 347.84 67.6721C348.455 68.1277 348.865 68.7489 349.072 69.5358H347.126C346.981 69.2321 346.774 69.0009 346.505 68.8421C346.242 68.6833 345.942 68.604 345.604 68.604C345.058 68.604 344.617 68.7938 344.279 69.1734C343.94 69.5531 343.771 70.0604 343.771 70.6954C343.771 71.3305 343.94 71.8378 344.279 72.2174C344.617 72.5971 345.058 72.7869 345.604 72.7869C345.942 72.7869 346.242 72.7075 346.505 72.5488C346.774 72.39 346.981 72.1588 347.126 71.8551H349.072C348.865 72.6419 348.455 73.2632 347.84 73.7187C347.226 74.1674 346.487 74.3917 345.624 74.3917C344.92 74.3917 344.289 74.2364 343.73 73.9258C343.178 73.6083 342.746 73.17 342.436 72.6109C342.125 72.0518 341.97 71.4133 341.97 70.6954ZM349.805 71.4409C349.805 70.8473 349.915 70.3261 350.136 69.8775C350.364 69.4288 350.671 69.0837 351.057 68.8421C351.444 68.6005 351.875 68.4797 352.352 68.4797C352.759 68.4797 353.114 68.5625 353.418 68.7282C353.729 68.8939 353.967 69.1113 354.132 69.3805V68.5625H355.903V74.34H354.132V73.522C353.96 73.7912 353.718 74.0086 353.408 74.1743C353.104 74.34 352.748 74.4228 352.341 74.4228C351.872 74.4228 351.444 74.302 351.057 74.0604C350.671 73.8119 350.364 73.4633 350.136 73.0147C349.915 72.5591 349.805 72.0345 349.805 71.4409ZM354.132 71.4513C354.132 71.0095 354.008 70.6609 353.76 70.4055C353.518 70.1501 353.221 70.0224 352.869 70.0224C352.517 70.0224 352.217 70.1501 351.968 70.4055C351.727 70.654 351.606 70.9991 351.606 71.4409C351.606 71.8827 351.727 72.2347 351.968 72.497C352.217 72.7524 352.517 72.8801 352.869 72.8801C353.221 72.8801 353.518 72.7524 353.76 72.497C354.008 72.2416 354.132 71.893 354.132 71.4513ZM360.704 68.5004C361.381 68.5004 361.919 68.7213 362.319 69.1631C362.727 69.5979 362.93 70.1984 362.93 70.9646V74.34H361.17V71.2028C361.17 70.8162 361.07 70.516 360.87 70.302C360.67 70.088 360.4 69.981 360.062 69.981C359.724 69.981 359.455 70.088 359.255 70.302C359.054 70.516 358.954 70.8162 358.954 71.2028V74.34H357.184V68.5625H358.954V69.3287C359.134 69.0733 359.375 68.8732 359.679 68.7282C359.983 68.5764 360.324 68.5004 360.704 68.5004ZM370.319 67.0716V74.34H368.549V67.0716H370.319Z" fill="#012A53"/>
<path d="M346.193 84.0903C346.856 84.0903 347.387 84.3112 347.788 84.753C348.188 85.1878 348.388 85.7884 348.388 86.5545V89.9299H346.628V86.7927C346.628 86.4061 346.528 86.1059 346.328 85.8919C346.128 85.6779 345.859 85.5709 345.52 85.5709C345.182 85.5709 344.913 85.6779 344.713 85.8919C344.513 86.1059 344.412 86.4061 344.412 86.7927V89.9299H342.642V82.2681H344.412V84.929C344.592 84.6736 344.837 84.47 345.148 84.3181C345.458 84.1663 345.807 84.0903 346.193 84.0903ZM355.065 86.948C355.065 87.1136 355.054 87.2862 355.034 87.4657H351.027C351.054 87.8246 351.168 88.1007 351.368 88.294C351.575 88.4803 351.827 88.5735 352.124 88.5735C352.566 88.5735 352.873 88.3872 353.046 88.0144H354.93C354.833 88.3941 354.657 88.7357 354.402 89.0394C354.154 89.3432 353.84 89.5813 353.46 89.7539C353.08 89.9264 352.656 90.0127 352.186 90.0127C351.62 90.0127 351.116 89.8919 350.675 89.6503C350.233 89.4087 349.888 89.0636 349.639 88.6149C349.391 88.1663 349.267 87.6417 349.267 87.0412C349.267 86.4406 349.387 85.916 349.629 85.4674C349.877 85.0187 350.223 84.6736 350.664 84.432C351.106 84.1904 351.613 84.0696 352.186 84.0696C352.745 84.0696 353.242 84.187 353.677 84.4216C354.112 84.6563 354.45 84.9911 354.692 85.426C354.94 85.8608 355.065 86.3682 355.065 86.948ZM353.253 86.4821C353.253 86.1783 353.149 85.9368 352.942 85.7573C352.735 85.5778 352.476 85.4881 352.166 85.4881C351.869 85.4881 351.617 85.5744 351.41 85.7469C351.21 85.9195 351.085 86.1645 351.037 86.4821H353.253ZM357.769 82.2681V89.9299H355.999V82.2681H357.769ZM360.823 84.9704C360.995 84.7012 361.234 84.4838 361.537 84.3181C361.841 84.1524 362.196 84.0696 362.604 84.0696C363.08 84.0696 363.511 84.1904 363.898 84.432C364.284 84.6736 364.588 85.0187 364.809 85.4674C365.037 85.916 365.151 86.4372 365.151 87.0308C365.151 87.6244 365.037 88.149 364.809 88.6046C364.588 89.0532 364.284 89.4018 363.898 89.6503C363.511 89.8919 363.08 90.0127 362.604 90.0127C362.203 90.0127 361.848 89.9299 361.537 89.7642C361.234 89.5985 360.995 89.3846 360.823 89.1223V92.684H359.052V84.1525H360.823V84.9704ZM363.349 87.0308C363.349 86.589 363.225 86.2439 362.976 85.9954C362.735 85.74 362.435 85.6123 362.076 85.6123C361.724 85.6123 361.423 85.74 361.175 85.9954C360.933 86.2508 360.812 86.5994 360.812 87.0412C360.812 87.4829 360.933 87.8315 361.175 88.0869C361.423 88.3423 361.724 88.47 362.076 88.47C362.428 88.47 362.728 88.3423 362.976 88.0869C363.225 87.8246 363.349 87.4726 363.349 87.0308ZM374.175 84.1525L370.551 92.6736H368.646L369.972 89.7331L367.621 84.1525H369.599L370.935 87.7659L372.26 84.1525H374.175ZM377.445 90.0127C376.879 90.0127 376.369 89.8919 375.913 89.6503C375.464 89.4087 375.109 89.0636 374.847 88.6149C374.591 88.1663 374.464 87.6417 374.464 87.0412C374.464 86.4475 374.595 85.9264 374.857 85.4777C375.119 85.0222 375.478 84.6736 375.934 84.432C376.389 84.1904 376.9 84.0696 377.466 84.0696C378.032 84.0696 378.543 84.1904 378.998 84.432C379.454 84.6736 379.813 85.0222 380.075 85.4777C380.338 85.9264 380.469 86.4475 380.469 87.0412C380.469 87.6348 380.334 88.1594 380.065 88.6149C379.803 89.0636 379.44 89.4087 378.978 89.6503C378.522 89.8919 378.011 90.0127 377.445 90.0127ZM377.445 88.4803C377.784 88.4803 378.07 88.3561 378.305 88.1076C378.546 87.8591 378.667 87.5036 378.667 87.0412C378.667 86.5787 378.55 86.2232 378.315 85.9747C378.087 85.7262 377.804 85.602 377.466 85.602C377.121 85.602 376.835 85.7262 376.607 85.9747C376.379 86.2163 376.265 86.5718 376.265 87.0412C376.265 87.5036 376.376 87.8591 376.596 88.1076C376.824 88.3561 377.107 88.4803 377.445 88.4803ZM387.113 84.1525V89.9299H385.342V89.143C385.163 89.3984 384.918 89.6055 384.607 89.7642C384.304 89.9161 383.965 89.992 383.593 89.992C383.151 89.992 382.761 89.8954 382.423 89.7021C382.084 89.5019 381.822 89.2155 381.636 88.8427C381.449 88.47 381.356 88.0317 381.356 87.5278V84.1525H383.116V87.2897C383.116 87.6762 383.216 87.9765 383.417 88.1904C383.617 88.4044 383.886 88.5114 384.224 88.5114C384.569 88.5114 384.842 88.4044 385.042 88.1904C385.242 87.9765 385.342 87.6762 385.342 87.2897V84.1525H387.113ZM390.507 82.2577C391.246 82.2577 391.836 82.451 392.278 82.8375C392.726 83.2241 392.951 83.7694 392.951 84.4734C392.951 85.1223 392.737 85.6296 392.309 85.9954C391.888 86.3544 391.329 86.5373 390.631 86.5442L390.58 87.3207H389.027L388.975 85.3949H389.596C390.128 85.3949 390.531 85.3293 390.807 85.1982C391.09 85.067 391.232 84.8289 391.232 84.4838C391.232 84.2422 391.166 84.0524 391.035 83.9143C390.904 83.7763 390.721 83.7072 390.487 83.7072C390.238 83.7072 390.045 83.7797 389.907 83.9247C389.769 84.0627 389.7 84.2525 389.7 84.4941H388.033C388.019 84.0731 388.105 83.6934 388.292 83.3552C388.485 83.017 388.768 82.7512 389.141 82.558C389.52 82.3578 389.976 82.2577 390.507 82.2577ZM389.824 90.0127C389.513 90.0127 389.258 89.923 389.058 89.7435C388.864 89.5571 388.768 89.3294 388.768 89.0602C388.768 88.7841 388.864 88.5528 389.058 88.3664C389.258 88.1801 389.513 88.0869 389.824 88.0869C390.128 88.0869 390.376 88.1801 390.569 88.3664C390.77 88.5528 390.87 88.7841 390.87 89.0602C390.87 89.3294 390.77 89.5571 390.569 89.7435C390.376 89.923 390.128 90.0127 389.824 90.0127Z" fill="#012A53"/>
<path d="M203.424 6.27863H173.977C170.726 6.27863 168.088 8.91729 168.088 12.1685V47.1189C168.088 50.3701 170.726 53.0088 173.977 53.0088H186.946L199.408 67.7335L197.252 53.0559L203.436 53.0088C206.687 53.0088 209.325 50.3701 209.325 47.1189V12.1685C209.314 8.91729 206.687 6.27863 203.424 6.27863Z" fill="white" stroke="#012A53" stroke-miterlimit="10"/>
<path d="M184.876 29.9582C185.849 29.9582 186.63 30.2827 187.218 30.9318C187.807 31.5707 188.101 32.453 188.101 33.5787V38.5378H185.515V33.9285C185.515 33.3606 185.368 32.9195 185.073 32.6051C184.779 32.2907 184.384 32.1335 183.887 32.1335C183.39 32.1335 182.994 32.2907 182.7 32.6051C182.406 32.9195 182.259 33.3606 182.259 33.9285V38.5378H179.658V27.2809H182.259V31.1904C182.523 30.8152 182.883 30.516 183.339 30.2929C183.796 30.0698 184.308 29.9582 184.876 29.9582ZM191.216 29.1672C190.76 29.1672 190.385 29.0354 190.091 28.7717C189.807 28.4979 189.665 28.1632 189.665 27.7677C189.665 27.362 189.807 27.0274 190.091 26.7637C190.385 26.4899 190.76 26.353 191.216 26.353C191.663 26.353 192.028 26.4899 192.312 26.7637C192.606 27.0274 192.753 27.362 192.753 27.7677C192.753 28.1632 192.606 28.4979 192.312 28.7717C192.028 29.0354 191.663 29.1672 191.216 29.1672ZM192.51 30.0495V38.5378H189.908V30.0495H192.51Z" fill="#045CB4"/>
</svg>
