<svg width="442" height="409" viewBox="0 0 442 409" fill="none" xmlns="http://www.w3.org/2000/svg">
<path d="M396.447 334.509C388.488 342.885 380.958 348.286 375.009 352.554C305.076 402.718 222.325 388.095 204.739 384.524C178.769 379.251 128.569 369.058 92.2761 326.39C37.3671 261.836 45.9167 160.136 88.5089 93.0004C96.2992 80.7205 137.451 12.5632 221.093 1.63328C271.712 -4.98142 330.717 8.35919 373.447 44.1492C463.141 119.273 456.756 271.037 396.448 334.509H396.447Z" fill="#045CB4" fill-opacity="0.22"/>
<path d="M207.414 216.334C207.414 216.334 206.616 86.1909 161.54 4.90578C158.51 -0.55781 150.645 -0.534176 147.683 4.96834C127.879 41.7565 79.7938 156.103 207.414 216.334Z" fill="#82AEDA"/>
<path opacity="0.5" d="M196.952 205.545C197.185 205.909 196.679 206.283 196.398 205.954C186.067 193.813 148.365 137.164 151.489 42.3016C151.499 41.9971 151.954 41.9846 151.97 42.2891C153.173 64.7218 160.032 148.001 196.952 205.546V205.545Z" fill="white"/>
<path d="M179.406 214.719C180.877 215.964 171.304 95.3762 103.09 11.3439C99.136 6.47398 91.475 7.5236 89.3321 13.4196C75.0072 52.8436 43.8641 173.428 179.406 214.719Z" fill="#045CB4" fill-opacity="0.75"/>
<path opacity="0.24" d="M167.441 205.52C167.726 205.848 167.276 206.293 166.951 206.006C154.924 195.446 109.23 144.649 98.5405 49.9548C98.5057 49.6504 98.9563 49.5725 99.0161 49.8728C103.473 71.9844 122.397 153.719 167.441 205.521V205.52Z" fill="white"/>
<path d="M417.904 149.214C417.85 146.79 415.526 144.796 412.675 144.796H304.964C302.076 144.796 299.24 146.895 299.24 149.352V368.956C299.24 370.138 300.041 371.271 301.025 372.106C302.008 372.941 303.465 373.408 304.856 373.405L417.475 373.144C418.876 373.141 420.247 372.658 421.228 371.806C422.208 370.954 422.76 369.776 422.734 368.584L417.904 149.214Z" fill="#82AEDA"/>
<path d="M338.581 170.672L307.896 170.638L307.652 157.257H338.367L338.581 170.672Z" fill="#045CB4" fill-opacity="0.75"/>
<path d="M372.975 170.667L342.321 170.63L342.111 157.256H372.795L372.975 170.667Z" fill="#045CB4" fill-opacity="0.75"/>
<path d="M407.334 170.66L376.711 170.625L376.535 157.256H407.187L407.334 170.66Z" fill="#045CB4" fill-opacity="0.75"/>
<path d="M338.964 194.691L308.333 194.708L308.091 181.415L338.751 181.403L338.964 194.691Z" fill="#045CB4" fill-opacity="0.75"/>
<path d="M373.299 194.673L342.698 194.69L342.49 181.402L373.119 181.392L373.299 194.673Z" fill="#045CB4" fill-opacity="0.75"/>
<path d="M407.599 194.654L377.028 194.67L376.853 181.391L407.453 181.38L407.599 194.654Z" fill="#045CB4" fill-opacity="0.75"/>
<path d="M339.346 218.545L308.769 218.573L308.527 205.325L339.135 205.303L339.346 218.545Z" fill="#045CB4" fill-opacity="0.75"/>
<path d="M373.621 218.514L343.073 218.542L342.865 205.301L373.442 205.279L373.621 218.514Z" fill="#045CB4" fill-opacity="0.75"/>
<path d="M407.861 218.483L377.344 218.511L377.168 205.276L407.715 205.255L407.861 218.483Z" fill="#045CB4" fill-opacity="0.75"/>
<path d="M339.727 242.316L309.203 242.354L308.961 229.152L339.516 229.12L339.727 242.316Z" fill="#045CB4" fill-opacity="0.75"/>
<path d="M373.943 242.273L343.447 242.312L343.24 229.116L373.765 229.084L373.943 242.273Z" fill="#045CB4" fill-opacity="0.75"/>
<path d="M408.123 242.231L377.66 242.269L377.484 229.08L407.978 229.048L408.123 242.231Z" fill="#045CB4" fill-opacity="0.75"/>
<path d="M340.107 266.006L309.636 266.053L309.395 252.897L339.896 252.854L340.107 266.006Z" fill="#045CB4" fill-opacity="0.75"/>
<path d="M374.263 265.951L343.822 265.999L343.615 252.85L374.085 252.807L374.263 265.951Z" fill="#045CB4" fill-opacity="0.75"/>
<path d="M408.384 265.897L377.973 265.944L377.799 252.801L408.24 252.76L408.384 265.897Z" fill="#045CB4" fill-opacity="0.75"/>
<path d="M340.485 289.612L310.065 289.671L309.826 276.56L340.275 276.507L340.485 289.612Z" fill="#045CB4" fill-opacity="0.75"/>
<path d="M374.582 289.546L344.193 289.605L343.987 276.5L374.404 276.448L374.582 289.546Z" fill="#045CB4" fill-opacity="0.75"/>
<path d="M408.644 289.481L378.286 289.539L378.112 276.44L408.5 276.387L408.644 289.481Z" fill="#045CB4" fill-opacity="0.75"/>
<path d="M340.862 313.138L310.495 313.207L310.257 300.141L340.652 300.079L340.862 313.138Z" fill="#045CB4" fill-opacity="0.75"/>
<path d="M374.899 313.061L344.564 313.13L344.358 300.07L374.723 300.006L374.899 313.061Z" fill="#045CB4" fill-opacity="0.75"/>
<path d="M408.904 312.983L378.597 313.052L378.424 299.999L408.759 299.935L408.904 312.983Z" fill="#045CB4" fill-opacity="0.75"/>
<path d="M341.238 336.583L310.923 336.662L310.686 323.642L341.029 323.568L341.238 336.583Z" fill="#045CB4" fill-opacity="0.75"/>
<path d="M375.216 336.494L344.933 336.573L344.728 323.559L375.041 323.486L375.216 336.494Z" fill="#045CB4" fill-opacity="0.75"/>
<path d="M409.162 336.405L378.909 336.484L378.736 323.476L409.018 323.402L409.162 336.405Z" fill="#045CB4" fill-opacity="0.75"/>
<path d="M341.612 359.947L311.35 360.038L311.112 347.061L341.404 346.977L341.612 359.947Z" fill="#045CB4" fill-opacity="0.75"/>
<path d="M375.532 359.847L345.301 359.936L345.097 346.967L375.357 346.884L375.532 359.847Z" fill="#045CB4" fill-opacity="0.75"/>
<path d="M409.419 359.747L379.217 359.836L379.046 346.872L409.277 346.789L409.419 359.747Z" fill="#045CB4" fill-opacity="0.75"/>
<path d="M207.161 120.947C207.121 119.276 205.346 117.93 203.173 117.93H71.3384C69.1357 117.93 66.7966 119.316 66.7966 121.011V357.661C66.7966 358.926 67.7284 360.138 68.8923 361.031C70.0563 361.923 71.7737 362.424 73.4174 362.419L206.697 362.14C208.356 362.137 209.977 361.621 211.137 360.709C212.297 359.797 212.95 358.563 212.918 357.288L207.161 120.947Z" fill="#B4CEE9"/>
<g style="mix-blend-mode:overlay">
<path d="M131.449 134.701L88.3232 134.587L88.3385 130.436L131.417 130.542L131.449 134.701Z" fill="#045CB4"/>
</g>
<g style="mix-blend-mode:overlay">
<path d="M131.568 149.989L88.2637 149.837L88.2804 145.652L131.536 145.794L131.568 149.989Z" fill="#045CB4"/>
</g>
<g style="mix-blend-mode:overlay">
<path d="M131.687 165.402L88.2039 165.211L88.2205 160.994L131.654 161.173L131.687 165.402Z" fill="#045CB4"/>
</g>
<g style="mix-blend-mode:overlay">
<path d="M131.807 180.943L88.1438 180.715L88.1605 176.461L131.775 176.678L131.807 180.943Z" fill="#045CB4"/>
</g>
<g style="mix-blend-mode:overlay">
<path d="M131.928 196.614L88.0842 196.347L88.1009 192.057L131.895 192.314L131.928 196.614Z" fill="#045CB4"/>
</g>
<g style="mix-blend-mode:overlay">
<path d="M132.174 228.35L87.9604 228.002L87.9785 223.641L132.141 223.978L132.174 228.35Z" fill="#045CB4"/>
</g>
<g style="mix-blend-mode:overlay">
<path d="M132.55 276.968L87.7727 276.495L87.7908 272.021L132.515 272.483L132.55 276.968Z" fill="#045CB4"/>
</g>
<g style="mix-blend-mode:overlay">
<path d="M132.05 212.415L88.0227 212.108L88.0394 207.783L132.017 208.079L132.05 212.415Z" fill="#045CB4"/>
</g>
<g style="mix-blend-mode:overlay">
<path d="M132.298 244.42L87.8992 244.03L87.9159 239.632L132.264 240.01L132.298 244.42Z" fill="#045CB4"/>
</g>
<g style="mix-blend-mode:overlay">
<path d="M132.423 260.624L87.8367 260.195L87.8534 255.758L132.39 256.177L132.423 260.624Z" fill="#045CB4"/>
</g>
<g style="mix-blend-mode:overlay">
<path d="M132.677 293.45L87.71 292.934L87.7266 288.423L132.643 288.926L132.677 293.45Z" fill="#045CB4"/>
</g>
<g style="mix-blend-mode:overlay">
<path d="M132.805 310.075L87.6448 309.514L87.6629 304.964L132.771 305.512L132.805 310.075Z" fill="#045CB4"/>
</g>
<g style="mix-blend-mode:overlay">
<path d="M132.936 326.842L87.5806 326.238L87.5973 321.648L132.9 322.241L132.936 326.842Z" fill="#045CB4"/>
</g>
<g style="mix-blend-mode:overlay">
<path d="M133.067 343.754L87.5154 343.105L87.5335 338.477L133.031 339.114L133.067 343.754Z" fill="#045CB4"/>
</g>
<g style="mix-blend-mode:overlay">
<path d="M187.991 134.852L144.595 134.736L144.548 130.574L187.895 130.678L187.991 134.852Z" fill="#045CB4"/>
</g>
<g style="mix-blend-mode:overlay">
<path d="M188.343 150.187L144.767 150.034L144.72 145.837L188.247 145.979L188.343 150.187Z" fill="#045CB4"/>
</g>
<g style="mix-blend-mode:overlay">
<path d="M188.699 165.651L144.941 165.459L144.893 161.227L188.602 161.408L188.699 165.651Z" fill="#045CB4"/>
</g>
<g style="mix-blend-mode:overlay">
<path d="M189.056 181.242L145.117 181.013L145.068 176.745L188.958 176.964L189.056 181.242Z" fill="#045CB4"/>
</g>
<g style="mix-blend-mode:overlay">
<path d="M189.418 196.964L145.293 196.695L145.245 192.392L189.318 192.65L189.418 196.964Z" fill="#045CB4"/>
</g>
<g style="mix-blend-mode:overlay">
<path d="M190.148 228.805L145.65 228.456L145.602 224.079L190.047 224.419L190.148 228.805Z" fill="#045CB4"/>
</g>
<g style="mix-blend-mode:overlay">
<path d="M191.267 277.586L146.2 277.111L146.148 272.623L191.164 273.086L191.267 277.586Z" fill="#045CB4"/>
</g>
<g style="mix-blend-mode:overlay">
<path d="M189.781 212.818L145.471 212.508L145.423 208.169L189.681 208.467L189.781 212.818Z" fill="#045CB4"/>
</g>
<g style="mix-blend-mode:overlay">
<path d="M190.518 244.928L145.833 244.538L145.783 240.124L190.417 240.503L190.518 244.928Z" fill="#045CB4"/>
</g>
<g style="mix-blend-mode:overlay">
<path d="M190.892 261.189L146.015 260.755L145.965 256.305L190.789 256.726L190.892 261.189Z" fill="#045CB4"/>
</g>
<g style="mix-blend-mode:overlay">
<path d="M191.647 294.126L146.385 293.607L146.335 289.081L191.543 289.587L191.647 294.126Z" fill="#045CB4"/>
</g>
<g style="mix-blend-mode:overlay">
<path d="M192.031 310.807L146.573 310.244L146.521 305.679L191.925 306.229L192.031 310.807Z" fill="#045CB4"/>
</g>
<g style="mix-blend-mode:overlay">
<path d="M192.416 327.634L146.762 327.026L146.71 322.421L192.311 323.016L192.416 327.634Z" fill="#045CB4"/>
</g>
<g style="mix-blend-mode:overlay">
<path d="M192.807 344.606L146.954 343.953L146.901 339.307L192.7 339.948L192.807 344.606Z" fill="#045CB4"/>
</g>
<path d="M358.965 63.1621C356.332 61.3103 355.698 57.6623 357.551 55.0306C359.403 52.3989 363.052 51.765 365.684 53.6168C368.317 55.4686 368.951 59.1165 367.099 61.7482C365.246 64.3799 361.597 65.0138 358.965 63.1621ZM360.299 61.2686C361.887 62.3849 364.087 62.0026 365.203 60.4164C366.32 58.8287 365.938 56.6294 364.351 55.513C362.763 54.3967 360.563 54.779 359.446 56.3652C358.329 57.9529 358.712 60.1522 360.299 61.2686Z" fill="white"/>
<path d="M352.141 51.2255C348.189 56.8392 349.542 64.6203 355.157 68.5713C355.505 68.816 355.862 69.0384 356.225 69.2414C356.715 69.5139 356.826 70.1659 356.439 70.5719L355.175 71.8981C354.898 72.1873 354.46 72.2415 354.117 72.0358C353.791 71.8411 353.47 71.634 353.156 71.413C345.973 66.3595 344.243 56.4068 349.298 49.2263C349.681 48.6827 350.094 48.1711 350.53 47.6915C350.857 47.3328 351.416 47.3148 351.761 47.6568L353.029 48.9149C353.351 49.2333 353.363 49.7449 353.06 50.0799C352.735 50.4386 352.426 50.8195 352.141 51.2255Z" fill="white"/>
<path d="M344.8 46.0594C337.998 55.7201 340.327 69.1108 349.991 75.9104L349.999 75.9159C350.422 76.2134 350.49 76.8126 350.133 77.1866L348.892 78.4878C348.47 78.5295 348.198 78.5574 347.776 78.5991C336.726 70.6511 334.104 55.2154 341.959 44.0603C342.644 43.0871 343.39 42.1807 344.185 41.3382C344.508 40.9948 345.054 40.9962 345.389 41.3285L346.653 42.5838C346.976 42.9036 346.993 43.4235 346.683 43.7544C346.012 44.469 345.382 45.2364 344.802 46.0594H344.8Z" fill="white"/>
<path d="M337.458 40.8933C328.058 54.2437 330.954 72.6128 343.779 82.4722C344.183 82.7823 344.237 83.3662 343.886 83.7346L342.656 85.0247C342.357 85.3375 341.866 85.3806 341.524 85.1151C327.35 74.1017 324.177 53.7224 334.617 38.8928C335.597 37.4998 336.669 36.2097 337.812 35.0141C338.138 34.6735 338.684 34.6735 339.019 35.0057L340.282 36.2597C340.612 36.5864 340.612 37.1119 340.29 37.4484C339.278 38.5119 338.328 39.6574 337.458 40.8933Z" fill="white"/>
<path d="M378.497 51.4369H378.148C377.309 51.4369 376.628 52.1172 376.628 52.9564V75.891C376.628 76.7302 377.309 77.4105 378.148 77.4105H378.497C379.337 77.4105 380.017 76.7302 380.017 75.891V52.9564C380.017 52.1172 379.337 51.4369 378.497 51.4369Z" fill="#045CB4"/>
<path d="M389.345 99.0267L385.016 99.5167L385.996 108.173L390.325 107.683L389.345 99.0267Z" fill="#045CB4"/>
<path d="M393.921 89.7292C393.885 89.4108 393.653 89.1494 393.341 89.0757C393.03 89.0021 392.704 89.1327 392.531 89.4025L388.884 95.0384C388.427 95.7461 388.243 96.5983 388.37 97.431L390.079 108.728C390.201 109.534 390.605 110.273 391.219 110.811L395.394 114.465C395.629 114.671 395.968 114.712 396.245 114.567C396.523 114.422 396.682 114.121 396.647 113.809L393.92 89.7278L393.921 89.7292Z" fill="#045CB4"/>
<path d="M367.442 99.0529L366.461 107.709L370.791 108.199L371.771 99.5429L367.442 99.0529Z" fill="#045CB4"/>
<path d="M362.846 89.7292C362.882 89.4108 363.114 89.1494 363.426 89.0757C363.737 89.0021 364.063 89.1327 364.237 89.4025L367.883 95.0384C368.34 95.7461 368.524 96.5983 368.397 97.431L366.688 108.728C366.566 109.534 366.163 110.273 365.548 110.811L361.373 114.465C361.138 114.671 360.799 114.712 360.522 114.567C360.244 114.422 360.086 114.121 360.12 113.809L362.848 89.7278L362.846 89.7292Z" fill="#045CB4"/>
<path d="M392.218 142.563L391.496 137.129C391.496 137.129 391.496 137.122 391.496 137.119L383.505 76.8752C383.402 76.1022 382.743 75.4321 381.963 75.4321H374.287C373.493 75.4321 372.658 76.1217 372.574 76.9113L371.831 82.2985V82.3026L365.312 143.917C365.219 144.772 365.92 145.54 366.775 145.633C366.832 145.639 366.93 145.643 366.986 145.643C367.77 145.643 368.466 145.052 368.552 144.255L369.094 139.355L378.808 135.799L388.545 138.537L389.135 142.971C389.247 143.822 390.026 144.417 390.883 144.308C391.735 144.196 392.334 143.413 392.22 142.561L392.218 142.563ZM374.847 86.4038L376.239 88.1485L374.368 90.8219L374.847 86.4052V86.4038ZM381.304 113.12L384.831 110.584L385.532 115.857L381.305 113.12H381.304ZM384.646 118.991L378.683 122.819L372.575 119.398L378.591 115.07L384.646 118.991ZM378.499 111.304L373.454 108.037L378.324 103.612L383.46 107.735L378.499 111.304ZM380.656 101.495L383.302 99.091L383.975 104.161L380.655 101.496L380.656 101.495ZM382.175 90.5925L380.125 88.0262L381.561 85.9756L382.175 90.5925ZM382.328 95.7725L378.199 99.5234L374.277 96.3759L378.263 90.6843L382.326 95.7739L382.328 95.7725ZM373.408 99.6666L375.867 101.641L372.9 104.335L373.407 99.6666H373.408ZM372.187 110.923L375.787 113.255L371.607 116.262L372.187 110.923ZM370.977 122.069L375.716 124.724L370.312 128.194L370.977 122.07V122.069ZM378.793 126.446L385.319 130.103L378.683 132.533L372.166 130.701L378.791 126.446H378.793ZM381.759 124.542L386.296 121.628L387.079 127.523L381.757 124.542H381.759ZM380.598 78.8201L380.955 81.4629L378.101 85.514L375.324 82.0705L375.68 78.8201H380.598ZM369.475 135.906L369.763 133.256L373.692 134.361L369.475 135.906ZM383.799 133.972L387.744 132.527L388.097 135.181L383.799 133.972Z" fill="#045CB4"/>
<path d="M321.439 368.645C321.378 374.723 316.155 379.651 309.77 379.665L155.458 380.002C149.028 380.015 143.692 375.091 143.539 368.988L136.348 81.6547C136.177 74.8231 141.574 69.2984 148.401 69.3303L312.201 70.113C318.976 70.145 324.41 75.699 324.341 82.5L321.439 368.645Z" fill="#023246"/>
<path d="M307.531 99.0838C307.577 92.5192 302.189 87.1612 295.495 87.132L165.488 86.5607C158.753 86.5315 153.407 91.8602 153.552 98.4485L158.896 342.75C159.027 348.734 164.321 353.566 170.718 353.556L294.229 353.36C300.59 353.351 305.778 348.517 305.82 342.553L307.529 99.0838H307.531Z" fill="#045CB4"/>
<path d="M250.081 77.8356C250.083 79.109 249.06 80.1364 247.792 80.1308L213.958 79.9779C212.688 79.9723 211.645 78.9338 211.63 77.659C211.615 76.3828 212.632 75.3526 213.905 75.3582L247.778 75.5167C249.047 75.5222 250.078 76.5607 250.081 77.8356Z" fill="#045CB4"/>
<g opacity="0.48">
<path d="M279.751 272.37L299.241 253.025L298.519 293.837L279.793 272.416L279.751 272.37Z" fill="#82AEDA"/>
<path d="M270.338 281.715L297.885 313.247L298.164 313.57L297.37 338.555C297.308 340.952 296.024 343.258 293.992 344.962C292.201 346.461 289.876 347.381 287.442 347.577L248.519 303.377L270.338 281.713V281.715Z" fill="#82AEDA"/>
<path d="M293.436 240.414L271.189 262.586L261.804 271.942L239.982 293.688L204.106 252.956L204.112 252.95L225.849 230.922H225.786L225.668 230.859V230.854L235.141 221.37L235.23 221.379L235.252 221.388L235.269 221.379L235.283 221.37L257.543 198.834L301.902 153.987L300.228 227.555L293.436 240.414Z" fill="#82AEDA"/>
<path d="M270.277 347.632L203.888 347.68L239.274 312.553L270.277 347.632Z" fill="#82AEDA"/>
<path d="M230.744 302.898L185.794 347.694L181.688 347.697C178.953 347.698 176.299 346.775 174.309 345.119C172.312 343.462 171.139 341.21 171.054 338.855L169.185 288.345L194.877 262.308L230.745 302.898H230.744Z" fill="#82AEDA"/>
<path d="M186.203 252.48L168.552 270.46L167.118 230.904L186.188 252.48H186.203Z" fill="#82AEDA"/>
<path d="M258.301 179.115L222.627 137.643L260.211 98.7685L291.235 98.5697C297.839 98.5266 303 103.754 302.838 110.288L302.249 134.404L258.301 179.117V179.115Z" fill="#82AEDA"/>
<path d="M189.574 99.2231L241.183 98.8909L213.778 127.354L189.574 99.2231Z" fill="#82AEDA"/>
<path d="M213.147 147.45L248.815 188.763L226.583 211.385L217.227 220.907L195.771 243.056L167.025 209.996V209.992L166.077 196.447L165.999 196.372L213.147 147.45Z" fill="#82AEDA"/>
<path d="M171.821 99.5774L204.295 137.2L165.087 177.912L162.62 111.39C162.401 105.611 166.363 100.734 171.823 99.5774H171.821Z" fill="#82AEDA"/>
</g>
<path d="M229.202 111.398H172.624C171.624 111.398 170.814 112.209 170.814 113.209V113.22C170.814 114.219 171.624 115.03 172.624 115.03H229.202C230.202 115.03 231.013 114.219 231.013 113.22V113.209C231.013 112.209 230.202 111.398 229.202 111.398Z" fill="#045CB4"/>
<path d="M229.202 121.255H172.624C171.624 121.255 170.814 122.066 170.814 123.065V123.076C170.814 124.076 171.624 124.887 172.624 124.887H229.202C230.202 124.887 231.013 124.076 231.013 123.076V123.065C231.013 122.066 230.202 121.255 229.202 121.255Z" fill="#045CB4"/>
<path d="M229.202 131.114H172.624C171.624 131.114 170.814 131.924 170.814 132.924V132.935C170.814 133.934 171.624 134.745 172.624 134.745H229.202C230.202 134.745 231.013 133.934 231.013 132.935V132.924C231.013 131.924 230.202 131.114 229.202 131.114Z" fill="#045CB4"/>
<path d="M270.022 130.756C267.977 130.756 266.169 129.686 265.186 127.892C260.072 118.568 253.976 106.289 253.976 100.745C253.976 91.9006 261.174 84.7034 270.022 84.7034C278.871 84.7034 286.069 91.8992 286.069 100.745C286.069 106.291 279.972 118.568 274.859 127.892C273.876 129.686 272.068 130.756 270.022 130.756ZM270.022 87.2739C262.592 87.2739 256.547 93.3172 256.547 100.745C256.547 104.591 260.517 114.034 267.44 126.656C267.966 127.614 268.931 128.185 270.022 128.185C271.114 128.185 272.079 127.614 272.605 126.656C279.527 114.034 283.497 104.591 283.497 100.745C283.497 93.3172 277.452 87.2739 270.022 87.2739Z" fill="url(#paint0_linear_33_596)"/>
<path d="M270.022 110.827C264.657 110.827 260.293 106.463 260.293 101.101C260.293 95.7388 264.658 91.3749 270.022 91.3749C275.386 91.3749 279.751 95.7388 279.751 101.101C279.751 106.463 275.386 110.827 270.022 110.827ZM270.022 93.944C266.075 93.944 262.863 97.154 262.863 101.101C262.863 105.048 266.074 108.258 270.022 108.258C273.97 108.258 277.181 105.048 277.181 101.101C277.181 97.154 273.97 93.944 270.022 93.944Z" fill="url(#paint1_linear_33_596)"/>
<path d="M269.929 148.318C273.302 148.318 276.036 145.585 276.036 142.214C276.036 138.843 273.302 136.109 269.929 136.109C266.557 136.109 263.823 138.843 263.823 142.214C263.823 145.585 266.557 148.318 269.929 148.318Z" fill="url(#paint2_linear_33_596)"/>
<path d="M281.049 352.283C280.6 352.283 280.153 352.101 279.828 351.742L276.67 348.257C276.059 347.583 276.111 346.543 276.784 345.932C277.458 345.323 278.498 345.374 279.109 346.046L282.267 349.532C282.877 350.206 282.826 351.246 282.153 351.856C281.837 352.141 281.442 352.283 281.047 352.283H281.049ZM273.153 343.57C272.704 343.57 272.257 343.388 271.932 343.03L268.774 339.544C268.163 338.87 268.215 337.83 268.888 337.22C269.562 336.611 270.602 336.662 271.213 337.334L274.371 340.819C274.981 341.493 274.93 342.533 274.257 343.144C273.941 343.429 273.546 343.57 273.151 343.57H273.153ZM265.257 334.859C264.808 334.859 264.361 334.677 264.036 334.318L260.878 330.833C260.267 330.159 260.319 329.119 260.992 328.509C261.666 327.898 262.706 327.951 263.317 328.623L266.475 332.108C267.085 332.782 267.034 333.822 266.361 334.432C266.045 334.717 265.65 334.859 265.255 334.859H265.257ZM257.361 326.147C256.912 326.147 256.465 325.965 256.14 325.606L252.982 322.121C252.371 321.446 252.423 320.406 253.096 319.796C253.77 319.186 254.81 319.237 255.421 319.91L258.579 323.395C259.189 324.07 259.138 325.11 258.465 325.72C258.149 326.005 257.754 326.147 257.359 326.147H257.361ZM249.465 317.436C249.017 317.436 248.569 317.253 248.244 316.895L245.086 313.409C244.475 312.735 244.527 311.695 245.2 311.085C245.874 310.476 246.914 310.526 247.525 311.199L250.683 314.684C251.293 315.359 251.242 316.398 250.569 317.009C250.253 317.294 249.858 317.436 249.463 317.436H249.465ZM241.569 308.723C241.12 308.723 240.673 308.541 240.348 308.182L237.19 304.697C236.579 304.023 236.631 302.983 237.304 302.372C237.978 301.764 239.018 301.815 239.629 302.486L242.787 305.972C243.397 306.646 243.346 307.686 242.673 308.296C242.357 308.581 241.962 308.723 241.567 308.723H241.569ZM233.673 300.012C233.224 300.012 232.777 299.83 232.452 299.471L229.294 295.986C228.683 295.313 228.735 294.272 229.409 293.661C230.084 293.051 231.125 293.102 231.734 293.777L234.892 297.262C235.503 297.935 235.451 298.976 234.777 299.586C234.461 299.871 234.066 300.013 233.673 300.013V300.012ZM225.777 291.299C225.329 291.299 224.881 291.117 224.556 290.758L221.398 287.273C220.787 286.599 220.839 285.559 221.512 284.949C222.186 284.338 223.226 284.39 223.837 285.063L226.995 288.548C227.606 289.222 227.554 290.262 226.881 290.872C226.565 291.157 226.17 291.299 225.775 291.299H225.777ZM217.881 282.587C217.432 282.587 216.985 282.405 216.66 282.046L213.502 278.561C212.891 277.888 212.943 276.846 213.617 276.236C214.292 275.626 215.332 275.677 215.942 276.352L219.1 279.837C219.711 280.51 219.659 281.551 218.985 282.161C218.669 282.446 218.274 282.588 217.881 282.588V282.587ZM209.985 273.876C209.537 273.876 209.089 273.693 208.764 273.335L205.606 269.849C204.995 269.175 205.047 268.135 205.72 267.525C206.393 266.915 207.434 266.966 208.045 267.639L211.203 271.123C211.814 271.797 211.762 272.837 211.089 273.447C210.773 273.732 210.378 273.874 209.983 273.874L209.985 273.876ZM202.089 265.163C201.64 265.163 201.193 264.981 200.868 264.622L198.071 261.536C197.925 261.373 197.786 261.209 197.653 261.042C197.088 260.331 197.208 259.295 197.921 258.73C198.633 258.166 199.669 258.286 200.234 258.999C200.323 259.11 200.415 259.221 200.513 259.328L203.308 262.413C203.919 263.086 203.867 264.127 203.194 264.738C202.879 265.023 202.484 265.164 202.089 265.164V265.163ZM197.554 255.003C197.418 255.003 197.277 254.985 197.14 254.95C196.259 254.722 195.732 253.823 195.96 252.943C196.359 251.407 197.154 249.989 198.258 248.842L198.806 248.272C199.437 247.617 200.479 247.596 201.134 248.224C201.788 248.854 201.811 249.896 201.181 250.552L200.633 251.123C199.919 251.865 199.406 252.78 199.149 253.771C198.957 254.512 198.288 255.005 197.557 255.005L197.554 255.003ZM204.88 245.971C204.47 245.971 204.058 245.818 203.74 245.512C203.085 244.882 203.062 243.841 203.692 243.185L206.951 239.794C207.582 239.138 208.623 239.118 209.278 239.747C209.933 240.377 209.956 241.418 209.326 242.074L206.067 245.465C205.743 245.801 205.312 245.971 204.88 245.971ZM213.026 237.493C212.616 237.493 212.204 237.34 211.886 237.035C211.231 236.405 211.209 235.363 211.839 234.707L215.097 231.317C215.728 230.66 216.77 230.641 217.425 231.269C218.08 231.899 218.102 232.94 217.472 233.597L214.214 236.987C213.89 237.324 213.459 237.493 213.026 237.493ZM221.172 229.016C220.762 229.016 220.351 228.863 220.032 228.557C219.377 227.927 219.355 226.886 219.985 226.23L223.243 222.839C223.873 222.183 224.916 222.163 225.571 222.792C226.226 223.421 226.248 224.463 225.618 225.119L222.36 228.51C222.036 228.846 221.605 229.016 221.172 229.016ZM229.319 220.538C228.909 220.538 228.497 220.385 228.178 220.079C227.523 219.45 227.501 218.408 228.131 217.752L231.389 214.361C232.021 213.707 233.062 213.686 233.717 214.314C234.372 214.944 234.395 215.985 233.765 216.641L230.506 220.032C230.182 220.368 229.751 220.538 229.319 220.538ZM237.465 212.061C237.055 212.061 236.643 211.908 236.325 211.602C235.67 210.972 235.648 209.929 236.277 209.274L239.536 205.884C240.167 205.229 241.209 205.208 241.864 205.838C242.519 206.468 242.541 207.509 241.911 208.165L238.653 211.556C238.329 211.892 237.898 212.062 237.465 212.062V212.061ZM245.611 203.583C245.201 203.583 244.79 203.43 244.471 203.124C243.816 202.494 243.794 201.453 244.424 200.797L247.682 197.406C248.313 196.751 249.355 196.73 250.01 197.359C250.665 197.989 250.687 199.03 250.057 199.686L246.799 203.077C246.475 203.413 246.044 203.583 245.611 203.583ZM253.758 195.105C253.347 195.105 252.936 194.952 252.617 194.647C251.962 194.017 251.94 192.974 252.57 192.319L255.83 188.929C256.46 188.274 257.503 188.253 258.158 188.881C258.813 189.511 258.835 190.554 258.205 191.209L254.947 194.599C254.623 194.936 254.192 195.105 253.759 195.105H253.758ZM261.904 186.628C261.494 186.628 261.082 186.475 260.764 186.169C260.109 185.539 260.086 184.498 260.716 183.842L263.975 180.451C264.606 179.795 265.648 179.775 266.303 180.404C266.958 181.033 266.98 182.075 266.35 182.731L263.092 186.122C262.768 186.458 262.336 186.628 261.904 186.628ZM270.05 178.15C269.64 178.15 269.228 177.997 268.91 177.691C268.255 177.062 268.233 176.019 268.864 175.364L272.122 171.973C272.754 171.317 273.795 171.298 274.45 171.926C275.105 172.556 275.127 173.599 274.496 174.253L271.238 177.644C270.914 177.981 270.483 178.15 270.05 178.15ZM278.197 169.672C277.786 169.672 277.375 169.52 277.056 169.214C276.401 168.584 276.379 167.543 277.009 166.886L279.999 163.775C280.071 163.7 280.139 163.625 280.207 163.547C280.804 162.862 281.846 162.791 282.53 163.389C283.215 163.986 283.286 165.026 282.688 165.71C282.587 165.827 282.481 165.941 282.373 166.055L279.383 169.166C279.059 169.503 278.628 169.672 278.195 169.672H278.197ZM283.176 159.689C282.41 159.689 281.723 159.151 281.565 158.371C281.357 157.354 280.885 156.399 280.199 155.61L279.714 155.053C279.117 154.368 279.188 153.328 279.875 152.731C280.562 152.133 281.601 152.207 282.197 152.892L282.683 153.45C283.742 154.666 284.471 156.141 284.792 157.717C284.973 158.608 284.399 159.477 283.507 159.657C283.396 159.68 283.286 159.691 283.178 159.691L283.176 159.689ZM276.322 150.298C275.862 150.298 275.406 150.108 275.08 149.734L274.791 149.403C274.193 148.718 274.265 147.678 274.951 147.081C275.636 146.484 276.677 146.554 277.273 147.241L277.562 147.572C278.16 148.257 278.088 149.297 277.403 149.894C277.091 150.166 276.706 150.298 276.322 150.298Z" fill="url(#paint3_linear_33_596)"/>
<path d="M84.334 275.063L84.1797 290.435H36.2861C35.2145 290.435 34.9304 288.957 35.9208 288.559L82.9946 274.154C83.6358 273.894 84.334 274.373 84.334 275.063Z" fill="#C48200"/>
<path d="M2.66257 373.725L0 373.895V380.741C0 385.126 3.40126 388.764 7.77663 389.048L38.0876 391.038L90.9736 389.706L90.4784 369.738L76.6786 351.938L35.4332 363.42L2.67069 373.733L2.66257 373.725Z" fill="#50595A"/>
<path d="M89.8699 392.8H223.039V374.391H89.8699V392.8Z" fill="#50595A"/>
<path d="M220.376 388.48H300.707V371.232H220.376V388.48Z" fill="#50595A"/>
<path d="M89.8697 375.057H304.644V363.745H89.8697V375.057Z" fill="#50595A"/>
<path d="M316.342 364.362H94.4322C91.9644 364.362 89.9594 362.357 89.9594 359.888L89.9594 246.608C89.9594 244.14 91.9644 242.134 94.4322 242.134L316.342 242.134C318.81 242.134 320.815 244.14 320.815 246.608V359.888C320.815 362.357 318.81 364.362 316.342 364.362Z" fill="#7E7E7E"/>
<path d="M311.041 357.971H100.438C97.9707 357.971 95.9657 355.966 95.9657 353.497V251.748C95.9657 249.28 97.9707 247.274 100.438 247.274L311.041 247.274C313.508 247.274 315.513 249.28 315.513 251.748V353.497C315.513 355.966 313.508 357.971 311.041 357.971Z" fill="#9B9B9B"/>
<path d="M83.5299 290.369H27.4863C26.3417 290.369 25.3108 291.051 24.8643 292.099L3.70179 341.446C3.55567 341.779 3.48261 342.137 3.4745 342.494L2.7358 370.793C2.69521 372.401 3.9859 373.725 5.58506 373.725H37.8118C38.4206 373.725 39.0132 373.53 39.5003 373.173L56.2387 360.846C56.7582 360.464 57.3914 360.269 58.0408 360.294L77.4742 361.033C78.424 361.065 79.2926 361.577 79.7959 362.389L85.9246 372.344C86.4279 373.165 87.3128 373.676 88.2706 373.701L89.9834 373.749C92.167 373.814 93.612 371.492 92.5892 369.559L88.295 361.455C88.0839 361.065 87.9784 360.627 87.9622 360.188L86.3792 293.17C86.3467 291.619 85.0804 290.385 83.5299 290.385V290.369Z" fill="#FBAE17"/>
<path d="M69.1534 328.843L69.3726 328.665C69.5837 328.494 74.5678 324.32 74.8438 319.058C75.0955 314.332 75.0143 302.988 75.0143 302.509V301.185H32.2672L20.3506 342.543L69.1615 328.843H69.1534Z" fill="#50595A"/>
<path d="M73.6831 302.509H33.2657L22.2908 340.61L68.5284 327.633C68.5284 327.633 73.2691 323.727 73.5207 318.985C73.7724 314.243 73.6831 302.517 73.6831 302.517V302.509Z" fill="#82AEDA"/>
<mask id="mask0_33_596" style="mask-type:luminance" maskUnits="userSpaceOnUse" x="22" y="302" width="53" height="39">
<path d="M74.0923 302.667H33.6749L22.7 340.768L68.9376 327.792C68.9376 327.792 73.6783 323.886 73.9299 319.144C74.1816 314.401 74.0923 302.675 74.0923 302.675V302.667Z" fill="white"/>
</mask>
<g mask="url(#mask0_33_596)">
<path d="M40.8397 337.084L36.2776 337.076L49.0871 290.919L53.6411 290.928L40.8397 337.084Z" fill="#D4FFFF"/>
<path d="M53.909 336.686L44.5007 336.678L57.3021 290.521L66.7185 290.53L53.909 336.686Z" fill="#D4FFFF"/>
</g>
<path d="M41.854 387.481C41.854 399.369 51.4814 409 63.3656 409C75.2497 409 84.8771 399.369 84.8771 387.481C84.8771 375.592 75.2497 365.962 63.3656 365.962C51.4814 365.962 41.854 375.601 41.854 387.481Z" fill="#50595A"/>
<path d="M48.3403 387.481C48.3403 395.78 55.0698 402.512 63.3659 402.512C71.6621 402.512 78.3916 395.78 78.3916 387.481C78.3916 379.182 71.6621 372.45 63.3659 372.45C55.0698 372.45 48.3403 379.182 48.3403 387.481Z" fill="#9B9B9B"/>
<path d="M51.1162 387.481C51.1162 394.253 56.6037 399.735 63.3656 399.735C70.1276 399.735 75.615 394.245 75.615 387.481C75.615 380.717 70.1276 375.227 63.3656 375.227C56.6037 375.227 51.1162 380.717 51.1162 387.481Z" fill="white" stroke="#E9EFFD" stroke-width="1.07" stroke-miterlimit="10"/>
<path d="M59.7046 387.481C59.7046 389.503 61.3443 391.143 63.3656 391.143C65.3869 391.143 67.0266 389.503 67.0266 387.481C67.0266 385.459 65.3869 383.819 63.3656 383.819C61.3443 383.819 59.7046 385.459 59.7046 387.481Z" fill="#9B9B9B"/>
<path d="M227.032 387.481C227.032 399.369 236.668 409 248.544 409C260.42 409 270.056 399.369 270.056 387.481C270.056 375.592 260.428 365.962 248.544 365.962C236.66 365.962 227.032 375.601 227.032 387.481Z" fill="#50595A"/>
<path d="M233.518 387.481C233.518 395.78 240.248 402.512 248.544 402.512C256.84 402.512 263.569 395.78 263.569 387.481C263.569 379.182 256.84 372.45 248.544 372.45C240.248 372.45 233.518 379.182 233.518 387.481Z" fill="#9B9B9B"/>
<path d="M251.379 399.402C257.961 397.837 262.029 391.231 260.464 384.647C258.9 378.063 252.296 373.994 245.714 375.559C239.132 377.124 235.065 383.73 236.629 390.314C238.194 396.898 244.798 400.967 251.379 399.402Z" fill="white" stroke="#E9EFFD" stroke-width="1.07" stroke-miterlimit="10"/>
<path d="M244.883 387.481C244.883 389.503 246.523 391.143 248.544 391.143C250.565 391.143 252.205 389.503 252.205 387.481C252.205 385.459 250.565 383.819 248.544 383.819C246.523 383.819 244.883 385.459 244.883 387.481Z" fill="#9B9B9B"/>
<path d="M277.759 391.777H273.432C273.432 391.777 273.018 363.656 248.235 364.24C223.452 364.825 223.29 392.857 223.29 392.857H219.467C219.467 392.857 217.47 361.163 248.154 360.578C278.839 359.993 277.759 391.777 277.759 391.777Z" fill="#444D4E"/>
<path d="M297.712 383.291H310.018V372.474H297.712V383.291Z" fill="#50595A"/>
<path d="M280.47 376.291H292.671V361.861H280.47V376.291Z" fill="#9B9B9B"/>
<path d="M195.089 375.625H207.29V361.853H195.089V375.625Z" fill="#9B9B9B"/>
<path d="M151.847 375.625H164.048V361.853H151.847V375.625Z" fill="#9B9B9B"/>
<path d="M108.605 375.625H120.806V361.853H108.605V375.625Z" fill="#9B9B9B"/>
<path d="M23.3949 295.688L25.7246 296.524L7.25715 340.943L3.60425 341.113L23.3949 295.688Z" fill="#82AEDA"/>
<path d="M307.25 383.526H311.739V372.158H307.25V383.526Z" fill="#FBAE17"/>
<path d="M3.07647 358.735C8.1743 357.054 13.4183 360.862 13.402 366.23V370.55L13.3939 373.823H2.5813L3.07647 358.735Z" fill="#FBAE17"/>
<path d="M69.8027 350.89H72.3516V338.133H69.8027V350.89Z" fill="#50595A"/>
<path d="M70.1196 339.993H68.3905C68.0821 339.993 67.8304 339.741 67.8304 339.433V338.702C67.8304 338.393 68.0821 338.141 68.3905 338.141H70.1196C70.428 338.141 70.6797 338.393 70.6797 338.702V339.433C70.6797 339.741 70.428 339.993 70.1196 339.993Z" fill="#50595A"/>
<path d="M70.1196 350.858H68.3905C68.0821 350.858 67.8304 350.606 67.8304 350.297V349.567C67.8304 349.258 68.0821 349.006 68.3905 349.006H70.1196C70.428 349.006 70.6797 349.258 70.6797 349.567V350.297C70.6797 350.606 70.428 350.858 70.1196 350.858Z" fill="#50595A"/>
<path d="M287.127 276.337H154.274V285.984H287.127V276.337Z" fill="#7E7E7E"/>
<path d="M273.627 289.922H154.274V299.569H273.627V289.922Z" fill="#7E7E7E"/>
<path d="M264.154 303.508H154.274V313.155H264.154V303.508Z" fill="#7E7E7E"/>
<path d="M255.395 317.093H154.274V326.74H255.395V317.093Z" fill="#7E7E7E"/>
<defs>
<linearGradient id="paint0_linear_33_596" x1="253.976" y1="107.731" x2="286.067" y2="107.731" gradientUnits="userSpaceOnUse">
<stop stop-color="#DAE3FE"/>
<stop offset="1" stop-color="#E9EFFD"/>
</linearGradient>
<linearGradient id="paint1_linear_33_596" x1="260.292" y1="101.101" x2="279.751" y2="101.101" gradientUnits="userSpaceOnUse">
<stop stop-color="#DAE3FE"/>
<stop offset="1" stop-color="#E9EFFD"/>
</linearGradient>
<linearGradient id="paint2_linear_33_596" x1="263.823" y1="142.214" x2="276.036" y2="142.214" gradientUnits="userSpaceOnUse">
<stop stop-color="#DAE3FE"/>
<stop offset="1" stop-color="#E9EFFD"/>
</linearGradient>
<linearGradient id="paint3_linear_33_596" x1="195.905" y1="249.477" x2="284.828" y2="249.477" gradientUnits="userSpaceOnUse">
<stop stop-color="#DAE3FE"/>
<stop offset="1" stop-color="#E9EFFD"/>
</linearGradient>
</defs>
</svg>
