<svg width="139" height="54" viewBox="0 0 139 54" fill="none" xmlns="http://www.w3.org/2000/svg">
<path d="M139 35.3574H82.6656L82.6655 44.7005H139V35.3574Z" fill="#045CB4"/>
<path d="M28.9147 35.3576V14.1083C28.9147 12.9262 27.7976 11.7969 26.6195 11.7969H26.4692C26.4286 11.7969 26.392 11.805 26.3514 11.8091L26.3392 11.7969H8.55904C5.98767 11.7969 4.98836 13.6411 4.05812 15.0101C2.0839 17.9145 0.0731179 22.9638 0.0365582 28.1309V28.0944L0 44.7006H83.348V35.3576H28.9147Z" fill="#045CB4"/>
<path d="M26.8836 13.8279V23.9224C26.8836 23.9224 19.9007 27.3712 1.7915 29.7882C1.7915 29.7882 1.97024 17.8901 7.91323 13.8279H26.8796H26.8836Z" fill="white"/>
<path d="M20.7659 52.0329C24.573 52.0329 27.6594 48.9466 27.6594 45.1394C27.6594 41.3322 24.573 38.2458 20.7659 38.2458C16.9587 38.2458 13.8723 41.3322 13.8723 45.1394C13.8723 48.9466 16.9587 52.0329 20.7659 52.0329Z" fill="#045CB4" stroke="white" stroke-width="2" stroke-miterlimit="10"/>
<path d="M20.8747 49.6227C23.3485 49.561 25.3038 47.5055 25.2421 45.0317C25.1803 42.5579 23.1249 40.6026 20.6511 40.6643C18.1773 40.7261 16.2219 42.7815 16.2837 45.2553C16.3454 47.7291 18.4009 49.6845 20.8747 49.6227Z" fill="white"/>
<path d="M22.0741 45.1393C22.0741 45.8624 21.4891 46.4473 20.766 46.4473C20.043 46.4473 19.458 45.8624 19.458 45.1393C19.458 44.4163 20.043 43.8313 20.766 43.8313C21.4891 43.8313 22.0741 44.4163 22.0741 45.1393Z" fill="white" stroke="#045CB4" stroke-width="2" stroke-miterlimit="10"/>
<path d="M79.2859 45.1393C79.2859 48.9456 76.1986 52.0369 72.3923 52.0369C68.586 52.0369 65.4988 48.9496 65.4988 45.1393C65.4988 41.329 68.586 38.2417 72.3923 38.2417C76.1986 38.2417 79.2859 41.329 79.2859 45.1393Z" fill="#045CB4" stroke="white" stroke-width="2" stroke-miterlimit="10"/>
<path d="M76.8689 45.1393C76.8689 47.6132 74.8622 49.6199 72.3883 49.6199C69.9144 49.6199 67.9077 47.6132 67.9077 45.1393C67.9077 42.6654 69.9144 40.6587 72.3883 40.6587C74.8622 40.6587 76.8689 42.6654 76.8689 45.1393Z" fill="white"/>
<path d="M73.6964 45.1393C73.6964 45.8624 73.1114 46.4473 72.3883 46.4473C71.6653 46.4473 71.0803 45.8624 71.0803 45.1393C71.0803 44.4163 71.6653 43.8313 72.3883 43.8313C73.1114 43.8313 73.6964 44.4163 73.6964 45.1393Z" fill="white" stroke="#045CB4" stroke-width="2" stroke-miterlimit="10"/>
<path d="M63.0655 45.1393C63.0655 48.9456 59.9783 52.0369 56.168 52.0369C52.3576 52.0369 49.2744 48.9496 49.2744 45.1393C49.2744 41.329 52.3617 38.2417 56.168 38.2417C59.9742 38.2417 63.0655 41.329 63.0655 45.1393Z" fill="#045CB4" stroke="white" stroke-width="2" stroke-miterlimit="10"/>
<path d="M60.6526 45.1393C60.6526 47.6132 58.6459 49.6199 56.172 49.6199C53.6981 49.6199 51.6914 47.6132 51.6914 45.1393C51.6914 42.6654 53.6981 40.6587 56.172 40.6587C58.6459 40.6587 60.6526 42.6654 60.6526 45.1393Z" fill="white"/>
<path d="M57.4801 45.1393C57.4801 45.8624 56.8951 46.4473 56.172 46.4473C55.449 46.4473 54.864 45.8624 54.864 45.1393C54.864 44.4163 55.449 43.8313 56.172 43.8313C56.8951 43.8313 57.4801 44.4163 57.4801 45.1393Z" fill="white" stroke="#045CB4" stroke-width="2" stroke-miterlimit="10"/>
<path d="M135.62 45.1393C135.62 48.9456 132.533 52.0369 128.723 52.0369C124.912 52.0369 121.829 48.9496 121.829 45.1393C121.829 41.329 124.916 38.2417 128.723 38.2417C132.529 38.2417 135.62 41.329 135.62 45.1393Z" fill="#045CB4" stroke="white" stroke-width="2" stroke-miterlimit="10"/>
<path d="M133.203 45.1393C133.203 47.6132 131.196 49.6199 128.723 49.6199C126.249 49.6199 124.242 47.6132 124.242 45.1393C124.242 42.6654 126.249 40.6587 128.723 40.6587C131.196 40.6587 133.203 42.6654 133.203 45.1393Z" fill="white"/>
<path d="M130.031 45.1393C130.031 45.8624 129.446 46.4473 128.723 46.4473C127.999 46.4473 127.415 45.8624 127.415 45.1393C127.415 44.4163 127.999 43.8313 128.723 43.8313C129.446 43.8313 130.031 44.4163 130.031 45.1393Z" fill="white" stroke="#045CB4" stroke-width="2" stroke-miterlimit="10"/>
<path d="M119.4 45.1393C119.4 48.9456 116.313 52.0369 112.502 52.0369C108.692 52.0369 105.609 48.9496 105.609 45.1393C105.609 41.329 108.696 38.2417 112.502 38.2417C116.309 38.2417 119.4 41.329 119.4 45.1393Z" fill="#045CB4" stroke="white" stroke-width="2" stroke-miterlimit="10"/>
<path d="M116.983 45.1393C116.983 47.6132 114.976 49.6199 112.502 49.6199C110.028 49.6199 108.022 47.6132 108.022 45.1393C108.022 42.6654 110.028 40.6587 112.502 40.6587C114.976 40.6587 116.983 42.6654 116.983 45.1393Z" fill="white"/>
<path d="M113.814 45.1393C113.814 45.8624 113.229 46.4473 112.506 46.4473C111.783 46.4473 111.198 45.8624 111.198 45.1393C111.198 44.4163 111.783 43.8313 112.506 43.8313C113.229 43.8313 113.814 44.4163 113.814 45.1393Z" fill="white" stroke="#045CB4" stroke-width="2" stroke-miterlimit="10"/>
<path d="M4.18811 41.4507C4.6837 41.4507 5.08992 41.7675 5.08992 42.2631C5.08992 42.7587 4.68776 43.0756 4.18811 43.0756H2.45356C1.95798 43.0756 1.55176 42.7587 1.55176 42.2631C1.55176 41.7675 1.95392 41.4507 2.45356 41.4507H4.18811Z" fill="white"/>
<path d="M89.4088 41.4507C89.9044 41.4507 90.3106 41.7675 90.3106 42.2631C90.3106 42.7587 89.9085 43.0756 89.4088 43.0756H87.6743C87.1787 43.0756 86.7725 42.7587 86.7725 42.2631C86.7725 41.7675 87.1746 41.4507 87.6743 41.4507H89.4088Z" fill="white"/>
<path d="M137.079 36.5762C137.574 36.5762 137.981 36.893 137.981 37.3886C137.981 37.8842 137.578 38.201 137.079 38.201H135.344C134.849 38.201 134.442 37.8842 134.442 37.3886C134.442 36.893 134.845 36.5762 135.344 36.5762H137.079Z" fill="white"/>
<path d="M19.1654 13.4216H17.9468V26.8269H19.1654V13.4216Z" fill="#045CB4"/>
<path d="M81.2886 11.7969H33.2613C32.262 11.7969 31.3521 12.8002 31.3521 13.7995V33.3265H83.3481V13.7995C83.3481 12.8043 82.2878 11.7969 81.2926 11.7969H81.2886Z" fill="#045CB4"/>
<path d="M137.393 11.7803H81.0946C79.9817 11.7803 79.2126 12.7836 79.2126 13.7829V33.3099H138.927V13.7829C138.927 12.7877 138.506 11.7803 137.393 11.7803Z" fill="#045CB4"/>
<path d="M6.83252 10.5781C6.83252 10.5781 9.01798 -0.0485791 28.8212 0.000167194C28.8212 0.000167194 29.3777 7.7752 28.5165 9.24977C28.5165 9.24977 27.8543 10.5781 27.0419 10.5781H6.83252Z" fill="#045CB4"/>
</svg>
