<svg width="71" height="28" viewBox="0 0 71 28" fill="none" xmlns="http://www.w3.org/2000/svg">
<path d="M-8.01086e-05 18.0876H27.7505V22.8508H-8.01086e-05V18.0876Z" fill="#045CB4"/>
<path d="M56.3295 18.0876V7.13028C56.3295 6.52764 56.8286 6.07617 57.4312 6.07617H57.5078C57.5286 6.07617 57.5472 6.08032 57.5679 6.08239L57.572 6.07617H66.6365C67.9474 6.07617 68.4569 6.95425 68.9311 7.65216C69.9355 9.13288 70.9627 11.6739 70.9814 14.3102V14.3371L71 22.8508H28.5789V18.0876H56.3295Z" fill="#045CB4"/>
<path d="M57.1578 7.11169V12.1337C57.1578 12.1337 60.7861 13.9541 70.0183 15.1863C70.0183 15.1863 69.9955 9.18263 66.9658 7.11169H57.1578Z" fill="white"/>
<path d="M56.899 22.9481C56.899 24.8886 58.4729 26.4645 60.4134 26.4645C62.3538 26.4645 63.9277 24.8906 63.9277 22.9481C63.9277 21.0056 62.3538 19.4337 60.4134 19.4337C58.4729 19.4337 56.899 21.0076 56.899 22.9481Z" fill="#045CB4" stroke="white" stroke-width="1.35238" stroke-miterlimit="10"/>
<path d="M58.1312 22.9483C58.1312 24.2095 59.1543 25.2326 60.4155 25.2326C61.6767 25.2326 62.6997 24.2095 62.6997 22.9483C62.6997 21.6871 61.6767 20.6641 60.4155 20.6641C59.1543 20.6641 58.1312 21.6871 58.1312 22.9483Z" fill="white"/>
<path d="M59.7486 22.9483C59.7486 23.317 60.0468 23.6152 60.4154 23.6152C60.7841 23.6152 61.0823 23.317 61.0823 22.9483C61.0823 22.5797 60.7841 22.2815 60.4154 22.2815C60.0468 22.2815 59.7486 22.5797 59.7486 22.9483Z" fill="white" stroke="#045CB4" stroke-width="1.35238" stroke-miterlimit="10"/>
<path d="M30.5816 22.9481C30.5816 24.8886 32.1555 26.4645 34.096 26.4645C36.0364 26.4645 37.6104 24.8906 37.6104 22.9481C37.6104 21.0056 36.0364 19.4337 34.096 19.4337C32.1555 19.4337 30.5816 21.0076 30.5816 22.9481Z" fill="#045CB4" stroke="white" stroke-width="1.35238" stroke-miterlimit="10"/>
<path d="M31.8138 22.9483C31.8138 24.2095 32.8369 25.2326 34.0981 25.2326C35.3593 25.2326 36.3823 24.2095 36.3823 22.9483C36.3823 21.6871 35.3593 20.6641 34.0981 20.6641C32.8369 20.6641 31.8138 21.6871 31.8138 22.9483Z" fill="white"/>
<path d="M33.4293 22.9483C33.4293 23.317 33.7275 23.6152 34.0961 23.6152C34.4647 23.6152 34.7629 23.317 34.7629 22.9483C34.7629 22.5797 34.4647 22.2815 34.0961 22.2815C33.7275 22.2815 33.4293 22.5797 33.4293 22.9483Z" fill="white" stroke="#045CB4" stroke-width="1.35238" stroke-miterlimit="10"/>
<path d="M38.8486 22.9481C38.8486 24.8886 40.4225 26.4645 42.365 26.4645C44.3076 26.4645 45.8794 24.8906 45.8794 22.9481C45.8794 21.0056 44.3055 19.4337 42.365 19.4337C40.4245 19.4337 38.8486 21.0076 38.8486 22.9481Z" fill="#045CB4" stroke="white" stroke-width="1.35238" stroke-miterlimit="10"/>
<path d="M40.0807 22.9483C40.0807 24.2095 41.1037 25.2326 42.3649 25.2326C43.6261 25.2326 44.6492 24.2095 44.6492 22.9483C44.6492 21.6871 43.6261 20.6641 42.3649 20.6641C41.1037 20.6641 40.0807 21.6871 40.0807 22.9483Z" fill="white"/>
<path d="M41.6981 22.9483C41.6981 23.317 41.9963 23.6152 42.3649 23.6152C42.7335 23.6152 43.0317 23.317 43.0317 22.9483C43.0317 22.5797 42.7335 22.2815 42.3649 22.2815C41.9963 22.2815 41.6981 22.5797 41.6981 22.9483Z" fill="white" stroke="#045CB4" stroke-width="1.35238" stroke-miterlimit="10"/>
<path d="M1.86174 22.9481C1.86174 24.8886 3.43565 26.4645 5.37819 26.4645C7.32073 26.4645 8.89258 24.8906 8.89258 22.9481C8.89258 21.0056 7.31866 19.4337 5.37819 19.4337C3.43772 19.4337 1.86174 21.0076 1.86174 22.9481Z" fill="#045CB4" stroke="white" stroke-width="1.35238" stroke-miterlimit="10"/>
<path d="M3.09387 22.9483C3.09387 24.2095 4.1169 25.2326 5.3781 25.2326C6.6393 25.2326 7.66235 24.2095 7.66235 22.9483C7.66235 21.6871 6.6393 20.6641 5.3781 20.6641C4.1169 20.6641 3.09387 21.6871 3.09387 22.9483Z" fill="white"/>
<path d="M4.70928 22.9483C4.70928 23.317 5.00749 23.6152 5.37612 23.6152C5.74475 23.6152 6.04297 23.317 6.04297 22.9483C6.04297 22.5797 5.74475 22.2815 5.37612 22.2815C5.00749 22.2815 4.70928 22.5797 4.70928 22.9483Z" fill="white" stroke="#045CB4" stroke-width="1.35238" stroke-miterlimit="10"/>
<path d="M10.1288 22.9481C10.1288 24.8886 11.7028 26.4645 13.6453 26.4645C15.5878 26.4645 17.1597 24.8906 17.1597 22.9481C17.1597 21.0056 15.5858 19.4337 13.6453 19.4337C11.7048 19.4337 10.1288 21.0076 10.1288 22.9481Z" fill="#045CB4" stroke="white" stroke-width="1.35238" stroke-miterlimit="10"/>
<path d="M11.361 22.9483C11.361 24.2095 12.384 25.2326 13.6452 25.2326C14.9064 25.2326 15.9294 24.2095 15.9294 22.9483C15.9294 21.6871 14.9064 20.6641 13.6452 20.6641C12.384 20.6641 11.361 21.6871 11.361 22.9483Z" fill="white"/>
<path d="M12.9783 22.9483C12.9783 23.317 13.2765 23.6152 13.6452 23.6152C14.0138 23.6152 14.312 23.317 14.312 22.9483C14.312 22.5797 14.0138 22.2815 13.6452 22.2815C13.2765 22.2815 12.9783 22.5797 12.9783 22.9483Z" fill="white" stroke="#045CB4" stroke-width="1.35238" stroke-miterlimit="10"/>
<path d="M68.8669 21.194C68.6142 21.194 68.4071 21.3555 68.4071 21.6082C68.4071 21.8608 68.6122 22.0223 68.8669 22.0223H69.7512C70.0038 22.0223 70.2109 21.8608 70.2109 21.6082C70.2109 21.3555 70.0059 21.194 69.7512 21.194H68.8669Z" fill="white"/>
<path d="M25.4187 21.194C25.166 21.194 24.9589 21.3555 24.9589 21.6082C24.9589 21.8608 25.1639 22.0223 25.4187 22.0223H26.303C26.5556 22.0223 26.7627 21.8608 26.7627 21.6082C26.7627 21.3555 26.5577 21.194 26.303 21.194H25.4187Z" fill="white"/>
<path d="M1.11835 18.709C0.865699 18.709 0.660684 18.8705 0.660684 19.1232C0.660684 19.3758 0.865699 19.5374 1.11835 19.5374H2.00265C2.2553 19.5374 2.4624 19.3758 2.4624 19.1232C2.4624 18.8705 2.25737 18.709 2.00265 18.709H1.11835Z" fill="white"/>
<path d="M61.0928 6.90454H61.9211V13.9457H61.0928V6.90454Z" fill="#045CB4"/>
<path d="M1.00858 6.07617H54.0432C54.5527 6.07617 54.8799 6.46344 54.8799 6.97289V17.0521H3.05176e-05V6.97289C3.05176e-05 6.46551 0.405933 6.07617 1.00858 6.07617Z" fill="#045CB4"/>
<path d="M67.5166 5.45493C67.5166 5.45493 66.4045 -0.024767 56.3087 8.42732e-05C56.3087 8.42732e-05 56.025 3.99492 56.464 4.74667C56.464 4.74667 56.8016 5.45493 57.2137 5.45493H67.5166Z" fill="#045CB4"/>
<path d="M48.9363 7.73291H41.978C41.4416 7.73291 41.0046 8.16988 41.0046 8.70625V8.83051C41.0046 9.36688 41.4416 9.80385 41.978 9.80385H48.9363C49.4727 9.80385 49.9097 9.36688 49.9097 8.83051V8.70625C49.9097 8.16988 49.4727 7.73291 48.9363 7.73291Z" fill="white"/>
<path d="M29.9665 7.73291H36.9249C37.4624 7.73291 37.8982 8.16869 37.8982 8.70625V8.83051C37.8982 9.36807 37.4624 9.80385 36.9249 9.80385H29.9665C29.4289 9.80385 28.9932 9.36807 28.9932 8.83051V8.70625C28.9932 8.16869 29.4289 7.73291 29.9665 7.73291Z" fill="white"/>
<path d="M17.955 7.73291H24.9134C25.4509 7.73291 25.8867 8.16869 25.8867 8.70625V8.83051C25.8867 9.36807 25.4509 9.80385 24.9134 9.80385H17.955C17.4175 9.80385 16.9817 9.36807 16.9817 8.83051V8.70625C16.9817 8.16869 17.4175 7.73291 17.955 7.73291Z" fill="white"/>
<path d="M5.9438 7.73291H12.9021C13.4397 7.73291 13.8755 8.16869 13.8755 8.70625V8.83051C13.8755 9.36807 13.4397 9.80385 12.9021 9.80385H5.9438C5.40624 9.80385 4.97046 9.36807 4.97046 8.83051V8.70625C4.97046 8.16869 5.40624 7.73291 5.9438 7.73291Z" fill="white"/>
</svg>
