<svg width="70" height="32" viewBox="0 0 70 32" fill="none" xmlns="http://www.w3.org/2000/svg">
<path d="M48.1142 17.8886V1.79502C48.1142 0.897508 48.8945 0 49.792 0H49.9062C49.937 0 49.9648 0.00925236 49.9956 0.00925236L50.0018 0H63.5015C65.4538 0 66.2125 1.41875 66.9188 2.45814C68.4178 4.66338 69.9445 8.50634 69.9722 12.4295V12.5405L70 25.2877H-7.62939e-06V17.8855H48.1142V17.8886Z" fill="#045CB4"/>
<path d="M49.3479 1.54211V9.24655C49.3479 9.24655 54.77 11.8435 68.5195 13.6786C68.5195 13.6786 68.5041 4.93478 63.9919 1.54211H49.3479Z" fill="white"/>
<path d="M49.0023 25.3524C49.0023 28.2423 51.3463 30.5864 54.2363 30.5864C57.1262 30.5864 59.4702 28.2423 59.4702 25.3524C59.4702 22.4625 57.1262 20.1154 54.2363 20.1154C51.3463 20.1154 49.0023 22.4594 49.0023 25.3524Z" fill="#045CB4" stroke="white" stroke-width="2" stroke-miterlimit="10"/>
<path d="M50.8343 25.3522C50.8343 27.2305 52.358 28.7542 54.2363 28.7542C56.1146 28.7542 57.6382 27.2305 57.6382 25.3522C57.6382 23.4739 56.1146 21.9503 54.2363 21.9503C52.358 21.9503 50.8343 23.4739 50.8343 25.3522Z" fill="white"/>
<path d="M53.2432 25.3524C53.2432 25.9014 53.6874 26.3455 54.2364 26.3455C54.7854 26.3455 55.2295 25.9014 55.2295 25.3524C55.2295 24.8034 54.7854 24.3593 54.2364 24.3593C53.6874 24.3593 53.2432 24.8034 53.2432 25.3524Z" fill="white" stroke="#045CB4" stroke-width="2" stroke-miterlimit="10"/>
<path d="M5.69061 25.3524C5.69061 28.2423 8.03464 30.5864 10.9277 30.5864C13.8207 30.5864 16.1616 28.2423 16.1616 25.3524C16.1616 22.4625 13.8176 20.1154 10.9277 20.1154C8.03772 20.1154 5.69061 22.4594 5.69061 25.3524Z" fill="#045CB4" stroke="white" stroke-width="2" stroke-miterlimit="10"/>
<path d="M7.52575 25.3522C7.52575 27.2305 9.04936 28.7542 10.9277 28.7542C12.806 28.7542 14.3296 27.2305 14.3296 25.3522C14.3296 23.4739 12.806 21.9503 10.9277 21.9503C9.04936 21.9503 7.52575 23.4739 7.52575 25.3522Z" fill="white"/>
<path d="M9.93464 25.3524C9.93464 25.9014 10.3788 26.3455 10.9278 26.3455C11.4768 26.3455 11.9209 25.9014 11.9209 25.3524C11.9209 24.8034 11.4768 24.3593 10.9278 24.3593C10.3788 24.3593 9.93464 24.8034 9.93464 25.3524Z" fill="white" stroke="#045CB4" stroke-width="2" stroke-miterlimit="10"/>
<path d="M18.006 25.3524C18.006 28.2423 20.3501 30.5864 23.2431 30.5864C26.1361 30.5864 28.4771 28.2423 28.4771 25.3524C28.4771 22.4625 26.133 20.1154 23.2431 20.1154C20.3532 20.1154 18.006 22.4594 18.006 25.3524Z" fill="#045CB4" stroke="white" stroke-width="2" stroke-miterlimit="10"/>
<path d="M19.8412 25.3522C19.8412 27.2305 21.3648 28.7542 23.2431 28.7542C25.1214 28.7542 26.645 27.2305 26.645 25.3522C26.645 23.4739 25.1214 21.9503 23.2431 21.9503C21.3648 21.9503 19.8412 23.4739 19.8412 25.3522Z" fill="white"/>
<path d="M22.2467 25.3524C22.2467 25.9014 22.6908 26.3455 23.2398 26.3455C23.7888 26.3455 24.2329 25.9014 24.2329 25.3524C24.2329 24.8034 23.7888 24.3593 23.2398 24.3593C22.6908 24.3593 22.2467 24.8034 22.2467 25.3524Z" fill="white" stroke="#045CB4" stroke-width="2" stroke-miterlimit="10"/>
<path d="M66.237 23.1319C66.237 23.465 66.5424 23.7487 66.9217 23.7487H68.2665C68.6427 23.7487 68.9512 23.465 68.9512 23.1319C68.9512 22.7988 68.6458 22.515 68.2665 22.515H66.9217C66.5455 22.515 66.237 22.7988 66.237 23.1319Z" fill="white"/>
<path d="M1.14426 23.1319C1.14426 23.465 1.4496 23.7487 1.82897 23.7487H3.1737C3.54997 23.7487 3.8584 23.465 3.8584 23.1319C3.8584 22.7988 3.55306 22.515 3.1737 22.515H1.82897C1.45269 22.515 1.14426 22.7988 1.14426 23.1319Z" fill="white"/>
<path d="M55.2082 1.23376H56.4419V11.7202H55.2082V1.23376Z" fill="#045CB4"/>
<path d="M0.000225067 13.8792H48.4229V15.4213H0.000225067V13.8792Z" fill="#045CB4"/>
<path d="M0.000225067 9.56128H48.4229V11.1034H0.000225067V9.56128Z" fill="#045CB4"/>
<path d="M0.000225067 4.93481H48.4229V6.78536H0.000225067V4.93481Z" fill="#045CB4"/>
<path d="M40.0951 0H42.5625V18.8139H40.0951V0Z" fill="#045CB4"/>
<path d="M26.8329 0H29.3003V18.8139H26.8329V0Z" fill="#045CB4"/>
<path d="M-0.000110149 0H2.46729V18.8139H-0.000110149V0Z" fill="#045CB4"/>
<path d="M13.2621 0H15.7295V18.8139H13.2621V0Z" fill="#045CB4"/>
</svg>
