<svg width="151" height="59" viewBox="0 0 151 59" fill="none" xmlns="http://www.w3.org/2000/svg">
<path d="M150.101 8.80401V27.2698L143.506 12.8159H48.4016V29.7429H46.3956L42.8783 11.9916C39.9766 12.4752 38.7382 15.3806 38.4817 16.7729H25.0995L18.8343 29.7429H1.00047L4.54526 27.2698H14.8224L23.0111 11.9916H37.5474C38.9544 7.72684 44.7652 2.88689 47.4948 1V8.80401H150.101Z" fill="white" stroke="white" stroke-width="0.0549578"/>
<path d="M138.395 18.9439L47.137 17.0479V22.2963L138.395 18.9439Z" fill="white" stroke="white" stroke-width="0.0549578"/>
<path d="M138.404 26.3731L47.1463 24.4771V29.7255L138.404 26.3731Z" fill="white" stroke="white" stroke-width="0.0549578"/>
<path d="M36.9236 36.8683C36.6896 33.5828 38.176 31.1819 38.9483 30.3921C37.7785 32.8111 38.4609 35.1459 38.9483 36.0109C37.7425 37.0218 37.0961 37.0037 36.9236 36.8683Z" fill="white"/>
<path d="M37.7659 31.1411C36.5618 31.9845 34.2689 35.4554 33.2729 37.0854C33.6504 37.5879 34.9129 37.4593 35.497 37.3322C35.3352 35.4659 36.9422 32.4272 37.7659 31.1411Z" fill="white"/>
<path d="M33.6475 35.7524L35.8545 36.2057" stroke="white" stroke-width="0.50454"/>
<path d="M34.4155 34.688L36.1496 35.0624" stroke="white" stroke-width="0.50454"/>
<path d="M35.165 33.624L36.6232 33.9393" stroke="white" stroke-width="0.50454"/>
<path d="M36.1504 32.6387L36.978 32.8751" stroke="white" stroke-width="0.50454"/>
<path d="M36.8198 31.7324L37.4701 31.9295" stroke="white" stroke-width="0.50454"/>
<path d="M31.0264 35.6147L38.1993 30.1162L32.3041 36.5798L31.0264 35.6147Z" fill="white"/>
<path d="M39.8406 28.5056C38.9902 27.2393 37.6716 26.3628 36.1749 26.0688C34.6781 25.7748 33.126 26.0875 31.8597 26.9379C30.5935 27.7884 29.717 29.107 29.423 30.6037C29.129 32.1004 29.4416 33.6526 30.2921 34.9188L35.0664 31.7122L39.8406 28.5056Z" fill="white"/>
<path d="M15.9578 39.1819V51.1787H12.6225V44.5592L10.3592 51.1787H7.56848L5.28823 44.5081V51.1787H1.95294V39.1819H5.98592L8.99789 46.9756L11.9418 39.1819H15.9578ZM29.7851 39.1819V51.1787H26.4498V46.363H22.3828V51.1787H19.0475V39.1819H22.3828V43.6913H26.4498V39.1819H29.7851ZM36.2202 39.1819V51.1787H32.8849V39.1819H36.2202Z" fill="white"/>
<path d="M50.9244 39.1819V41.8365H47.7252V51.1787H44.39V41.8365H41.2248V39.1819H50.9244ZM58.9141 51.1787L56.5317 46.7543H56.1744V51.1787H52.8391V39.1819H58.0972C59.0615 39.1819 59.8783 39.352 60.5477 39.6924C61.217 40.0214 61.7218 40.4808 62.0622 41.0707C62.4025 41.6493 62.5727 42.3016 62.5727 43.0277C62.5727 43.8445 62.3458 44.5649 61.892 45.1888C61.4496 45.8014 60.7972 46.2382 59.9351 46.4991L62.6407 51.1787H58.9141ZM56.1744 44.4741H57.825C58.2788 44.4741 58.6191 44.3663 58.846 44.1508C59.0729 43.9352 59.1863 43.6233 59.1863 43.2149C59.1863 42.8291 59.0672 42.5285 58.829 42.313C58.6021 42.0861 58.2674 41.9726 57.825 41.9726H56.1744V44.4741ZM72.3596 49.2218H68.1054L67.4587 51.1787H63.9533L68.3266 39.1819H72.1724L76.5287 51.1787H73.0062L72.3596 49.2218ZM71.5258 46.6693L70.2325 42.7894L68.9562 46.6693H71.5258ZM89.4084 51.1787H86.0731L81.6317 44.4741V51.1787H78.2964V39.1819H81.6317L86.0731 45.9716V39.1819H89.4084V51.1787ZM96.5154 51.2978C95.1201 51.2978 93.9743 50.9688 93.0781 50.3109C92.1818 49.6415 91.6997 48.6886 91.6316 47.452H95.1881C95.2222 47.8718 95.347 48.1781 95.5625 48.3709C95.7781 48.5638 96.056 48.6602 96.3963 48.6602C96.7026 48.6602 96.9522 48.5865 97.1451 48.439C97.3493 48.2802 97.4514 48.0646 97.4514 47.7924C97.4514 47.4407 97.2869 47.1684 96.9579 46.9756C96.6289 46.7827 96.0957 46.5672 95.3583 46.3289C94.5755 46.068 93.9402 45.8184 93.4524 45.5802C92.976 45.3306 92.5562 44.9733 92.1932 44.5081C91.8415 44.0317 91.6657 43.4134 91.6657 42.6533C91.6657 41.8819 91.8585 41.2239 92.2442 40.6793C92.6299 40.1235 93.1631 39.7037 93.8438 39.4201C94.5245 39.1365 95.2959 38.9947 96.1581 38.9947C97.5535 38.9947 98.6652 39.3237 99.4934 39.9817C100.333 40.6283 100.781 41.5415 100.838 42.7214H97.2131C97.2018 42.3583 97.0883 42.0861 96.8728 41.9046C96.6686 41.723 96.402 41.6323 96.073 41.6323C95.8234 41.6323 95.6192 41.706 95.4604 41.8535C95.3016 42.001 95.2222 42.2109 95.2222 42.4831C95.2222 42.71 95.3073 42.9085 95.4774 43.0787C95.6589 43.2375 95.8802 43.3793 96.1411 43.5041C96.402 43.6176 96.7877 43.7651 97.2982 43.9466C98.0583 44.2075 98.6823 44.4684 99.1701 44.7293C99.6692 44.9789 100.095 45.3363 100.446 45.8014C100.809 46.2552 100.991 46.8338 100.991 47.5371C100.991 48.2518 100.809 48.8928 100.446 49.46C100.095 50.0272 99.5785 50.4754 98.8978 50.8043C98.2285 51.1333 97.4344 51.2978 96.5154 51.2978ZM112.7 43.1808C112.7 43.9069 112.53 44.5705 112.19 45.1718C111.861 45.7617 111.356 46.2382 110.675 46.6012C110.006 46.9529 109.184 47.1287 108.208 47.1287H106.557V51.1787H103.222V39.1819H108.208C109.172 39.1819 109.989 39.352 110.658 39.6924C111.339 40.0327 111.85 40.5035 112.19 41.1048C112.53 41.706 112.7 42.398 112.7 43.1808ZM107.885 44.4741C108.826 44.4741 109.297 44.043 109.297 43.1808C109.297 42.3073 108.826 41.8705 107.885 41.8705H106.557V44.4741H107.885ZM120.473 51.2978C119.35 51.2978 118.317 51.0369 117.376 50.5151C116.434 49.9819 115.685 49.2501 115.129 48.3199C114.585 47.3783 114.313 46.3176 114.313 45.1377C114.313 43.9579 114.585 42.9029 115.129 41.9726C115.685 41.031 116.434 40.2993 117.376 39.7775C118.317 39.2556 119.35 38.9947 120.473 38.9947C121.607 38.9947 122.64 39.2556 123.57 39.7775C124.511 40.2993 125.254 41.031 125.799 41.9726C126.343 42.9029 126.616 43.9579 126.616 45.1377C126.616 46.3176 126.343 47.3783 125.799 48.3199C125.254 49.2501 124.511 49.9819 123.57 50.5151C122.628 51.0369 121.596 51.2978 120.473 51.2978ZM120.473 48.2008C121.324 48.2008 121.993 47.9228 122.481 47.3669C122.98 46.8111 123.229 46.068 123.229 45.1377C123.229 44.1848 122.98 43.4361 122.481 42.8915C121.993 42.3357 121.324 42.0577 120.473 42.0577C119.611 42.0577 118.936 42.3357 118.448 42.8915C117.96 43.4361 117.716 44.1848 117.716 45.1377C117.716 46.0793 117.96 46.8281 118.448 47.384C118.936 47.9285 119.611 48.2008 120.473 48.2008ZM134.871 51.1787L132.488 46.7543H132.131V51.1787H128.796V39.1819H134.054C135.018 39.1819 135.835 39.352 136.504 39.6924C137.174 40.0214 137.679 40.4808 138.019 41.0707C138.359 41.6493 138.529 42.3016 138.529 43.0277C138.529 43.8445 138.302 44.5649 137.849 45.1888C137.406 45.8014 136.754 46.2382 135.892 46.4991L138.597 51.1787H134.871ZM132.131 44.4741H133.782C134.235 44.4741 134.576 44.3663 134.803 44.1508C135.03 43.9352 135.143 43.6233 135.143 43.2149C135.143 42.8291 135.024 42.5285 134.786 42.313C134.559 42.0861 134.224 41.9726 133.782 41.9726H132.131V44.4741ZM149.763 39.1819V41.8365H146.564V51.1787H143.228V41.8365H140.063V39.1819H149.763Z" fill="white"/>
<path d="M1 33.4209H26.9613" stroke="white" stroke-width="1.98746"/>
<path d="M43.0469 33.4209H150.122" stroke="white" stroke-width="1.98746"/>
</svg>
