<svg width="36" height="45" viewBox="0 0 36 45" fill="none" xmlns="http://www.w3.org/2000/svg">
<path d="M20.4 11.2V2H6C4.11438 2 3.17157 2 2.58579 2.58579C2 3.17157 2 4.11438 2 6V39.4001C2 41.2857 2 42.2285 2.58579 42.8143C3.17157 43.4001 4.11438 43.4001 6 43.4001H30.2C32.0857 43.4001 33.0285 43.4001 33.6143 42.8143C34.2 42.2285 34.2 41.2857 34.2 39.4001V15.8H25C22.8316 15.8 21.7473 15.8 21.0737 15.1264C20.4 14.4527 20.4 13.3685 20.4 11.2Z" fill="white"/>
<path d="M20.7946 2H11.2C6.86309 2 4.69462 2 3.34731 3.34731C2 4.69462 2 6.86309 2 11.2V34.2C2 38.537 2 40.7054 3.34731 42.0528C4.69462 43.4001 6.86309 43.4001 11.2 43.4001H25C29.337 43.4001 31.5054 43.4001 32.8527 42.0528C34.2 40.7054 34.2 38.537 34.2 34.2V15.4054C34.2 14.4653 34.2 13.9952 34.025 13.5725C33.8499 13.1499 33.5175 12.8175 32.8527 12.1527L24.0473 3.34731C23.3826 2.68254 23.0502 2.35015 22.6275 2.17508C22.2048 2 21.7348 2 20.7946 2Z" stroke="#045CB4" stroke-width="3"/>
<path d="M11.2012 25L25.0012 25" stroke="#045CB4" stroke-width="3" stroke-linecap="round"/>
<path d="M11.2012 34.2L20.4012 34.2" stroke="#045CB4" stroke-width="3" stroke-linecap="round"/>
<path d="M20.4004 2V11.2C20.4004 13.3685 20.4004 14.4527 21.074 15.1264C21.7477 15.8 22.8319 15.8 25.0004 15.8H34.2004" stroke="#045CB4" stroke-width="3"/>
</svg>
