<svg width="132" height="51" viewBox="0 0 132 51" fill="none" xmlns="http://www.w3.org/2000/svg">
<path d="M131.052 7.807V23.9137L125.3 11.3064H42.3456V26.0708H40.5959L37.5279 10.5873C34.9969 11.0092 33.9167 13.5434 33.693 14.7578H22.0205L16.5557 26.0708H1.00026L4.09217 23.9137H13.0563L20.1989 10.5873H32.8781C34.1053 6.86744 39.1738 2.64582 41.5546 1V7.807H131.052Z" fill="black" stroke="black" stroke-width="0.0479366"/>
<path d="M120.841 16.6513L41.2426 14.9975V19.5754L120.841 16.6513Z" fill="url(#paint0_linear_41_183)" stroke="black" stroke-width="0.0479366"/>
<path d="M120.85 23.1314L41.2509 21.4776V26.0555L120.85 23.1314Z" fill="url(#paint1_linear_41_183)" stroke="black" stroke-width="0.0479366"/>
<path d="M32.334 32.286C32.13 29.4203 33.4264 27.3261 34.1001 26.6372C33.0797 28.7471 33.6749 30.7836 34.1001 31.5381C33.0483 32.4199 32.4845 32.4041 32.334 32.286Z" fill="black"/>
<path d="M33.0689 27.2904C32.0186 28.026 30.0186 31.0535 29.1499 32.4752C29.4791 32.9135 30.5803 32.8013 31.0898 32.6905C30.9487 31.0626 32.3504 28.4121 33.0689 27.2904Z" fill="black"/>
<path d="M29.4766 31.3124L31.4016 31.7078" stroke="white" stroke-width="0.440082"/>
<path d="M30.1465 30.3842L31.659 30.7108" stroke="white" stroke-width="0.440082"/>
<path d="M30.8003 29.4561L32.0722 29.7311" stroke="white" stroke-width="0.440082"/>
<path d="M31.6597 28.5966L32.3816 28.8029" stroke="white" stroke-width="0.440082"/>
<path d="M32.2437 27.806L32.8109 27.9779" stroke="white" stroke-width="0.440082"/>
<path d="M27.1904 31.1926L33.447 26.3965L28.3049 32.0343L27.1904 31.1926Z" fill="black"/>
<path d="M34.8786 24.9918C34.1368 23.8874 32.9866 23.1228 31.6811 22.8664C30.3756 22.61 29.0217 22.8827 27.9173 23.6245C26.8128 24.3663 26.0483 25.5164 25.7918 26.8219C25.5354 28.1274 25.8081 29.4813 26.5499 30.5858L30.7142 27.7888L34.8786 24.9918Z" fill="#045CB4"/>
<path d="M14.0468 33.7309V44.1951H11.1376V38.4213L9.16353 44.1951H6.72931L4.74038 38.3767V44.1951H1.8312V33.7309H5.34894L7.97611 40.5289L10.5439 33.7309H14.0468ZM26.1076 33.7309V44.1951H23.1984V39.9946H19.651V44.1951H16.7418V33.7309H19.651V37.6643H23.1984V33.7309H26.1076ZM31.7206 33.7309V44.1951H28.8114V33.7309H31.7206Z" fill="black"/>
<path d="M44.5462 33.7309V36.0464H41.7558V44.1951H38.8466V36.0464H36.0858V33.7309H44.5462ZM51.5151 44.1951L49.4371 40.336H49.1254V44.1951H46.2163V33.7309H50.8027C51.6438 33.7309 52.3562 33.8794 52.94 34.1762C53.5238 34.4632 53.9642 34.8639 54.261 35.3785C54.5579 35.8831 54.7063 36.4521 54.7063 37.0854C54.7063 37.7979 54.5084 38.4262 54.1126 38.9704C53.7267 39.5048 53.1577 39.8857 52.4057 40.1133L54.7657 44.1951H51.5151ZM49.1254 38.347H50.5652C50.961 38.347 51.2579 38.253 51.4558 38.065C51.6537 37.877 51.7526 37.6049 51.7526 37.2487C51.7526 36.9122 51.6487 36.65 51.4409 36.462C51.243 36.2641 50.9511 36.1652 50.5652 36.1652H49.1254V38.347ZM63.2429 42.4882H59.5322L58.9682 44.1951H55.9106L59.7252 33.7309H63.0796L66.8794 44.1951H63.8069L63.2429 42.4882ZM62.5156 40.2618L61.3875 36.8776L60.2743 40.2618H62.5156ZM78.1136 44.1951H75.2044L71.3305 38.347V44.1951H68.4213V33.7309H71.3305L75.2044 39.6532V33.7309H78.1136V44.1951ZM84.3127 44.299C83.0956 44.299 82.0962 44.012 81.3144 43.4381C80.5327 42.8543 80.1122 42.0231 80.0528 40.9445H83.1549C83.1846 41.3107 83.2935 41.5778 83.4815 41.746C83.6695 41.9143 83.9119 41.9984 84.2088 41.9984C84.476 41.9984 84.6937 41.934 84.8619 41.8054C85.04 41.6669 85.129 41.4789 85.129 41.2414C85.129 40.9346 84.9856 40.6972 84.6986 40.5289C84.4116 40.3607 83.9466 40.1727 83.3034 39.9649C82.6206 39.7373 82.0665 39.5196 81.641 39.3118C81.2254 39.0941 80.8593 38.7824 80.5426 38.3767C80.2359 37.9611 80.0825 37.4218 80.0825 36.7589C80.0825 36.086 80.2507 35.5121 80.5871 35.0371C80.9236 34.5522 81.3887 34.1861 81.9824 33.9387C82.5761 33.6914 83.249 33.5677 84.001 33.5677C85.2181 33.5677 86.1878 33.8546 86.9102 34.4285C87.6424 34.9926 88.0333 35.7891 88.0828 36.8182H84.9212C84.9113 36.5016 84.8124 36.2641 84.6244 36.1058C84.4463 35.9475 84.2137 35.8683 83.9268 35.8683C83.7091 35.8683 83.531 35.9326 83.3924 36.0613C83.2539 36.1899 83.1846 36.373 83.1846 36.6104C83.1846 36.8083 83.2588 36.9815 83.4073 37.1299C83.5656 37.2685 83.7586 37.3922 83.9861 37.501C84.2137 37.6 84.5502 37.7286 84.9955 37.8869C85.6584 38.1145 86.2027 38.3421 86.6282 38.5697C87.0635 38.7874 87.4346 39.0991 87.7414 39.5048C88.058 39.9006 88.2163 40.4052 88.2163 41.0187C88.2163 41.6421 88.058 42.2012 87.7414 42.696C87.4346 43.1907 86.9844 43.5816 86.3907 43.8686C85.8069 44.1555 85.1142 44.299 84.3127 44.299ZM98.4299 37.219C98.4299 37.8523 98.2815 38.4312 97.9846 38.9556C97.6977 39.4701 97.2573 39.8857 96.6636 40.2024C96.0798 40.5091 95.3624 40.6625 94.5114 40.6625H93.0717V44.1951H90.1625V33.7309H94.5114C95.3525 33.7309 96.065 33.8794 96.6488 34.1762C97.2425 34.4731 97.6878 34.8837 97.9846 35.4082C98.2815 35.9326 98.4299 36.5362 98.4299 37.219ZM94.2294 38.347C95.0507 38.347 95.4614 37.971 95.4614 37.219C95.4614 36.4571 95.0507 36.0761 94.2294 36.0761H93.0717V38.347H94.2294ZM105.209 44.299C104.23 44.299 103.329 44.0714 102.508 43.6162C101.687 43.1512 101.033 42.5129 100.549 41.7015C100.074 40.8802 99.8361 39.955 99.8361 38.9259C99.8361 37.8968 100.074 36.9766 100.549 36.1652C101.033 35.3439 101.687 34.7056 102.508 34.2504C103.329 33.7953 104.23 33.5677 105.209 33.5677C106.199 33.5677 107.099 33.7953 107.911 34.2504C108.732 34.7056 109.38 35.3439 109.855 36.1652C110.33 36.9766 110.567 37.8968 110.567 38.9259C110.567 39.955 110.33 40.8802 109.855 41.7015C109.38 42.5129 108.732 43.1512 107.911 43.6162C107.089 44.0714 106.189 44.299 105.209 44.299ZM105.209 41.5976C105.951 41.5976 106.535 41.3552 106.961 40.8703C107.396 40.3855 107.614 39.7373 107.614 38.9259C107.614 38.0947 107.396 37.4416 106.961 36.9667C106.535 36.4818 105.951 36.2394 105.209 36.2394C104.457 36.2394 103.868 36.4818 103.443 36.9667C103.017 37.4416 102.805 38.0947 102.805 38.9259C102.805 39.7472 103.017 40.4003 103.443 40.8852C103.868 41.3601 104.457 41.5976 105.209 41.5976ZM117.768 44.1951L115.69 40.336H115.378V44.1951H112.469V33.7309H117.055C117.896 33.7309 118.609 33.8794 119.193 34.1762C119.777 34.4632 120.217 34.8639 120.514 35.3785C120.811 35.8831 120.959 36.4521 120.959 37.0854C120.959 37.7979 120.761 38.4262 120.365 38.9704C119.979 39.5048 119.41 39.8857 118.658 40.1133L121.018 44.1951H117.768ZM115.378 38.347H116.818C117.214 38.347 117.511 38.253 117.708 38.065C117.906 37.877 118.005 37.6049 118.005 37.2487C118.005 36.9122 117.901 36.65 117.694 36.462C117.496 36.2641 117.204 36.1652 116.818 36.1652H115.378V38.347ZM130.757 33.7309V36.0464H127.967V44.1951H125.058V36.0464H122.297V33.7309H130.757Z" fill="#045CB4"/>
<path d="M1 29.2786H23.6445" stroke="#045CB4" stroke-width="1.73355"/>
<path d="M37.6753 29.2786H131.07" stroke="black" stroke-width="1.73355"/>
<defs>
<linearGradient id="paint0_linear_41_183" x1="120.841" y1="17.2865" x2="41.2426" y2="17.2865" gradientUnits="userSpaceOnUse">
<stop stop-color="#D9D9D9"/>
<stop offset="1"/>
</linearGradient>
<linearGradient id="paint1_linear_41_183" x1="120.85" y1="23.7666" x2="41.2509" y2="23.7666" gradientUnits="userSpaceOnUse">
<stop stop-color="#D9D9D9"/>
<stop offset="1"/>
</linearGradient>
</defs>
</svg>
