<svg width="436" height="411" viewBox="0 0 436 411" fill="none" xmlns="http://www.w3.org/2000/svg">
<path d="M65.9731 354.379C74.5518 362.914 82.6698 368.418 89.0838 372.766C164.474 423.883 253.681 408.983 272.641 405.344C300.637 399.971 354.754 389.585 393.879 346.106C453.072 280.327 443.854 176.693 397.941 108.283C389.542 95.7704 345.18 26.3177 255.012 15.18C200.443 8.43894 136.834 22.0336 90.7697 58.5037C-5.92279 135.055 0.96106 289.702 65.9746 354.38L65.9731 354.379Z" fill="#045CB4" fill-opacity="0.2"/>
<path d="M429.845 14.801C430.377 12.6661 427.194 11.2466 425.244 12.7388C405.45 27.8812 357.893 73.2258 369.745 152.469C384.616 251.892 359.194 288.17 327.548 310.3C327.548 310.3 371.007 299.893 398.349 263.081C465.482 172.697 420.393 52.7589 429.845 14.801Z" fill="#045CB4"/>
<g style="mix-blend-mode:soft-light">
<path d="M414.783 45.8539C412.307 56.9217 410.1 68.0238 408.394 79.1758C406.618 90.3177 405.255 101.5 404.323 112.7C403.444 123.902 402.823 135.115 402.788 146.334C402.692 157.551 403.186 168.76 403.73 180.012C404.196 191.261 404.746 202.59 403.873 214C403.015 225.385 400.474 236.872 395.433 247.639C394.174 250.323 392.849 252.998 391.343 255.583C389.895 258.191 388.306 260.749 386.661 263.282C383.339 268.336 379.601 273.218 375.434 277.853C367.07 287.106 356.984 295.314 345.872 302.262C344.703 302.993 343.026 302.813 342.129 301.86C341.248 300.925 341.444 299.591 342.559 298.851L342.567 298.846C345.21 297.094 347.827 295.32 350.337 293.456C351.611 292.541 352.831 291.58 354.074 290.639C355.272 289.662 356.517 288.721 357.676 287.715C362.395 283.753 366.765 279.526 370.732 275.055C378.709 266.158 385.095 256.242 389.933 245.963C392.282 240.8 394.16 235.504 395.53 230.11C396.896 224.714 397.755 219.224 398.229 213.689C399.181 202.614 398.751 191.398 398.384 180.148C398.033 168.894 397.776 157.584 398.092 146.283C398.231 140.632 398.494 134.985 398.881 129.345C399.054 126.523 399.294 123.705 399.53 120.888C399.797 118.071 400.085 115.257 400.399 112.445C401.684 101.199 403.39 89.9885 405.527 78.8394C407.731 67.6989 410.296 56.6082 413.382 45.6173C413.47 45.3038 413.855 45.1071 414.24 45.1783C414.615 45.2482 414.852 45.5475 414.786 45.851L414.783 45.8539Z" fill="white"/>
</g>
<path d="M375.857 229.993C377.813 232.775 382.146 232.768 384.129 230.003C395.077 214.752 421.896 168.99 402.424 108.115C385.98 56.7094 382.241 27.3609 381.522 13.9258C381.369 11.0855 377.463 10.0779 375.797 12.4493C357.416 38.6041 304.966 129.202 375.857 229.991V229.993Z" fill="#82AEDA"/>
<g style="mix-blend-mode:soft-light">
<path d="M380.519 228.951C380.602 228.98 380.688 229 380.777 229.014C381.531 229.125 382.238 228.638 382.354 227.926C382.487 227.12 395.45 146.472 376.008 74.0224C375.821 73.3255 375.07 72.9022 374.33 73.079C373.59 73.2557 373.143 73.964 373.33 74.6623C392.631 146.586 379.758 226.725 379.625 227.526C379.52 228.153 379.909 228.744 380.517 228.953L380.519 228.951Z" fill="white"/>
</g>
<path d="M141.921 82.8498L265.723 72.4518L389.523 84.2094V334.319L265.723 328.129L141.921 334.992L18.2751 324.516V77.0351L141.921 82.8498Z" fill="#045CB4"/>
<path d="M263.064 324.919L380.692 330.792V93.5287L263.064 82.3754V324.919Z" fill="#82AEDA"/>
<path d="M145.438 328.938L263.065 322.427V79.8813L145.438 89.7449V328.938Z" fill="#82AEDA"/>
<path d="M27.9581 318.999L145.438 328.938V89.745L27.9581 84.2296V318.999Z" fill="#82AEDA"/>
<path opacity="0.47" d="M265.729 322.494H263.065V79.8813L265.729 82.3754V322.494Z" fill="white"/>
<path d="M380.693 181.051C370.617 200.096 349.005 216.64 329.859 227.902C321.146 233.027 312.04 237.891 302.022 240.013C292.002 242.135 280.828 241.195 272.53 235.487C261.744 228.066 257.728 214.524 246.382 207.725C240.596 204.257 233.632 205.483 227.594 201.9C221.651 198.373 217.133 192.49 216.224 185.844C215.558 180.973 216.586 176.037 216.425 171.128C215.802 152.266 198.412 137.911 191.823 120.094C187.858 109.374 187.948 97.75 188.081 86.3971C181.842 87.3377 175.51 87.7282 169.196 87.5629C173.131 104.024 177.125 120.648 184.874 135.856C188.788 143.536 193.654 150.847 196.343 158.982C197.452 162.337 198.175 165.934 197.328 169.355C196.48 172.777 193.742 175.966 190.074 176.58C183.566 177.671 176.827 171.21 171.811 168.163C165.369 164.25 158.476 160.929 151.059 159.015C143.866 157.16 136.349 155.828 130.014 152.117C120.198 146.368 114.794 135.87 110.829 125.633C105.981 113.12 102.507 100.134 100.48 86.9501C88.49 86.9344 80.3614 87.0954 69.1905 86.1648C84.8041 106.533 96.2922 129.149 101.276 153.843C102.24 158.62 102.986 163.566 101.889 168.316C98.6382 182.401 73.0017 192.004 61.9153 200.525C49.5087 210.06 38.0538 220.915 27.9569 232.646V250.177C44.128 233.915 62.997 220.448 83.9249 210.103C91.6079 206.305 107.025 195.056 115.805 196.896C120.217 197.821 124.504 199.28 128.524 201.23C130.4 202.139 132.257 203.185 133.618 204.706C135.257 206.539 136.039 208.9 136.783 211.195C137.87 214.55 138.965 217.949 139.124 221.453C139.198 223.098 139.065 224.744 138.854 226.379C137.908 233.684 135.378 240.803 131.464 247.168C129.412 250.504 125.142 253.958 122.388 256.954C114.219 265.839 104.599 273.691 98.2319 283.803C93.833 290.788 91.1577 298.538 87.5776 305.89C84.5216 311.944 79.6454 317.102 76.3054 323.046C80.2451 323.406 84.1847 323.763 88.1259 324.122C93.1683 314.676 99.6186 305.9 107.228 298.133C111.524 293.748 115.155 289.528 120.193 285.69C130.396 277.918 140.996 269.885 153.517 265.722C166.816 261.301 177.533 269.191 189.074 275.031C205.764 283.478 223.846 287.668 242.652 288.875C250.445 289.375 254.753 293.909 262.106 295.977C270.039 298.209 277.473 296.58 284.219 292.173C308.9 276.05 332.444 257.915 352.221 236.514C362.383 225.519 381.422 211.772 380.96 197.061C380.608 185.875 381.465 181.544 380.694 181.053L380.693 181.051Z" fill="#045CB4"/>
<path d="M326.863 229.451C327.269 229.451 327.677 229.32 328.011 229.052C328.757 228.454 328.849 227.396 328.213 226.691C327.11 225.467 326.005 224.251 324.894 223.045C324.252 222.347 323.132 222.273 322.39 222.88C321.65 223.487 321.571 224.544 322.215 225.243C323.316 226.439 324.413 227.646 325.508 228.861C325.858 229.25 326.358 229.451 326.861 229.451H326.863ZM318.5 220.449C318.926 220.449 319.355 220.305 319.695 220.012C320.42 219.39 320.473 218.331 319.813 217.647C318.627 216.418 317.458 215.231 316.335 214.115C315.66 213.445 314.536 213.415 313.825 214.052C313.113 214.689 313.085 215.75 313.758 216.421C314.864 217.52 316.017 218.691 317.186 219.903C317.536 220.266 318.017 220.45 318.499 220.45L318.5 220.449ZM143.983 213.099C144.951 213.099 145.744 212.365 145.758 211.447C145.771 210.522 144.987 209.761 144.008 209.748C142.986 209.734 141.954 209.706 140.942 209.664C140.431 209.545 139.925 209.421 139.424 209.295C138.473 209.057 137.504 209.592 137.253 210.485C137.002 211.379 137.567 212.297 138.514 212.533C139.09 212.677 139.67 212.818 140.256 212.955L140.427 212.995L140.602 213.002C141.709 213.05 142.838 213.082 143.957 213.098C143.966 213.098 143.974 213.098 143.983 213.098V213.099ZM151.584 212.951C151.617 212.951 151.649 212.951 151.682 212.948C153.37 212.861 155.093 212.737 156.806 212.582C157.782 212.493 158.497 211.674 158.403 210.753C158.309 209.832 157.441 209.161 156.465 209.247C154.802 209.399 153.126 209.519 151.489 209.603C150.51 209.653 149.759 210.444 149.814 211.367C149.865 212.26 150.649 212.951 151.585 212.951H151.584ZM309.71 211.828C310.172 211.828 310.633 211.658 310.98 211.322C311.665 210.659 311.651 209.599 310.949 208.953C309.701 207.806 308.445 206.687 307.22 205.63C306.495 205.005 305.373 205.054 304.711 205.737C304.05 206.419 304.101 207.478 304.825 208.102C306.024 209.136 307.249 210.229 308.47 211.352C308.816 211.67 309.263 211.828 309.708 211.828H309.71ZM164.179 211.691C164.27 211.691 164.361 211.684 164.453 211.671C166.11 211.429 167.811 211.152 169.506 210.849C170.47 210.676 171.103 209.8 170.92 208.89C170.737 207.983 169.8 207.384 168.844 207.558C167.187 207.854 165.528 208.125 163.911 208.36C162.942 208.501 162.278 209.358 162.427 210.271C162.563 211.099 163.318 211.691 164.179 211.691ZM131.697 210.509C132.434 210.509 133.121 210.073 133.375 209.379C133.694 208.504 133.201 207.552 132.274 207.25C130.691 206.736 129.126 206.183 127.62 205.605C126.709 205.258 125.676 205.671 125.307 206.527C124.938 207.384 125.376 208.362 126.284 208.709C127.849 209.309 129.476 209.884 131.118 210.417C131.31 210.479 131.505 210.508 131.697 210.508V210.509ZM176.612 209.378C176.748 209.378 176.885 209.364 177.023 209.332C178.642 208.97 180.31 208.575 181.982 208.158C182.929 207.921 183.494 207.005 183.245 206.11C182.994 205.216 182.026 204.682 181.074 204.918C179.432 205.329 177.795 205.717 176.205 206.071C175.251 206.285 174.662 207.187 174.887 208.087C175.08 208.858 175.808 209.376 176.612 209.376V209.378ZM188.846 206.26C189.015 206.26 189.188 206.237 189.357 206.188C190.929 205.742 192.57 205.262 194.234 204.759C195.168 204.477 195.682 203.533 195.383 202.652C195.083 201.772 194.083 201.286 193.15 201.568C191.506 202.065 189.887 202.54 188.336 202.979C187.396 203.245 186.864 204.179 187.145 205.065C187.376 205.791 188.082 206.258 188.845 206.258L188.846 206.26ZM120.044 205.849C120.688 205.849 121.31 205.517 121.624 204.94C122.073 204.118 121.73 203.107 120.857 202.684C119.376 201.966 117.92 201.203 116.532 200.416C115.692 199.94 114.601 200.197 114.097 200.991C113.592 201.785 113.866 202.813 114.706 203.288C116.162 204.112 117.684 204.911 119.234 205.662C119.494 205.788 119.771 205.848 120.044 205.848V205.849ZM300.258 203.855C300.775 203.855 301.288 203.643 301.639 203.234C302.255 202.516 302.137 201.46 301.376 200.878C300.013 199.838 298.639 198.839 297.29 197.907C296.498 197.361 295.388 197.523 294.809 198.269C294.231 199.015 294.401 200.063 295.193 200.609C296.495 201.508 297.824 202.474 299.142 203.48C299.471 203.731 299.865 203.854 300.258 203.854V203.855ZM200.914 202.57C201.106 202.57 201.301 202.54 201.491 202.479C203.108 201.954 204.711 201.424 206.298 200.89C207.223 200.58 207.705 199.623 207.377 198.75C207.047 197.878 206.032 197.422 205.109 197.734C203.532 198.263 201.942 198.79 200.337 199.31C199.41 199.611 198.917 200.565 199.236 201.44C199.49 202.134 200.177 202.57 200.914 202.57ZM109.316 199.527C109.853 199.527 110.387 199.298 110.734 198.86C111.325 198.122 111.168 197.071 110.385 196.514C109.069 195.579 107.782 194.59 106.559 193.577C105.822 192.967 104.701 193.035 104.053 193.731C103.406 194.426 103.479 195.484 104.216 196.095C105.506 197.163 106.862 198.204 108.248 199.189C108.568 199.417 108.943 199.527 109.314 199.527H109.316ZM212.863 198.548C213.066 198.548 213.271 198.515 213.474 198.445L218.24 196.799C219.161 196.481 219.634 195.519 219.297 194.65C218.96 193.781 217.939 193.336 217.019 193.653L212.255 195.299C211.333 195.616 210.86 196.578 211.197 197.446C211.46 198.125 212.14 198.547 212.865 198.547L212.863 198.548ZM289.921 196.943C290.521 196.943 291.107 196.657 291.441 196.137C291.948 195.346 291.681 194.315 290.842 193.836C289.338 192.977 287.814 192.169 286.312 191.438C285.443 191.013 284.371 191.335 283.921 192.158C283.471 192.98 283.812 193.99 284.684 194.414C286.114 195.11 287.567 195.88 289.002 196.701C289.291 196.865 289.608 196.943 289.921 196.943ZM224.783 194.453C224.981 194.453 225.184 194.422 225.38 194.355C226.99 193.812 228.581 193.283 230.148 192.776C231.075 192.475 231.568 191.522 231.249 190.648C230.93 189.773 229.923 189.307 228.994 189.609C227.412 190.122 225.809 190.654 224.185 191.203C223.262 191.515 222.78 192.472 223.111 193.343C223.371 194.027 224.054 194.455 224.783 194.455V194.453ZM278.552 191.682C279.271 191.682 279.948 191.267 280.214 190.594C280.558 189.728 280.094 188.763 279.176 188.438C277.534 187.856 275.863 187.342 274.211 186.907C273.263 186.659 272.288 187.179 272.025 188.072C271.762 188.962 272.313 189.886 273.257 190.135C274.81 190.543 276.381 191.027 277.928 191.576C278.134 191.649 278.344 191.683 278.552 191.683V191.682ZM99.9741 191.483C100.399 191.483 100.825 191.341 101.164 191.052C101.893 190.432 101.948 189.373 101.291 188.686C100.195 187.541 99.1311 186.341 98.1311 185.119C97.5329 184.386 96.4181 184.251 95.6416 184.816C94.8652 185.382 94.7217 186.434 95.3214 187.165C96.3788 188.456 97.5012 189.725 98.6583 190.932C99.0088 191.298 99.4922 191.483 99.9756 191.483H99.9741ZM236.805 190.633C236.977 190.633 237.154 190.608 237.328 190.558C239.009 190.07 240.628 189.626 242.142 189.239C243.088 188.996 243.648 188.077 243.391 187.184C243.134 186.292 242.161 185.761 241.213 186.005C239.661 186.401 238.003 186.856 236.282 187.356C235.346 187.628 234.82 188.566 235.108 189.45C235.343 190.169 236.045 190.633 236.805 190.633ZM249.085 187.671C249.193 187.671 249.304 187.661 249.414 187.643C251.116 187.34 252.755 187.11 254.289 186.954C255.263 186.856 255.97 186.031 255.866 185.111C255.761 184.192 254.888 183.524 253.911 183.624C252.286 183.787 250.551 184.033 248.757 184.35C247.793 184.521 247.159 185.397 247.34 186.306C247.5 187.11 248.245 187.671 249.083 187.671H249.085ZM266.695 187.554C267.487 187.554 268.207 187.051 268.414 186.294C268.658 185.398 268.085 184.486 267.135 184.256C265.473 183.854 263.686 183.584 261.827 183.453C260.845 183.38 259.997 184.075 259.923 184.997C259.849 185.92 260.583 186.723 261.561 186.793C263.215 186.91 264.793 187.149 266.256 187.501C266.404 187.537 266.552 187.554 266.698 187.554H266.695ZM92.4331 181.899C92.7458 181.899 93.0631 181.821 93.3501 181.657C94.1885 181.178 94.4574 180.149 93.9498 179.357C93.1084 178.045 92.3017 176.674 91.5494 175.282C91.1038 174.458 90.0343 174.131 89.1612 174.55C88.288 174.97 87.9406 175.978 88.3847 176.803C89.1747 178.266 90.0237 179.709 90.909 181.088C91.2428 181.608 91.8289 181.896 92.4301 181.896L92.4331 181.899ZM86.8711 171.169C87.0841 171.169 87.3016 171.132 87.5131 171.055C88.427 170.72 88.8802 169.751 88.5267 168.887C87.9391 167.459 87.3847 165.974 86.8786 164.472C86.581 163.59 85.584 163.103 84.649 163.383C83.7154 163.664 83.1988 164.606 83.4964 165.487C84.0251 167.055 84.6037 168.605 85.2169 170.097C85.4904 170.761 86.1611 171.168 86.8726 171.168L86.8711 171.169ZM83.1927 159.729C83.3227 159.729 83.4556 159.715 83.5885 159.686C84.5447 159.481 85.1429 158.583 84.9254 157.681C84.5629 156.181 84.2336 154.63 83.9435 153.071C83.7743 152.16 82.8574 151.549 81.8891 151.71C80.9238 151.869 80.2773 152.737 80.4465 153.648C80.7456 155.263 81.0885 156.869 81.4646 158.424C81.6519 159.2 82.3831 159.728 83.1943 159.728L83.1927 159.729ZM81.1338 147.926C81.1972 147.926 81.2607 147.923 81.3256 147.916C82.3 147.818 83.007 146.991 82.9012 146.072C82.7275 144.544 82.5809 142.962 82.4661 141.367C82.3997 140.444 81.5432 139.745 80.5733 139.81C79.596 139.872 78.8558 140.672 78.9223 141.594C79.0401 143.231 79.1911 144.859 79.3694 146.43C79.4676 147.289 80.2365 147.926 81.1323 147.926H81.1338ZM80.377 135.98C80.3875 135.98 80.3981 135.98 80.4087 135.98C81.3891 135.965 82.1701 135.202 82.1534 134.277C82.1368 133.335 82.1293 132.406 82.1293 131.491C82.1293 130.832 82.1338 130.181 82.1414 129.538C82.1519 128.614 81.3649 127.855 80.386 127.845H80.3664C79.3951 127.845 78.602 128.584 78.5914 129.503C78.5839 130.158 78.5794 130.821 78.5794 131.492C78.5794 132.427 78.5869 133.375 78.605 134.336C78.6216 135.251 79.4132 135.982 80.38 135.982L80.377 135.98Z" fill="white"/>
<path d="M330.494 242.171C325.438 242.171 321.34 238.304 321.34 233.534C321.34 228.765 325.438 224.898 330.494 224.898C335.55 224.898 339.648 228.765 339.648 233.534C339.648 238.304 335.55 242.171 330.494 242.171Z" fill="white"/>
<path d="M307.219 169.216C293.712 156.473 293.712 135.811 307.219 123.067C320.727 110.324 342.627 110.324 356.135 123.067C369.642 135.811 369.642 156.473 356.135 169.216C342.627 181.96 320.727 181.96 307.219 169.216Z" fill="#045CB4"/>
<path d="M297.152 143.488H366.264C366.264 143.488 369.018 162.052 338.149 211.661C336.801 213.826 334.34 215.345 331.68 215.346C329.02 215.346 326.555 213.737 325.207 211.572C294.341 161.959 297.151 143.488 297.151 143.488H297.152Z" fill="#045CB4"/>
<path d="M331.053 216.632V216.772H331.682C334.692 216.772 337.502 215.231 339.016 212.8C357.06 183.802 363.672 165.477 366.04 155.217C366.716 152.857 367.104 150.548 367.226 148.177C367.435 145.75 367.276 144.731 367.256 144.622L367.166 144.102C365.771 126.574 350.309 112.932 331.678 112.932C313.048 112.932 297.2 126.768 296.146 144.436C296.119 144.667 296.069 145.254 296.089 146.234V146.355C296.087 149.561 296.567 152.734 297.513 155.791C299.963 166.043 306.296 184.197 324.032 212.706C325.554 215.153 328.219 216.632 331.055 216.632H331.053ZM365.321 145.629C365.329 145.629 365.314 146.933 365.223 147.984V148.039C365.105 150.286 364.738 152.478 364.095 154.718L364.083 154.771C361.75 164.891 355.206 183.005 337.283 211.808C336.129 213.662 333.669 214.816 331.369 214.816L331.053 215.765V214.818C329.919 214.818 326.579 213.656 325.414 211.786C307.791 183.46 301.003 165.458 298.735 155.344V155.286C297.601 152.394 297.49 149.388 297.49 146.354L297.601 146.22V146.21C297.601 145.265 297.879 144.755 297.895 144.621L298.024 144.565C299.006 127.888 313.796 114.825 331.615 114.825C349.434 114.825 364.158 127.957 365.172 144.779L365.256 145.626H365.321V145.629Z" fill="#023246"/>
<path d="M350.511 126.419C350.605 126.419 350.698 126.382 350.765 126.309C350.886 126.176 350.869 125.977 350.729 125.864C345.118 121.318 337.95 118.815 330.544 118.815C330.36 118.815 330.208 118.957 330.208 119.132C330.208 119.307 330.358 119.448 330.544 119.448C337.789 119.448 344.802 121.898 350.292 126.345C350.355 126.396 350.432 126.42 350.51 126.42L350.511 126.419Z" fill="white"/>
<path d="M361.205 148.372C361.389 148.372 361.541 148.231 361.541 148.056C361.541 142.599 359.938 137.277 356.904 132.662C356.806 132.514 356.601 132.469 356.444 132.56C356.287 132.652 356.238 132.846 356.335 132.994C359.303 137.508 360.871 142.715 360.871 148.054C360.871 148.228 361.021 148.371 361.207 148.371L361.205 148.372Z" fill="white"/>
<path d="M350.967 132.983L353.322 124.794L360.188 121.282L361.104 122.861L354.958 125.987L347.635 151.301L347.408 152.026H317.529C314.618 152.026 311.915 150.706 310.335 148.399L308.971 146.753C307.53 144.645 306.53 142.23 306.53 139.72V132.983H350.969H350.967ZM308.66 139.72C308.66 141.879 309.447 143.971 310.689 145.784L311.93 147.652C313.152 149.439 315.27 150.685 317.527 150.685H345.942L347.496 145.252L350.443 134.994H308.66V139.72Z" fill="white"/>
<path d="M310.654 161.213C310.654 161.712 311.084 162.218 311.616 162.218H346.674C347.206 162.218 347.608 161.509 347.608 161.01V145.413C347.608 145.241 347.572 145.259 347.484 145.123L345.943 150.685H345.476V160.207H311.616C311.084 160.207 310.654 160.713 310.654 161.214V161.213Z" fill="white"/>
<path d="M328.839 133.929H330.118V150.907H328.839V133.929Z" fill="white"/>
<path d="M340.143 133.929H341.422V150.907H340.143V133.929Z" fill="white"/>
<path d="M317.801 133.929H319.08V150.907H317.801V133.929Z" fill="white"/>
<path d="M308.332 138.923H349.957V140.003H308.332V138.923Z" fill="white"/>
<path d="M309.374 144.833H348.14V145.914H309.374V144.833Z" fill="white"/>
<path d="M342.185 163.458C344.467 163.458 346.318 165.203 346.318 167.357C346.318 169.51 344.467 171.256 342.185 171.256C339.902 171.256 338.052 169.51 338.052 167.357C338.052 165.203 339.902 163.458 342.185 163.458ZM342.185 169.711C343.563 169.711 344.68 168.658 344.68 167.357C344.68 166.056 343.563 165.002 342.185 165.002C340.807 165.002 339.689 166.056 339.689 167.357C339.689 168.658 340.806 169.711 342.185 169.711Z" fill="white"/>
<path d="M316.495 163.458C318.778 163.458 320.628 165.203 320.628 167.357C320.628 169.51 318.778 171.256 316.495 171.256C314.213 171.256 312.362 169.51 312.362 167.357C312.362 165.203 314.213 163.458 316.495 163.458ZM316.495 169.711C317.873 169.711 318.991 168.658 318.991 167.357C318.991 166.056 317.875 165.002 316.495 165.002C315.116 165.002 314 166.056 314 167.357C314 168.658 315.116 169.711 316.495 169.711Z" fill="white"/>
<path d="M355.928 122.86C355.928 123.872 356.798 124.693 357.871 124.693H364.333C365.406 124.693 366.276 123.872 366.276 122.86C366.276 121.848 365.406 121.027 364.333 121.027H357.871C356.798 121.027 355.928 121.848 355.928 122.86Z" fill="white"/>
<path d="M77.2393 143.555C72.1835 143.555 68.085 139.688 68.085 134.918C68.085 130.149 72.1835 126.282 77.2393 126.282C82.2951 126.282 86.3936 130.149 86.3936 134.918C86.3936 139.688 82.2951 143.555 77.2393 143.555Z" fill="white"/>
<path d="M51.4815 71.7476C37.4813 58.5392 37.4813 37.1242 51.4815 23.9159C65.4817 10.7075 88.1805 10.7075 102.181 23.9159C116.181 37.1242 116.181 58.5392 102.181 71.7476C88.1805 84.9559 65.4817 84.9559 51.4815 71.7476Z" fill="#045CB4"/>
<path d="M41.0467 45.0801H112.681C112.681 45.0801 115.535 64.3213 83.5401 115.741C82.1443 117.985 79.5928 119.559 76.836 119.561C74.0791 119.561 71.5232 117.892 70.1274 115.649C38.1342 64.2244 41.0467 45.0801 41.0467 45.0801Z" fill="#045CB4"/>
<path d="M76.1837 120.892V121.037H76.8347C79.9556 121.037 82.8681 119.44 84.4361 116.92C103.139 86.8632 109.991 67.87 112.446 57.2368C113.145 54.7912 113.549 52.3983 113.675 49.9399C113.891 47.4245 113.727 46.3685 113.707 46.2559L113.613 45.7157C112.169 27.5477 96.1418 13.4086 76.8302 13.4086C57.5186 13.4086 41.0938 27.7486 40.0001 46.062C39.9729 46.3015 39.92 46.91 39.9412 47.9262V48.0516C39.9396 51.3736 40.4366 54.6644 41.4185 57.8311C43.9579 68.4557 50.5215 87.2737 68.9055 116.823C70.4841 119.36 73.2455 120.892 76.1837 120.892ZM111.703 47.2977C111.712 47.2977 111.695 48.6502 111.6 49.7404L111.597 49.7974C111.477 52.1261 111.097 54.3993 110.431 56.7209L110.419 56.775C108 67.2643 101.219 86.0395 82.6415 115.894C81.4451 117.816 78.8967 119.012 76.5115 119.014L76.1837 119.997V119.015C75.0084 119.015 71.5461 117.811 70.3391 115.873C52.0728 86.5126 45.0365 67.8529 42.686 57.3708V57.3095C41.5107 54.3123 41.3959 51.1969 41.3959 48.0516L41.5107 47.9133V47.9019C41.5107 46.9228 41.7992 46.3941 41.8158 46.2544L41.9488 46.1974C42.9669 28.9116 58.2966 15.371 76.7652 15.371C95.2339 15.371 110.496 28.9814 111.547 46.4183L111.635 47.2962H111.701L111.703 47.2977Z" fill="#023246"/>
<path d="M64.4279 83.8276H88.3272C92.7533 83.8276 96.353 80.4314 96.353 76.2557V48.5475H56.479V76.3284C56.479 80.4628 60.0441 83.8276 64.4279 83.8276ZM94.4603 50.3333V76.2557C94.4603 79.4466 91.7079 82.0419 88.3272 82.0419H64.4279C61.0894 82.0419 58.3718 79.4794 58.3718 76.3284V50.3333H94.4603Z" fill="white"/>
<path d="M53.0348 49.4382H99.7911C100.658 49.4382 101.448 49.0321 101.906 48.3494C102.329 47.7209 102.403 46.9485 102.096 46.3357L102.022 46.1874L77.1139 23.4973C75.5927 22.6337 73.8615 22.732 72.9023 23.7339L51.3263 46.3C50.8052 46.8444 50.6722 47.5898 50.9804 48.2454C51.3218 48.9694 52.1284 49.4382 53.0348 49.4382ZM100.391 47.1836C100.385 47.2406 100.361 47.3147 100.309 47.3931C100.229 47.5114 100.075 47.6525 99.7911 47.6525H53.0348C52.8097 47.6525 52.7146 47.5442 52.7085 47.5143L74.3072 24.931C74.6274 24.5976 75.3646 24.6218 76.0519 24.9809L100.391 47.1836Z" fill="white"/>
<path d="M65.9125 82.9897H76.2632V59.9148H65.9125V82.9897ZM74.8432 81.6501H67.3325V61.253H74.8432V81.6501Z" fill="white"/>
<path d="M80.3728 65.3275H90.0859V56.1651H80.3728V65.3275ZM88.666 63.9879H81.7927V57.5033H88.666V63.9879Z" fill="white"/>
<path d="M406.173 246.522H402.023V357.166H406.173V246.522Z" fill="#252525"/>
<path d="M300.569 394.179C312.596 394.179 322.346 384.429 322.346 372.402C322.346 360.375 312.596 350.625 300.569 350.625C288.541 350.625 278.792 360.375 278.792 372.402C278.792 384.429 288.541 394.179 300.569 394.179Z" fill="#121212"/>
<path d="M306.862 350.625H300.568V394.179H306.862V350.625Z" fill="#121212"/>
<path d="M307.024 394.179C319.051 394.179 328.801 384.429 328.801 372.402C328.801 360.375 319.051 350.625 307.024 350.625C294.997 350.625 285.247 360.375 285.247 372.402C285.247 384.429 294.997 394.179 307.024 394.179Z" fill="#252525"/>
<path opacity="0.29" d="M319.655 354.667C316.095 352.126 311.731 350.625 307.024 350.625C294.993 350.625 285.247 360.372 285.247 372.402C285.247 375.876 286.062 379.157 287.509 382.074C295.572 370.386 307.002 360.908 319.655 354.667Z" fill="#575757"/>
<path d="M306.863 385.355C314.016 385.355 319.815 379.556 319.815 372.402C319.815 365.249 314.016 359.45 306.863 359.45C299.709 359.45 293.91 365.249 293.91 372.402C293.91 379.556 299.709 385.355 306.863 385.355Z" fill="#121212"/>
<path d="M314.353 379.983C318.49 375.846 318.49 369.139 314.353 365.002C310.216 360.864 303.508 360.864 299.371 365.002C295.234 369.139 295.234 375.846 299.371 379.983C303.508 384.12 310.216 384.12 314.353 379.983Z" fill="white"/>
<path d="M300.183 372.745C300.183 376.423 303.163 379.393 306.83 379.393C310.498 379.393 313.478 376.412 313.478 372.745C313.478 369.078 310.498 366.097 306.83 366.097C303.163 366.097 300.183 369.078 300.183 372.745Z" fill="#ABABAB"/>
<path d="M300.622 372.37C300.622 375.694 303.313 378.375 306.627 378.375C309.94 378.375 312.631 375.683 312.631 372.37C312.631 369.057 309.94 366.365 306.627 366.365C303.313 366.365 300.622 369.057 300.622 372.37Z" fill="#D5D5D5"/>
<path d="M305.351 363.567C305.351 364.403 306.026 365.079 306.862 365.079C307.699 365.079 308.374 364.403 308.374 363.567C308.374 362.731 307.699 362.055 306.862 362.055C306.026 362.055 305.351 362.731 305.351 363.567Z" fill="#808080"/>
<path d="M305.897 363.567C305.897 364.103 306.326 364.532 306.862 364.532C307.399 364.532 307.827 364.103 307.827 363.567C307.827 363.031 307.399 362.602 306.862 362.602C306.326 362.602 305.897 363.031 305.897 363.567Z" fill="#D5D5D5"/>
<path d="M305.351 381.42C305.351 382.256 306.026 382.931 306.862 382.931C307.699 382.931 308.374 382.256 308.374 381.42C308.374 380.583 307.699 379.908 306.862 379.908C306.026 379.908 305.351 380.583 305.351 381.42Z" fill="#808080"/>
<path d="M305.897 381.419C305.897 381.956 306.326 382.384 306.862 382.384C307.399 382.384 307.827 381.956 307.827 381.419C307.827 380.883 307.399 380.454 306.862 380.454C306.326 380.454 305.897 380.883 305.897 381.419Z" fill="#D5D5D5"/>
<path d="M314.261 372.499C314.261 373.335 314.937 374.011 315.773 374.011C316.609 374.011 317.285 373.335 317.285 372.499C317.285 371.662 316.609 370.987 315.773 370.987C314.937 370.987 314.261 371.662 314.261 372.499Z" fill="#808080"/>
<path d="M314.797 372.499C314.797 373.035 315.226 373.464 315.762 373.464C316.299 373.464 316.727 373.035 316.727 372.499C316.727 371.963 316.299 371.534 315.762 371.534C315.226 371.534 314.797 371.963 314.797 372.499Z" fill="#D5D5D5"/>
<path d="M297.888 374.011C298.723 374.011 299.4 373.334 299.4 372.499C299.4 371.664 298.723 370.987 297.888 370.987C297.053 370.987 296.376 371.664 296.376 372.499C296.376 373.334 297.053 374.011 297.888 374.011Z" fill="#808080"/>
<path d="M297.888 373.464C298.421 373.464 298.853 373.032 298.853 372.499C298.853 371.966 298.421 371.534 297.888 371.534C297.355 371.534 296.923 371.966 296.923 372.499C296.923 373.032 297.355 373.464 297.888 373.464Z" fill="#D5D5D5"/>
<path d="M312.095 365.132C311.505 365.722 311.505 366.676 312.095 367.266C312.685 367.856 313.639 367.856 314.229 367.266C314.819 366.676 314.819 365.722 314.229 365.132C313.639 364.543 312.685 364.543 312.095 365.132Z" fill="#808080"/>
<path d="M312.482 365.519C312.106 365.894 312.106 366.505 312.482 366.891C312.857 367.277 313.468 367.266 313.854 366.891C314.229 366.516 314.229 365.905 313.854 365.519C313.479 365.143 312.868 365.143 312.482 365.519Z" fill="#D5D5D5"/>
<path d="M299.475 377.763C298.885 378.353 298.885 379.307 299.475 379.897C300.065 380.487 301.019 380.487 301.609 379.897C302.198 379.307 302.198 378.353 301.609 377.763C301.019 377.173 300.065 377.173 299.475 377.763Z" fill="#808080"/>
<path d="M299.85 378.139C299.475 378.514 299.475 379.125 299.85 379.511C300.226 379.886 300.837 379.886 301.223 379.511C301.609 379.136 301.598 378.525 301.223 378.139C300.848 377.753 300.236 377.763 299.85 378.139Z" fill="#D5D5D5"/>
<path d="M312.084 377.752C311.495 378.342 311.495 379.297 312.084 379.886C312.674 380.476 313.628 380.476 314.218 379.886C314.808 379.297 314.808 378.342 314.218 377.752C313.628 377.163 312.674 377.163 312.084 377.752Z" fill="#808080"/>
<path d="M312.471 378.128C312.096 378.503 312.096 379.114 312.471 379.5C312.846 379.876 313.457 379.876 313.843 379.5C314.219 379.125 314.219 378.514 313.843 378.128C313.468 377.752 312.857 377.752 312.471 378.128Z" fill="#D5D5D5"/>
<path d="M299.443 365.111C298.853 365.701 298.853 366.655 299.443 367.245C300.033 367.834 300.987 367.834 301.577 367.245C302.166 366.655 302.166 365.701 301.577 365.111C300.987 364.521 300.033 364.521 299.443 365.111Z" fill="#808080"/>
<path d="M299.828 365.486C299.453 365.862 299.453 366.473 299.828 366.859C300.204 367.245 300.815 367.234 301.201 366.859C301.576 366.483 301.576 365.872 301.201 365.486C300.825 365.111 300.214 365.111 299.828 365.486Z" fill="#D5D5D5"/>
<path d="M302.188 372.37C302.188 374.825 304.182 376.82 306.638 376.82C309.093 376.82 311.088 374.825 311.088 372.37C311.088 369.915 309.093 367.92 306.638 367.92C304.182 367.92 302.188 369.915 302.188 372.37Z" fill="white"/>
<path d="M322.345 356.93C319.204 354.046 315.279 352.062 311.141 351.333C310.101 351.15 309.061 351.054 308.01 351C306.959 350.947 305.908 351.054 304.868 351.108C302.788 351.376 300.74 351.88 298.799 352.684C296.869 353.509 295.057 354.582 293.417 355.89C291.808 357.241 290.393 358.806 289.171 360.511C287.98 362.248 287.058 364.167 286.383 366.162C285.718 368.178 285.396 370.279 285.257 372.413C285.214 370.279 285.45 368.135 286.007 366.044C286.629 363.985 287.498 361.991 288.667 360.168C289.857 358.356 291.326 356.737 292.966 355.321C294.65 353.96 296.515 352.823 298.51 351.944C300.525 351.129 302.659 350.636 304.814 350.389C305.897 350.357 306.98 350.25 308.063 350.314C309.146 350.378 310.219 350.507 311.28 350.732C315.515 351.612 319.461 353.799 322.378 356.93H322.345Z" fill="#575757"/>
<path d="M175.632 394.179C187.659 394.179 197.409 384.429 197.409 372.402C197.409 360.375 187.659 350.625 175.632 350.625C163.605 350.625 153.855 360.375 153.855 372.402C153.855 384.429 163.605 394.179 175.632 394.179Z" fill="#121212"/>
<path d="M181.926 350.625H175.632V394.179H181.926V350.625Z" fill="#121212"/>
<path d="M182.097 394.179C194.125 394.179 203.875 384.429 203.875 372.402C203.875 360.375 194.125 350.625 182.097 350.625C170.07 350.625 160.32 360.375 160.32 372.402C160.32 384.429 170.07 394.179 182.097 394.179Z" fill="#252525"/>
<path opacity="0.29" d="M194.728 354.667C191.169 352.126 186.804 350.625 182.097 350.625C170.067 350.625 160.32 360.372 160.32 372.402C160.32 375.876 161.135 379.157 162.583 382.074C170.646 370.386 182.076 360.908 194.728 354.667Z" fill="#575757"/>
<path d="M181.926 385.355C189.08 385.355 194.879 379.556 194.879 372.402C194.879 365.249 189.08 359.45 181.926 359.45C174.773 359.45 168.974 365.249 168.974 372.402C168.974 379.556 174.773 385.355 181.926 385.355Z" fill="#121212"/>
<path d="M191.675 376.538C193.927 371.138 191.376 364.935 185.976 362.683C180.576 360.431 174.373 362.983 172.12 368.382C169.868 373.782 172.42 379.986 177.82 382.238C183.22 384.49 189.423 381.938 191.675 376.538Z" fill="white"/>
<path d="M181.893 379.393C185.565 379.393 188.541 376.417 188.541 372.745C188.541 369.074 185.565 366.097 181.893 366.097C178.222 366.097 175.246 369.074 175.246 372.745C175.246 376.417 178.222 379.393 181.893 379.393Z" fill="#ABABAB"/>
<path d="M175.696 372.37C175.696 375.694 178.388 378.375 181.701 378.375C185.014 378.375 187.705 375.683 187.705 372.37C187.705 369.057 185.014 366.365 181.701 366.365C178.388 366.365 175.696 369.057 175.696 372.37Z" fill="#D5D5D5"/>
<path d="M181.926 365.079C182.761 365.079 183.438 364.402 183.438 363.567C183.438 362.732 182.761 362.055 181.926 362.055C181.091 362.055 180.414 362.732 180.414 363.567C180.414 364.402 181.091 365.079 181.926 365.079Z" fill="#808080"/>
<path d="M181.926 364.532C182.459 364.532 182.891 364.1 182.891 363.567C182.891 363.034 182.459 362.602 181.926 362.602C181.393 362.602 180.961 363.034 180.961 363.567C180.961 364.1 181.393 364.532 181.926 364.532Z" fill="#D5D5D5"/>
<path d="M181.926 382.931C182.761 382.931 183.438 382.255 183.438 381.42C183.438 380.585 182.761 379.908 181.926 379.908C181.091 379.908 180.414 380.585 180.414 381.42C180.414 382.255 181.091 382.931 181.926 382.931Z" fill="#808080"/>
<path d="M181.926 382.384C182.459 382.384 182.891 381.952 182.891 381.419C182.891 380.887 182.459 380.454 181.926 380.454C181.393 380.454 180.961 380.887 180.961 381.419C180.961 381.952 181.393 382.384 181.926 382.384Z" fill="#D5D5D5"/>
<path d="M190.836 374.011C191.671 374.011 192.348 373.334 192.348 372.499C192.348 371.664 191.671 370.987 190.836 370.987C190.001 370.987 189.324 371.664 189.324 372.499C189.324 373.334 190.001 374.011 190.836 374.011Z" fill="#808080"/>
<path d="M190.837 373.464C191.37 373.464 191.802 373.032 191.802 372.499C191.802 371.966 191.37 371.534 190.837 371.534C190.304 371.534 189.872 371.966 189.872 372.499C189.872 373.032 190.304 373.464 190.837 373.464Z" fill="#D5D5D5"/>
<path d="M171.45 372.499C171.45 373.335 172.126 374.011 172.962 374.011C173.798 374.011 174.474 373.335 174.474 372.499C174.474 371.662 173.798 370.987 172.962 370.987C172.126 370.987 171.45 371.662 171.45 372.499Z" fill="#808080"/>
<path d="M171.986 372.499C171.986 373.035 172.415 373.464 172.951 373.464C173.487 373.464 173.916 373.035 173.916 372.499C173.916 371.963 173.487 371.534 172.951 371.534C172.415 371.534 171.986 371.963 171.986 372.499Z" fill="#D5D5D5"/>
<path d="M187.169 365.132C186.58 365.722 186.58 366.676 187.169 367.266C187.759 367.856 188.713 367.856 189.303 367.266C189.893 366.676 189.893 365.722 189.303 365.132C188.713 364.543 187.759 364.543 187.169 365.132Z" fill="#808080"/>
<path d="M187.545 365.518C187.169 365.894 187.169 366.505 187.545 366.891C187.92 367.266 188.531 367.266 188.917 366.891C189.303 366.516 189.292 365.904 188.917 365.518C188.542 365.132 187.931 365.143 187.545 365.518Z" fill="#D5D5D5"/>
<path d="M174.538 377.763C173.948 378.353 173.948 379.307 174.538 379.897C175.128 380.487 176.082 380.487 176.672 379.897C177.261 379.307 177.261 378.353 176.672 377.763C176.082 377.173 175.128 377.173 174.538 377.763Z" fill="#808080"/>
<path d="M175.61 379.79C176.143 379.79 176.576 379.358 176.576 378.825C176.576 378.292 176.143 377.86 175.61 377.86C175.078 377.86 174.646 378.292 174.646 378.825C174.646 379.358 175.078 379.79 175.61 379.79Z" fill="#D5D5D5"/>
<path d="M187.148 377.752C186.558 378.342 186.558 379.297 187.148 379.886C187.738 380.476 188.692 380.476 189.282 379.886C189.871 379.297 189.871 378.342 189.282 377.752C188.692 377.163 187.738 377.163 187.148 377.752Z" fill="#808080"/>
<path d="M187.534 378.128C187.159 378.503 187.159 379.114 187.534 379.5C187.909 379.875 188.52 379.875 188.906 379.5C189.282 379.125 189.282 378.514 188.906 378.128C188.531 377.742 187.92 377.752 187.534 378.128Z" fill="#D5D5D5"/>
<path d="M174.506 365.111C173.917 365.701 173.917 366.655 174.506 367.245C175.096 367.834 176.05 367.834 176.64 367.245C177.23 366.655 177.23 365.701 176.64 365.111C176.05 364.521 175.096 364.521 174.506 365.111Z" fill="#808080"/>
<path d="M175.579 367.138C176.112 367.138 176.544 366.705 176.544 366.173C176.544 365.64 176.112 365.208 175.579 365.208C175.046 365.208 174.614 365.64 174.614 366.173C174.614 366.705 175.046 367.138 175.579 367.138Z" fill="#D5D5D5"/>
<path d="M177.251 372.37C177.251 374.825 179.245 376.82 181.701 376.82C184.156 376.82 186.151 374.825 186.151 372.37C186.151 369.915 184.156 367.92 181.701 367.92C179.245 367.92 177.251 369.915 177.251 372.37Z" fill="white"/>
<path d="M197.409 356.93C194.267 354.046 190.343 352.062 186.204 351.333C185.164 351.15 184.124 351.054 183.073 351C182.022 350.947 180.972 351.054 179.932 351.108C177.851 351.376 175.803 351.88 173.863 352.684C171.933 353.509 170.121 354.582 168.48 355.89C166.872 357.241 165.456 358.806 164.234 360.511C163.044 362.248 162.122 364.167 161.446 366.162C160.781 368.178 160.46 370.279 160.32 372.413C160.277 370.279 160.513 368.135 161.071 366.044C161.693 363.985 162.561 361.991 163.73 360.168C164.92 358.356 166.389 356.737 168.03 355.321C169.713 353.96 171.579 352.823 173.573 351.944C175.589 351.129 177.723 350.636 179.878 350.389C180.961 350.357 182.044 350.25 183.127 350.314C184.21 350.378 185.282 350.507 186.344 350.732C190.579 351.612 194.525 353.799 197.441 356.93H197.409Z" fill="#575757"/>
<path d="M212.388 246.522H86.6152V370.258H212.388V246.522Z" fill="#B4B4B4"/>
<path d="M212.388 355.954H86.6152V370.301H212.388V355.954Z" fill="#777E7E"/>
<path d="M402.024 246.522H181.229V370.258H402.024V246.522Z" fill="#7E7E7E"/>
<path opacity="0.54" d="M345.806 246.522H297.641C258.805 279.161 220.794 312.529 181.229 346.057V370.247H230.777C268.798 328.676 304.697 284.994 345.817 246.511L345.806 246.522Z" fill="#B4B4B4"/>
<path opacity="0.54" d="M371.186 246.522C370.907 246.844 370.628 247.165 370.371 247.508C333.862 291.674 295.519 329.738 258.291 370.258H312.374C323.675 355.075 334.945 339.656 346.568 323.294C365.053 296.928 384.139 275.88 402.024 250.725V246.522H371.197H371.186Z" fill="#B4B4B4"/>
<path d="M402.024 355.954H181.229V370.301H402.024V355.954Z" fill="#50595A"/>
<path d="M402.024 355.954H181.229V357.166H402.024V355.954Z" fill="#DDDDDD"/>
<path d="M402.013 246.522H166.968V254.263H402.013V246.522Z" fill="#B4B4B4"/>
<path d="M402.013 246.522H86.6152V247.648H402.013V246.522Z" fill="#DDDDDD"/>
<path d="M38.0002 394.179C50.0274 394.179 59.7773 384.429 59.7773 372.402C59.7773 360.375 50.0274 350.625 38.0002 350.625C25.9731 350.625 16.2231 360.375 16.2231 372.402C16.2231 384.429 25.9731 394.179 38.0002 394.179Z" fill="#121212"/>
<path d="M44.294 350.625H38V394.179H44.294V350.625Z" fill="#121212"/>
<path d="M44.4548 394.179C56.482 394.179 66.2319 384.429 66.2319 372.402C66.2319 360.375 56.482 350.625 44.4548 350.625C32.4277 350.625 22.6777 360.375 22.6777 372.402C22.6777 384.429 32.4277 394.179 44.4548 394.179Z" fill="#252525"/>
<path opacity="0.29" d="M57.0857 354.667C53.5259 352.126 49.1619 350.625 44.4548 350.625C32.4243 350.625 22.6777 360.372 22.6777 372.402C22.6777 375.876 23.4926 379.157 24.9401 382.074C33.0033 370.386 44.4334 360.908 57.0857 354.667Z" fill="#575757"/>
<path d="M44.2944 385.355C51.4479 385.355 57.247 379.556 57.247 372.402C57.247 365.249 51.4479 359.45 44.2944 359.45C37.1409 359.45 31.3418 365.249 31.3418 372.402C31.3418 379.556 37.1409 385.355 44.2944 385.355Z" fill="#121212"/>
<path d="M46.7342 382.764C52.4297 381.425 55.9612 375.722 54.6222 370.027C53.2832 364.331 47.5807 360.8 41.8853 362.139C36.1898 363.478 32.6582 369.18 33.9972 374.876C35.3362 380.571 41.0388 384.103 46.7342 382.764Z" fill="white"/>
<path d="M44.2616 379.393C47.9331 379.393 50.9095 376.417 50.9095 372.745C50.9095 369.074 47.9331 366.097 44.2616 366.097C40.5901 366.097 37.6138 369.074 37.6138 372.745C37.6138 376.417 40.5901 379.393 44.2616 379.393Z" fill="#ABABAB"/>
<path d="M38.0532 372.37C38.0532 375.694 40.7445 378.375 44.0577 378.375C47.3709 378.375 50.0622 375.683 50.0622 372.37C50.0622 369.057 47.3709 366.365 44.0577 366.365C40.7445 366.365 38.0532 369.057 38.0532 372.37Z" fill="#D5D5D5"/>
<path d="M42.7822 363.567C42.7822 364.403 43.4577 365.079 44.2941 365.079C45.1304 365.079 45.8059 364.403 45.8059 363.567C45.8059 362.731 45.1304 362.055 44.2941 362.055C43.4577 362.055 42.7822 362.731 42.7822 363.567Z" fill="#808080"/>
<path d="M43.3184 363.567C43.3184 364.103 43.7472 364.532 44.2834 364.532C44.8195 364.532 45.2484 364.103 45.2484 363.567C45.2484 363.031 44.8195 362.602 44.2834 362.602C43.7472 362.602 43.3184 363.031 43.3184 363.567Z" fill="#D5D5D5"/>
<path d="M42.7822 381.42C42.7822 382.256 43.4577 382.931 44.2941 382.931C45.1304 382.931 45.8059 382.256 45.8059 381.42C45.8059 380.583 45.1304 379.908 44.2941 379.908C43.4577 379.908 42.7822 380.583 42.7822 381.42Z" fill="#808080"/>
<path d="M43.3184 381.419C43.3184 381.956 43.7472 382.384 44.2834 382.384C44.8195 382.384 45.2484 381.956 45.2484 381.419C45.2484 380.883 44.8195 380.454 44.2834 380.454C43.7472 380.454 43.3184 380.883 43.3184 381.419Z" fill="#D5D5D5"/>
<path d="M51.6924 372.499C51.6924 373.335 52.3679 374.011 53.2042 374.011C54.0406 374.011 54.7161 373.335 54.7161 372.499C54.7161 371.662 54.0406 370.987 53.2042 370.987C52.3679 370.987 51.6924 371.662 51.6924 372.499Z" fill="#808080"/>
<path d="M52.229 372.499C52.229 373.035 52.6579 373.464 53.194 373.464C53.7301 373.464 54.159 373.035 54.159 372.499C54.159 371.963 53.7301 371.534 53.194 371.534C52.6579 371.534 52.229 371.963 52.229 372.499Z" fill="#D5D5D5"/>
<path d="M35.3194 374.011C36.1544 374.011 36.8313 373.334 36.8313 372.499C36.8313 371.664 36.1544 370.987 35.3194 370.987C34.4845 370.987 33.8076 371.664 33.8076 372.499C33.8076 373.334 34.4845 374.011 35.3194 374.011Z" fill="#808080"/>
<path d="M35.3195 373.464C35.8525 373.464 36.2845 373.032 36.2845 372.499C36.2845 371.966 35.8525 371.534 35.3195 371.534C34.7865 371.534 34.3545 371.966 34.3545 372.499C34.3545 373.032 34.7865 373.464 35.3195 373.464Z" fill="#D5D5D5"/>
<path d="M49.5268 365.132C48.937 365.722 48.937 366.676 49.5268 367.266C50.1165 367.856 51.0708 367.856 51.6605 367.266C52.2503 366.676 52.2503 365.722 51.6605 365.132C51.0708 364.543 50.1165 364.543 49.5268 365.132Z" fill="#808080"/>
<path d="M49.9128 365.519C49.5375 365.894 49.5375 366.505 49.9128 366.891C50.2881 367.266 50.8993 367.266 51.2853 366.891C51.6605 366.516 51.6605 365.905 51.2853 365.519C50.91 365.143 50.2988 365.143 49.9128 365.519Z" fill="#D5D5D5"/>
<path d="M36.9067 377.763C36.3169 378.353 36.3169 379.307 36.9067 379.897C37.4964 380.487 38.4507 380.487 39.0404 379.897C39.6301 379.307 39.6301 378.353 39.0404 377.763C38.4507 377.173 37.4964 377.173 36.9067 377.763Z" fill="#808080"/>
<path d="M37.2819 378.139C36.9067 378.514 36.9067 379.125 37.2819 379.511C37.6572 379.886 38.2684 379.886 38.6544 379.511C39.0404 379.136 39.0297 378.525 38.6544 378.139C38.2791 377.753 37.668 377.763 37.2819 378.139Z" fill="#D5D5D5"/>
<path d="M49.516 377.752C48.9263 378.342 48.9263 379.297 49.516 379.886C50.1058 380.476 51.06 380.476 51.6498 379.886C52.2395 379.297 52.2395 378.342 51.6498 377.752C51.06 377.163 50.1058 377.163 49.516 377.752Z" fill="#808080"/>
<path d="M49.9021 378.128C49.5268 378.503 49.5268 379.114 49.9021 379.5C50.2773 379.876 50.8885 379.876 51.2745 379.5C51.6498 379.125 51.6498 378.514 51.2745 378.128C50.8992 377.752 50.2881 377.752 49.9021 378.128Z" fill="#D5D5D5"/>
<path d="M36.8744 365.111C36.2847 365.701 36.2847 366.655 36.8744 367.245C37.4642 367.834 38.4184 367.834 39.0082 367.245C39.5979 366.655 39.5979 365.701 39.0082 365.111C38.4184 364.521 37.4642 364.521 36.8744 365.111Z" fill="#808080"/>
<path d="M37.2605 365.486C36.8852 365.861 36.8852 366.473 37.2605 366.859C37.6357 367.234 38.2469 367.234 38.6329 366.859C39.0189 366.483 39.0082 365.872 38.6329 365.486C38.2576 365.1 37.6465 365.111 37.2605 365.486Z" fill="#D5D5D5"/>
<path d="M39.6084 372.37C39.6084 374.825 41.6028 376.82 44.0582 376.82C46.5136 376.82 48.508 374.825 48.508 372.37C48.508 369.915 46.5136 367.92 44.0582 367.92C41.6028 367.92 39.6084 369.915 39.6084 372.37Z" fill="white"/>
<path d="M59.7771 356.93C56.6355 354.046 52.7111 352.062 48.5723 351.333C47.5322 351.15 46.4921 351.054 45.4413 351C44.3905 350.947 43.3398 351.054 42.2997 351.108C40.2196 351.376 38.1716 351.88 36.2308 352.684C34.3008 353.509 32.4888 354.582 30.8482 355.89C29.2292 357.241 27.8246 358.806 26.6022 360.511C25.412 362.248 24.4899 364.167 23.8144 366.162C23.1496 368.178 22.8279 370.279 22.6885 372.413C22.6456 370.279 22.8815 368.135 23.4391 366.044C24.061 363.985 24.9295 361.991 26.0983 360.168C27.2884 358.356 28.7574 356.737 30.3979 355.321C32.0813 353.96 33.947 352.823 35.9414 351.944C37.9572 351.129 40.0909 350.636 42.2461 350.389C43.3291 350.357 44.412 350.25 45.495 350.314C46.5779 350.378 47.6502 350.507 48.7117 350.732C52.947 351.612 56.8928 353.799 59.8093 356.93H59.7771Z" fill="#575757"/>
<path d="M60.1629 259.946C24.8436 261.791 1.52246 316.507 1.52246 316.507V375.372H146.145V259.936H60.1629V259.946Z" fill="#AB333C"/>
<path d="M146.145 274.572V259.946H60.1629C49.7623 260.493 40.4124 265.618 32.3813 272.577C36.4558 271.709 40.5518 270.926 44.6906 270.293C78.9592 265.393 113.239 266.937 146.145 274.572Z" fill="#C14C5D"/>
<path d="M162.165 338.058H87.5049V375.383H162.165V338.058Z" fill="black"/>
<path d="M87.5049 350.014H1.52246V351.14H87.5049V350.014Z" fill="#121212"/>
<path d="M146.145 259.946C110.826 261.791 87.5049 316.507 87.5049 316.507V375.372H103.492C103.449 374.74 103.417 374.096 103.417 373.453C103.417 358.249 115.748 345.918 130.952 345.918C146.156 345.918 158.487 358.249 158.487 373.453C158.487 374.096 158.455 374.74 158.412 375.372H162.165V259.936H146.145V259.946Z" fill="#871A1F"/>
<path d="M158.358 370.901C158.433 371.748 158.476 372.595 158.476 373.464C158.476 374.107 158.444 374.75 158.401 375.383H162.154V370.901H158.347H158.358Z" fill="#50595A"/>
<path d="M103.545 370.901H87.5049V375.383H103.492C103.449 374.75 103.417 374.107 103.417 373.464C103.417 372.595 103.46 371.748 103.535 370.901H103.545Z" fill="#50595A"/>
<path d="M212.967 370.301H271.029C271.029 370.301 268.412 342.069 242.69 342.069C216.967 342.069 212.967 370.301 212.967 370.301Z" fill="#1B2222"/>
<path d="M239.805 394.179C251.833 394.179 261.582 384.429 261.582 372.402C261.582 360.375 251.833 350.625 239.805 350.625C227.778 350.625 218.028 360.375 218.028 372.402C218.028 384.429 227.778 394.179 239.805 394.179Z" fill="#121212"/>
<path d="M246.099 350.625H239.805V394.179H246.099V350.625Z" fill="#121212"/>
<path d="M246.26 394.179C258.287 394.179 268.037 384.429 268.037 372.402C268.037 360.375 258.287 350.625 246.26 350.625C234.233 350.625 224.483 360.375 224.483 372.402C224.483 384.429 234.233 394.179 246.26 394.179Z" fill="#252525"/>
<path opacity="0.29" d="M258.891 354.667C255.331 352.126 250.967 350.625 246.26 350.625C234.23 350.625 224.483 360.372 224.483 372.402C224.483 375.876 225.298 379.157 226.745 382.074C234.809 370.386 246.239 360.908 258.891 354.667Z" fill="#575757"/>
<path d="M246.099 385.355C253.253 385.355 259.052 379.556 259.052 372.402C259.052 365.249 253.253 359.45 246.099 359.45C238.946 359.45 233.146 365.249 233.146 372.402C233.146 379.556 238.946 385.355 246.099 385.355Z" fill="#121212"/>
<path d="M255.847 376.541C258.099 371.141 255.547 364.937 250.148 362.685C244.748 360.433 238.544 362.985 236.292 368.385C234.04 373.785 236.592 379.988 241.992 382.24C247.392 384.492 253.595 381.94 255.847 376.541Z" fill="white"/>
<path d="M239.419 372.745C239.419 376.423 242.4 379.393 246.067 379.393C249.734 379.393 252.715 376.412 252.715 372.745C252.715 369.078 249.734 366.097 246.067 366.097C242.4 366.097 239.419 369.078 239.419 372.745Z" fill="#ABABAB"/>
<path d="M239.87 372.37C239.87 375.694 242.561 378.375 245.874 378.375C249.187 378.375 251.879 375.683 251.879 372.37C251.879 369.057 249.187 366.365 245.874 366.365C242.561 366.365 239.87 369.057 239.87 372.37Z" fill="#D5D5D5"/>
<path d="M244.588 363.567C244.588 364.403 245.263 365.079 246.1 365.079C246.936 365.079 247.612 364.403 247.612 363.567C247.612 362.731 246.936 362.055 246.1 362.055C245.263 362.055 244.588 362.731 244.588 363.567Z" fill="#808080"/>
<path d="M245.135 363.567C245.135 364.103 245.564 364.532 246.1 364.532C246.636 364.532 247.065 364.103 247.065 363.567C247.065 363.031 246.636 362.602 246.1 362.602C245.564 362.602 245.135 363.031 245.135 363.567Z" fill="#D5D5D5"/>
<path d="M244.588 381.42C244.588 382.256 245.263 382.931 246.1 382.931C246.936 382.931 247.612 382.256 247.612 381.42C247.612 380.583 246.936 379.908 246.1 379.908C245.263 379.908 244.588 380.583 244.588 381.42Z" fill="#808080"/>
<path d="M245.135 381.419C245.135 381.956 245.564 382.384 246.1 382.384C246.636 382.384 247.065 381.956 247.065 381.419C247.065 380.883 246.636 380.454 246.1 380.454C245.564 380.454 245.135 380.883 245.135 381.419Z" fill="#D5D5D5"/>
<path d="M255.009 374.011C255.844 374.011 256.521 373.334 256.521 372.499C256.521 371.664 255.844 370.987 255.009 370.987C254.174 370.987 253.498 371.664 253.498 372.499C253.498 373.334 254.174 374.011 255.009 374.011Z" fill="#808080"/>
<path d="M255.009 373.464C255.542 373.464 255.974 373.032 255.974 372.499C255.974 371.966 255.542 371.534 255.009 371.534C254.476 371.534 254.044 371.966 254.044 372.499C254.044 373.032 254.476 373.464 255.009 373.464Z" fill="#D5D5D5"/>
<path d="M235.624 372.499C235.624 373.335 236.299 374.011 237.135 374.011C237.972 374.011 238.647 373.335 238.647 372.499C238.647 371.662 237.972 370.987 237.135 370.987C236.299 370.987 235.624 371.662 235.624 372.499Z" fill="#808080"/>
<path d="M236.16 372.499C236.16 373.035 236.589 373.464 237.125 373.464C237.661 373.464 238.09 373.035 238.09 372.499C238.09 371.963 237.661 371.534 237.125 371.534C236.589 371.534 236.16 371.963 236.16 372.499Z" fill="#D5D5D5"/>
<path d="M251.332 365.132C250.742 365.722 250.742 366.676 251.332 367.266C251.922 367.856 252.876 367.856 253.466 367.266C254.055 366.676 254.055 365.722 253.466 365.132C252.876 364.543 251.922 364.543 251.332 365.132Z" fill="#808080"/>
<path d="M251.718 365.519C251.343 365.894 251.343 366.505 251.718 366.891C252.093 367.266 252.704 367.266 253.09 366.891C253.466 366.516 253.466 365.905 253.09 365.519C252.715 365.143 252.104 365.143 251.718 365.519Z" fill="#D5D5D5"/>
<path d="M238.712 377.763C238.122 378.353 238.122 379.307 238.712 379.897C239.302 380.487 240.256 380.487 240.846 379.897C241.435 379.307 241.435 378.353 240.846 377.763C240.256 377.173 239.302 377.173 238.712 377.763Z" fill="#808080"/>
<path d="M239.087 378.139C238.712 378.514 238.712 379.125 239.087 379.511C239.462 379.886 240.074 379.886 240.46 379.511C240.846 379.136 240.835 378.525 240.46 378.139C240.084 377.753 239.473 377.763 239.087 378.139Z" fill="#D5D5D5"/>
<path d="M251.321 377.752C250.731 378.342 250.731 379.297 251.321 379.886C251.911 380.476 252.865 380.476 253.455 379.886C254.045 379.297 254.045 378.342 253.455 377.752C252.865 377.163 251.911 377.163 251.321 377.752Z" fill="#808080"/>
<path d="M251.707 378.128C251.332 378.503 251.332 379.114 251.707 379.5C252.083 379.875 252.694 379.875 253.08 379.5C253.455 379.125 253.455 378.514 253.08 378.128C252.704 377.742 252.093 377.752 251.707 378.128Z" fill="#D5D5D5"/>
<path d="M238.68 365.111C238.09 365.701 238.09 366.655 238.68 367.245C239.269 367.834 240.224 367.834 240.813 367.245C241.403 366.655 241.403 365.701 240.813 365.111C240.224 364.521 239.269 364.521 238.68 365.111Z" fill="#808080"/>
<path d="M239.752 367.138C240.285 367.138 240.717 366.705 240.717 366.173C240.717 365.64 240.285 365.208 239.752 365.208C239.219 365.208 238.787 365.64 238.787 366.173C238.787 366.705 239.219 367.138 239.752 367.138Z" fill="#D5D5D5"/>
<path d="M241.424 372.37C241.424 374.825 243.419 376.82 245.874 376.82C248.33 376.82 250.324 374.825 250.324 372.37C250.324 369.915 248.33 367.92 245.874 367.92C243.419 367.92 241.424 369.915 241.424 372.37Z" fill="white"/>
<path d="M261.583 356.93C258.441 354.046 254.517 352.062 250.378 351.333C249.338 351.15 248.298 351.054 247.247 351C246.196 350.947 245.145 351.054 244.105 351.108C242.025 351.376 239.977 351.88 238.037 352.684C236.106 353.509 234.294 354.582 232.654 355.89C231.035 357.241 229.63 358.806 228.408 360.511C227.218 362.248 226.296 364.167 225.62 366.162C224.955 368.178 224.634 370.279 224.494 372.413C224.451 370.279 224.687 368.135 225.245 366.044C225.867 363.985 226.735 361.991 227.904 360.168C229.094 358.356 230.563 356.737 232.204 355.321C233.887 353.96 235.753 352.823 237.747 351.944C239.763 351.129 241.897 350.636 244.052 350.389C245.135 350.357 246.218 350.25 247.301 350.314C248.384 350.378 249.456 350.507 250.517 350.732C254.753 351.612 258.698 353.799 261.615 356.93H261.583Z" fill="#575757"/>
<path d="M216.709 370.301C216.709 370.183 216.709 370.065 216.709 369.947C216.709 355.397 228.504 343.613 243.043 343.613C257.583 343.613 269.377 355.407 269.377 369.947C269.377 370.065 269.377 370.183 269.377 370.301H277.366C277.366 370.183 277.366 370.065 277.366 369.947C277.366 350.99 262.001 335.625 243.043 335.625C224.086 335.625 208.721 350.99 208.721 369.947C208.721 370.065 208.721 370.183 208.721 370.301H216.709Z" fill="#50595A"/>
<path d="M270.685 349.606C268.852 347.237 266.707 345.114 264.348 343.302C262 341.479 259.427 339.924 256.682 338.777C251.213 336.461 245.166 335.539 239.279 336.246C236.331 336.557 233.425 337.244 230.659 338.305C227.892 339.377 225.287 340.836 222.874 342.562C220.462 344.299 218.274 346.347 216.387 348.652C214.468 350.936 212.849 353.477 211.583 356.19C212.742 353.424 214.253 350.797 216.087 348.406C217.942 346.025 220.108 343.902 222.52 342.069C227.335 338.402 233.178 336.118 239.204 335.453C245.219 334.799 251.417 335.742 256.939 338.219C259.695 339.463 262.268 341.082 264.595 343.002C266.9 344.932 268.959 347.162 270.696 349.606H270.685Z" fill="#DDDDDD"/>
<path d="M328.157 370.301H390.229C390.229 370.301 387.43 342.069 359.938 342.069C332.446 342.069 328.157 370.301 328.157 370.301Z" fill="#1B2222"/>
<path d="M354.995 394.179C367.022 394.179 376.772 384.429 376.772 372.402C376.772 360.375 367.022 350.625 354.995 350.625C342.968 350.625 333.218 360.375 333.218 372.402C333.218 384.429 342.968 394.179 354.995 394.179Z" fill="#121212"/>
<path d="M361.289 350.625H354.995V394.179H361.289V350.625Z" fill="#121212"/>
<path d="M361.45 394.179C373.478 394.179 383.227 384.429 383.227 372.402C383.227 360.375 373.478 350.625 361.45 350.625C349.423 350.625 339.673 360.375 339.673 372.402C339.673 384.429 349.423 394.179 361.45 394.179Z" fill="#252525"/>
<path opacity="0.29" d="M374.092 354.667C370.532 352.126 366.168 350.625 361.461 350.625C349.431 350.625 339.684 360.372 339.684 372.402C339.684 375.876 340.499 379.157 341.946 382.074C350.01 370.386 361.44 360.908 374.092 354.667Z" fill="#575757"/>
<path d="M361.29 385.355C368.443 385.355 374.242 379.556 374.242 372.402C374.242 365.249 368.443 359.45 361.29 359.45C354.136 359.45 348.337 365.249 348.337 372.402C348.337 379.556 354.136 385.355 361.29 385.355Z" fill="#121212"/>
<path d="M367.786 380.801C372.402 377.207 373.231 370.551 369.637 365.934C366.043 361.318 359.387 360.488 354.77 364.082C350.154 367.676 349.325 374.333 352.919 378.949C356.513 383.566 363.169 384.395 367.786 380.801Z" fill="white"/>
<path d="M354.609 372.745C354.609 376.423 357.59 379.393 361.257 379.393C364.924 379.393 367.905 376.412 367.905 372.745C367.905 369.078 364.924 366.097 361.257 366.097C357.59 366.097 354.609 369.078 354.609 372.745Z" fill="#ABABAB"/>
<path d="M355.06 372.37C355.06 375.694 357.751 378.375 361.064 378.375C364.377 378.375 367.069 375.683 367.069 372.37C367.069 369.057 364.377 366.365 361.064 366.365C357.751 366.365 355.06 369.057 355.06 372.37Z" fill="#D5D5D5"/>
<path d="M359.777 363.567C359.777 364.403 360.453 365.079 361.289 365.079C362.126 365.079 362.801 364.403 362.801 363.567C362.801 362.731 362.126 362.055 361.289 362.055C360.453 362.055 359.777 362.731 359.777 363.567Z" fill="#808080"/>
<path d="M360.324 363.567C360.324 364.103 360.753 364.532 361.289 364.532C361.825 364.532 362.254 364.103 362.254 363.567C362.254 363.031 361.825 362.602 361.289 362.602C360.753 362.602 360.324 363.031 360.324 363.567Z" fill="#D5D5D5"/>
<path d="M359.777 381.42C359.777 382.256 360.453 382.931 361.289 382.931C362.126 382.931 362.801 382.256 362.801 381.42C362.801 380.583 362.126 379.908 361.289 379.908C360.453 379.908 359.777 380.583 359.777 381.42Z" fill="#808080"/>
<path d="M360.324 381.419C360.324 381.956 360.753 382.384 361.289 382.384C361.825 382.384 362.254 381.956 362.254 381.419C362.254 380.883 361.825 380.454 361.289 380.454C360.753 380.454 360.324 380.883 360.324 381.419Z" fill="#D5D5D5"/>
<path d="M368.688 372.499C368.688 373.335 369.363 374.011 370.199 374.011C371.036 374.011 371.711 373.335 371.711 372.499C371.711 371.662 371.036 370.987 370.199 370.987C369.363 370.987 368.688 371.662 368.688 372.499Z" fill="#808080"/>
<path d="M369.234 372.499C369.234 373.035 369.663 373.464 370.199 373.464C370.736 373.464 371.164 373.035 371.164 372.499C371.164 371.963 370.736 371.534 370.199 371.534C369.663 371.534 369.234 371.963 369.234 372.499Z" fill="#D5D5D5"/>
<path d="M350.814 372.499C350.814 373.335 351.489 374.011 352.326 374.011C353.162 374.011 353.838 373.335 353.838 372.499C353.838 371.662 353.162 370.987 352.326 370.987C351.489 370.987 350.814 371.662 350.814 372.499Z" fill="#808080"/>
<path d="M351.35 372.499C351.35 373.035 351.779 373.464 352.315 373.464C352.851 373.464 353.28 373.035 353.28 372.499C353.28 371.963 352.851 371.534 352.315 371.534C351.779 371.534 351.35 371.963 351.35 372.499Z" fill="#D5D5D5"/>
<path d="M366.522 365.132C365.932 365.722 365.932 366.676 366.522 367.266C367.112 367.856 368.066 367.856 368.656 367.266C369.245 366.676 369.245 365.722 368.656 365.132C368.066 364.543 367.112 364.543 366.522 365.132Z" fill="#808080"/>
<path d="M366.908 365.519C366.533 365.894 366.533 366.505 366.908 366.891C367.283 367.277 367.894 367.266 368.28 366.891C368.656 366.516 368.656 365.905 368.28 365.519C367.905 365.143 367.294 365.143 366.908 365.519Z" fill="#D5D5D5"/>
<path d="M353.902 377.763C353.312 378.353 353.312 379.307 353.902 379.897C354.491 380.487 355.446 380.487 356.036 379.897C356.625 379.307 356.625 378.353 356.036 377.763C355.446 377.173 354.491 377.173 353.902 377.763Z" fill="#808080"/>
<path d="M354.287 378.139C353.912 378.514 353.912 379.125 354.287 379.511C354.663 379.897 355.274 379.886 355.66 379.511C356.035 379.136 356.035 378.525 355.66 378.139C355.285 377.763 354.673 377.763 354.287 378.139Z" fill="#D5D5D5"/>
<path d="M366.511 377.752C365.921 378.342 365.921 379.297 366.511 379.886C367.101 380.476 368.055 380.476 368.645 379.886C369.235 379.297 369.235 378.342 368.645 377.752C368.055 377.163 367.101 377.163 366.511 377.752Z" fill="#808080"/>
<path d="M366.897 378.128C366.521 378.503 366.521 379.114 366.897 379.5C367.272 379.886 367.883 379.875 368.269 379.5C368.644 379.125 368.644 378.514 368.269 378.128C367.894 377.742 367.283 377.752 366.897 378.128Z" fill="#D5D5D5"/>
<path d="M353.87 365.111C353.28 365.701 353.28 366.655 353.87 367.245C354.459 367.834 355.414 367.834 356.003 367.245C356.593 366.655 356.593 365.701 356.003 365.111C355.414 364.521 354.459 364.521 353.87 365.111Z" fill="#808080"/>
<path d="M354.256 365.486C353.88 365.862 353.88 366.473 354.256 366.859C354.631 367.234 355.242 367.234 355.628 366.859C356.003 366.483 356.003 365.872 355.628 365.486C355.253 365.111 354.642 365.111 354.256 365.486Z" fill="#D5D5D5"/>
<path d="M356.614 372.37C356.614 374.825 358.609 376.82 361.064 376.82C363.519 376.82 365.514 374.825 365.514 372.37C365.514 369.915 363.519 367.92 361.064 367.92C358.609 367.92 356.614 369.915 356.614 372.37Z" fill="white"/>
<path d="M376.772 356.93C373.631 354.046 369.706 352.062 365.567 351.333C364.527 351.15 363.487 351.054 362.436 351C361.386 350.947 360.335 351.054 359.295 351.108C357.215 351.376 355.167 351.88 353.226 352.684C351.296 353.509 349.484 354.582 347.843 355.89C346.224 357.241 344.82 358.806 343.597 360.511C342.407 362.248 341.485 364.167 340.809 366.162C340.145 368.178 339.823 370.279 339.684 372.413C339.641 370.279 339.877 368.135 340.434 366.044C341.056 363.985 341.925 361.991 343.093 360.168C344.284 358.356 345.752 356.737 347.393 355.321C349.076 353.96 350.942 352.823 352.936 351.944C354.952 351.129 357.086 350.636 359.241 350.389C360.324 350.357 361.407 350.25 362.49 350.314C363.573 350.378 364.645 350.507 365.707 350.732C369.942 351.612 373.888 353.799 376.804 356.93H376.772Z" fill="#575757"/>
<path d="M331.899 370.301C331.899 370.183 331.899 370.065 331.899 369.947C331.899 355.397 343.694 343.613 358.233 343.613C372.773 343.613 384.567 355.407 384.567 369.947C384.567 370.065 384.567 370.183 384.567 370.301H392.556C392.556 370.183 392.556 370.065 392.556 369.947C392.556 350.99 377.19 335.625 358.233 335.625C339.276 335.625 323.911 350.99 323.911 369.947C323.911 370.065 323.911 370.183 323.911 370.301H331.899Z" fill="#50595A"/>
<path d="M385.876 349.606C384.042 347.237 381.898 345.114 379.539 343.302C377.191 341.479 374.618 339.924 371.873 338.777C366.404 336.461 360.357 335.539 354.47 336.246C351.522 336.557 348.616 337.244 345.849 338.305C343.083 339.377 340.478 340.836 338.065 342.562C335.652 344.299 333.465 346.347 331.578 348.652C329.659 350.936 328.04 353.477 326.774 356.19C327.932 353.424 329.444 350.797 331.278 348.406C333.133 346.025 335.299 343.902 337.711 342.069C342.525 338.402 348.369 336.118 354.395 335.453C360.41 334.799 366.608 335.742 372.13 338.219C374.886 339.463 377.459 341.082 379.786 343.002C382.091 344.932 384.15 347.162 385.887 349.606H385.876Z" fill="#DDDDDD"/>
<path d="M127.725 394.179C139.752 394.179 149.502 384.429 149.502 372.402C149.502 360.375 139.752 350.625 127.725 350.625C115.698 350.625 105.948 360.375 105.948 372.402C105.948 384.429 115.698 394.179 127.725 394.179Z" fill="#121212"/>
<path d="M134.019 350.625H127.725V394.179H134.019V350.625Z" fill="#121212"/>
<path d="M134.179 394.179C146.207 394.179 155.957 384.429 155.957 372.402C155.957 360.375 146.207 350.625 134.179 350.625C122.152 350.625 112.402 360.375 112.402 372.402C112.402 384.429 122.152 394.179 134.179 394.179Z" fill="#252525"/>
<path opacity="0.29" d="M146.821 354.667C143.261 352.126 138.897 350.625 134.19 350.625C122.16 350.625 112.413 360.372 112.413 372.402C112.413 375.876 113.228 379.157 114.676 382.074C122.739 370.386 134.169 360.908 146.821 354.667Z" fill="#575757"/>
<path d="M134.019 385.355C141.173 385.355 146.972 379.556 146.972 372.402C146.972 365.249 141.173 359.45 134.019 359.45C126.865 359.45 121.066 365.249 121.066 372.402C121.066 379.556 126.865 385.355 134.019 385.355Z" fill="#121212"/>
<path d="M137.205 382.603C142.784 380.842 145.88 374.891 144.118 369.312C142.357 363.732 136.406 360.637 130.827 362.398C125.248 364.16 122.152 370.11 123.914 375.69C125.675 381.269 131.626 384.364 137.205 382.603Z" fill="white"/>
<path d="M133.986 379.393C137.658 379.393 140.634 376.417 140.634 372.745C140.634 369.074 137.658 366.097 133.986 366.097C130.315 366.097 127.338 369.074 127.338 372.745C127.338 376.417 130.315 379.393 133.986 379.393Z" fill="#ABABAB"/>
<path d="M127.789 372.37C127.789 375.694 130.48 378.375 133.793 378.375C137.106 378.375 139.798 375.683 139.798 372.37C139.798 369.057 137.106 366.365 133.793 366.365C130.48 366.365 127.789 369.057 127.789 372.37Z" fill="#D5D5D5"/>
<path d="M132.507 363.567C132.507 364.403 133.182 365.079 134.019 365.079C134.855 365.079 135.531 364.403 135.531 363.567C135.531 362.731 134.855 362.055 134.019 362.055C133.182 362.055 132.507 362.731 132.507 363.567Z" fill="#808080"/>
<path d="M133.054 363.567C133.054 364.103 133.483 364.532 134.019 364.532C134.555 364.532 134.984 364.103 134.984 363.567C134.984 363.031 134.555 362.602 134.019 362.602C133.483 362.602 133.054 363.031 133.054 363.567Z" fill="#D5D5D5"/>
<path d="M132.507 381.42C132.507 382.256 133.182 382.931 134.019 382.931C134.855 382.931 135.531 382.256 135.531 381.42C135.531 380.583 134.855 379.908 134.019 379.908C133.182 379.908 132.507 380.583 132.507 381.42Z" fill="#808080"/>
<path d="M133.054 381.419C133.054 381.956 133.483 382.384 134.019 382.384C134.555 382.384 134.984 381.956 134.984 381.419C134.984 380.883 134.555 380.454 134.019 380.454C133.483 380.454 133.054 380.883 133.054 381.419Z" fill="#D5D5D5"/>
<path d="M142.929 374.011C143.764 374.011 144.441 373.334 144.441 372.499C144.441 371.664 143.764 370.987 142.929 370.987C142.094 370.987 141.417 371.664 141.417 372.499C141.417 373.334 142.094 374.011 142.929 374.011Z" fill="#808080"/>
<path d="M142.929 373.464C143.462 373.464 143.894 373.032 143.894 372.499C143.894 371.966 143.462 371.534 142.929 371.534C142.396 371.534 141.964 371.966 141.964 372.499C141.964 373.032 142.396 373.464 142.929 373.464Z" fill="#D5D5D5"/>
<path d="M125.055 374.011C125.89 374.011 126.567 373.334 126.567 372.499C126.567 371.664 125.89 370.987 125.055 370.987C124.22 370.987 123.543 371.664 123.543 372.499C123.543 373.334 124.22 374.011 125.055 374.011Z" fill="#808080"/>
<path d="M125.055 373.464C125.588 373.464 126.02 373.032 126.02 372.499C126.02 371.966 125.588 371.534 125.055 371.534C124.522 371.534 124.09 371.966 124.09 372.499C124.09 373.032 124.522 373.464 125.055 373.464Z" fill="#D5D5D5"/>
<path d="M139.262 365.132C138.672 365.722 138.672 366.676 139.262 367.266C139.852 367.856 140.806 367.856 141.396 367.266C141.986 366.676 141.986 365.722 141.396 365.132C140.806 364.543 139.852 364.543 139.262 365.132Z" fill="#808080"/>
<path d="M139.637 365.519C139.262 365.894 139.262 366.505 139.637 366.891C140.012 367.266 140.623 367.266 141.009 366.891C141.385 366.516 141.385 365.905 141.009 365.519C140.634 365.143 140.023 365.143 139.637 365.519Z" fill="#D5D5D5"/>
<path d="M126.631 377.763C126.041 378.353 126.041 379.307 126.631 379.897C127.221 380.487 128.175 380.487 128.765 379.897C129.354 379.307 129.354 378.353 128.765 377.763C128.175 377.173 127.221 377.173 126.631 377.763Z" fill="#808080"/>
<path d="M127.017 378.139C126.642 378.514 126.642 379.125 127.017 379.511C127.392 379.886 128.003 379.886 128.389 379.511C128.775 379.136 128.765 378.525 128.389 378.139C128.014 377.753 127.403 377.763 127.017 378.139Z" fill="#D5D5D5"/>
<path d="M139.241 377.752C138.651 378.342 138.651 379.297 139.241 379.886C139.83 380.476 140.785 380.476 141.374 379.886C141.964 379.297 141.964 378.342 141.374 377.752C140.785 377.163 139.83 377.163 139.241 377.752Z" fill="#808080"/>
<path d="M139.627 378.128C139.251 378.503 139.251 379.114 139.627 379.5C140.002 379.876 140.613 379.876 140.999 379.5C141.374 379.125 141.374 378.514 140.999 378.128C140.624 377.752 140.013 377.752 139.627 378.128Z" fill="#D5D5D5"/>
<path d="M126.599 365.111C126.009 365.701 126.009 366.655 126.599 367.245C127.188 367.834 128.143 367.834 128.732 367.245C129.322 366.655 129.322 365.701 128.732 365.111C128.143 364.521 127.188 364.521 126.599 365.111Z" fill="#808080"/>
<path d="M126.985 365.486C126.609 365.861 126.609 366.473 126.985 366.859C127.36 367.234 127.971 367.234 128.357 366.859C128.743 366.483 128.732 365.872 128.357 365.486C127.982 365.1 127.371 365.111 126.985 365.486Z" fill="#D5D5D5"/>
<path d="M129.344 372.37C129.344 374.825 131.338 376.82 133.793 376.82C136.249 376.82 138.243 374.825 138.243 372.37C138.243 369.915 136.249 367.92 133.793 367.92C131.338 367.92 129.344 369.915 129.344 372.37Z" fill="white"/>
<path d="M149.502 356.93C146.36 354.046 142.436 352.062 138.297 351.333C137.257 351.15 136.217 351.054 135.166 351C134.115 350.947 133.064 351.054 132.024 351.108C129.944 351.376 127.896 351.88 125.955 352.684C124.025 353.509 122.213 354.582 120.573 355.89C118.965 357.241 117.549 358.806 116.327 360.511C115.137 362.248 114.214 364.167 113.539 366.162C112.874 368.178 112.553 370.279 112.413 372.413C112.37 370.279 112.606 368.135 113.164 366.044C113.786 363.985 114.654 361.991 115.823 360.168C117.013 358.356 118.482 356.737 120.122 355.321C121.806 353.96 123.672 352.823 125.666 351.944C127.682 351.129 129.815 350.636 131.971 350.389C133.054 350.357 134.137 350.25 135.22 350.314C136.302 350.378 137.375 350.507 138.436 350.732C142.672 351.612 146.617 353.799 149.534 356.93H149.502Z" fill="#575757"/>
<path d="M28.7572 284.179C14.7323 298.536 8.10596 315.241 8.10596 315.241V321.085H83.7199V315.241C83.7199 315.241 90.0246 299.061 102.452 284.179H28.7572Z" fill="#B4CEE9"/>
<path d="M83.7199 315.477H8.10596V321.085H83.7199V315.477Z" fill="#416F76"/>
<path d="M96.8978 291.427C98.5919 289.025 100.436 286.58 102.452 284.168H28.7573C26.4305 286.548 24.3075 289.004 22.3882 291.427H96.8978Z" fill="#252525"/>
<g style="mix-blend-mode:overlay">
<path d="M41.0342 284.179C30.9552 296.456 21.0049 308.808 10.9902 321.085H30.5907C40.7876 309.215 50.4806 296.863 59.6697 284.179H41.045H41.0342Z" fill="white"/>
</g>
<g style="mix-blend-mode:overlay">
<path d="M71.8717 284.179C61.7927 296.456 51.8423 308.808 41.8276 321.085H51.1132C61.3101 309.215 71.0031 296.863 80.1922 284.179H71.8824H71.8717Z" fill="white"/>
</g>
<path d="M97.4873 343.43H131.509C143.851 343.43 153.855 333.426 153.855 321.085H97.4873V343.43Z" fill="#620D15"/>
<path d="M141.814 325.706H130.298C129.415 325.706 128.7 326.422 128.7 327.304V329.341C128.7 330.224 129.415 330.939 130.298 330.939H141.814C142.696 330.939 143.411 330.224 143.411 329.341V327.304C143.411 326.422 142.696 325.706 141.814 325.706Z" fill="#871A1F"/>
<path d="M19.3965 334.477H66.1566C66.1566 340.889 60.9563 346.09 54.5443 346.09H31.0088C24.5968 346.09 19.3965 340.889 19.3965 334.477Z" fill="#121212"/>
<path d="M82.7874 358.506H64.881C63.7737 358.506 62.876 359.404 62.876 360.511V365.722C62.876 366.829 63.7737 367.727 64.881 367.727H82.7874C83.8947 367.727 84.7924 366.829 84.7924 365.722V360.511C84.7924 359.404 83.8947 358.506 82.7874 358.506Z" fill="white"/>
<path d="M24.2327 358.506H6.32636C5.21899 358.506 4.32129 359.404 4.32129 360.511V365.722C4.32129 366.829 5.21899 367.727 6.32636 367.727H24.2327C25.34 367.727 26.2377 366.829 26.2377 365.722V360.511C26.2377 359.404 25.34 358.506 24.2327 358.506Z" fill="white"/>
<path d="M59.5089 355.279H29.2504C28.7945 355.279 28.4248 355.648 28.4248 356.104V356.855C28.4248 357.311 28.7945 357.68 29.2504 357.68H59.5089C59.9649 357.68 60.3345 357.311 60.3345 356.855V356.104C60.3345 355.648 59.9649 355.279 59.5089 355.279Z" fill="#121212"/>
<path d="M59.5089 358.57H29.2504C28.7945 358.57 28.4248 358.94 28.4248 359.396V360.147C28.4248 360.603 28.7945 360.972 29.2504 360.972H59.5089C59.9649 360.972 60.3345 360.603 60.3345 360.147V359.396C60.3345 358.94 59.9649 358.57 59.5089 358.57Z" fill="#121212"/>
<path d="M59.5089 361.873H29.2504C28.7945 361.873 28.4248 362.242 28.4248 362.698V363.449C28.4248 363.905 28.7945 364.275 29.2504 364.275H59.5089C59.9649 364.275 60.3345 363.905 60.3345 363.449V362.698C60.3345 362.242 59.9649 361.873 59.5089 361.873Z" fill="#121212"/>
<path d="M59.5089 365.175H29.2504C28.7945 365.175 28.4248 365.545 28.4248 366.001V366.752C28.4248 367.208 28.7945 367.577 29.2504 367.577H59.5089C59.9649 367.577 60.3345 367.208 60.3345 366.752V366.001C60.3345 365.545 59.9649 365.175 59.5089 365.175Z" fill="#121212"/>
<path d="M118.139 284.179C104.114 298.536 97.4873 315.241 97.4873 315.241V321.085H153.855V284.179H118.139Z" fill="#B4CEE9"/>
<path d="M153.855 315.477H97.4873V321.085H153.855V315.477Z" fill="#416F76"/>
<g style="mix-blend-mode:overlay">
<path d="M131.445 284.179C126.888 296.627 121.902 308.894 116.745 321.085H132.732C137.417 308.829 141.899 296.499 146.37 284.179H131.445Z" fill="white"/>
</g>
<path d="M98.388 323.38H97.4873V370.89H98.388V323.38Z" fill="#AB333C"/>
<path d="M114.74 323.38H97.4873V315.273H114.74C116.981 315.273 118.793 317.086 118.793 319.326C118.793 321.567 116.981 323.38 114.74 323.38Z" fill="#AB333C"/>
<path d="M92.2122 370.901H0V375.383H92.2122V370.901Z" fill="#777E7E"/>
<path d="M92.2122 370.901H0V372.381H92.2122V370.901Z" fill="#A0A0A0"/>
</svg>
