<svg width="38" height="38" viewBox="0 0 38 38" fill="none" xmlns="http://www.w3.org/2000/svg">
<circle cx="19" cy="19" r="18" stroke="#045CB4" stroke-width="2"/>
<path d="M24.7616 20.6802L26.8225 22.7411C27.1163 23.0349 27.1163 23.5112 26.8225 23.8049C25.2342 25.3932 22.7198 25.5719 20.9229 24.2242L20.0091 23.5388C18.3148 22.2681 16.8097 20.763 15.539 19.0687L14.8536 18.1549C13.5059 16.358 13.6846 13.8436 15.2729 12.2553C15.5666 11.9615 16.0429 11.9615 16.3367 12.2553L18.3976 14.3162C18.7881 14.7067 18.7881 15.3399 18.3976 15.7304L17.6789 16.449C17.545 16.5829 17.5118 16.7875 17.5965 16.9568C18.5755 18.9147 20.1631 20.5023 22.121 21.4813C22.2903 21.566 22.4949 21.5328 22.6287 21.3989L23.3474 20.6802C23.7379 20.2897 24.3711 20.2897 24.7616 20.6802Z" stroke="#023246"/>
</svg>
