<svg width="115" height="52" viewBox="0 0 115 52" fill="none" xmlns="http://www.w3.org/2000/svg">
<path d="M35.9552 29.3884V2.88311C35.9552 1.40862 34.6733 0 33.1988 0H33.0113C32.9606 0 32.9151 0.0101333 32.8644 0.0152003L32.8542 0H10.6761C7.46872 0 6.22224 2.30041 5.0619 4.00798C2.59936 7.63086 0.0912053 13.9291 0.0456026 20.3743V20.3287L0 41.0425H115V29.3884H35.9552Z" fill="#045CB4"/>
<path d="M33.9284 2.53345V15.1249C33.9284 15.1249 25.0207 19.4267 2.43213 22.4416C2.43213 22.4416 2.45746 7.60042 9.87044 2.53345H33.9284Z" fill="white"/>
<path d="M34.4961 41.5898C34.4961 46.3376 30.6452 50.1935 25.8975 50.1935C21.1497 50.1935 17.2988 46.3426 17.2988 41.5898C17.2988 36.837 21.1497 32.9861 25.8975 32.9861C30.6452 32.9861 34.4961 36.837 34.4961 41.5898Z" fill="#045CB4" stroke="white" stroke-width="2" stroke-miterlimit="10"/>
<path d="M31.4863 41.5896C31.4863 44.6754 28.9833 47.1785 25.8975 47.1785C22.8117 47.1785 20.3086 44.6754 20.3086 41.5896C20.3086 38.5038 22.8117 36.0007 25.8975 36.0007C28.9833 36.0007 31.4863 38.5038 31.4863 41.5896Z" fill="white"/>
<path d="M27.5292 41.5898C27.5292 42.4917 26.7996 43.2214 25.8977 43.2214C24.9958 43.2214 24.2661 42.4917 24.2661 41.5898C24.2661 40.6879 24.9958 39.9583 25.8977 39.9583C26.7996 39.9583 27.5292 40.6879 27.5292 41.5898Z" fill="white" stroke="#045CB4" stroke-width="2" stroke-miterlimit="10"/>
<path d="M105.652 41.5898C105.652 46.3376 101.801 50.1935 97.0479 50.1935C92.2951 50.1935 88.4492 46.3426 88.4492 41.5898C88.4492 36.837 92.3001 32.9861 97.0479 32.9861C101.796 32.9861 105.652 36.837 105.652 41.5898Z" fill="#045CB4" stroke="white" stroke-width="2" stroke-miterlimit="10"/>
<path d="M101.001 45.5396C103.183 43.357 103.183 39.8183 101.001 37.6357C98.8182 35.4531 95.2795 35.4531 93.0969 37.6357C90.9144 39.8183 90.9144 43.357 93.0969 45.5396C95.2795 47.7222 98.8182 47.7222 101.001 45.5396Z" fill="white"/>
<path d="M98.6796 41.5898C98.6796 42.4917 97.95 43.2214 97.0481 43.2214C96.1461 43.2214 95.4165 42.4917 95.4165 41.5898C95.4165 40.6879 96.1461 39.9583 97.0481 39.9583C97.95 39.9583 98.6796 40.6879 98.6796 41.5898Z" fill="white" stroke="#045CB4" stroke-width="2" stroke-miterlimit="10"/>
<path d="M85.4192 41.5898C85.4192 46.3376 81.5683 50.1935 76.8154 50.1935C72.0626 50.1935 68.2168 46.3426 68.2168 41.5898C68.2168 36.837 72.0677 32.9861 76.8154 32.9861C81.5632 32.9861 85.4192 36.837 85.4192 41.5898Z" fill="#045CB4" stroke="white" stroke-width="2" stroke-miterlimit="10"/>
<path d="M82.4043 41.5896C82.4043 44.6754 79.9012 47.1785 76.8154 47.1785C73.7296 47.1785 71.2266 44.6754 71.2266 41.5896C71.2266 38.5038 73.7296 36.0007 76.8154 36.0007C79.9012 36.0007 82.4043 38.5038 82.4043 41.5896Z" fill="white"/>
<path d="M78.4521 41.5898C78.4521 42.4917 77.7225 43.2214 76.8205 43.2214C75.9186 43.2214 75.189 42.4917 75.189 41.5898C75.189 40.6879 75.9186 39.9583 76.8205 39.9583C77.7225 39.9583 78.4521 40.6879 78.4521 41.5898Z" fill="white" stroke="#045CB4" stroke-width="2" stroke-miterlimit="10"/>
<path d="M5.21913 36.9888C5.8373 36.9888 6.344 37.384 6.344 38.0022C6.344 38.6203 5.84237 39.0156 5.21913 39.0156H3.05553C2.43736 39.0156 1.93066 38.6203 1.93066 38.0022C1.93066 37.384 2.43229 36.9888 3.05553 36.9888H5.21913Z" fill="white"/>
<path d="M111.975 36.9888C112.593 36.9888 113.1 37.384 113.1 38.0022C113.1 38.6203 112.598 39.0156 111.975 39.0156H109.811C109.193 39.0156 108.687 38.6203 108.687 38.0022C108.687 37.384 109.188 36.9888 109.811 36.9888H111.975Z" fill="white"/>
<path d="M24.3012 2.02686H22.2744V18.7479H24.3012V2.02686Z" fill="#045CB4"/>
<path d="M113.105 0H40.5865C39.34 0 38.4888 1.25154 38.4888 2.49802V26.8549H115V2.49802C115 1.25661 114.351 0 113.105 0Z" fill="#045CB4"/>
</svg>
