<svg width="40" height="35" viewBox="0 0 40 35" fill="none" xmlns="http://www.w3.org/2000/svg">
<circle cx="14.6233" cy="7.45828" r="6.45828" stroke="#045CB4" stroke-width="2" stroke-linecap="round"/>
<path d="M23.7803 8.57985C24.4718 7.38199 25.6109 6.50792 26.947 6.14993C28.283 5.79194 29.7065 5.97935 30.9044 6.67094C32.1023 7.36252 32.9763 8.50163 33.3343 9.83766C33.6923 11.1737 33.5049 12.5972 32.8133 13.7951C32.1217 14.9929 30.9826 15.867 29.6466 16.225C28.3105 16.583 26.887 16.3956 25.6892 15.704C24.4913 15.0124 23.6172 13.8733 23.2592 12.5373C22.9013 11.2012 23.0887 9.7777 23.7803 8.57985L23.7803 8.57985Z" stroke="#045CB4" stroke-width="2"/>
<path d="M28.2431 32.5654L29.2394 32.4798L28.2431 32.5654ZM27.2968 32.5623H1.94975V34.5623H27.2968V32.5623ZM1.99981 32.6509C2.13783 31.0436 2.6439 27.7506 4.44846 24.8865C6.2138 22.0847 9.24268 19.6458 14.6233 19.6458V17.6458C8.48788 17.6458 4.85023 20.4971 2.75634 23.8203C0.701677 27.0813 0.155837 30.7481 0.00713825 32.4798L1.99981 32.6509ZM14.6233 19.6458C20.0039 19.6458 23.0327 22.0847 24.7981 24.8865C26.6026 27.7506 27.1087 31.0436 27.2467 32.6509L29.2394 32.4798C29.0907 30.7481 28.5449 27.0813 26.4902 23.8203C24.3963 20.4971 20.7587 17.6458 14.6233 17.6458V19.6458ZM1.94975 32.5623C1.94672 32.5623 1.95837 32.5622 1.97277 32.5772C1.97995 32.5847 1.98792 32.5961 1.99356 32.6116C1.99957 32.6282 2.0005 32.6428 1.99981 32.6509L0.00713825 32.4798C-0.0940911 33.6587 0.857267 34.5623 1.94975 34.5623V32.5623ZM27.2968 34.5623C28.3893 34.5623 29.3406 33.6587 29.2394 32.4798L27.2467 32.6509C27.246 32.6428 27.247 32.6282 27.253 32.6116C27.2586 32.5961 27.2666 32.5847 27.2738 32.5772C27.2882 32.5622 27.2998 32.5623 27.2968 32.5623V34.5623Z" fill="#045CB4"/>
<path d="M19.4526 33.5622V32.5622L19.4479 34.5622L19.4526 33.5622ZM38.0795 32.4727L39.064 32.2974V32.2974L38.0795 32.4727ZM24.0713 22.327L23.5354 21.4827L22.5051 22.1365L23.3487 23.0183L24.0713 22.327ZM28.243 32.5653L27.2467 32.6508L28.243 32.5653ZM19.4575 32.5622C19.4574 32.5622 19.4574 32.5622 19.4573 32.5622L19.4479 34.5622C19.4511 34.5622 19.4543 34.5622 19.4575 34.5622V32.5622ZM37.1362 32.5622H19.4575V34.5622H37.1362V32.5622ZM37.095 32.648C37.0939 32.6423 37.0933 32.6284 37.0982 32.6115C37.1027 32.5958 37.1099 32.5843 37.1164 32.577C37.1296 32.5619 37.141 32.5622 37.1362 32.5622V34.5622C38.3039 34.5622 39.2848 33.5375 39.064 32.2974L37.095 32.648ZM28.2969 22.1318C31.3819 22.1318 33.4168 23.9043 34.7985 26.184C36.193 28.4846 36.8332 31.1779 37.095 32.648L39.064 32.2974C38.7861 30.7366 38.0922 27.7594 36.5089 25.1473C34.9129 22.5142 32.3263 20.1318 28.2969 20.1318V22.1318ZM24.6071 23.1714C25.6143 22.5322 26.823 22.1318 28.2969 22.1318V20.1318C26.4347 20.1318 24.8556 20.6449 23.5354 21.4827L24.6071 23.1714ZM23.3487 23.0183C26.3413 26.1466 27.0748 30.6486 27.2467 32.6508L29.2394 32.4797C29.0584 30.3723 28.2798 25.2797 24.7939 21.6358L23.3487 23.0183ZM27.2467 32.6508C27.246 32.6427 27.2469 32.6281 27.2529 32.6115C27.2586 32.596 27.2666 32.5846 27.2737 32.5771C27.2881 32.5622 27.2998 32.5622 27.2968 32.5622V34.5622C28.3892 34.5622 29.3406 33.6586 29.2394 32.4797L27.2467 32.6508ZM27.2968 32.5622H19.4526V34.5622H27.2968V32.5622Z" fill="#045CB4"/>
</svg>
