<svg width="15" height="12" viewBox="0 0 15 12" fill="none" xmlns="http://www.w3.org/2000/svg">
<path d="M5.45278 12H0V8.03289C0 6.42758 0.135836 5.16443 0.407506 4.24344C0.692113 3.30921 1.20957 2.47371 1.9599 1.73683C2.71022 0.999992 3.66753 0.421054 4.83183 0L5.89909 2.28949C4.81242 2.65793 4.02975 3.17107 3.5511 3.82892C3.08538 4.48687 2.83959 5.36178 2.81372 6.45395H5.45278V12ZM14.5537 12H9.10091V8.03289C9.10091 6.41444 9.23673 5.14472 9.50836 4.22363C9.79301 3.30264 10.3104 2.47371 11.0608 1.73683C11.8241 0.999992 12.7813 0.421054 13.9328 0L15 2.28949C13.9133 2.65793 13.1307 3.17107 12.652 3.82892C12.1863 4.48687 11.9405 5.36178 11.9146 6.45395H14.5537V12Z" fill="#045CB4"/>
</svg>
