<svg width="436" height="411" viewBox="0 0 436 411" fill="none" xmlns="http://www.w3.org/2000/svg">
<path d="M370.027 354.379C361.448 362.914 353.33 368.418 346.916 372.766C271.526 423.883 182.319 408.983 163.359 405.344C135.363 399.971 81.2457 389.585 42.121 346.106C-17.0722 280.327 -7.85443 176.693 38.059 108.283C46.4579 95.7705 90.8199 26.3177 180.988 15.18C235.557 8.439 299.166 22.0337 345.23 58.5038C441.923 135.055 435.039 289.702 370.025 354.38L370.027 354.379Z" fill="#287094" fill-opacity="0.31"/>
<path d="M6.15506 14.801C5.62333 12.6661 8.80618 11.2466 10.7564 12.7388C30.5499 27.8812 78.1068 73.2258 66.2546 152.469C51.3842 251.892 76.8062 288.17 108.452 310.3C108.452 310.3 64.9932 299.893 37.6512 263.081C-29.4817 172.697 15.6069 52.7589 6.15506 14.801Z" fill="#287094"/>
<g style="mix-blend-mode:soft-light">
<path d="M21.2173 45.8539C23.6932 56.9218 25.9002 68.0239 27.6056 79.1758C29.3821 90.3178 30.7447 101.5 31.6767 112.7C32.5559 123.902 33.1768 135.115 33.2115 146.334C33.3082 157.552 32.8142 168.761 32.2704 180.012C31.8036 191.261 31.2538 202.59 32.1269 214C32.9849 225.385 35.5258 236.872 40.5667 247.639C41.8265 250.323 43.1513 252.998 44.6574 255.583C46.1045 258.191 47.6937 260.749 49.3387 263.282C52.6606 268.336 56.3993 273.218 60.5656 277.853C68.9298 287.107 79.0161 295.314 90.1282 302.262C91.2974 302.993 92.9741 302.813 93.8714 301.86C94.7521 300.925 94.5558 299.591 93.4409 298.851L93.4334 298.846C90.7898 297.094 88.1734 295.32 85.6628 293.456C84.3894 292.541 83.1688 291.58 81.9256 290.64C80.7277 289.662 79.4829 288.721 78.3243 287.715C73.6051 283.753 69.235 279.526 65.2681 275.055C57.2906 266.158 50.9052 256.242 46.0668 245.963C43.7178 240.8 41.8401 235.504 40.47 230.11C39.1044 224.714 38.2449 219.224 37.7705 213.689C36.8188 202.614 37.2494 191.398 37.6164 180.148C37.9669 168.894 38.2237 157.584 37.908 146.283C37.769 140.632 37.5062 134.985 37.1195 129.345C36.9457 126.523 36.7055 123.705 36.4699 120.888C36.2025 118.072 35.9155 115.257 35.6013 112.445C34.3158 101.199 32.6103 89.9886 30.4728 78.8395C28.2688 67.6989 25.7038 56.6083 22.6176 45.6174C22.53 45.3038 22.1448 45.1072 21.7596 45.1784C21.385 45.2482 21.1478 45.5475 21.2143 45.8511L21.2173 45.8539Z" fill="white"/>
</g>
<path d="M60.1429 229.993C58.1866 232.775 53.8542 232.768 51.8708 230.003C40.9234 214.752 14.1041 168.99 33.5758 108.115C50.0203 56.7094 53.759 27.3609 54.4781 13.9258C54.6306 11.0855 58.5371 10.0779 60.2033 12.4493C78.5843 38.6041 131.034 129.202 60.1429 229.991V229.993Z" fill="#5BA2C6"/>
<g style="mix-blend-mode:soft-light">
<path d="M55.481 228.951C55.3979 228.98 55.3118 229 55.2227 229.014C54.4689 229.125 53.7619 228.638 53.6456 227.926C53.5127 227.12 40.5502 146.472 59.9917 74.0224C60.179 73.3255 60.9298 72.9022 61.67 73.079C62.4102 73.2557 62.8573 73.964 62.67 74.6623C43.369 146.586 56.2424 226.725 56.3753 227.526C56.4795 228.153 56.0913 228.744 55.4825 228.953L55.481 228.951Z" fill="white"/>
</g>
<path d="M294.079 82.8498L170.277 72.4518L46.4766 84.2094V334.319L170.277 328.129L294.079 334.992L417.725 324.516V77.0351L294.079 82.8498Z" fill="#287094"/>
<path d="M172.936 324.919L55.3076 330.792V93.5287L172.936 82.3754V324.919Z" fill="#5BA2C6"/>
<path d="M290.562 328.938L172.935 322.427V79.8813L290.562 89.7449V328.938Z" fill="#5BA2C6"/>
<path d="M408.042 318.999L290.562 328.938V89.745L408.042 84.2296V318.999Z" fill="#5BA2C6"/>
<path opacity="0.47" d="M170.271 322.494H172.935V79.8813L170.271 82.3754V322.494Z" fill="white"/>
<path d="M55.3073 181.051C65.383 200.096 86.9953 216.64 106.141 227.902C114.854 233.027 123.96 237.891 133.978 240.013C143.998 242.135 155.172 241.195 163.47 235.487C174.256 228.066 178.272 214.524 189.618 207.725C195.404 204.257 202.368 205.483 208.406 201.9C214.349 198.373 218.867 192.49 219.776 185.844C220.442 180.973 219.414 176.037 219.575 171.128C220.198 152.266 237.588 137.911 244.177 120.094C248.142 109.374 248.052 97.75 247.919 86.3971C254.158 87.3377 260.49 87.7282 266.804 87.5629C262.869 104.024 258.875 120.648 251.126 135.856C247.212 143.536 242.346 150.847 239.657 158.982C238.548 162.337 237.825 165.934 238.672 169.355C239.52 172.777 242.258 175.966 245.926 176.58C252.434 177.671 259.173 171.21 264.189 168.163C270.631 164.25 277.524 160.929 284.941 159.015C292.134 157.16 299.651 155.828 305.986 152.117C315.802 146.368 321.206 135.87 325.171 125.633C330.019 113.12 333.493 100.134 335.52 86.9501C347.51 86.9344 355.639 87.0954 366.81 86.1648C351.196 106.533 339.708 129.149 334.724 153.843C333.76 158.62 333.014 163.566 334.111 168.316C337.362 182.401 362.998 192.004 374.085 200.525C386.491 210.06 397.946 220.915 408.043 232.646V250.177C391.872 233.915 373.003 220.448 352.075 210.103C344.392 206.305 328.975 195.056 320.195 196.896C315.783 197.821 311.496 199.28 307.476 201.23C305.6 202.139 303.743 203.185 302.382 204.706C300.743 206.539 299.961 208.9 299.217 211.195C298.13 214.55 297.035 217.949 296.876 221.453C296.802 223.098 296.935 224.744 297.146 226.379C298.092 233.684 300.622 240.803 304.536 247.168C306.588 250.504 310.858 253.958 313.612 256.954C321.781 265.839 331.401 273.691 337.768 283.803C342.167 290.788 344.842 298.538 348.422 305.89C351.478 311.944 356.355 317.102 359.695 323.046C355.755 323.406 351.815 323.763 347.874 324.122C342.832 314.676 336.381 305.9 328.772 298.133C324.476 293.748 320.845 289.528 315.807 285.69C305.604 277.918 295.004 269.885 282.483 265.722C269.184 261.301 258.467 269.191 246.926 275.031C230.236 283.478 212.154 287.668 193.348 288.875C185.555 289.375 181.247 293.909 173.894 295.977C165.961 298.209 158.527 296.58 151.781 292.173C127.1 276.05 103.556 257.915 83.7792 236.514C73.6174 225.519 54.5777 211.772 55.0399 197.061C55.3919 185.875 54.5354 181.544 55.3058 181.053L55.3073 181.051Z" fill="#287094"/>
<path d="M109.137 229.451C108.731 229.451 108.323 229.32 107.989 229.052C107.243 228.454 107.151 227.396 107.787 226.691C108.89 225.467 109.995 224.251 111.106 223.045C111.748 222.347 112.868 222.273 113.61 222.88C114.35 223.487 114.429 224.544 113.785 225.243C112.684 226.439 111.587 227.646 110.492 228.861C110.142 229.25 109.642 229.451 109.139 229.451H109.137ZM117.5 220.449C117.074 220.449 116.645 220.305 116.305 220.012C115.58 219.39 115.527 218.331 116.187 217.647C117.373 216.418 118.542 215.231 119.665 214.115C120.34 213.445 121.464 213.415 122.175 214.052C122.887 214.689 122.915 215.75 122.242 216.421C121.136 217.52 119.983 218.691 118.814 219.903C118.464 220.266 117.983 220.45 117.501 220.45L117.5 220.449ZM292.017 213.099C291.049 213.099 290.256 212.365 290.242 211.447C290.229 210.522 291.013 209.761 291.992 209.748C293.014 209.734 294.046 209.706 295.058 209.664C295.569 209.545 296.075 209.421 296.576 209.295C297.527 209.057 298.496 209.592 298.747 210.485C298.998 211.379 298.433 212.297 297.486 212.533C296.91 212.677 296.33 212.818 295.744 212.955L295.573 212.995L295.398 213.002C294.291 213.05 293.162 213.082 292.043 213.098C292.034 213.098 292.026 213.098 292.017 213.098V213.099ZM284.416 212.951C284.383 212.951 284.351 212.951 284.318 212.948C282.63 212.861 280.907 212.737 279.194 212.582C278.218 212.493 277.503 211.674 277.597 210.753C277.691 209.832 278.559 209.161 279.535 209.247C281.198 209.399 282.874 209.519 284.511 209.603C285.49 209.653 286.241 210.444 286.186 211.367C286.135 212.26 285.351 212.951 284.415 212.951H284.416ZM126.29 211.828C125.828 211.828 125.367 211.658 125.02 211.322C124.335 210.659 124.349 209.599 125.051 208.953C126.299 207.806 127.555 206.687 128.78 205.63C129.505 205.005 130.627 205.054 131.289 205.737C131.95 206.419 131.899 207.478 131.175 208.102C129.976 209.136 128.751 210.229 127.53 211.352C127.184 211.67 126.737 211.828 126.292 211.828H126.29ZM271.821 211.691C271.73 211.691 271.639 211.684 271.547 211.671C269.89 211.429 268.189 211.152 266.494 210.849C265.53 210.676 264.897 209.8 265.08 208.89C265.263 207.983 266.2 207.384 267.156 207.558C268.813 207.854 270.472 208.125 272.089 208.36C273.058 208.501 273.722 209.358 273.573 210.271C273.437 211.099 272.682 211.691 271.821 211.691ZM304.303 210.509C303.566 210.509 302.879 210.073 302.625 209.379C302.306 208.504 302.799 207.552 303.726 207.25C305.309 206.736 306.874 206.183 308.38 205.605C309.291 205.258 310.324 205.671 310.693 206.527C311.062 207.384 310.624 208.362 309.716 208.709C308.151 209.309 306.524 209.884 304.882 210.417C304.69 210.479 304.495 210.508 304.303 210.508V210.509ZM259.388 209.378C259.252 209.378 259.115 209.364 258.977 209.332C257.358 208.97 255.69 208.575 254.018 208.158C253.071 207.921 252.506 207.005 252.755 206.11C253.006 205.216 253.974 204.682 254.926 204.918C256.568 205.329 258.205 205.717 259.795 206.071C260.749 206.285 261.338 207.187 261.113 208.087C260.92 208.858 260.192 209.376 259.388 209.376V209.378ZM247.154 206.26C246.985 206.26 246.812 206.237 246.643 206.188C245.071 205.742 243.43 205.262 241.766 204.759C240.832 204.477 240.318 203.533 240.617 202.652C240.917 201.772 241.917 201.286 242.85 201.568C244.494 202.065 246.113 202.54 247.664 202.979C248.604 203.245 249.136 204.179 248.855 205.065C248.624 205.791 247.918 206.258 247.155 206.258L247.154 206.26ZM315.956 205.849C315.312 205.849 314.69 205.517 314.376 204.94C313.927 204.118 314.27 203.107 315.143 202.684C316.624 201.966 318.08 201.203 319.468 200.416C320.308 199.94 321.399 200.197 321.903 200.991C322.408 201.785 322.134 202.813 321.294 203.288C319.838 204.112 318.316 204.911 316.766 205.662C316.506 205.788 316.229 205.848 315.956 205.848V205.849ZM135.742 203.855C135.225 203.855 134.712 203.643 134.361 203.234C133.745 202.516 133.863 201.46 134.624 200.878C135.987 199.838 137.361 198.839 138.71 197.907C139.502 197.361 140.612 197.523 141.191 198.269C141.769 199.015 141.599 200.063 140.807 200.609C139.505 201.508 138.176 202.474 136.858 203.48C136.529 203.731 136.135 203.854 135.742 203.854V203.855ZM235.086 202.57C234.894 202.57 234.699 202.54 234.509 202.479C232.892 201.954 231.289 201.424 229.702 200.89C228.777 200.58 228.295 199.623 228.623 198.75C228.953 197.878 229.968 197.422 230.891 197.734C232.468 198.263 234.058 198.79 235.663 199.31C236.59 199.611 237.083 200.565 236.764 201.44C236.51 202.134 235.823 202.57 235.086 202.57ZM326.684 199.527C326.147 199.527 325.613 199.298 325.266 198.86C324.675 198.122 324.832 197.071 325.615 196.514C326.931 195.579 328.218 194.59 329.441 193.577C330.178 192.967 331.299 193.035 331.947 193.731C332.594 194.426 332.521 195.484 331.784 196.095C330.494 197.163 329.138 198.204 327.752 199.189C327.432 199.417 327.057 199.527 326.686 199.527H326.684ZM223.137 198.548C222.934 198.548 222.729 198.515 222.526 198.445L217.76 196.799C216.839 196.481 216.366 195.519 216.703 194.65C217.04 193.781 218.061 193.336 218.981 193.653L223.745 195.299C224.667 195.616 225.14 196.578 224.803 197.446C224.54 198.125 223.86 198.547 223.135 198.547L223.137 198.548ZM146.079 196.943C145.479 196.943 144.893 196.657 144.559 196.137C144.052 195.346 144.319 194.315 145.158 193.836C146.662 192.977 148.186 192.169 149.688 191.438C150.557 191.013 151.629 191.335 152.079 192.158C152.529 192.98 152.188 193.99 151.316 194.414C149.886 195.11 148.433 195.88 146.998 196.701C146.709 196.865 146.392 196.943 146.079 196.943ZM211.217 194.453C211.019 194.453 210.816 194.422 210.62 194.355C209.01 193.812 207.419 193.283 205.852 192.776C204.925 192.475 204.432 191.522 204.751 190.648C205.07 189.773 206.077 189.307 207.006 189.609C208.588 190.122 210.191 190.654 211.815 191.203C212.738 191.515 213.22 192.472 212.889 193.343C212.629 194.027 211.946 194.455 211.217 194.455V194.453ZM157.448 191.682C156.729 191.682 156.052 191.267 155.786 190.594C155.442 189.728 155.906 188.763 156.824 188.438C158.466 187.856 160.137 187.342 161.789 186.907C162.737 186.659 163.712 187.179 163.975 188.072C164.238 188.962 163.687 189.886 162.743 190.135C161.19 190.543 159.619 191.027 158.072 191.576C157.866 191.649 157.656 191.683 157.448 191.683V191.682ZM336.026 191.483C335.601 191.483 335.175 191.341 334.836 191.052C334.107 190.432 334.052 189.373 334.709 188.686C335.805 187.541 336.869 186.341 337.869 185.119C338.467 184.386 339.582 184.251 340.358 184.816C341.135 185.382 341.278 186.434 340.679 187.165C339.621 188.456 338.499 189.725 337.342 190.932C336.991 191.298 336.508 191.483 336.024 191.483H336.026ZM199.195 190.633C199.023 190.633 198.846 190.608 198.672 190.558C196.991 190.07 195.372 189.626 193.858 189.239C192.912 188.996 192.352 188.077 192.609 187.184C192.866 186.292 193.839 185.761 194.787 186.005C196.339 186.401 197.997 186.856 199.718 187.356C200.654 187.628 201.18 188.566 200.892 189.45C200.657 190.169 199.955 190.633 199.195 190.633ZM186.915 187.671C186.807 187.671 186.696 187.661 186.586 187.643C184.884 187.34 183.245 187.11 181.711 186.954C180.737 186.856 180.03 186.031 180.134 185.111C180.239 184.192 181.112 183.524 182.089 183.624C183.714 183.787 185.449 184.033 187.243 184.35C188.207 184.521 188.841 185.397 188.66 186.306C188.5 187.11 187.755 187.671 186.917 187.671H186.915ZM169.305 187.554C168.513 187.554 167.793 187.051 167.586 186.294C167.342 185.398 167.915 184.486 168.865 184.256C170.527 183.854 172.314 183.584 174.173 183.453C175.155 183.38 176.003 184.075 176.077 184.997C176.151 185.92 175.417 186.723 174.439 186.793C172.785 186.91 171.207 187.149 169.744 187.501C169.596 187.537 169.448 187.554 169.302 187.554H169.305ZM343.567 181.899C343.254 181.899 342.937 181.821 342.65 181.657C341.812 181.178 341.543 180.149 342.05 179.357C342.892 178.045 343.698 176.674 344.451 175.282C344.896 174.458 345.966 174.131 346.839 174.55C347.712 174.97 348.059 175.978 347.615 176.803C346.825 178.266 345.976 179.709 345.091 181.088C344.757 181.608 344.171 181.896 343.57 181.896L343.567 181.899ZM349.129 171.169C348.916 171.169 348.698 171.132 348.487 171.055C347.573 170.72 347.12 169.751 347.473 168.887C348.061 167.459 348.615 165.974 349.121 164.472C349.419 163.59 350.416 163.103 351.351 163.383C352.285 163.664 352.801 164.606 352.504 165.487C351.975 167.055 351.396 168.605 350.783 170.097C350.51 170.761 349.839 171.168 349.127 171.168L349.129 171.169ZM352.807 159.729C352.677 159.729 352.544 159.715 352.411 159.686C351.455 159.481 350.857 158.583 351.075 157.681C351.437 156.181 351.766 154.63 352.056 153.071C352.226 152.16 353.143 151.549 354.111 151.71C355.076 151.869 355.723 152.737 355.554 153.648C355.254 155.263 354.912 156.869 354.535 158.424C354.348 159.2 353.617 159.728 352.806 159.728L352.807 159.729ZM354.866 147.926C354.803 147.926 354.739 147.923 354.674 147.916C353.7 147.818 352.993 146.991 353.099 146.072C353.273 144.544 353.419 142.962 353.534 141.367C353.6 140.444 354.457 139.745 355.427 139.81C356.404 139.872 357.144 140.672 357.078 141.594C356.96 143.231 356.809 144.859 356.631 146.43C356.532 147.289 355.764 147.926 354.868 147.926H354.866ZM355.623 135.98C355.612 135.98 355.602 135.98 355.591 135.98C354.611 135.965 353.83 135.202 353.847 134.277C353.863 133.335 353.871 132.406 353.871 131.491C353.871 130.832 353.866 130.181 353.859 129.538C353.848 128.614 354.635 127.855 355.614 127.845H355.634C356.605 127.845 357.398 128.584 357.409 129.503C357.416 130.158 357.421 130.821 357.421 131.492C357.421 132.427 357.413 133.375 357.395 134.336C357.378 135.251 356.587 135.982 355.62 135.982L355.623 135.98Z" fill="white"/>
<path d="M105.506 242.171C110.562 242.171 114.66 238.304 114.66 233.534C114.66 228.765 110.562 224.898 105.506 224.898C100.45 224.898 96.3516 228.765 96.3516 233.534C96.3516 238.304 100.45 242.171 105.506 242.171Z" fill="white"/>
<path d="M128.781 169.216C142.288 156.473 142.288 135.811 128.781 123.067C115.273 110.324 93.373 110.324 79.8654 123.067C66.3578 135.811 66.3578 156.473 79.8654 169.216C93.373 181.96 115.273 181.96 128.781 169.216Z" fill="url(#paint0_linear_63_1299)"/>
<path d="M138.848 143.488H69.736C69.736 143.488 66.9821 162.052 97.8514 211.661C99.1989 213.826 101.66 215.345 104.32 215.346C106.98 215.346 109.445 213.737 110.793 211.572C141.659 161.959 138.849 143.488 138.849 143.488H138.848Z" fill="#287094"/>
<path d="M104.947 216.632V216.772H104.318C101.308 216.772 98.4981 215.231 96.9845 212.8C78.9403 183.802 72.3284 165.477 69.9597 155.217C69.2845 152.857 68.8963 150.548 68.7739 148.177C68.5654 145.75 68.7241 144.731 68.7437 144.622L68.8343 144.102C70.2286 126.574 85.6912 112.932 104.322 112.932C122.952 112.932 138.8 126.768 139.854 144.436C139.881 144.667 139.931 145.254 139.911 146.234V146.355C139.913 149.561 139.433 152.734 138.487 155.791C136.037 166.043 129.704 184.197 111.968 212.706C110.446 215.153 107.781 216.632 104.945 216.632H104.947ZM70.6788 145.629C70.6712 145.629 70.6863 146.933 70.777 147.984V148.039C70.8948 150.286 71.2619 152.478 71.9054 154.718L71.9175 154.771C74.2499 164.891 80.7938 183.005 98.7172 211.808C99.8713 213.662 102.331 214.816 104.631 214.816L104.947 215.765V214.818C106.081 214.818 109.421 213.656 110.586 211.786C128.209 183.46 134.997 165.458 137.265 155.344V155.286C138.399 152.394 138.51 149.388 138.51 146.354L138.399 146.22V146.21C138.399 145.265 138.121 144.755 138.105 144.621L137.976 144.565C136.994 127.888 122.204 114.825 104.385 114.825C86.5658 114.825 71.842 127.957 70.8283 144.779L70.7437 145.626H70.6788V145.629Z" fill="#023246"/>
<path d="M85.489 126.419C85.3953 126.419 85.3016 126.382 85.2352 126.309C85.1143 126.176 85.1309 125.977 85.2714 125.864C90.8818 121.318 98.0497 118.815 105.456 118.815C105.64 118.815 105.792 118.957 105.792 119.132C105.792 119.307 105.642 119.448 105.456 119.448C98.2113 119.448 91.1975 121.898 85.708 126.345C85.6445 126.396 85.5675 126.42 85.4905 126.42L85.489 126.419Z" fill="white"/>
<path d="M74.7948 148.372C74.6105 148.372 74.4595 148.231 74.4595 148.056C74.4595 142.599 76.0622 137.277 79.0955 132.662C79.1937 132.514 79.3992 132.468 79.5563 132.56C79.7134 132.652 79.7617 132.846 79.665 132.994C76.6967 137.508 75.1287 142.715 75.1287 148.054C75.1287 148.228 74.9791 148.37 74.7933 148.37L74.7948 148.372Z" fill="white"/>
<path d="M85.0327 132.983L82.6776 124.794L75.8119 121.282L74.8965 122.862L81.0416 125.987L88.3651 151.301L88.5916 152.026H118.471C121.382 152.026 124.085 150.707 125.665 148.399L127.029 146.753C128.47 144.645 129.47 142.23 129.47 139.72V132.983H85.0312H85.0327ZM127.34 139.72C127.34 141.879 126.553 143.971 125.311 145.784L124.07 147.652C122.848 149.44 120.73 150.685 118.473 150.685H90.0584L88.504 145.252L85.5568 134.994H127.34V139.72Z" fill="white"/>
<path d="M125.346 161.213C125.346 161.712 124.916 162.218 124.384 162.218H89.3256C88.7939 162.218 88.3921 161.509 88.3921 161.011V145.414C88.3921 145.241 88.4283 145.26 88.516 145.123L90.0568 150.685H90.5236V160.207H124.384C124.916 160.207 125.346 160.713 125.346 161.214V161.213Z" fill="white"/>
<path d="M107.161 133.929H105.882V150.907H107.161V133.929Z" fill="white"/>
<path d="M95.8571 133.929H94.5776V150.907H95.8571V133.929Z" fill="white"/>
<path d="M118.199 133.929H116.92V150.907H118.199V133.929Z" fill="white"/>
<path d="M127.668 138.923H86.0435V140.003H127.668V138.923Z" fill="white"/>
<path d="M126.626 144.833H87.8604V145.914H126.626V144.833Z" fill="white"/>
<path d="M93.8151 163.458C91.5326 163.458 89.6821 165.203 89.6821 167.357C89.6821 169.51 91.5326 171.256 93.8151 171.256C96.0977 171.256 97.9482 169.51 97.9482 167.357C97.9482 165.203 96.0977 163.458 93.8151 163.458ZM93.8151 169.711C92.4375 169.711 91.3196 168.658 91.3196 167.357C91.3196 166.056 92.4375 165.003 93.8151 165.003C95.1928 165.003 96.3107 166.056 96.3107 167.357C96.3107 168.658 95.1943 169.711 93.8151 169.711Z" fill="white"/>
<path d="M119.505 163.458C117.222 163.458 115.372 165.203 115.372 167.357C115.372 169.51 117.222 171.256 119.505 171.256C121.787 171.256 123.638 169.51 123.638 167.357C123.638 165.203 121.787 163.458 119.505 163.458ZM119.505 169.711C118.127 169.711 117.009 168.658 117.009 167.357C117.009 166.056 118.125 165.003 119.505 165.003C120.884 165.003 122 166.056 122 167.357C122 168.658 120.884 169.711 119.505 169.711Z" fill="white"/>
<path d="M80.0718 122.86C80.0718 123.872 79.2017 124.693 78.1291 124.693H71.6668C70.5942 124.693 69.7241 123.872 69.7241 122.86C69.7241 121.848 70.5942 121.027 71.6668 121.027H78.1291C79.2017 121.027 80.0718 121.848 80.0718 122.86Z" fill="white"/>
<path d="M358.761 143.555C363.816 143.555 367.915 139.688 367.915 134.919C367.915 130.149 363.816 126.282 358.761 126.282C353.705 126.282 349.606 130.149 349.606 134.919C349.606 139.688 353.705 143.555 358.761 143.555Z" fill="white"/>
<path d="M384.518 71.7476C398.519 58.5393 398.519 37.1243 384.518 23.916C370.518 10.7076 347.82 10.7076 333.819 23.9159C319.819 37.1243 319.819 58.5393 333.819 71.7476C347.819 84.956 370.518 84.956 384.518 71.7476Z" fill="#287094"/>
<path d="M394.953 45.0801H323.319C323.319 45.0801 320.465 64.3213 352.46 115.741C353.856 117.985 356.407 119.559 359.164 119.561C361.921 119.561 364.477 117.892 365.873 115.649C397.866 64.2244 394.953 45.0801 394.953 45.0801Z" fill="#287094"/>
<path d="M359.816 120.892V121.037H359.165C356.044 121.037 353.132 119.44 351.564 116.92C332.861 86.8632 326.009 67.87 323.554 57.2368C322.855 54.7912 322.451 52.3983 322.325 49.9399C322.109 47.4245 322.273 46.3685 322.293 46.2559L322.387 45.7157C323.831 27.5477 339.858 13.4086 359.17 13.4086C378.481 13.4086 394.906 27.7486 396 46.062C396.027 46.3015 396.08 46.91 396.059 47.9262V48.0516C396.06 51.3736 395.563 54.6644 394.581 57.8311C392.042 68.4557 385.479 87.2737 367.094 116.823C365.516 119.36 362.754 120.892 359.816 120.892ZM324.297 47.2977C324.288 47.2977 324.305 48.6502 324.4 49.7404L324.403 49.7974C324.523 52.1261 324.903 54.3993 325.569 56.7209L325.581 56.775C328 67.2643 334.781 86.0395 353.358 115.894C354.555 117.816 357.103 119.012 359.489 119.014L359.816 119.997V119.015C360.992 119.015 364.454 117.811 365.661 115.873C383.927 86.5126 390.964 67.8529 393.314 57.3708V57.3095C394.489 54.3123 394.604 51.1969 394.604 48.0516L394.489 47.9133V47.9019C394.489 46.9228 394.201 46.3941 394.184 46.2544L394.051 46.1974C393.033 28.9116 377.703 15.371 359.235 15.371C340.766 15.371 325.504 28.9814 324.453 46.4183L324.365 47.2962H324.299L324.297 47.2977Z" fill="#023246"/>
<path d="M371.572 83.8275H347.673C343.247 83.8275 339.647 80.4314 339.647 76.2556V48.5475H379.521V76.3283C379.521 80.4627 375.956 83.8275 371.572 83.8275ZM341.54 50.3332V76.2556C341.54 79.4466 344.292 82.0418 347.673 82.0418H371.572C374.911 82.0418 377.628 79.4794 377.628 76.3283V50.3332H341.54Z" fill="white"/>
<path d="M382.965 49.4382H336.209C335.342 49.4382 334.552 49.0321 334.094 48.3494C333.671 47.7209 333.597 46.9485 333.904 46.3357L333.978 46.1874L358.886 23.4973C360.407 22.6337 362.138 22.732 363.098 23.7339L384.674 46.3C385.195 46.8444 385.328 47.5898 385.02 48.2454C384.678 48.9694 383.872 49.4382 382.965 49.4382ZM335.609 47.1836C335.615 47.2406 335.639 47.3147 335.691 47.3931C335.771 47.5114 335.925 47.6525 336.209 47.6525H382.965C383.19 47.6525 383.285 47.5442 383.291 47.5143L361.693 24.931C361.373 24.5976 360.635 24.6218 359.948 24.9809L335.609 47.1836Z" fill="white"/>
<path d="M370.087 82.9897H359.737V59.9148H370.087V82.9897ZM361.157 81.6501H368.668V61.253H361.157V81.6501Z" fill="white"/>
<path d="M355.627 65.3276H345.914V56.1652H355.627V65.3276ZM347.334 63.9879H354.207V57.5034H347.334V63.9879Z" fill="white"/>
<path d="M29.827 246.522H33.9766V357.166H29.827V246.522Z" fill="#252525"/>
<path d="M135.431 394.179C123.404 394.179 113.654 384.429 113.654 372.402C113.654 360.375 123.404 350.625 135.431 350.625C147.459 350.625 157.208 360.375 157.208 372.402C157.208 384.429 147.459 394.179 135.431 394.179Z" fill="#121212"/>
<path d="M129.138 350.625H135.432V394.179H129.138V350.625Z" fill="#121212"/>
<path d="M128.976 394.179C116.949 394.179 107.199 384.429 107.199 372.402C107.199 360.375 116.949 350.625 128.976 350.625C141.003 350.625 150.753 360.375 150.753 372.402C150.753 384.429 141.003 394.179 128.976 394.179Z" fill="#252525"/>
<path opacity="0.29" d="M116.345 354.667C119.905 352.126 124.269 350.625 128.976 350.625C141.007 350.625 150.753 360.372 150.753 372.402C150.753 375.876 149.938 379.157 148.491 382.074C140.428 370.386 128.998 360.908 116.345 354.667Z" fill="#575757"/>
<path d="M129.137 385.355C121.984 385.355 116.185 379.556 116.185 372.402C116.185 365.249 121.984 359.45 129.137 359.45C136.291 359.45 142.09 365.249 142.09 372.402C142.09 379.556 136.291 385.355 129.137 385.355Z" fill="#121212"/>
<path d="M121.647 379.983C117.51 375.846 117.51 369.139 121.647 365.002C125.784 360.864 132.492 360.864 136.629 365.002C140.766 369.139 140.766 375.846 136.629 379.983C132.492 384.12 125.784 384.12 121.647 379.983Z" fill="white"/>
<path d="M135.817 372.745C135.817 376.423 132.837 379.393 129.17 379.393C125.502 379.393 122.522 376.412 122.522 372.745C122.522 369.078 125.502 366.097 129.17 366.097C132.837 366.097 135.817 369.078 135.817 372.745Z" fill="#ABABAB"/>
<path d="M135.378 372.37C135.378 375.694 132.687 378.375 129.373 378.375C126.06 378.375 123.369 375.683 123.369 372.37C123.369 369.057 126.06 366.365 129.373 366.365C132.687 366.365 135.378 369.057 135.378 372.37Z" fill="#D5D5D5"/>
<path d="M130.649 363.567C130.649 364.403 129.974 365.079 129.138 365.079C128.301 365.079 127.626 364.403 127.626 363.567C127.626 362.731 128.301 362.055 129.138 362.055C129.974 362.055 130.649 362.731 130.649 363.567Z" fill="#808080"/>
<path d="M130.103 363.567C130.103 364.103 129.674 364.532 129.138 364.532C128.601 364.532 128.173 364.103 128.173 363.567C128.173 363.031 128.601 362.602 129.138 362.602C129.674 362.602 130.103 363.031 130.103 363.567Z" fill="#D5D5D5"/>
<path d="M130.649 381.42C130.649 382.256 129.974 382.931 129.138 382.931C128.301 382.931 127.626 382.256 127.626 381.42C127.626 380.583 128.301 379.908 129.138 379.908C129.974 379.908 130.649 380.583 130.649 381.42Z" fill="#808080"/>
<path d="M130.103 381.419C130.103 381.956 129.674 382.384 129.138 382.384C128.601 382.384 128.173 381.956 128.173 381.419C128.173 380.883 128.601 380.454 129.138 380.454C129.674 380.454 130.103 380.883 130.103 381.419Z" fill="#D5D5D5"/>
<path d="M121.739 372.499C121.739 373.335 121.063 374.011 120.227 374.011C119.391 374.011 118.715 373.335 118.715 372.499C118.715 371.662 119.391 370.987 120.227 370.987C121.063 370.987 121.739 371.662 121.739 372.499Z" fill="#808080"/>
<path d="M121.203 372.499C121.203 373.035 120.774 373.464 120.238 373.464C119.701 373.464 119.273 373.035 119.273 372.499C119.273 371.963 119.701 371.534 120.238 371.534C120.774 371.534 121.203 371.963 121.203 372.499Z" fill="#D5D5D5"/>
<path d="M138.112 374.011C137.277 374.011 136.6 373.334 136.6 372.499C136.6 371.664 137.277 370.987 138.112 370.987C138.947 370.987 139.624 371.664 139.624 372.499C139.624 373.334 138.947 374.011 138.112 374.011Z" fill="#808080"/>
<path d="M138.112 373.464C137.579 373.464 137.147 373.032 137.147 372.499C137.147 371.966 137.579 371.534 138.112 371.534C138.645 371.534 139.077 371.966 139.077 372.499C139.077 373.032 138.645 373.464 138.112 373.464Z" fill="#D5D5D5"/>
<path d="M123.905 365.132C124.495 365.722 124.495 366.676 123.905 367.266C123.315 367.856 122.361 367.856 121.771 367.266C121.181 366.676 121.181 365.722 121.771 365.132C122.361 364.543 123.315 364.543 123.905 365.132Z" fill="#808080"/>
<path d="M123.518 365.519C123.894 365.894 123.894 366.505 123.518 366.891C123.143 367.277 122.532 367.266 122.146 366.891C121.771 366.516 121.771 365.905 122.146 365.519C122.521 365.143 123.132 365.143 123.518 365.519Z" fill="#D5D5D5"/>
<path d="M136.525 377.763C137.115 378.353 137.115 379.307 136.525 379.897C135.935 380.487 134.981 380.487 134.391 379.897C133.802 379.307 133.802 378.353 134.391 377.763C134.981 377.173 135.935 377.173 136.525 377.763Z" fill="#808080"/>
<path d="M136.15 378.139C136.525 378.514 136.525 379.125 136.15 379.511C135.774 379.886 135.163 379.886 134.777 379.511C134.391 379.136 134.402 378.525 134.777 378.139C135.152 377.753 135.764 377.763 136.15 378.139Z" fill="#D5D5D5"/>
<path d="M123.916 377.752C124.505 378.342 124.505 379.297 123.916 379.886C123.326 380.476 122.372 380.476 121.782 379.886C121.192 379.297 121.192 378.342 121.782 377.752C122.372 377.163 123.326 377.163 123.916 377.752Z" fill="#808080"/>
<path d="M123.529 378.128C123.904 378.503 123.904 379.114 123.529 379.5C123.154 379.876 122.543 379.876 122.157 379.5C121.781 379.125 121.781 378.514 122.157 378.128C122.532 377.752 123.143 377.752 123.529 378.128Z" fill="#D5D5D5"/>
<path d="M136.557 365.111C137.147 365.701 137.147 366.655 136.557 367.245C135.967 367.834 135.013 367.834 134.423 367.245C133.834 366.655 133.834 365.701 134.423 365.111C135.013 364.521 135.967 364.521 136.557 365.111Z" fill="#808080"/>
<path d="M136.172 365.486C136.547 365.862 136.547 366.473 136.172 366.859C135.796 367.245 135.185 367.234 134.799 366.859C134.424 366.483 134.424 365.872 134.799 365.486C135.175 365.111 135.786 365.111 136.172 365.486Z" fill="#D5D5D5"/>
<path d="M133.812 372.37C133.812 374.825 131.818 376.82 129.362 376.82C126.907 376.82 124.912 374.825 124.912 372.37C124.912 369.915 126.907 367.92 129.362 367.92C131.818 367.92 133.812 369.915 133.812 372.37Z" fill="white"/>
<path d="M113.655 356.93C116.796 354.046 120.721 352.062 124.859 351.333C125.899 351.15 126.939 351.054 127.99 351C129.041 350.947 130.092 351.054 131.132 351.108C133.212 351.376 135.26 351.88 137.201 352.684C139.131 353.509 140.943 354.582 142.583 355.89C144.192 357.241 145.607 358.806 146.829 360.511C148.02 362.248 148.942 364.167 149.617 366.162C150.282 368.178 150.604 370.279 150.743 372.413C150.786 370.279 150.55 368.135 149.993 366.044C149.371 363.985 148.502 361.991 147.333 360.168C146.143 358.356 144.674 356.737 143.034 355.321C141.35 353.96 139.485 352.823 137.49 351.944C135.475 351.129 133.341 350.636 131.186 350.389C130.103 350.357 129.02 350.25 127.937 350.314C126.854 350.378 125.781 350.507 124.72 350.732C120.485 351.612 116.539 353.799 113.622 356.93H113.655Z" fill="#575757"/>
<path d="M260.368 394.179C248.341 394.179 238.591 384.429 238.591 372.402C238.591 360.375 248.341 350.625 260.368 350.625C272.395 350.625 282.145 360.375 282.145 372.402C282.145 384.429 272.395 394.179 260.368 394.179Z" fill="#121212"/>
<path d="M254.074 350.625H260.368V394.179H254.074V350.625Z" fill="#121212"/>
<path d="M253.903 394.179C241.875 394.179 232.125 384.429 232.125 372.402C232.125 360.375 241.875 350.625 253.903 350.625C265.93 350.625 275.68 360.375 275.68 372.402C275.68 384.429 265.93 394.179 253.903 394.179Z" fill="#252525"/>
<path opacity="0.29" d="M241.272 354.667C244.831 352.126 249.196 350.625 253.903 350.625C265.933 350.625 275.68 360.372 275.68 372.402C275.68 375.876 274.865 379.157 273.417 382.074C265.354 370.386 253.924 360.908 241.272 354.667Z" fill="#575757"/>
<path d="M254.074 385.355C246.92 385.355 241.121 379.556 241.121 372.402C241.121 365.249 246.92 359.45 254.074 359.45C261.227 359.45 267.026 365.249 267.026 372.402C267.026 379.556 261.227 385.355 254.074 385.355Z" fill="#121212"/>
<path d="M244.325 376.538C242.073 371.138 244.624 364.935 250.024 362.683C255.424 360.431 261.627 362.983 263.88 368.382C266.132 373.782 263.58 379.986 258.18 382.238C252.78 384.49 246.577 381.938 244.325 376.538Z" fill="white"/>
<path d="M254.107 379.393C250.435 379.393 247.459 376.417 247.459 372.745C247.459 369.074 250.435 366.097 254.107 366.097C257.778 366.097 260.754 369.074 260.754 372.745C260.754 376.417 257.778 379.393 254.107 379.393Z" fill="#ABABAB"/>
<path d="M260.304 372.37C260.304 375.694 257.612 378.375 254.299 378.375C250.986 378.375 248.295 375.683 248.295 372.37C248.295 369.057 250.986 366.365 254.299 366.365C257.612 366.365 260.304 369.057 260.304 372.37Z" fill="#D5D5D5"/>
<path d="M254.074 365.079C253.239 365.079 252.562 364.402 252.562 363.567C252.562 362.732 253.239 362.055 254.074 362.055C254.909 362.055 255.586 362.732 255.586 363.567C255.586 364.402 254.909 365.079 254.074 365.079Z" fill="#808080"/>
<path d="M254.074 364.532C253.541 364.532 253.109 364.1 253.109 363.567C253.109 363.034 253.541 362.602 254.074 362.602C254.607 362.602 255.039 363.034 255.039 363.567C255.039 364.1 254.607 364.532 254.074 364.532Z" fill="#D5D5D5"/>
<path d="M254.074 382.931C253.239 382.931 252.562 382.255 252.562 381.42C252.562 380.585 253.239 379.908 254.074 379.908C254.909 379.908 255.586 380.585 255.586 381.42C255.586 382.255 254.909 382.931 254.074 382.931Z" fill="#808080"/>
<path d="M254.074 382.384C253.541 382.384 253.109 381.952 253.109 381.419C253.109 380.887 253.541 380.454 254.074 380.454C254.607 380.454 255.039 380.887 255.039 381.419C255.039 381.952 254.607 382.384 254.074 382.384Z" fill="#D5D5D5"/>
<path d="M245.164 374.011C244.329 374.011 243.652 373.334 243.652 372.499C243.652 371.664 244.329 370.987 245.164 370.987C245.999 370.987 246.676 371.664 246.676 372.499C246.676 373.334 245.999 374.011 245.164 374.011Z" fill="#808080"/>
<path d="M245.163 373.464C244.63 373.464 244.198 373.032 244.198 372.499C244.198 371.966 244.63 371.534 245.163 371.534C245.696 371.534 246.128 371.966 246.128 372.499C246.128 373.032 245.696 373.464 245.163 373.464Z" fill="#D5D5D5"/>
<path d="M264.55 372.499C264.55 373.335 263.874 374.011 263.038 374.011C262.202 374.011 261.526 373.335 261.526 372.499C261.526 371.662 262.202 370.987 263.038 370.987C263.874 370.987 264.55 371.662 264.55 372.499Z" fill="#808080"/>
<path d="M264.014 372.499C264.014 373.035 263.585 373.464 263.049 373.464C262.513 373.464 262.084 373.035 262.084 372.499C262.084 371.963 262.513 371.534 263.049 371.534C263.585 371.534 264.014 371.963 264.014 372.499Z" fill="#D5D5D5"/>
<path d="M248.831 365.132C249.42 365.722 249.42 366.676 248.831 367.266C248.241 367.856 247.287 367.856 246.697 367.266C246.107 366.676 246.107 365.722 246.697 365.132C247.287 364.543 248.241 364.543 248.831 365.132Z" fill="#808080"/>
<path d="M248.455 365.518C248.831 365.894 248.831 366.505 248.455 366.891C248.08 367.266 247.469 367.266 247.083 366.891C246.697 366.516 246.708 365.904 247.083 365.518C247.458 365.132 248.069 365.143 248.455 365.518Z" fill="#D5D5D5"/>
<path d="M261.462 377.763C262.052 378.353 262.052 379.307 261.462 379.897C260.872 380.487 259.918 380.487 259.328 379.897C258.739 379.307 258.739 378.353 259.328 377.763C259.918 377.173 260.872 377.173 261.462 377.763Z" fill="#808080"/>
<path d="M260.39 379.79C259.857 379.79 259.424 379.358 259.424 378.825C259.424 378.292 259.857 377.86 260.39 377.86C260.922 377.86 261.354 378.292 261.354 378.825C261.354 379.358 260.922 379.79 260.39 379.79Z" fill="#D5D5D5"/>
<path d="M248.852 377.752C249.442 378.342 249.442 379.297 248.852 379.886C248.262 380.476 247.308 380.476 246.718 379.886C246.129 379.297 246.129 378.342 246.718 377.752C247.308 377.163 248.262 377.163 248.852 377.752Z" fill="#808080"/>
<path d="M248.466 378.128C248.841 378.503 248.841 379.114 248.466 379.5C248.091 379.875 247.48 379.875 247.094 379.5C246.718 379.125 246.718 378.514 247.094 378.128C247.469 377.742 248.08 377.752 248.466 378.128Z" fill="#D5D5D5"/>
<path d="M261.494 365.111C262.083 365.701 262.083 366.655 261.494 367.245C260.904 367.834 259.95 367.834 259.36 367.245C258.77 366.655 258.77 365.701 259.36 365.111C259.95 364.521 260.904 364.521 261.494 365.111Z" fill="#808080"/>
<path d="M260.421 367.138C259.888 367.138 259.456 366.705 259.456 366.173C259.456 365.64 259.888 365.208 260.421 365.208C260.954 365.208 261.386 365.64 261.386 366.173C261.386 366.705 260.954 367.138 260.421 367.138Z" fill="#D5D5D5"/>
<path d="M258.749 372.37C258.749 374.825 256.755 376.82 254.299 376.82C251.844 376.82 249.849 374.825 249.849 372.37C249.849 369.915 251.844 367.92 254.299 367.92C256.755 367.92 258.749 369.915 258.749 372.37Z" fill="white"/>
<path d="M238.591 356.93C241.733 354.046 245.657 352.062 249.796 351.333C250.836 351.15 251.876 351.054 252.927 351C253.978 350.947 255.028 351.054 256.068 351.108C258.149 351.376 260.197 351.88 262.137 352.684C264.067 353.509 265.879 354.582 267.52 355.89C269.128 357.241 270.544 358.806 271.766 360.511C272.956 362.248 273.878 364.167 274.554 366.162C275.219 368.178 275.54 370.279 275.68 372.413C275.723 370.279 275.487 368.135 274.929 366.044C274.307 363.985 273.439 361.991 272.27 360.168C271.08 358.356 269.611 356.737 267.97 355.321C266.287 353.96 264.421 352.823 262.427 351.944C260.411 351.129 258.277 350.636 256.122 350.389C255.039 350.357 253.956 350.25 252.873 350.314C251.79 350.378 250.718 350.507 249.656 350.732C245.421 351.612 241.475 353.799 238.559 356.93H238.591Z" fill="#575757"/>
<path d="M223.612 246.522H349.385V370.258H223.612V246.522Z" fill="#B4B4B4"/>
<path d="M223.612 355.954H349.385V370.301H223.612V355.954Z" fill="#777E7E"/>
<path d="M33.9765 246.522H254.771V370.258H33.9765V246.522Z" fill="#7E7E7E"/>
<path opacity="0.54" d="M90.1937 246.522H138.359C177.195 279.161 215.206 312.529 254.771 346.057V370.247H205.223C167.202 328.676 131.303 284.994 90.1831 246.511L90.1937 246.522Z" fill="#B4B4B4"/>
<path opacity="0.54" d="M64.8139 246.522C65.0927 246.844 65.3715 247.165 65.6289 247.508C102.138 291.674 140.481 329.738 177.709 370.258H123.626C112.325 355.075 101.055 339.656 89.4325 323.294C70.9472 296.928 51.8614 275.88 33.9765 250.725V246.522H64.8032H64.8139Z" fill="#B4B4B4"/>
<path d="M33.9765 355.954H254.771V370.301H33.9765V355.954Z" fill="#50595A"/>
<path d="M33.9765 355.954H254.771V357.166H33.9765V355.954Z" fill="#DDDDDD"/>
<path d="M33.9873 246.522H269.032V254.264H33.9873V246.522Z" fill="#B4B4B4"/>
<path d="M33.9871 246.522H349.385V247.648H33.9871V246.522Z" fill="#DDDDDD"/>
<path d="M398 394.179C385.973 394.179 376.223 384.429 376.223 372.402C376.223 360.375 385.973 350.625 398 350.625C410.027 350.625 419.777 360.375 419.777 372.402C419.777 384.429 410.027 394.179 398 394.179Z" fill="#121212"/>
<path d="M391.706 350.625H398V394.179H391.706V350.625Z" fill="#121212"/>
<path d="M391.545 394.179C379.518 394.179 369.768 384.429 369.768 372.402C369.768 360.375 379.518 350.625 391.545 350.625C403.572 350.625 413.322 360.375 413.322 372.402C413.322 384.429 403.572 394.179 391.545 394.179Z" fill="#252525"/>
<path opacity="0.29" d="M378.914 354.667C382.474 352.126 386.838 350.625 391.545 350.625C403.576 350.625 413.322 360.372 413.322 372.402C413.322 375.876 412.507 379.157 411.06 382.074C402.997 370.386 391.567 360.908 378.914 354.667Z" fill="#575757"/>
<path d="M391.706 385.355C384.552 385.355 378.753 379.556 378.753 372.402C378.753 365.249 384.552 359.45 391.706 359.45C398.859 359.45 404.658 365.249 404.658 372.402C404.658 379.556 398.859 385.355 391.706 385.355Z" fill="#121212"/>
<path d="M389.266 382.764C383.57 381.425 380.039 375.722 381.378 370.027C382.717 364.331 388.419 360.8 394.115 362.139C399.81 363.478 403.342 369.18 402.003 374.876C400.664 380.571 394.961 384.103 389.266 382.764Z" fill="white"/>
<path d="M391.738 379.393C388.067 379.393 385.091 376.417 385.091 372.745C385.091 369.074 388.067 366.097 391.738 366.097C395.41 366.097 398.386 369.074 398.386 372.745C398.386 376.417 395.41 379.393 391.738 379.393Z" fill="#ABABAB"/>
<path d="M397.947 372.37C397.947 375.694 395.255 378.375 391.942 378.375C388.629 378.375 385.938 375.683 385.938 372.37C385.938 369.057 388.629 366.365 391.942 366.365C395.255 366.365 397.947 369.057 397.947 372.37Z" fill="#D5D5D5"/>
<path d="M393.218 363.567C393.218 364.403 392.542 365.079 391.706 365.079C390.87 365.079 390.194 364.403 390.194 363.567C390.194 362.731 390.87 362.055 391.706 362.055C392.542 362.055 393.218 362.731 393.218 363.567Z" fill="#808080"/>
<path d="M392.682 363.567C392.682 364.103 392.253 364.532 391.717 364.532C391.181 364.532 390.752 364.103 390.752 363.567C390.752 363.031 391.181 362.602 391.717 362.602C392.253 362.602 392.682 363.031 392.682 363.567Z" fill="#D5D5D5"/>
<path d="M393.218 381.42C393.218 382.256 392.542 382.931 391.706 382.931C390.87 382.931 390.194 382.256 390.194 381.42C390.194 380.583 390.87 379.908 391.706 379.908C392.542 379.908 393.218 380.583 393.218 381.42Z" fill="#808080"/>
<path d="M392.682 381.419C392.682 381.956 392.253 382.384 391.717 382.384C391.181 382.384 390.752 381.956 390.752 381.419C390.752 380.883 391.181 380.454 391.717 380.454C392.253 380.454 392.682 380.883 392.682 381.419Z" fill="#D5D5D5"/>
<path d="M384.308 372.499C384.308 373.335 383.632 374.011 382.796 374.011C381.959 374.011 381.284 373.335 381.284 372.499C381.284 371.662 381.959 370.987 382.796 370.987C383.632 370.987 384.308 371.662 384.308 372.499Z" fill="#808080"/>
<path d="M383.771 372.499C383.771 373.035 383.342 373.464 382.806 373.464C382.27 373.464 381.841 373.035 381.841 372.499C381.841 371.963 382.27 371.534 382.806 371.534C383.342 371.534 383.771 371.963 383.771 372.499Z" fill="#D5D5D5"/>
<path d="M400.681 374.011C399.846 374.011 399.169 373.334 399.169 372.499C399.169 371.664 399.846 370.987 400.681 370.987C401.516 370.987 402.192 371.664 402.192 372.499C402.192 373.334 401.516 374.011 400.681 374.011Z" fill="#808080"/>
<path d="M400.681 373.464C400.148 373.464 399.715 373.032 399.715 372.499C399.715 371.966 400.148 371.534 400.681 371.534C401.213 371.534 401.646 371.966 401.646 372.499C401.646 373.032 401.213 373.464 400.681 373.464Z" fill="#D5D5D5"/>
<path d="M386.473 365.132C387.063 365.722 387.063 366.676 386.473 367.266C385.884 367.856 384.929 367.856 384.339 367.266C383.75 366.676 383.75 365.722 384.339 365.132C384.929 364.543 385.884 364.543 386.473 365.132Z" fill="#808080"/>
<path d="M386.087 365.519C386.462 365.894 386.462 366.505 386.087 366.891C385.712 367.266 385.101 367.266 384.715 366.891C384.339 366.516 384.339 365.905 384.715 365.519C385.09 365.143 385.701 365.143 386.087 365.519Z" fill="#D5D5D5"/>
<path d="M399.093 377.763C399.683 378.353 399.683 379.307 399.093 379.897C398.504 380.487 397.549 380.487 396.96 379.897C396.37 379.307 396.37 378.353 396.96 377.763C397.549 377.173 398.504 377.173 399.093 377.763Z" fill="#808080"/>
<path d="M398.718 378.139C399.093 378.514 399.093 379.125 398.718 379.511C398.343 379.886 397.732 379.886 397.346 379.511C396.96 379.136 396.97 378.525 397.346 378.139C397.721 377.753 398.332 377.763 398.718 378.139Z" fill="#D5D5D5"/>
<path d="M386.484 377.752C387.074 378.342 387.074 379.297 386.484 379.886C385.894 380.476 384.94 380.476 384.35 379.886C383.761 379.297 383.761 378.342 384.35 377.752C384.94 377.163 385.894 377.163 386.484 377.752Z" fill="#808080"/>
<path d="M386.098 378.128C386.473 378.503 386.473 379.114 386.098 379.5C385.723 379.876 385.111 379.876 384.725 379.5C384.35 379.125 384.35 378.514 384.725 378.128C385.101 377.752 385.712 377.752 386.098 378.128Z" fill="#D5D5D5"/>
<path d="M399.126 365.111C399.715 365.701 399.715 366.655 399.126 367.245C398.536 367.834 397.582 367.834 396.992 367.245C396.402 366.655 396.402 365.701 396.992 365.111C397.582 364.521 398.536 364.521 399.126 365.111Z" fill="#808080"/>
<path d="M398.74 365.486C399.115 365.861 399.115 366.473 398.74 366.859C398.364 367.234 397.753 367.234 397.367 366.859C396.981 366.483 396.992 365.872 397.367 365.486C397.742 365.1 398.354 365.111 398.74 365.486Z" fill="#D5D5D5"/>
<path d="M396.392 372.37C396.392 374.825 394.397 376.82 391.942 376.82C389.486 376.82 387.492 374.825 387.492 372.37C387.492 369.915 389.486 367.92 391.942 367.92C394.397 367.92 396.392 369.915 396.392 372.37Z" fill="white"/>
<path d="M376.223 356.93C379.365 354.046 383.289 352.062 387.428 351.333C388.468 351.15 389.508 351.054 390.559 351C391.609 350.947 392.66 351.054 393.7 351.108C395.78 351.376 397.828 351.88 399.769 352.684C401.699 353.509 403.511 354.582 405.152 355.89C406.771 357.241 408.175 358.806 409.398 360.511C410.588 362.248 411.51 364.167 412.186 366.162C412.85 368.178 413.172 370.279 413.311 372.413C413.354 370.279 413.118 368.135 412.561 366.044C411.939 363.985 411.07 361.991 409.902 360.168C408.712 358.356 407.243 356.737 405.602 355.321C403.919 353.96 402.053 352.823 400.059 351.944C398.043 351.129 395.909 350.636 393.754 350.389C392.671 350.357 391.588 350.25 390.505 350.314C389.422 350.378 388.35 350.507 387.288 350.732C383.053 351.612 379.107 353.799 376.191 356.93H376.223Z" fill="#575757"/>
<path d="M375.837 259.946C411.156 261.791 434.478 316.507 434.478 316.507V375.372H289.855V259.936H375.837V259.946Z" fill="#AB333C"/>
<path d="M289.855 274.572V259.946H375.837C386.238 260.493 395.588 265.618 403.619 272.577C399.544 271.709 395.448 270.926 391.309 270.293C357.041 265.393 322.761 266.937 289.855 274.572Z" fill="#C14C5D"/>
<path d="M273.835 338.058H348.495V375.383H273.835V338.058Z" fill="black"/>
<path d="M348.495 350.014H434.478V351.14H348.495V350.014Z" fill="#121212"/>
<path d="M289.855 259.946C325.174 261.791 348.495 316.507 348.495 316.507V375.372H332.508C332.551 374.74 332.583 374.096 332.583 373.453C332.583 358.249 320.252 345.918 305.048 345.918C289.844 345.918 277.513 358.249 277.513 373.453C277.513 374.096 277.545 374.74 277.588 375.372H273.835V259.936H289.855V259.946Z" fill="#871A1F"/>
<path d="M277.642 370.901C277.567 371.748 277.524 372.595 277.524 373.464C277.524 374.107 277.556 374.75 277.599 375.383H273.846V370.901H277.653H277.642Z" fill="#50595A"/>
<path d="M332.455 370.901H348.495V375.383H332.508C332.551 374.75 332.583 374.107 332.583 373.464C332.583 372.595 332.54 371.748 332.465 370.901H332.455Z" fill="#50595A"/>
<path d="M223.033 370.301H164.971C164.971 370.301 167.588 342.069 193.31 342.069C219.033 342.069 223.033 370.301 223.033 370.301Z" fill="#1B2222"/>
<path d="M196.195 394.179C184.167 394.179 174.418 384.429 174.418 372.402C174.418 360.375 184.167 350.625 196.195 350.625C208.222 350.625 217.972 360.375 217.972 372.402C217.972 384.429 208.222 394.179 196.195 394.179Z" fill="#121212"/>
<path d="M189.901 350.625H196.195V394.179H189.901V350.625Z" fill="#121212"/>
<path d="M189.74 394.179C177.713 394.179 167.963 384.429 167.963 372.402C167.963 360.375 177.713 350.625 189.74 350.625C201.767 350.625 211.517 360.375 211.517 372.402C211.517 384.429 201.767 394.179 189.74 394.179Z" fill="#252525"/>
<path opacity="0.29" d="M177.109 354.667C180.669 352.126 185.033 350.625 189.74 350.625C201.77 350.625 211.517 360.372 211.517 372.402C211.517 375.876 210.702 379.157 209.255 382.074C201.191 370.386 189.761 360.908 177.109 354.667Z" fill="#575757"/>
<path d="M189.901 385.355C182.747 385.355 176.948 379.556 176.948 372.402C176.948 365.249 182.747 359.45 189.901 359.45C197.054 359.45 202.854 365.249 202.854 372.402C202.854 379.556 197.054 385.355 189.901 385.355Z" fill="#121212"/>
<path d="M180.153 376.541C177.901 371.141 180.453 364.937 185.852 362.685C191.252 360.433 197.456 362.985 199.708 368.385C201.96 373.785 199.408 379.988 194.008 382.24C188.608 384.492 182.405 381.94 180.153 376.541Z" fill="white"/>
<path d="M196.581 372.745C196.581 376.423 193.6 379.393 189.933 379.393C186.266 379.393 183.285 376.412 183.285 372.745C183.285 369.078 186.266 366.097 189.933 366.097C193.6 366.097 196.581 369.078 196.581 372.745Z" fill="#ABABAB"/>
<path d="M196.13 372.37C196.13 375.694 193.439 378.375 190.126 378.375C186.813 378.375 184.121 375.683 184.121 372.37C184.121 369.057 186.813 366.365 190.126 366.365C193.439 366.365 196.13 369.057 196.13 372.37Z" fill="#D5D5D5"/>
<path d="M191.412 363.567C191.412 364.403 190.737 365.079 189.9 365.079C189.064 365.079 188.388 364.403 188.388 363.567C188.388 362.731 189.064 362.055 189.9 362.055C190.737 362.055 191.412 362.731 191.412 363.567Z" fill="#808080"/>
<path d="M190.865 363.567C190.865 364.103 190.436 364.532 189.9 364.532C189.364 364.532 188.935 364.103 188.935 363.567C188.935 363.031 189.364 362.602 189.9 362.602C190.436 362.602 190.865 363.031 190.865 363.567Z" fill="#D5D5D5"/>
<path d="M191.412 381.42C191.412 382.256 190.737 382.931 189.9 382.931C189.064 382.931 188.388 382.256 188.388 381.42C188.388 380.583 189.064 379.908 189.9 379.908C190.737 379.908 191.412 380.583 191.412 381.42Z" fill="#808080"/>
<path d="M190.865 381.419C190.865 381.956 190.436 382.384 189.9 382.384C189.364 382.384 188.935 381.956 188.935 381.419C188.935 380.883 189.364 380.454 189.9 380.454C190.436 380.454 190.865 380.883 190.865 381.419Z" fill="#D5D5D5"/>
<path d="M180.991 374.011C180.156 374.011 179.479 373.334 179.479 372.499C179.479 371.664 180.156 370.987 180.991 370.987C181.826 370.987 182.502 371.664 182.502 372.499C182.502 373.334 181.826 374.011 180.991 374.011Z" fill="#808080"/>
<path d="M180.991 373.464C180.458 373.464 180.026 373.032 180.026 372.499C180.026 371.966 180.458 371.534 180.991 371.534C181.524 371.534 181.956 371.966 181.956 372.499C181.956 373.032 181.524 373.464 180.991 373.464Z" fill="#D5D5D5"/>
<path d="M200.376 372.499C200.376 373.335 199.701 374.011 198.865 374.011C198.028 374.011 197.353 373.335 197.353 372.499C197.353 371.662 198.028 370.987 198.865 370.987C199.701 370.987 200.376 371.662 200.376 372.499Z" fill="#808080"/>
<path d="M199.84 372.499C199.84 373.035 199.411 373.464 198.875 373.464C198.339 373.464 197.91 373.035 197.91 372.499C197.91 371.963 198.339 371.534 198.875 371.534C199.411 371.534 199.84 371.963 199.84 372.499Z" fill="#D5D5D5"/>
<path d="M184.668 365.132C185.258 365.722 185.258 366.676 184.668 367.266C184.078 367.856 183.124 367.856 182.534 367.266C181.945 366.676 181.945 365.722 182.534 365.132C183.124 364.543 184.078 364.543 184.668 365.132Z" fill="#808080"/>
<path d="M184.282 365.519C184.657 365.894 184.657 366.505 184.282 366.891C183.907 367.266 183.296 367.266 182.91 366.891C182.534 366.516 182.534 365.905 182.91 365.519C183.285 365.143 183.896 365.143 184.282 365.519Z" fill="#D5D5D5"/>
<path d="M197.288 377.763C197.878 378.353 197.878 379.307 197.288 379.897C196.698 380.487 195.744 380.487 195.154 379.897C194.565 379.307 194.565 378.353 195.154 377.763C195.744 377.173 196.698 377.173 197.288 377.763Z" fill="#808080"/>
<path d="M196.913 378.139C197.288 378.514 197.288 379.125 196.913 379.511C196.538 379.886 195.926 379.886 195.54 379.511C195.154 379.136 195.165 378.525 195.54 378.139C195.916 377.753 196.527 377.763 196.913 378.139Z" fill="#D5D5D5"/>
<path d="M184.679 377.752C185.269 378.342 185.269 379.297 184.679 379.886C184.089 380.476 183.135 380.476 182.545 379.886C181.955 379.297 181.955 378.342 182.545 377.752C183.135 377.163 184.089 377.163 184.679 377.752Z" fill="#808080"/>
<path d="M184.293 378.128C184.668 378.503 184.668 379.114 184.293 379.5C183.917 379.875 183.306 379.875 182.92 379.5C182.545 379.125 182.545 378.514 182.92 378.128C183.296 377.742 183.907 377.752 184.293 378.128Z" fill="#D5D5D5"/>
<path d="M197.32 365.111C197.91 365.701 197.91 366.655 197.32 367.245C196.731 367.834 195.776 367.834 195.187 367.245C194.597 366.655 194.597 365.701 195.187 365.111C195.776 364.521 196.731 364.521 197.32 365.111Z" fill="#808080"/>
<path d="M196.248 367.138C195.715 367.138 195.283 366.705 195.283 366.173C195.283 365.64 195.715 365.208 196.248 365.208C196.781 365.208 197.213 365.64 197.213 366.173C197.213 366.705 196.781 367.138 196.248 367.138Z" fill="#D5D5D5"/>
<path d="M194.576 372.37C194.576 374.825 192.581 376.82 190.126 376.82C187.67 376.82 185.676 374.825 185.676 372.37C185.676 369.915 187.67 367.92 190.126 367.92C192.581 367.92 194.576 369.915 194.576 372.37Z" fill="white"/>
<path d="M174.417 356.93C177.559 354.046 181.483 352.062 185.622 351.333C186.662 351.15 187.702 351.054 188.753 351C189.804 350.947 190.855 351.054 191.895 351.108C193.975 351.376 196.023 351.88 197.963 352.684C199.894 353.509 201.706 354.582 203.346 355.89C204.965 357.241 206.37 358.806 207.592 360.511C208.782 362.248 209.704 364.167 210.38 366.162C211.045 368.178 211.366 370.279 211.506 372.413C211.549 370.279 211.313 368.135 210.755 366.044C210.133 363.985 209.265 361.991 208.096 360.168C206.906 358.356 205.437 356.737 203.796 355.321C202.113 353.96 200.247 352.823 198.253 351.944C196.237 351.129 194.103 350.636 191.948 350.389C190.865 350.357 189.782 350.25 188.699 350.314C187.616 350.378 186.544 350.507 185.483 350.732C181.247 351.612 177.302 353.799 174.385 356.93H174.417Z" fill="#575757"/>
<path d="M219.291 370.301C219.291 370.183 219.291 370.065 219.291 369.947C219.291 355.397 207.496 343.613 192.957 343.613C178.417 343.613 166.623 355.407 166.623 369.947C166.623 370.065 166.623 370.183 166.623 370.301H158.634C158.634 370.183 158.634 370.065 158.634 369.947C158.634 350.99 173.999 335.625 192.957 335.625C211.914 335.625 227.279 350.99 227.279 369.947C227.279 370.065 227.279 370.183 227.279 370.301H219.291Z" fill="#50595A"/>
<path d="M165.315 349.606C167.148 347.237 169.293 345.114 171.652 343.302C174 341.479 176.573 339.924 179.318 338.777C184.787 336.461 190.834 335.539 196.721 336.246C199.669 336.557 202.575 337.244 205.341 338.305C208.108 339.377 210.713 340.836 213.126 342.562C215.538 344.299 217.726 346.347 219.613 348.652C221.532 350.936 223.151 353.477 224.417 356.19C223.258 353.424 221.747 350.797 219.913 348.406C218.058 346.025 215.892 343.902 213.48 342.069C208.665 338.402 202.822 336.118 196.796 335.453C190.781 334.799 184.583 335.742 179.061 338.219C176.305 339.463 173.732 341.082 171.405 343.002C169.1 344.932 167.041 347.162 165.304 349.606H165.315Z" fill="#DDDDDD"/>
<path d="M107.843 370.301H45.7711C45.7711 370.301 48.5697 342.069 76.0617 342.069C103.554 342.069 107.843 370.301 107.843 370.301Z" fill="#1B2222"/>
<path d="M81.0047 394.179C68.9775 394.179 59.2275 384.429 59.2275 372.402C59.2275 360.375 68.9775 350.625 81.0047 350.625C93.0318 350.625 102.782 360.375 102.782 372.402C102.782 384.429 93.0318 394.179 81.0047 394.179Z" fill="#121212"/>
<path d="M74.7108 350.625H81.0049V394.179H74.7108V350.625Z" fill="#121212"/>
<path d="M74.5496 394.179C62.5224 394.179 52.7725 384.429 52.7725 372.402C52.7725 360.375 62.5224 350.625 74.5496 350.625C86.5767 350.625 96.3267 360.375 96.3267 372.402C96.3267 384.429 86.5767 394.179 74.5496 394.179Z" fill="#252525"/>
<path opacity="0.29" d="M61.9079 354.667C65.4677 352.126 69.8317 350.625 74.5388 350.625C86.5693 350.625 96.3159 360.372 96.3159 372.402C96.3159 375.876 95.501 379.157 94.0535 382.074C85.9903 370.386 74.5603 360.908 61.9079 354.667Z" fill="#575757"/>
<path d="M74.7105 385.355C67.557 385.355 61.7579 379.556 61.7579 372.402C61.7579 365.249 67.557 359.45 74.7105 359.45C81.864 359.45 87.6631 365.249 87.6631 372.402C87.6631 379.556 81.864 385.355 74.7105 385.355Z" fill="#121212"/>
<path d="M68.2145 380.801C63.5978 377.207 62.7688 370.551 66.3628 365.934C69.9568 361.318 76.6128 360.488 81.2296 364.082C85.8463 367.676 86.6753 374.333 83.0813 378.949C79.4873 383.566 72.8312 384.395 68.2145 380.801Z" fill="white"/>
<path d="M81.3906 372.745C81.3906 376.423 78.4098 379.393 74.7428 379.393C71.0757 379.393 68.0949 376.412 68.0949 372.745C68.0949 369.078 71.0757 366.097 74.7428 366.097C78.4098 366.097 81.3906 369.078 81.3906 372.745Z" fill="#ABABAB"/>
<path d="M80.9404 372.37C80.9404 375.694 78.2491 378.375 74.9359 378.375C71.6227 378.375 68.9315 375.683 68.9315 372.37C68.9315 369.057 71.6227 366.365 74.9359 366.365C78.2491 366.365 80.9404 369.057 80.9404 372.37Z" fill="#D5D5D5"/>
<path d="M76.2227 363.567C76.2227 364.403 75.5471 365.079 74.7108 365.079C73.8744 365.079 73.1989 364.403 73.1989 363.567C73.1989 362.731 73.8744 362.055 74.7108 362.055C75.5471 362.055 76.2227 362.731 76.2227 363.567Z" fill="#808080"/>
<path d="M75.6758 363.567C75.6758 364.103 75.2469 364.532 74.7107 364.532C74.1746 364.532 73.7458 364.103 73.7458 363.567C73.7458 363.031 74.1746 362.602 74.7107 362.602C75.2469 362.602 75.6758 363.031 75.6758 363.567Z" fill="#D5D5D5"/>
<path d="M76.2227 381.42C76.2227 382.256 75.5471 382.931 74.7108 382.931C73.8744 382.931 73.1989 382.256 73.1989 381.42C73.1989 380.583 73.8744 379.908 74.7108 379.908C75.5471 379.908 76.2227 380.583 76.2227 381.42Z" fill="#808080"/>
<path d="M75.6758 381.419C75.6758 381.956 75.2469 382.384 74.7107 382.384C74.1746 382.384 73.7458 381.956 73.7458 381.419C73.7458 380.883 74.1746 380.454 74.7107 380.454C75.2469 380.454 75.6758 380.883 75.6758 381.419Z" fill="#D5D5D5"/>
<path d="M67.3125 372.499C67.3125 373.335 66.637 374.011 65.8006 374.011C64.9643 374.011 64.2888 373.335 64.2888 372.499C64.2888 371.662 64.9643 370.987 65.8006 370.987C66.637 370.987 67.3125 371.662 67.3125 372.499Z" fill="#808080"/>
<path d="M66.7656 372.499C66.7656 373.035 66.3367 373.464 65.8006 373.464C65.2645 373.464 64.8356 373.035 64.8356 372.499C64.8356 371.963 65.2645 371.534 65.8006 371.534C66.3367 371.534 66.7656 371.963 66.7656 372.499Z" fill="#D5D5D5"/>
<path d="M85.186 372.499C85.186 373.335 84.5106 374.011 83.6742 374.011C82.8379 374.011 82.1623 373.335 82.1623 372.499C82.1623 371.662 82.8379 370.987 83.6742 370.987C84.5106 370.987 85.186 371.662 85.186 372.499Z" fill="#808080"/>
<path d="M84.6499 372.499C84.6499 373.035 84.221 373.464 83.6849 373.464C83.1488 373.464 82.7199 373.035 82.7199 372.499C82.7199 371.963 83.1488 371.534 83.6849 371.534C84.221 371.534 84.6499 371.963 84.6499 372.499Z" fill="#D5D5D5"/>
<path d="M69.4781 365.132C70.0678 365.722 70.0678 366.676 69.4781 367.266C68.8884 367.856 67.934 367.856 67.3443 367.266C66.7546 366.676 66.7546 365.722 67.3443 365.132C67.934 364.543 68.8884 364.543 69.4781 365.132Z" fill="#808080"/>
<path d="M69.0921 365.519C69.4674 365.894 69.4674 366.505 69.0921 366.891C68.7168 367.277 68.1057 367.266 67.7196 366.891C67.3444 366.516 67.3444 365.905 67.7196 365.519C68.0949 365.143 68.7061 365.143 69.0921 365.519Z" fill="#D5D5D5"/>
<path d="M82.0982 377.763C82.688 378.353 82.688 379.307 82.0982 379.897C81.5085 380.487 80.5542 380.487 79.9645 379.897C79.3748 379.307 79.3748 378.353 79.9645 377.763C80.5542 377.173 81.5085 377.173 82.0982 377.763Z" fill="#808080"/>
<path d="M81.7127 378.139C82.088 378.514 82.088 379.125 81.7127 379.511C81.3374 379.897 80.7262 379.886 80.3402 379.511C79.9649 379.136 79.9649 378.525 80.3402 378.139C80.7155 377.763 81.3267 377.763 81.7127 378.139Z" fill="#D5D5D5"/>
<path d="M69.4889 377.752C70.0786 378.342 70.0786 379.297 69.4889 379.886C68.8991 380.476 67.9448 380.476 67.3551 379.886C66.7654 379.297 66.7654 378.342 67.3551 377.752C67.9448 377.163 68.8991 377.163 69.4889 377.752Z" fill="#808080"/>
<path d="M69.1033 378.128C69.4786 378.503 69.4786 379.114 69.1033 379.5C68.728 379.886 68.1169 379.875 67.7309 379.5C67.3556 379.125 67.3556 378.514 67.7309 378.128C68.1062 377.742 68.7173 377.752 69.1033 378.128Z" fill="#D5D5D5"/>
<path d="M82.1305 365.111C82.7202 365.701 82.7202 366.655 82.1305 367.245C81.5407 367.834 80.5865 367.834 79.9967 367.245C79.407 366.655 79.407 365.701 79.9967 365.111C80.5865 364.521 81.5407 364.521 82.1305 365.111Z" fill="#808080"/>
<path d="M81.7444 365.486C82.1197 365.862 82.1197 366.473 81.7444 366.859C81.3691 367.234 80.758 367.234 80.372 366.859C79.9967 366.483 79.9967 365.872 80.372 365.486C80.7473 365.111 81.3584 365.111 81.7444 365.486Z" fill="#D5D5D5"/>
<path d="M79.3857 372.37C79.3857 374.825 77.3914 376.82 74.9359 376.82C72.4805 376.82 70.4861 374.825 70.4861 372.37C70.4861 369.915 72.4805 367.92 74.9359 367.92C77.3914 367.92 79.3857 369.915 79.3857 372.37Z" fill="white"/>
<path d="M59.2277 356.93C62.3694 354.046 66.2938 352.062 70.4326 351.333C71.4727 351.15 72.5128 351.054 73.5636 351C74.6144 350.947 75.6652 351.054 76.7052 351.108C78.7854 351.376 80.8333 351.88 82.774 352.684C84.7041 353.509 86.5162 354.582 88.1567 355.89C89.7757 357.241 91.1803 358.806 92.4027 360.511C93.5929 362.248 94.515 364.167 95.1905 366.162C95.8553 368.178 96.177 370.279 96.3164 372.413C96.3592 370.279 96.1233 368.135 95.5658 366.044C94.9439 363.985 94.0754 361.991 92.9067 360.168C91.7165 358.356 90.2475 356.737 88.607 355.321C86.9236 353.96 85.0579 352.823 83.0636 351.944C81.0478 351.129 78.914 350.636 76.7588 350.389C75.6759 350.357 74.5929 350.25 73.5099 350.314C72.427 350.378 71.3547 350.507 70.2932 350.732C66.0579 351.612 62.1121 353.799 59.1956 356.93H59.2277Z" fill="#575757"/>
<path d="M104.101 370.301C104.101 370.183 104.101 370.065 104.101 369.947C104.101 355.397 92.3061 343.613 77.7666 343.613C63.2271 343.613 51.4326 355.407 51.4326 369.947C51.4326 370.065 51.4326 370.183 51.4326 370.301H43.4444C43.4444 370.183 43.4444 370.065 43.4444 369.947C43.4444 350.99 58.8095 335.625 77.7666 335.625C96.7237 335.625 112.089 350.99 112.089 369.947C112.089 370.065 112.089 370.183 112.089 370.301H104.101Z" fill="#50595A"/>
<path d="M50.124 349.606C51.9576 347.237 54.1021 345.114 56.461 343.302C58.8092 341.479 61.3825 339.924 64.1274 338.777C69.5958 336.461 75.6433 335.539 81.5298 336.246C84.4785 336.557 87.3842 337.244 90.1506 338.305C92.9169 339.377 95.5225 340.836 97.935 342.562C100.348 344.299 102.535 346.347 104.422 348.652C106.341 350.936 107.96 353.477 109.226 356.19C108.068 353.424 106.556 350.797 104.722 348.406C102.867 346.025 100.701 343.902 98.2888 342.069C93.4745 338.402 87.6308 336.118 81.6049 335.453C75.5897 334.799 69.3921 335.742 63.8701 338.219C61.1144 339.463 58.5411 341.082 56.2143 343.002C53.909 344.932 51.8503 347.162 50.1133 349.606H50.124Z" fill="#DDDDDD"/>
<path d="M308.275 394.179C296.248 394.179 286.498 384.429 286.498 372.402C286.498 360.375 296.248 350.625 308.275 350.625C320.302 350.625 330.052 360.375 330.052 372.402C330.052 384.429 320.302 394.179 308.275 394.179Z" fill="#121212"/>
<path d="M301.981 350.625H308.275V394.179H301.981V350.625Z" fill="#121212"/>
<path d="M301.821 394.179C289.793 394.179 280.043 384.429 280.043 372.402C280.043 360.375 289.793 350.625 301.821 350.625C313.848 350.625 323.598 360.375 323.598 372.402C323.598 384.429 313.848 394.179 301.821 394.179Z" fill="#252525"/>
<path opacity="0.29" d="M289.179 354.667C292.739 352.126 297.103 350.625 301.81 350.625C313.84 350.625 323.587 360.372 323.587 372.402C323.587 375.876 322.772 379.157 321.324 382.074C313.261 370.386 301.831 360.908 289.179 354.667Z" fill="#575757"/>
<path d="M301.981 385.355C294.827 385.355 289.028 379.556 289.028 372.402C289.028 365.249 294.827 359.45 301.981 359.45C309.135 359.45 314.934 365.249 314.934 372.402C314.934 379.556 309.135 385.355 301.981 385.355Z" fill="#121212"/>
<path d="M298.795 382.603C293.216 380.842 290.12 374.891 291.882 369.312C293.643 363.732 299.594 360.637 305.173 362.398C310.752 364.16 313.848 370.11 312.086 375.69C310.325 381.269 304.374 384.364 298.795 382.603Z" fill="white"/>
<path d="M302.014 379.393C298.342 379.393 295.366 376.417 295.366 372.745C295.366 369.074 298.342 366.097 302.014 366.097C305.685 366.097 308.662 369.074 308.662 372.745C308.662 376.417 305.685 379.393 302.014 379.393Z" fill="#ABABAB"/>
<path d="M308.211 372.37C308.211 375.694 305.52 378.375 302.207 378.375C298.894 378.375 296.202 375.683 296.202 372.37C296.202 369.057 298.894 366.365 302.207 366.365C305.52 366.365 308.211 369.057 308.211 372.37Z" fill="#D5D5D5"/>
<path d="M303.493 363.567C303.493 364.403 302.818 365.079 301.981 365.079C301.145 365.079 300.469 364.403 300.469 363.567C300.469 362.731 301.145 362.055 301.981 362.055C302.818 362.055 303.493 362.731 303.493 363.567Z" fill="#808080"/>
<path d="M302.946 363.567C302.946 364.103 302.517 364.532 301.981 364.532C301.445 364.532 301.016 364.103 301.016 363.567C301.016 363.031 301.445 362.602 301.981 362.602C302.517 362.602 302.946 363.031 302.946 363.567Z" fill="#D5D5D5"/>
<path d="M303.493 381.42C303.493 382.256 302.818 382.931 301.981 382.931C301.145 382.931 300.469 382.256 300.469 381.42C300.469 380.583 301.145 379.908 301.981 379.908C302.818 379.908 303.493 380.583 303.493 381.42Z" fill="#808080"/>
<path d="M302.946 381.419C302.946 381.956 302.517 382.384 301.981 382.384C301.445 382.384 301.016 381.956 301.016 381.419C301.016 380.883 301.445 380.454 301.981 380.454C302.517 380.454 302.946 380.883 302.946 381.419Z" fill="#D5D5D5"/>
<path d="M293.071 374.011C292.236 374.011 291.559 373.334 291.559 372.499C291.559 371.664 292.236 370.987 293.071 370.987C293.906 370.987 294.583 371.664 294.583 372.499C294.583 373.334 293.906 374.011 293.071 374.011Z" fill="#808080"/>
<path d="M293.071 373.464C292.538 373.464 292.106 373.032 292.106 372.499C292.106 371.966 292.538 371.534 293.071 371.534C293.604 371.534 294.036 371.966 294.036 372.499C294.036 373.032 293.604 373.464 293.071 373.464Z" fill="#D5D5D5"/>
<path d="M310.945 374.011C310.11 374.011 309.433 373.334 309.433 372.499C309.433 371.664 310.11 370.987 310.945 370.987C311.78 370.987 312.457 371.664 312.457 372.499C312.457 373.334 311.78 374.011 310.945 374.011Z" fill="#808080"/>
<path d="M310.945 373.464C310.412 373.464 309.98 373.032 309.98 372.499C309.98 371.966 310.412 371.534 310.945 371.534C311.478 371.534 311.91 371.966 311.91 372.499C311.91 373.032 311.478 373.464 310.945 373.464Z" fill="#D5D5D5"/>
<path d="M296.738 365.132C297.328 365.722 297.328 366.676 296.738 367.266C296.148 367.856 295.194 367.856 294.604 367.266C294.014 366.676 294.014 365.722 294.604 365.132C295.194 364.543 296.148 364.543 296.738 365.132Z" fill="#808080"/>
<path d="M296.363 365.519C296.738 365.894 296.738 366.505 296.363 366.891C295.988 367.266 295.377 367.266 294.991 366.891C294.615 366.516 294.615 365.905 294.991 365.519C295.366 365.143 295.977 365.143 296.363 365.519Z" fill="#D5D5D5"/>
<path d="M309.369 377.763C309.959 378.353 309.959 379.307 309.369 379.897C308.779 380.487 307.825 380.487 307.235 379.897C306.646 379.307 306.646 378.353 307.235 377.763C307.825 377.173 308.779 377.173 309.369 377.763Z" fill="#808080"/>
<path d="M308.983 378.139C309.358 378.514 309.358 379.125 308.983 379.511C308.608 379.886 307.997 379.886 307.611 379.511C307.225 379.136 307.235 378.525 307.611 378.139C307.986 377.753 308.597 377.763 308.983 378.139Z" fill="#D5D5D5"/>
<path d="M296.759 377.752C297.349 378.342 297.349 379.297 296.759 379.886C296.17 380.476 295.215 380.476 294.626 379.886C294.036 379.297 294.036 378.342 294.626 377.752C295.215 377.163 296.17 377.163 296.759 377.752Z" fill="#808080"/>
<path d="M296.373 378.128C296.749 378.503 296.749 379.114 296.373 379.5C295.998 379.876 295.387 379.876 295.001 379.5C294.626 379.125 294.626 378.514 295.001 378.128C295.376 377.752 295.987 377.752 296.373 378.128Z" fill="#D5D5D5"/>
<path d="M309.401 365.111C309.991 365.701 309.991 366.655 309.401 367.245C308.812 367.834 307.857 367.834 307.268 367.245C306.678 366.655 306.678 365.701 307.268 365.111C307.857 364.521 308.812 364.521 309.401 365.111Z" fill="#808080"/>
<path d="M309.015 365.486C309.391 365.861 309.391 366.473 309.015 366.859C308.64 367.234 308.029 367.234 307.643 366.859C307.257 366.483 307.268 365.872 307.643 365.486C308.018 365.1 308.629 365.111 309.015 365.486Z" fill="#D5D5D5"/>
<path d="M306.656 372.37C306.656 374.825 304.662 376.82 302.207 376.82C299.751 376.82 297.757 374.825 297.757 372.37C297.757 369.915 299.751 367.92 302.207 367.92C304.662 367.92 306.656 369.915 306.656 372.37Z" fill="white"/>
<path d="M286.498 356.93C289.64 354.046 293.564 352.062 297.703 351.333C298.743 351.15 299.783 351.054 300.834 351C301.885 350.947 302.936 351.054 303.976 351.108C306.056 351.376 308.104 351.88 310.045 352.684C311.975 353.509 313.787 354.582 315.427 355.89C317.035 357.241 318.451 358.806 319.673 360.511C320.863 362.248 321.786 364.167 322.461 366.162C323.126 368.178 323.447 370.279 323.587 372.413C323.63 370.279 323.394 368.135 322.836 366.044C322.214 363.985 321.346 361.991 320.177 360.168C318.987 358.356 317.518 356.737 315.878 355.321C314.194 353.96 312.328 352.823 310.334 351.944C308.318 351.129 306.185 350.636 304.029 350.389C302.946 350.357 301.863 350.25 300.78 350.314C299.698 350.378 298.625 350.507 297.564 350.732C293.328 351.612 289.383 353.799 286.466 356.93H286.498Z" fill="#575757"/>
<path d="M407.243 284.179C421.268 298.536 427.894 315.241 427.894 315.241V321.085H352.28V315.241C352.28 315.241 345.975 299.061 333.548 284.179H407.243Z" fill="#6AAFC0"/>
<path d="M352.28 315.477H427.894V321.085H352.28V315.477Z" fill="#416F76"/>
<path d="M339.102 291.427C337.408 289.025 335.564 286.58 333.548 284.168H407.243C409.569 286.548 411.693 289.004 413.612 291.427H339.102Z" fill="#252525"/>
<g style="mix-blend-mode:overlay">
<path d="M394.966 284.179C405.045 296.456 414.995 308.808 425.01 321.085H405.409C395.212 309.215 385.519 296.863 376.33 284.179H394.955H394.966Z" fill="white"/>
</g>
<g style="mix-blend-mode:overlay">
<path d="M364.128 284.179C374.207 296.456 384.158 308.808 394.172 321.085H384.887C374.69 309.215 364.997 296.863 355.808 284.179H364.118H364.128Z" fill="white"/>
</g>
<path d="M338.513 343.43H304.491C292.149 343.43 282.145 333.426 282.145 321.085H338.513V343.43Z" fill="#620D15"/>
<path d="M294.186 325.706H305.702C306.585 325.706 307.3 326.422 307.3 327.304V329.341C307.3 330.224 306.585 330.939 305.702 330.939H294.186C293.304 330.939 292.589 330.224 292.589 329.341V327.304C292.589 326.422 293.304 325.706 294.186 325.706Z" fill="#871A1F"/>
<path d="M416.604 334.477H369.843C369.843 340.889 375.044 346.09 381.456 346.09H404.991C411.403 346.09 416.604 340.889 416.604 334.477Z" fill="#121212"/>
<path d="M353.213 358.506H371.119C372.226 358.506 373.124 359.404 373.124 360.511V365.722C373.124 366.829 372.226 367.727 371.119 367.727H353.213C352.105 367.727 351.208 366.829 351.208 365.722V360.511C351.208 359.404 352.105 358.506 353.213 358.506Z" fill="white"/>
<path d="M411.767 358.506H429.674C430.781 358.506 431.679 359.404 431.679 360.511V365.722C431.679 366.829 430.781 367.727 429.674 367.727H411.767C410.66 367.727 409.762 366.829 409.762 365.722V360.511C409.762 359.404 410.66 358.506 411.767 358.506Z" fill="white"/>
<path d="M376.491 355.279H406.75C407.206 355.279 407.575 355.648 407.575 356.104V356.855C407.575 357.311 407.206 357.68 406.75 357.68H376.491C376.035 357.68 375.665 357.311 375.665 356.855V356.104C375.665 355.648 376.035 355.279 376.491 355.279Z" fill="#121212"/>
<path d="M376.491 358.57H406.75C407.206 358.57 407.575 358.94 407.575 359.396V360.147C407.575 360.603 407.206 360.972 406.75 360.972H376.491C376.035 360.972 375.665 360.603 375.665 360.147V359.396C375.665 358.94 376.035 358.57 376.491 358.57Z" fill="#121212"/>
<path d="M376.491 361.873H406.75C407.206 361.873 407.575 362.242 407.575 362.698V363.449C407.575 363.905 407.206 364.275 406.75 364.275H376.491C376.035 364.275 375.665 363.905 375.665 363.449V362.698C375.665 362.242 376.035 361.873 376.491 361.873Z" fill="#121212"/>
<path d="M376.491 365.175H406.75C407.206 365.175 407.575 365.545 407.575 366.001V366.752C407.575 367.208 407.206 367.577 406.75 367.577H376.491C376.035 367.577 375.665 367.208 375.665 366.752V366.001C375.665 365.545 376.035 365.175 376.491 365.175Z" fill="#121212"/>
<path d="M317.861 284.179C331.886 298.536 338.513 315.241 338.513 315.241V321.085H282.145V284.179H317.861Z" fill="#6AAFC0"/>
<path d="M282.145 315.477H338.513V321.085H282.145V315.477Z" fill="#416F76"/>
<g style="mix-blend-mode:overlay">
<path d="M304.555 284.179C309.112 296.627 314.098 308.894 319.255 321.085H303.268C298.583 308.829 294.101 296.499 289.63 284.179H304.555Z" fill="white"/>
</g>
<path d="M337.612 323.38H338.513V370.89H337.612V323.38Z" fill="#AB333C"/>
<path d="M321.26 323.38H338.513V315.273H321.26C319.019 315.273 317.207 317.086 317.207 319.326C317.207 321.567 319.019 323.38 321.26 323.38Z" fill="#AB333C"/>
<path d="M343.788 370.901H436V375.383H343.788V370.901Z" fill="#777E7E"/>
<path d="M343.788 370.901H436V372.381H343.788V370.901Z" fill="#A0A0A0"/>
<defs>
<linearGradient id="paint0_linear_63_1299" x1="102.347" y1="104.074" x2="107.089" y2="217.506" gradientUnits="userSpaceOnUse">
<stop stop-color="#287094"/>
<stop offset="1" stop-color="#287094"/>
</linearGradient>
</defs>
</svg>
