<svg width="430" height="314" viewBox="0 0 430 314" fill="none" xmlns="http://www.w3.org/2000/svg">
<path opacity="0.2" d="M423.911 58.934H341.071C338.079 58.934 335.652 61.3606 335.652 64.3526V107.679C335.652 110.671 338.079 113.097 341.071 113.097H377.008L362.638 144.514L389.34 113.097H423.911C426.903 113.097 429.329 110.671 429.329 107.679V64.3526C429.329 61.3606 426.903 58.934 423.911 58.934Z" fill="#287094"/>
<path opacity="0.3" d="M295.605 34.7855H250.257C247.006 34.7855 244.367 37.4242 244.367 40.6754V67.7688C244.367 71.02 247.006 73.6586 250.257 73.6586H274.097L287.949 89.5613L286.323 73.6586H295.605C298.856 73.6586 301.494 71.02 301.494 67.7688V40.6754C301.494 37.4242 298.856 34.7855 295.605 34.7855Z" fill="#023246"/>
<path opacity="0.2" d="M160.631 38.4726H72.2898C69.0388 38.4726 66.4004 41.1113 66.4004 44.3625V70.8669C66.4004 74.1181 69.0388 76.7567 72.2898 76.7567H112.585L121.761 103.261L121.29 76.7567H160.631C163.882 76.7567 166.52 74.1181 166.52 70.8669V44.3625C166.52 41.1113 163.882 38.4726 160.631 38.4726Z" fill="#287094"/>
<path opacity="0.2" d="M209.713 0H180.266C177.015 0 174.377 2.63866 174.377 5.88987V40.8404C174.377 44.0916 177.015 46.7302 180.266 46.7302H193.235L205.697 61.4549L203.541 46.7773L209.725 46.7302C212.976 46.7302 215.615 44.0916 215.615 40.8404V5.88987C215.603 2.63866 212.964 0 209.713 0Z" fill="#023246"/>
<g opacity="0.4">
<path d="M106.543 305.767C80.4292 224.911 51.6536 204.979 38.4024 201.881C32.9606 200.609 27.507 204.92 26.6943 212.294C22.7719 248.246 80.1465 306.073 80.1465 306.073L106.543 305.767Z" fill="#287094"/>
<mask id="mask0_63_51" style="mask-type:luminance" maskUnits="userSpaceOnUse" x="26" y="201" width="81" height="106">
<path d="M106.543 305.767C80.4292 224.91 51.6536 204.979 38.4024 201.881C32.9606 200.609 27.507 204.92 26.6943 212.294C22.7719 248.246 80.1465 306.073 80.1465 306.073L106.543 305.767Z" fill="white"/>
</mask>
<g mask="url(#mask0_63_51)">
<path d="M45.6934 226.465C45.6934 226.465 46.7652 227.62 48.5556 229.705C50.346 231.79 52.8667 234.805 55.776 238.516C57.2248 240.377 58.7914 242.392 60.3933 244.559C61.9952 246.726 63.7032 249.012 65.3757 251.438C67.0601 253.853 68.8269 256.339 70.5113 258.942C72.2192 261.534 73.9154 264.184 75.588 266.846C77.2252 269.532 78.8271 272.253 80.3702 274.939C81.925 277.625 83.3266 280.346 84.6812 282.973C86.0358 285.6 87.249 288.203 88.3326 290.7C88.8745 291.949 89.4045 293.162 89.8639 294.352C90.335 295.542 90.7708 296.708 91.1478 297.827C91.5482 298.946 91.9134 300.03 92.2079 301.078C92.5259 302.115 92.785 303.104 92.997 304.058C93.2326 305.001 93.4446 305.873 93.5506 306.709C93.6802 307.545 93.8451 308.287 93.8804 308.982C93.9393 309.677 93.9865 310.29 94.0336 310.832C94.0453 311.374 94.0218 311.833 94.01 312.198C93.9865 312.94 93.9864 313.329 93.9864 313.329C93.9864 313.329 93.9276 312.94 93.8215 312.21C93.7626 311.845 93.7155 311.397 93.6095 310.879C93.4917 310.361 93.3504 309.772 93.1855 309.112C93.0559 308.452 92.785 307.734 92.5494 306.956C92.3139 306.179 92.0312 305.331 91.6896 304.447C91.3716 303.552 91.0064 302.621 90.5824 301.644C90.1819 300.666 89.7579 299.629 89.2514 298.581C88.7802 297.521 88.262 296.425 87.6848 295.306C87.143 294.175 86.5658 293.009 85.9415 291.831C84.7283 289.452 83.3384 286.99 81.9367 284.445C80.5233 281.889 78.9567 279.309 77.4255 276.659C75.8707 274.02 74.2452 271.358 72.5844 268.707C70.9589 266.045 69.3099 263.395 67.649 260.803C66 258.212 64.3745 255.656 62.7962 253.182C59.6159 248.246 56.6594 243.64 54.1152 239.694C49.0268 231.802 45.6934 226.465 45.6934 226.465Z" fill="white"/>
</g>
<path d="M80.0408 304.695C53.9272 253.253 25.1516 240.578 11.9005 238.61C6.45865 237.797 1.00506 240.542 0.19232 245.231C-3.73002 268.107 53.6445 304.895 53.6445 304.895L80.0408 304.695Z" fill="#287094"/>
<mask id="mask1_63_51" style="mask-type:luminance" maskUnits="userSpaceOnUse" x="0" y="238" width="81" height="67">
<path d="M80.0408 304.499C53.9272 253.057 25.1516 240.382 11.9005 238.414C6.45865 237.602 1.00506 240.346 0.19232 245.035C-3.73002 267.911 53.6445 304.699 53.6445 304.699L80.0408 304.499Z" fill="white"/>
</mask>
<g mask="url(#mask1_63_51)">
<path d="M28.1191 262.594C28.1191 262.594 29.3559 263.56 31.4643 265.327C33.5727 267.094 36.541 269.662 40.004 272.866C41.7354 274.468 43.6083 276.199 45.54 278.096C47.4717 279.981 49.5212 281.96 51.5707 284.08C53.6203 286.189 55.764 288.368 57.8488 290.653C59.9455 292.927 62.0421 295.271 64.1269 297.639C66.1765 300.03 68.1906 302.445 70.1459 304.86C72.113 307.263 73.9387 309.713 75.6937 312.092C77.4488 314.472 79.0742 316.84 80.5348 319.125C81.2769 320.267 81.9954 321.375 82.6314 322.494C83.291 323.589 83.9035 324.673 84.4571 325.721C85.0343 326.758 85.5644 327.771 86.0237 328.761C86.5067 329.727 86.9189 330.669 87.2841 331.576C87.661 332.46 88.0143 333.296 88.2617 334.109C88.5208 334.91 88.8035 335.616 88.9567 336.3C89.1216 336.971 89.2747 337.572 89.4042 338.102C89.5103 338.632 89.5456 339.091 89.6045 339.457C89.6987 340.187 89.7576 340.576 89.7576 340.576C89.7576 340.576 89.6398 340.199 89.416 339.492C89.2982 339.139 89.1805 338.703 88.992 338.208C88.7918 337.725 88.5562 337.16 88.2853 336.523C88.0497 335.887 87.6728 335.228 87.3194 334.497C86.966 333.767 86.542 332.978 86.0709 332.165C85.6233 331.34 85.105 330.469 84.5278 329.585C83.9742 328.678 83.3853 327.736 82.7257 326.782C82.0896 325.804 81.3947 324.814 80.6526 323.801C79.9341 322.777 79.1803 321.716 78.3675 320.656C76.7892 318.5 75.0223 316.298 73.2202 314.001C71.418 311.704 69.451 309.418 67.5075 307.039C65.5404 304.683 63.5144 302.315 61.4532 299.971C59.4154 297.603 57.3659 295.247 55.3164 292.962C53.2669 290.665 51.2527 288.403 49.3092 286.224C45.3869 281.866 41.7119 277.79 38.5787 274.303C32.2771 267.329 28.1191 262.594 28.1191 262.594Z" fill="white"/>
</g>
</g>
<path d="M225.462 313.93C336.24 313.93 426.043 311.161 426.043 307.746C426.043 304.33 336.24 301.561 225.462 301.561C114.684 301.561 24.8809 304.33 24.8809 307.746C24.8809 311.161 114.684 313.93 225.462 313.93Z" fill="#287094" fill-opacity="0.33"/>
<path d="M195.084 145.28V134.878H189.006V153.726H190.773V158.037H247.9V145.28H195.084Z" fill="#1E184C"/>
<path d="M316.088 243.758C316.088 243.758 297.171 233.05 288.855 221.365C276.323 203.766 267.559 163.632 265.251 143.159C264.744 138.659 264.473 125.054 264.473 125.054C264.473 124.406 263.955 123.887 263.307 123.887H244.626C243.978 123.887 243.46 124.406 243.46 125.054V149.685H191.586V125.054C191.586 124.406 191.068 123.887 190.42 123.887H171.739C171.091 123.887 170.573 124.406 170.573 125.054C170.573 125.054 170.302 138.659 169.795 143.159C167.487 163.632 158.735 203.766 146.19 221.365C137.875 233.05 118.404 243.805 118.404 243.805L120.159 247.304L217.535 246.173L314.91 247.304L316.088 243.758Z" fill="#287094"/>
<mask id="mask2_63_51" style="mask-type:luminance" maskUnits="userSpaceOnUse" x="118" y="123" width="199" height="125">
<path d="M316.088 243.758C316.088 243.758 297.171 233.05 288.855 221.365C276.323 203.766 267.559 163.632 265.251 143.159C264.744 138.659 264.473 125.054 264.473 125.054C264.473 124.406 263.955 123.887 263.307 123.887H244.626C243.978 123.887 243.46 124.406 243.46 125.054V149.685H191.586V125.054C191.586 124.406 191.068 123.887 190.42 123.887H171.739C171.091 123.887 170.573 124.406 170.573 125.054C170.573 125.054 170.302 138.659 169.795 143.159C167.487 163.632 158.735 203.766 146.19 221.365C137.875 233.05 118.404 243.805 118.404 243.805L120.159 247.304L217.535 246.173L314.91 247.304L316.088 243.758Z" fill="white"/>
</mask>
<g mask="url(#mask2_63_51)">
<path opacity="0.1" d="M157.887 238.339C150.184 238.198 149.501 234.593 150.985 232.555C165.626 212.495 176.215 166.471 179.136 142.959C179.596 139.307 179.973 130.413 180.149 125.525L169.572 125.407C168.924 125.395 168.394 125.914 168.394 126.561C168.394 126.561 167.97 140.155 167.405 144.655C164.86 165.105 155.649 205.132 142.916 222.59C134.459 234.169 114.871 244.712 114.871 244.712L116.579 248.234H131.95V266.222H339.552V238.54C339.575 238.54 201.763 239.129 157.887 238.339Z" fill="#1E184C"/>
</g>
<mask id="mask3_63_51" style="mask-type:luminance" maskUnits="userSpaceOnUse" x="118" y="123" width="199" height="125">
<path d="M316.088 243.758C316.088 243.758 297.171 233.05 288.855 221.365C276.323 203.766 267.559 163.632 265.251 143.159C264.744 138.659 264.473 125.054 264.473 125.054C264.473 124.406 263.955 123.887 263.307 123.887H244.626C243.978 123.887 243.46 124.406 243.46 125.054V149.685H191.586V125.054C191.586 124.406 191.068 123.887 190.42 123.887H171.739C171.091 123.887 170.573 124.406 170.573 125.054C170.573 125.054 170.302 138.659 169.795 143.159C167.487 163.632 158.735 203.766 146.19 221.365C137.875 233.05 118.404 243.805 118.404 243.805L120.159 247.304L217.535 246.173L314.91 247.304L316.088 243.758Z" fill="white"/>
</mask>
<g mask="url(#mask3_63_51)">
<path d="M173.788 147.435C173.777 147.129 173.541 146.893 173.235 146.87C172.929 146.858 172.669 147.07 172.622 147.364L171.868 152.053C171.774 152.771 171.633 153.561 171.492 154.385C171.35 155.163 171.209 155.975 171.091 156.788L170.608 159.462C170.561 159.757 170.502 160.051 170.455 160.346C170.361 160.958 170.255 161.583 170.113 162.207L169.513 165.387C169.371 166.141 169.23 166.883 169.053 167.602C168.865 168.379 168.712 169.145 168.57 169.875C168.405 170.747 168.241 171.56 168.04 172.29C167.793 173.197 167.605 174.01 167.451 174.693C167.369 175.035 167.298 175.353 167.228 175.636C167.039 176.46 166.945 176.932 166.945 176.932C166.886 177.226 167.063 177.521 167.345 177.603C167.404 177.627 167.463 177.627 167.522 177.627C167.746 177.627 167.97 177.497 168.064 177.273C168.064 177.273 168.252 176.837 168.57 176.036C168.665 175.777 168.782 175.483 168.912 175.153C169.171 174.493 169.477 173.704 169.795 172.82C169.996 172.29 170.172 171.713 170.337 171.112L170.573 170.323C170.785 169.616 170.997 168.874 171.197 168.109C171.492 167.072 171.704 166.212 171.845 165.399L172.422 162.631C172.552 161.995 172.658 161.347 172.752 160.699C172.799 160.405 172.846 160.098 172.893 159.792L173.282 157.059C173.435 155.528 173.612 153.749 173.694 152.194C173.871 149.402 173.788 147.518 173.788 147.435Z" fill="white"/>
</g>
<path d="M316.088 243.758C316.088 243.758 297.171 233.05 288.855 221.365C276.323 203.766 267.559 163.632 265.251 143.159C264.744 138.659 264.473 125.054 264.473 125.054C264.473 124.406 263.955 123.887 263.307 123.887H244.626C243.978 123.887 243.46 124.406 243.46 125.054V149.685H191.586V125.054C191.586 124.406 191.068 123.887 190.42 123.887H171.739C171.091 123.887 170.573 124.406 170.573 125.054C170.573 125.054 170.302 138.659 169.795 143.159C167.487 163.632 158.735 203.766 146.19 221.365C137.875 233.05 118.404 243.805 118.404 243.805L120.159 247.304L217.535 246.173L314.91 247.304L316.088 243.758Z" stroke="#1E184C" stroke-miterlimit="10"/>
<path d="M161.985 300.454C161.985 303.034 159.888 305.13 157.309 305.13H124.411C121.831 305.13 119.734 303.034 119.734 300.454V296.755C119.734 294.175 121.831 292.078 124.411 292.078H157.309C159.888 292.078 161.985 294.175 161.985 296.755V300.454Z" fill="#1E184C"/>
<path d="M314.792 300.454C314.792 303.034 312.695 305.13 310.115 305.13H277.217C274.638 305.13 272.541 303.034 272.541 300.454V296.755C272.541 294.175 274.638 292.078 277.217 292.078H310.115C312.695 292.078 314.792 294.175 314.792 296.755V300.454Z" fill="#1E184C"/>
<path d="M317.125 293.645C317.125 294.941 316.076 295.978 314.781 295.978H119.535C118.24 295.978 117.191 294.929 117.191 293.645V254.902C117.191 253.606 118.24 252.569 119.535 252.569H314.781C316.076 252.569 317.125 253.618 317.125 254.902V293.645Z" fill="#287094"/>
<mask id="mask4_63_51" style="mask-type:luminance" maskUnits="userSpaceOnUse" x="117" y="252" width="201" height="44">
<path d="M317.125 293.645C317.125 294.941 316.076 295.977 314.781 295.977H119.535C118.24 295.977 117.191 294.929 117.191 293.645V254.901C117.191 253.606 118.24 252.569 119.535 252.569H314.781C316.076 252.569 317.125 253.618 317.125 254.901V293.645Z" fill="white"/>
</mask>
<g mask="url(#mask4_63_51)">
<path opacity="0.4" d="M344.876 289.534H87.709V296.896H344.876V289.534Z" fill="#1E184C"/>
</g>
<mask id="mask5_63_51" style="mask-type:luminance" maskUnits="userSpaceOnUse" x="117" y="252" width="201" height="44">
<path d="M317.125 293.645C317.125 294.941 316.076 295.977 314.781 295.977H119.535C118.24 295.977 117.191 294.929 117.191 293.645V254.901C117.191 253.606 118.24 252.569 119.535 252.569H314.781C316.076 252.569 317.125 253.618 317.125 254.901V293.645Z" fill="white"/>
</mask>
<g mask="url(#mask5_63_51)">
<path d="M129.912 284.669H121.867V263.666L129.912 284.669Z" fill="white"/>
</g>
<path d="M317.125 293.645C317.125 294.941 316.076 295.978 314.781 295.978H119.535C118.24 295.978 117.191 294.929 117.191 293.645V254.902C117.191 253.606 118.24 252.569 119.535 252.569H314.781C316.076 252.569 317.125 253.618 317.125 254.902V293.645Z" stroke="#1E184C" stroke-miterlimit="10"/>
<path d="M317.16 257.234C317.16 258.53 316.112 259.566 314.816 259.566H119.559C118.263 259.566 117.215 258.518 117.215 257.234V245.749C117.215 244.453 118.263 243.416 119.559 243.416H314.816C316.112 243.416 317.16 244.465 317.16 245.749V257.234Z" fill="#1E184C" stroke="#1E184C" stroke-miterlimit="10"/>
<path d="M289.301 177.686C288.135 179.983 288.9 182.727 291.021 183.799L357.877 217.819C359.997 218.891 362.659 217.902 363.825 215.605L371.234 201.033C372.4 198.736 371.635 195.991 369.515 194.919L302.658 160.899C300.538 159.828 297.876 160.817 296.71 163.114L289.301 177.686Z" fill="#1E184C"/>
<mask id="mask6_63_51" style="mask-type:luminance" maskUnits="userSpaceOnUse" x="290" y="163" width="81" height="67">
<path d="M301.309 227.804C302.816 229.893 305.606 230.471 307.53 229.078L368.408 185.254C370.332 183.861 370.673 181.042 369.166 178.953L359.614 165.688C358.107 163.599 355.317 163.021 353.392 164.414L292.515 208.238C290.59 209.631 290.249 212.45 291.756 214.539L301.309 227.804Z" fill="white"/>
</mask>
<g mask="url(#mask6_63_51)">
<path opacity="0.4" d="M285.194 164.647L283.715 167.515L387.608 221.108L389.087 218.24L285.194 164.647Z" fill="#023246"/>
</g>
<path d="M371.26 172.455C369.893 160.97 364.275 144.797 359.092 136.975C358.091 135.467 353.992 132.086 352.378 131.285C337.926 124.088 310.116 116.961 295.004 113.91C285.875 112.072 252.942 106.96 220.197 107.042C189.171 107.125 158.252 112.296 150.266 113.91C135.154 116.961 107.344 124.076 92.8914 131.285C91.2777 132.086 87.1787 135.467 86.1775 136.975C81.0066 144.797 75.3763 160.97 74.01 172.455C73.3503 177.992 73.5035 188.794 73.9864 194.213C74.0335 194.778 74.2691 196.227 75.765 195.626C91.7253 189.206 136.591 164.669 136.591 164.669C136.591 164.669 141.514 162.231 142.527 160.77C145.154 156.965 145.06 149.379 151.868 144.808C157.498 141.027 168.217 140.52 168.217 140.52L211.575 140.603V140.615L216.38 140.603L220.197 140.615V140.603L277.053 140.52C277.053 140.52 287.772 141.027 293.402 144.808C300.21 149.379 300.116 156.965 302.743 160.77C303.755 162.231 308.679 164.669 308.679 164.669C308.679 164.669 353.545 189.194 369.505 195.626C371.001 196.227 371.224 194.778 371.283 194.213C371.766 188.794 371.919 177.992 371.26 172.455Z" fill="#287094"/>
<mask id="mask7_63_51" style="mask-type:luminance" maskUnits="userSpaceOnUse" x="73" y="107" width="299" height="89">
<path d="M371.26 172.455C369.893 160.97 364.275 144.797 359.092 136.975C358.091 135.467 353.992 132.086 352.378 131.285C337.926 124.088 310.116 116.961 295.004 113.91C285.875 112.072 252.942 106.96 220.197 107.042C189.171 107.125 158.252 112.296 150.266 113.91C135.154 116.961 107.344 124.076 92.8914 131.285C91.2777 132.086 87.1787 135.467 86.1775 136.975C81.0066 144.797 75.3763 160.97 74.01 172.455C73.3503 177.992 73.5035 188.794 73.9864 194.213C74.0335 194.778 74.2691 196.227 75.765 195.626C91.7253 189.206 136.591 164.669 136.591 164.669C136.591 164.669 141.514 162.231 142.527 160.77C145.154 156.965 145.06 149.379 151.868 144.808C157.498 141.027 168.217 140.52 168.217 140.52L211.575 140.603V140.615L216.38 140.603L220.197 140.615V140.603L277.053 140.52C277.053 140.52 287.772 141.027 293.402 144.808C300.21 149.379 300.116 156.965 302.743 160.77C303.755 162.231 308.679 164.669 308.679 164.669C308.679 164.669 353.545 189.194 369.505 195.626C371.001 196.227 371.224 194.778 371.283 194.213C371.766 188.794 371.919 177.992 371.26 172.455Z" fill="white"/>
</mask>
<g mask="url(#mask7_63_51)">
<path opacity="0.2" d="M306.217 153.914C303.485 150.109 303.579 142.523 296.488 137.953C290.634 134.171 279.468 133.665 279.468 133.665L220.279 133.747V133.759L216.31 133.747L211.316 133.759V133.747L166.179 133.665C166.179 133.665 155.013 134.171 149.159 137.953C142.068 142.523 142.174 150.109 139.429 153.914C138.381 155.375 133.246 157.813 133.246 157.813C133.246 157.813 91.9373 179.511 73.1973 187.427C73.2562 190.396 73.3975 193.176 73.5742 195.202C73.6213 195.767 73.8569 197.216 75.3528 196.616C91.372 190.196 136.426 165.658 136.426 165.658C136.426 165.658 141.373 163.22 142.386 161.759C145.024 157.954 144.93 150.368 151.762 145.798C157.416 142.017 168.182 141.51 168.182 141.51L211.716 141.592V141.604L216.534 141.592L220.362 141.604V141.592L277.442 141.51C277.442 141.51 288.208 142.017 293.861 145.798C300.705 150.368 296.288 158.461 298.926 162.266C299.939 163.727 309.209 165.658 309.209 165.658C309.209 165.658 354.251 190.184 370.282 196.616C371.778 197.216 372.014 195.767 372.061 195.202C372.249 193.176 372.379 190.396 372.438 187.427C353.698 179.5 312.389 157.813 312.389 157.813C312.389 157.813 307.266 155.375 306.217 153.914Z" fill="#1E184C"/>
</g>
<mask id="mask8_63_51" style="mask-type:luminance" maskUnits="userSpaceOnUse" x="73" y="107" width="299" height="89">
<path d="M371.26 172.455C369.893 160.97 364.275 144.797 359.092 136.975C358.091 135.467 353.992 132.086 352.378 131.285C337.926 124.088 310.116 116.961 295.004 113.91C285.875 112.072 252.942 106.96 220.197 107.042C189.171 107.125 158.252 112.296 150.266 113.91C135.154 116.961 107.344 124.076 92.8914 131.285C91.2777 132.086 87.1787 135.467 86.1775 136.975C81.0066 144.797 75.3763 160.97 74.01 172.455C73.3503 177.992 73.5035 188.794 73.9864 194.213C74.0335 194.778 74.2691 196.227 75.765 195.626C91.7253 189.206 136.591 164.669 136.591 164.669C136.591 164.669 141.514 162.231 142.527 160.77C145.154 156.965 145.06 149.379 151.868 144.808C157.498 141.027 168.217 140.52 168.217 140.52L211.575 140.603V140.615L216.38 140.603L220.197 140.615V140.603L277.053 140.52C277.053 140.52 287.772 141.027 293.402 144.808C300.21 149.379 300.116 156.965 302.743 160.77C303.755 162.231 308.679 164.669 308.679 164.669C308.679 164.669 353.545 189.194 369.505 195.626C371.001 196.227 371.224 194.778 371.283 194.213C371.766 188.794 371.919 177.992 371.26 172.455Z" fill="white"/>
</mask>
<g mask="url(#mask8_63_51)">
<path d="M106.79 129.353C106.79 129.353 97.037 132.781 94.0217 134.796C92.7613 135.644 89.5339 138.471 88.4974 140.544C87.0133 143.513 83.6445 152.618 83.6445 152.618L106.79 129.353Z" fill="white"/>
</g>
<path d="M371.26 172.455C369.893 160.97 364.275 144.797 359.092 136.975C358.091 135.467 353.992 132.086 352.378 131.285C337.926 124.088 310.116 116.961 295.004 113.91C285.875 112.072 252.942 106.96 220.197 107.042C189.171 107.125 158.252 112.296 150.266 113.91C135.154 116.961 107.344 124.076 92.8914 131.285C91.2777 132.086 87.1787 135.467 86.1775 136.975C81.0066 144.797 75.3763 160.97 74.01 172.455C73.3503 177.992 73.5035 188.794 73.9864 194.213C74.0335 194.778 74.2691 196.227 75.765 195.626C91.7253 189.206 136.591 164.669 136.591 164.669C136.591 164.669 141.514 162.231 142.527 160.77C145.154 156.965 145.06 149.379 151.868 144.808C157.498 141.027 168.217 140.52 168.217 140.52L211.575 140.603V140.615L216.38 140.603L220.197 140.615V140.603L277.053 140.52C277.053 140.52 287.772 141.027 293.402 144.808C300.21 149.379 300.116 156.965 302.743 160.77C303.755 162.231 308.679 164.669 308.679 164.669C308.679 164.669 353.545 189.194 369.505 195.626C371.001 196.227 371.224 194.778 371.283 194.213C371.766 188.794 371.919 177.992 371.26 172.455Z" stroke="#1E184C" stroke-miterlimit="10"/>
<path d="M155.437 177.686C156.603 179.983 155.838 182.727 153.718 183.799L86.8612 217.819C84.741 218.891 82.079 217.902 80.9129 215.605L73.504 201.033C72.3379 198.736 73.1035 195.991 75.2237 194.919L142.08 160.899C144.2 159.828 146.862 160.817 148.028 163.114L155.437 177.686Z" fill="#1E184C"/>
<mask id="mask9_63_51" style="mask-type:luminance" maskUnits="userSpaceOnUse" x="79" y="147" width="67" height="80">
<path d="M143.215 157.756C145.304 159.263 145.882 162.053 144.489 163.978L100.666 224.861C99.2726 226.786 96.4533 227.127 94.3641 225.62L81.101 216.067C79.0118 214.56 78.4342 211.77 79.8271 209.846L123.65 148.963C125.043 147.038 127.863 146.697 129.952 148.204L143.215 157.756Z" fill="white"/>
</mask>
<g mask="url(#mask9_63_51)">
<path opacity="0.4" d="M159.506 164.622L55.6133 218.216L57.0926 221.084L160.986 167.49L159.506 164.622Z" fill="#023246"/>
</g>
<path d="M220.503 230.565C240.89 230.565 257.417 214.115 257.417 193.824C257.417 173.532 240.89 157.083 220.503 157.083C200.115 157.083 183.588 173.532 183.588 193.824C183.588 214.115 200.115 230.565 220.503 230.565Z" fill="white"/>
<path d="M221.162 226.677C241.049 226.677 257.17 210.903 257.17 191.444C257.17 171.985 241.049 156.211 221.162 156.211C201.276 156.211 185.154 171.985 185.154 191.444C185.154 210.903 201.276 226.677 221.162 226.677Z" fill="#9AC3D8" stroke="#1E184C" stroke-miterlimit="10"/>
<path d="M221.551 208.431C231.686 208.431 239.902 200.214 239.902 190.078C239.902 179.942 231.686 171.725 221.551 171.725C211.415 171.725 203.199 179.942 203.199 190.078C203.199 200.214 211.415 208.431 221.551 208.431Z" fill="#111037"/>
<mask id="mask10_63_51" style="mask-type:luminance" maskUnits="userSpaceOnUse" x="203" y="171" width="37" height="38">
<path d="M221.551 208.431C231.686 208.431 239.902 200.214 239.902 190.078C239.902 179.942 231.686 171.725 221.551 171.725C211.415 171.725 203.199 179.942 203.199 190.078C203.199 200.214 211.415 208.431 221.551 208.431Z" fill="white"/>
</mask>
<g mask="url(#mask10_63_51)">
<path d="M225.674 208.23C235.809 208.23 244.025 200.014 244.025 189.878C244.025 179.742 235.809 171.525 225.674 171.525C215.538 171.525 207.322 179.742 207.322 189.878C207.322 200.014 215.538 208.23 225.674 208.23Z" fill="#1E184C"/>
</g>
<path d="M257.147 190.196L234.732 191.762L253.991 205.875C256.029 201.457 257.183 196.557 257.183 191.385C257.183 190.985 257.171 190.596 257.147 190.196Z" fill="#1E184C"/>
<mask id="mask11_63_51" style="mask-type:luminance" maskUnits="userSpaceOnUse" x="234" y="190" width="24" height="16">
<path d="M257.147 190.196L234.732 191.762L253.991 205.874C256.029 201.457 257.183 196.557 257.183 191.385C257.183 190.985 257.171 190.596 257.147 190.196Z" fill="white"/>
</mask>
<g mask="url(#mask11_63_51)">
<path opacity="0.4" d="M234.25 191.315L255.452 203.884L254.38 206.628L234.25 191.315Z" fill="#023246"/>
</g>
<path d="M244.261 171.725C244.261 174.022 242.4 175.883 240.103 175.883C237.806 175.883 235.945 174.022 235.945 171.725C235.945 169.428 237.806 167.567 240.103 167.567C242.4 167.567 244.261 169.428 244.261 171.725Z" fill="#111037"/>
<mask id="mask12_63_51" style="mask-type:luminance" maskUnits="userSpaceOnUse" x="235" y="167" width="10" height="9">
<path d="M244.261 171.725C244.261 174.022 242.4 175.883 240.103 175.883C237.806 175.883 235.945 174.022 235.945 171.725C235.945 169.428 237.806 167.567 240.103 167.567C242.4 167.567 244.261 169.428 244.261 171.725Z" fill="white"/>
</mask>
<g mask="url(#mask12_63_51)">
<path d="M241.047 175.836C243.343 175.836 245.205 173.974 245.205 171.678C245.205 169.381 243.343 167.519 241.047 167.519C238.75 167.519 236.889 169.381 236.889 171.678C236.889 173.974 238.75 175.836 241.047 175.836Z" fill="#1E184C"/>
</g>
<path d="M231.8 164.952C231.8 167.249 229.939 169.11 227.642 169.11C225.345 169.11 223.484 167.249 223.484 164.952C223.484 162.655 225.345 160.793 227.642 160.793C229.939 160.793 231.8 162.655 231.8 164.952Z" fill="#111037"/>
<mask id="mask13_63_51" style="mask-type:luminance" maskUnits="userSpaceOnUse" x="223" y="160" width="9" height="10">
<path d="M231.8 164.952C231.8 167.249 229.939 169.11 227.642 169.11C225.345 169.11 223.484 167.249 223.484 164.952C223.484 162.655 225.345 160.793 227.642 160.793C229.939 160.793 231.8 162.655 231.8 164.952Z" fill="white"/>
</mask>
<g mask="url(#mask13_63_51)">
<path d="M232.732 164.904C232.732 167.202 230.871 169.063 228.574 169.063C226.277 169.063 224.416 167.202 224.416 164.904C224.416 162.607 226.277 160.746 228.574 160.746C230.871 160.746 232.732 162.607 232.732 164.904Z" fill="#1E184C"/>
</g>
<path d="M217.464 164.952C217.464 167.249 215.603 169.11 213.306 169.11C211.009 169.11 209.148 167.249 209.148 164.952C209.148 162.655 211.009 160.793 213.306 160.793C215.603 160.793 217.464 162.655 217.464 164.952Z" fill="#111037"/>
<mask id="mask14_63_51" style="mask-type:luminance" maskUnits="userSpaceOnUse" x="209" y="160" width="9" height="10">
<path d="M217.464 164.952C217.464 167.249 215.603 169.11 213.306 169.11C211.009 169.11 209.148 167.249 209.148 164.952C209.148 162.655 211.009 160.793 213.306 160.793C215.603 160.793 217.464 162.655 217.464 164.952Z" fill="white"/>
</mask>
<g mask="url(#mask14_63_51)">
<path d="M214.25 169.063C216.546 169.063 218.408 167.201 218.408 164.904C218.408 162.608 216.546 160.746 214.25 160.746C211.953 160.746 210.092 162.608 210.092 164.904C210.092 167.201 211.953 169.063 214.25 169.063Z" fill="#1E184C"/>
</g>
<path d="M205.497 171.725C205.497 174.022 203.636 175.883 201.34 175.883C199.043 175.883 197.182 174.022 197.182 171.725C197.182 169.428 199.043 167.567 201.34 167.567C203.636 167.567 205.497 169.428 205.497 171.725Z" fill="#111037"/>
<mask id="mask15_63_51" style="mask-type:luminance" maskUnits="userSpaceOnUse" x="197" y="167" width="9" height="9">
<path d="M205.499 171.725C205.499 174.022 203.638 175.883 201.342 175.883C199.045 175.883 197.184 174.022 197.184 171.725C197.184 169.428 199.045 167.567 201.342 167.567C203.638 167.567 205.499 169.428 205.499 171.725Z" fill="white"/>
</mask>
<g mask="url(#mask15_63_51)">
<path d="M202.271 175.836C204.568 175.836 206.429 173.974 206.429 171.678C206.429 169.381 204.568 167.52 202.271 167.52C199.975 167.52 198.113 169.381 198.113 171.678C198.113 173.974 199.975 175.836 202.271 175.836Z" fill="#1E184C"/>
</g>
<path d="M198.431 183.988C198.431 186.285 196.57 188.146 194.273 188.146C191.976 188.146 190.115 186.285 190.115 183.988C190.115 181.691 191.976 179.829 194.273 179.829C196.57 179.829 198.431 181.691 198.431 183.988Z" fill="#111037"/>
<mask id="mask16_63_51" style="mask-type:luminance" maskUnits="userSpaceOnUse" x="190" y="179" width="9" height="10">
<path d="M198.433 183.988C198.433 186.285 196.572 188.146 194.275 188.146C191.978 188.146 190.117 186.285 190.117 183.988C190.117 181.691 191.978 179.829 194.275 179.829C196.572 179.829 198.433 181.691 198.433 183.988Z" fill="white"/>
</mask>
<g mask="url(#mask16_63_51)">
<path d="M199.363 183.952C199.363 186.249 197.502 188.111 195.205 188.111C192.908 188.111 191.047 186.249 191.047 183.952C191.047 181.655 192.908 179.794 195.205 179.794C197.502 179.794 199.363 181.655 199.363 183.952Z" fill="#1E184C"/>
</g>
<path d="M198.617 197.735C198.617 200.032 196.756 201.893 194.459 201.893C192.162 201.893 190.301 200.032 190.301 197.735C190.301 195.438 192.162 193.576 194.459 193.576C196.756 193.576 198.617 195.438 198.617 197.735Z" fill="#111037"/>
<mask id="mask17_63_51" style="mask-type:luminance" maskUnits="userSpaceOnUse" x="190" y="193" width="9" height="9">
<path d="M198.617 197.735C198.617 200.032 196.756 201.893 194.459 201.893C192.162 201.893 190.301 200.032 190.301 197.735C190.301 195.438 192.162 193.576 194.459 193.576C196.756 193.576 198.617 195.438 198.617 197.735Z" fill="white"/>
</mask>
<g mask="url(#mask17_63_51)">
<path d="M199.548 197.688C199.548 199.985 197.687 201.846 195.39 201.846C193.093 201.846 191.232 199.985 191.232 197.688C191.232 195.39 193.093 193.529 195.39 193.529C197.687 193.529 199.548 195.39 199.548 197.688Z" fill="#1E184C"/>
</g>
<path d="M205.687 209.903C205.687 212.2 203.826 214.061 201.529 214.061C199.232 214.061 197.371 212.2 197.371 209.903C197.371 207.606 199.232 205.745 201.529 205.745C203.826 205.745 205.687 207.606 205.687 209.903Z" fill="#111037"/>
<mask id="mask18_63_51" style="mask-type:luminance" maskUnits="userSpaceOnUse" x="197" y="205" width="9" height="10">
<path d="M205.687 209.903C205.687 212.2 203.826 214.061 201.529 214.061C199.232 214.061 197.371 212.2 197.371 209.903C197.371 207.606 199.232 205.745 201.529 205.745C203.826 205.745 205.687 207.606 205.687 209.903Z" fill="white"/>
</mask>
<g mask="url(#mask18_63_51)">
<path d="M206.617 209.868C206.617 212.165 204.756 214.026 202.459 214.026C200.162 214.026 198.301 212.165 198.301 209.868C198.301 207.571 200.162 205.709 202.459 205.709C204.756 205.709 206.617 207.571 206.617 209.868Z" fill="#1E184C"/>
</g>
<path d="M218.749 217.077C218.749 219.374 216.888 221.235 214.592 221.235C212.295 221.235 210.434 219.374 210.434 217.077C210.434 214.78 212.295 212.919 214.592 212.919C216.888 212.919 218.749 214.78 218.749 217.077Z" fill="#111037"/>
<mask id="mask19_63_51" style="mask-type:luminance" maskUnits="userSpaceOnUse" x="210" y="212" width="9" height="10">
<path d="M218.747 217.077C218.747 219.374 216.886 221.235 214.59 221.235C212.293 221.235 210.432 219.374 210.432 217.077C210.432 214.78 212.293 212.919 214.59 212.919C216.886 212.919 218.747 214.78 218.747 217.077Z" fill="white"/>
</mask>
<g mask="url(#mask19_63_51)">
<path d="M215.521 221.188C217.818 221.188 219.679 219.326 219.679 217.03C219.679 214.733 217.818 212.872 215.521 212.872C213.225 212.872 211.363 214.733 211.363 217.03C211.363 219.326 213.225 221.188 215.521 221.188Z" fill="#1E184C"/>
</g>
<path d="M233.072 216.877C233.072 219.174 231.211 221.035 228.914 221.035C226.617 221.035 224.756 219.174 224.756 216.877C224.756 214.579 226.617 212.718 228.914 212.718C231.211 212.718 233.072 214.579 233.072 216.877Z" fill="#111037"/>
<mask id="mask20_63_51" style="mask-type:luminance" maskUnits="userSpaceOnUse" x="224" y="212" width="10" height="10">
<path d="M233.072 216.877C233.072 219.174 231.211 221.035 228.914 221.035C226.617 221.035 224.756 219.174 224.756 216.877C224.756 214.58 226.617 212.718 228.914 212.718C231.211 212.718 233.072 214.58 233.072 216.877Z" fill="white"/>
</mask>
<g mask="url(#mask20_63_51)">
<path d="M234.001 216.83C234.001 219.127 232.14 220.988 229.843 220.988C227.547 220.988 225.686 219.127 225.686 216.83C225.686 214.532 227.547 212.671 229.843 212.671C232.14 212.671 234.001 214.532 234.001 216.83Z" fill="#1E184C"/>
</g>
<path d="M245.345 209.715C245.345 212.012 243.484 213.873 241.187 213.873C238.89 213.873 237.029 212.012 237.029 209.715C237.029 207.417 238.89 205.556 241.187 205.556C243.484 205.556 245.345 207.417 245.345 209.715Z" fill="#111037"/>
<mask id="mask21_63_51" style="mask-type:luminance" maskUnits="userSpaceOnUse" x="237" y="205" width="9" height="9">
<path d="M245.345 209.715C245.345 212.012 243.484 213.873 241.187 213.873C238.89 213.873 237.029 212.012 237.029 209.715C237.029 207.417 238.89 205.556 241.187 205.556C243.484 205.556 245.345 207.417 245.345 209.715Z" fill="white"/>
</mask>
<g mask="url(#mask21_63_51)">
<path d="M246.275 209.668C246.275 211.965 244.414 213.826 242.117 213.826C239.82 213.826 237.959 211.965 237.959 209.668C237.959 207.37 239.82 205.509 242.117 205.509C244.414 205.509 246.275 207.37 246.275 209.668Z" fill="#1E184C"/>
</g>
<path d="M168.877 31.8053H80.5359C77.2849 31.8053 74.6465 34.444 74.6465 37.6952V64.1996C74.6465 67.4508 77.2849 70.0894 80.5359 70.0894H120.831L130.007 96.5938L129.536 70.0894H168.877C172.128 70.0894 174.766 67.4508 174.766 64.1996V37.6952C174.766 34.444 172.128 31.8053 168.877 31.8053Z" fill="white" stroke="#023246" stroke-miterlimit="10" stroke-linecap="round" stroke-linejoin="round"/>
<path d="M104.1 46.1175V56.7963H101.499V52.4001H97.4526V56.7963H94.8513V46.1175H97.4526V50.3008H101.499V46.1175H104.1ZM113.98 52.4153C113.98 52.6587 113.964 52.9122 113.934 53.1759H108.047C108.087 53.7032 108.255 54.1089 108.549 54.3928C108.853 54.6666 109.223 54.8036 109.659 54.8036C110.308 54.8036 110.76 54.5297 111.013 53.9821H113.782C113.64 54.5399 113.381 55.0419 113.006 55.4881C112.641 55.9343 112.18 56.2842 111.622 56.5377C111.064 56.7913 110.44 56.918 109.751 56.918C108.919 56.918 108.179 56.7405 107.53 56.3856C106.881 56.0307 106.374 55.5236 106.009 54.8644C105.643 54.2052 105.461 53.4345 105.461 52.5522C105.461 51.6699 105.638 50.8991 105.993 50.24C106.358 49.5808 106.865 49.0737 107.515 48.7188C108.164 48.3638 108.909 48.1863 109.751 48.1863C110.572 48.1863 111.302 48.3587 111.941 48.7035C112.58 49.0483 113.077 49.5402 113.432 50.1791C113.797 50.818 113.98 51.5634 113.98 52.4153ZM111.318 51.7307C111.318 51.2845 111.165 50.9296 110.861 50.6659C110.557 50.4022 110.177 50.2704 109.72 50.2704C109.284 50.2704 108.914 50.3971 108.61 50.6507C108.316 50.9042 108.133 51.2642 108.062 51.7307H111.318ZM117.953 45.5394V56.7963H115.352V45.5394H117.953ZM122.439 45.5394V56.7963H119.838V45.5394H122.439ZM128.188 56.918C127.357 56.918 126.606 56.7405 125.937 56.3856C125.278 56.0307 124.756 55.5236 124.37 54.8644C123.995 54.2052 123.807 53.4345 123.807 52.5522C123.807 51.68 124 50.9144 124.385 50.2552C124.771 49.5858 125.298 49.0737 125.967 48.7188C126.637 48.3638 127.387 48.1863 128.219 48.1863C129.05 48.1863 129.801 48.3638 130.47 48.7188C131.14 49.0737 131.667 49.5858 132.052 50.2552C132.438 50.9144 132.63 51.68 132.63 52.5522C132.63 53.4243 132.433 54.1951 132.037 54.8644C131.652 55.5236 131.119 56.0307 130.44 56.3856C129.77 56.7405 129.02 56.918 128.188 56.918ZM128.188 54.6666C128.685 54.6666 129.106 54.4841 129.451 54.119C129.806 53.7539 129.983 53.2316 129.983 52.5522C129.983 51.8727 129.811 51.3504 129.466 50.9853C129.132 50.6203 128.716 50.4377 128.219 50.4377C127.712 50.4377 127.291 50.6203 126.956 50.9853C126.622 51.3403 126.454 51.8626 126.454 52.5522C126.454 53.2316 126.617 53.7539 126.941 54.119C127.276 54.4841 127.692 54.6666 128.188 54.6666Z" fill="#023246"/>
<path d="M137.433 45.7372L137.129 53.0237H134.923L134.619 45.7372H137.433ZM136.064 56.918C135.608 56.918 135.232 56.7862 134.938 56.5225C134.654 56.2487 134.512 55.914 134.512 55.5185C134.512 55.1129 134.654 54.7731 134.938 54.4993C135.232 54.2255 135.608 54.0886 136.064 54.0886C136.51 54.0886 136.875 54.2255 137.159 54.4993C137.453 54.7731 137.6 55.1129 137.6 55.5185C137.6 55.914 137.453 56.2487 137.159 56.5225C136.875 56.7862 136.51 56.918 136.064 56.918Z" fill="#287094"/>
<path d="M302.673 28.8957H257.325C254.074 28.8957 251.436 31.5344 251.436 34.7856V61.8789C251.436 65.1301 254.074 67.7688 257.325 67.7688H281.165L295.017 83.6714L293.392 67.7688H302.673C305.924 67.7688 308.563 65.1301 308.563 61.8789V34.7856C308.563 31.5344 305.924 28.8957 302.673 28.8957Z" fill="white" stroke="#023246" stroke-miterlimit="10" stroke-linecap="round" stroke-linejoin="round"/>
<path d="M288.821 38.6729C292.696 38.6729 295.405 40.7697 295.405 44.6452C295.405 48.2498 292.814 50.1934 289.151 50.2288L289.009 52.3256H284.828L284.686 47.1307H286.359C288.986 47.1307 290.8 46.6595 290.764 44.6216C290.764 43.3612 289.987 42.5837 288.75 42.5837C287.384 42.5837 286.63 43.4201 286.63 44.7041H282.142C282.072 41.3586 284.416 38.6729 288.821 38.6729ZM286.983 59.5701C285.287 59.5701 284.133 58.4275 284.133 57.0021C284.133 55.5179 285.275 54.3752 286.983 54.3752C288.656 54.3752 289.798 55.5179 289.798 57.0021C289.798 58.4275 288.656 59.5701 286.983 59.5701Z" fill="#287094"/>
<path d="M271.588 59.5701C267.713 59.5701 265.004 57.4733 265.004 53.5978C265.004 49.9932 267.595 48.0495 271.258 48.0142L271.4 45.9174H275.581L275.723 51.1122H274.05C271.423 51.1122 269.609 51.5834 269.645 53.6213C269.645 54.8818 270.422 55.6592 271.659 55.6592C273.025 55.6592 273.779 54.8229 273.779 53.5389H278.267C278.349 56.8961 276.005 59.5701 271.588 59.5701ZM273.438 38.6729C275.134 38.6729 276.288 39.8155 276.288 41.2408C276.288 42.7251 275.145 43.8677 273.438 43.8677C271.765 43.8677 270.622 42.7251 270.622 41.2408C270.611 39.8155 271.765 38.6729 273.438 38.6729Z" fill="#287094"/>
<path d="M415.079 50.6882H332.239C329.247 50.6882 326.82 53.1149 326.82 56.1069V99.4328C326.82 102.425 329.247 104.851 332.239 104.851H368.176L353.806 136.268L380.508 104.851H415.079C418.071 104.851 420.497 102.425 420.497 99.4328V56.1069C420.497 53.1149 418.071 50.6882 415.079 50.6882Z" fill="white" stroke="#023246" stroke-miterlimit="10" stroke-linecap="round" stroke-linejoin="round"/>
<path d="M341.971 70.6955C341.971 69.9776 342.126 69.3391 342.437 68.78C342.747 68.214 343.179 67.7757 343.731 67.4651C344.29 67.1476 344.921 66.9888 345.625 66.9888C346.488 66.9888 347.227 67.2166 347.841 67.6722C348.456 68.1277 348.866 68.749 349.073 69.5359H347.127C346.982 69.2322 346.775 69.0009 346.506 68.8422C346.243 68.6834 345.943 68.604 345.605 68.604C345.059 68.604 344.618 68.7938 344.279 69.1735C343.941 69.5531 343.772 70.0605 343.772 70.6955C343.772 71.3305 343.941 71.8379 344.279 72.2175C344.618 72.5971 345.059 72.787 345.605 72.787C345.943 72.787 346.243 72.7076 346.506 72.5488C346.775 72.3901 346.982 72.1588 347.127 71.8551H349.073C348.866 72.642 348.456 73.2632 347.841 73.7188C347.227 74.1675 346.488 74.3918 345.625 74.3918C344.921 74.3918 344.29 74.2365 343.731 73.9259C343.179 73.6084 342.747 73.17 342.437 72.6109C342.126 72.0518 341.971 71.4134 341.971 70.6955ZM349.805 71.441C349.805 70.8473 349.916 70.3262 350.137 69.8775C350.365 69.4289 350.672 69.0837 351.058 68.8422C351.445 68.6006 351.876 68.4798 352.353 68.4798C352.76 68.4798 353.115 68.5626 353.419 68.7283C353.73 68.8939 353.968 69.1114 354.133 69.3806V68.5626H355.904V74.34H354.133V73.5221C353.961 73.7913 353.719 74.0087 353.409 74.1744C353.105 74.34 352.749 74.4229 352.342 74.4229C351.873 74.4229 351.445 74.3021 351.058 74.0605C350.672 73.812 350.365 73.4634 350.137 73.0147C349.916 72.5592 349.805 72.0346 349.805 71.441ZM354.133 71.4513C354.133 71.0096 354.009 70.661 353.761 70.4056C353.519 70.1502 353.222 70.0225 352.87 70.0225C352.518 70.0225 352.218 70.1502 351.969 70.4056C351.728 70.6541 351.607 70.9992 351.607 71.441C351.607 71.8827 351.728 72.2348 351.969 72.4971C352.218 72.7524 352.518 72.8801 352.87 72.8801C353.222 72.8801 353.519 72.7524 353.761 72.4971C354.009 72.2417 354.133 71.8931 354.133 71.4513ZM360.705 68.5005C361.382 68.5005 361.92 68.7214 362.32 69.1631C362.727 69.598 362.931 70.1985 362.931 70.9647V74.34H361.171V71.2028C361.171 70.8163 361.071 70.516 360.871 70.302C360.671 70.0881 360.401 69.9811 360.063 69.9811C359.725 69.9811 359.456 70.0881 359.256 70.302C359.055 70.516 358.955 70.8163 358.955 71.2028V74.34H357.185V68.5626H358.955V69.3288C359.135 69.0734 359.376 68.8732 359.68 68.7283C359.984 68.5764 360.325 68.5005 360.705 68.5005ZM370.32 67.0717V74.34H368.55V67.0717H370.32Z" fill="#023246"/>
<path d="M346.195 84.0904C346.858 84.0904 347.389 84.3113 347.79 84.753C348.19 85.1879 348.39 85.7884 348.39 86.5546V89.9299H346.63V86.7927C346.63 86.4062 346.53 86.1059 346.33 85.8919C346.13 85.678 345.86 85.571 345.522 85.571C345.184 85.571 344.915 85.678 344.715 85.8919C344.514 86.1059 344.414 86.4062 344.414 86.7927V89.9299H342.644V82.2681H344.414V84.929C344.594 84.6737 344.839 84.47 345.15 84.3182C345.46 84.1663 345.809 84.0904 346.195 84.0904ZM355.067 86.948C355.067 87.1137 355.056 87.2863 355.036 87.4657H351.029C351.056 87.8247 351.17 88.1008 351.37 88.294C351.577 88.4804 351.829 88.5736 352.126 88.5736C352.568 88.5736 352.875 88.3872 353.048 88.0145H354.932C354.835 88.3941 354.659 88.7358 354.404 89.0395C354.156 89.3432 353.841 89.5814 353.462 89.7539C353.082 89.9265 352.658 90.0128 352.188 90.0128C351.622 90.0128 351.118 89.892 350.677 89.6504C350.235 89.4088 349.89 89.0637 349.641 88.615C349.393 88.1663 349.269 87.6417 349.269 87.0412C349.269 86.4407 349.389 85.9161 349.631 85.4674C349.879 85.0188 350.225 84.6737 350.666 84.4321C351.108 84.1905 351.615 84.0697 352.188 84.0697C352.747 84.0697 353.244 84.187 353.679 84.4217C354.114 84.6564 354.452 84.9912 354.694 85.426C354.942 85.8609 355.067 86.3682 355.067 86.948ZM353.255 86.4821C353.255 86.1784 353.151 85.9368 352.944 85.7574C352.737 85.5779 352.478 85.4882 352.168 85.4882C351.871 85.4882 351.619 85.5744 351.412 85.747C351.212 85.9196 351.087 86.1646 351.039 86.4821H353.255ZM357.771 82.2681V89.9299H356.001V82.2681H357.771ZM360.825 84.9705C360.997 84.7013 361.235 84.4838 361.539 84.3182C361.843 84.1525 362.198 84.0697 362.606 84.0697C363.082 84.0697 363.513 84.1905 363.9 84.4321C364.286 84.6737 364.59 85.0188 364.811 85.4674C365.039 85.9161 365.153 86.4372 365.153 87.0309C365.153 87.6245 365.039 88.1491 364.811 88.6046C364.59 89.0533 364.286 89.4019 363.9 89.6504C363.513 89.892 363.082 90.0128 362.606 90.0128C362.205 90.0128 361.85 89.9299 361.539 89.7643C361.235 89.5986 360.997 89.3846 360.825 89.1223V92.684H359.054V84.1525H360.825V84.9705ZM363.351 87.0309C363.351 86.5891 363.227 86.244 362.978 85.9955C362.737 85.7401 362.436 85.6124 362.078 85.6124C361.726 85.6124 361.425 85.7401 361.177 85.9955C360.935 86.2509 360.814 86.5995 360.814 87.0412C360.814 87.483 360.935 87.8316 361.177 88.087C361.425 88.3423 361.726 88.47 362.078 88.47C362.43 88.47 362.73 88.3423 362.978 88.087C363.227 87.8247 363.351 87.4726 363.351 87.0309ZM374.177 84.1525L370.553 92.6737H368.648L369.974 89.7332L367.623 84.1525H369.601L370.937 87.766L372.262 84.1525H374.177ZM377.447 90.0128C376.881 90.0128 376.371 89.892 375.915 89.6504C375.466 89.4088 375.111 89.0637 374.849 88.615C374.593 88.1663 374.465 87.6417 374.465 87.0412C374.465 86.4476 374.597 85.9265 374.859 85.4778C375.121 85.0222 375.48 84.6737 375.936 84.4321C376.391 84.1905 376.902 84.0697 377.468 84.0697C378.034 84.0697 378.545 84.1905 379 84.4321C379.456 84.6737 379.815 85.0222 380.077 85.4778C380.34 85.9265 380.471 86.4476 380.471 87.0412C380.471 87.6348 380.336 88.1594 380.067 88.615C379.805 89.0637 379.442 89.4088 378.98 89.6504C378.524 89.892 378.013 90.0128 377.447 90.0128ZM377.447 88.4804C377.786 88.4804 378.072 88.3562 378.307 88.1077C378.548 87.8592 378.669 87.5037 378.669 87.0412C378.669 86.5788 378.552 86.2233 378.317 85.9748C378.089 85.7263 377.806 85.602 377.468 85.602C377.123 85.602 376.837 85.7263 376.609 85.9748C376.381 86.2164 376.267 86.5718 376.267 87.0412C376.267 87.5037 376.377 87.8592 376.598 88.1077C376.826 88.3562 377.109 88.4804 377.447 88.4804ZM387.115 84.1525V89.9299H385.344V89.143C385.165 89.3984 384.92 89.6055 384.609 89.7643C384.306 89.9161 383.967 89.9921 383.595 89.9921C383.153 89.9921 382.763 89.8954 382.425 89.7021C382.086 89.502 381.824 89.2155 381.638 88.8428C381.451 88.47 381.358 88.0317 381.358 87.5278V84.1525H383.118V87.2897C383.118 87.6763 383.218 87.9765 383.419 88.1905C383.619 88.4045 383.888 88.5115 384.226 88.5115C384.571 88.5115 384.844 88.4045 385.044 88.1905C385.244 87.9765 385.344 87.6763 385.344 87.2897V84.1525H387.115ZM390.509 82.2578C391.248 82.2578 391.838 82.451 392.28 82.8376C392.728 83.2241 392.953 83.7694 392.953 84.4735C392.953 85.1223 392.739 85.6297 392.311 85.9955C391.89 86.3544 391.331 86.5373 390.633 86.5442L390.582 87.3208H389.029L388.977 85.395H389.598C390.13 85.395 390.533 85.3294 390.809 85.1982C391.092 85.0671 391.234 84.829 391.234 84.4838C391.234 84.2422 391.168 84.0524 391.037 83.9144C390.906 83.7763 390.723 83.7073 390.488 83.7073C390.24 83.7073 390.047 83.7798 389.909 83.9247C389.771 84.0628 389.702 84.2526 389.702 84.4942H388.035C388.021 84.0731 388.107 83.6935 388.293 83.3553C388.487 83.017 388.77 82.7513 389.142 82.558C389.522 82.3579 389.978 82.2578 390.509 82.2578ZM389.826 90.0128C389.515 90.0128 389.26 89.923 389.06 89.7436C388.866 89.5572 388.77 89.3294 388.77 89.0602C388.77 88.7841 388.866 88.5529 389.06 88.3665C389.26 88.1801 389.515 88.087 389.826 88.087C390.13 88.087 390.378 88.1801 390.571 88.3665C390.771 88.5529 390.872 88.7841 390.872 89.0602C390.872 89.3294 390.771 89.5572 390.571 89.7436C390.378 89.923 390.13 90.0128 389.826 90.0128Z" fill="#023246"/>
<path d="M203.424 6.27863H173.977C170.726 6.27863 168.088 8.91729 168.088 12.1685V47.1189C168.088 50.3701 170.726 53.0088 173.977 53.0088H186.946L199.408 67.7335L197.252 53.0559L203.436 53.0088C206.687 53.0088 209.325 50.3701 209.325 47.1189V12.1685C209.314 8.91729 206.687 6.27863 203.424 6.27863Z" fill="white" stroke="#023246" stroke-miterlimit="10"/>
<path d="M184.876 29.9582C185.849 29.9582 186.63 30.2827 187.218 30.9318C187.807 31.5707 188.101 32.453 188.101 33.5787V38.5378H185.515V33.9285C185.515 33.3606 185.368 32.9195 185.073 32.6051C184.779 32.2907 184.384 32.1335 183.887 32.1335C183.39 32.1335 182.994 32.2907 182.7 32.6051C182.406 32.9195 182.259 33.3606 182.259 33.9285V38.5378H179.658V27.2809H182.259V31.1904C182.523 30.8152 182.883 30.516 183.339 30.2929C183.796 30.0698 184.308 29.9582 184.876 29.9582ZM191.216 29.1672C190.76 29.1672 190.385 29.0354 190.091 28.7717C189.807 28.4979 189.665 28.1632 189.665 27.7677C189.665 27.362 189.807 27.0274 190.091 26.7637C190.385 26.4899 190.76 26.353 191.216 26.353C191.663 26.353 192.028 26.4899 192.312 26.7637C192.606 27.0274 192.753 27.362 192.753 27.7677C192.753 28.1632 192.606 28.4979 192.312 28.7717C192.028 29.0354 191.663 29.1672 191.216 29.1672ZM192.51 30.0495V38.5378H189.908V30.0495H192.51Z" fill="#287094"/>
</svg>
