<svg width="10" height="6" viewBox="0 0 10 6" fill="none" xmlns="http://www.w3.org/2000/svg">
<path d="M0.84313 0.16124C0.795422 0.109734 0.739302 0.069469 0.677974 0.0427423C0.616645 0.0160155 0.55131 0.00335026 0.485697 0.00547075C0.420085 0.00759125 0.35548 0.0244555 0.295573 0.0551004C0.235665 0.0857458 0.181627 0.129571 0.136544 0.184075C0.0914618 0.23858 0.0562174 0.302695 0.0328233 0.372761C0.00942931 0.442826 -0.0016562 0.517469 0.000199884 0.592429C0.00205597 0.667389 0.0168172 0.741198 0.0436408 0.80964C0.0704645 0.878083 0.108825 0.939819 0.156533 0.991324L4.65389 5.84395C4.74667 5.94416 4.86951 6 4.99719 6C5.12487 6 5.24771 5.94416 5.34049 5.84395L9.83835 0.991324C9.8871 0.940159 9.92647 0.878437 9.95417 0.809742C9.98186 0.741048 9.99733 0.666751 9.99969 0.591168C10.002 0.515584 9.99122 0.44022 9.96786 0.369453C9.9445 0.298687 9.90907 0.233928 9.86361 0.178939C9.81816 0.12395 9.7636 0.0798264 9.7031 0.0491314C9.6426 0.0184364 9.57736 0.00178194 9.51117 0.000135422C9.44499 -0.00151157 9.37918 0.0118818 9.31756 0.0395384C9.25595 0.0671949 9.19976 0.108563 9.15225 0.16124L4.99719 4.64392L0.84313 0.16124Z" fill="#023246"/>
</svg>
