<svg width="71" height="28" viewBox="0 0 71 28" fill="none" xmlns="http://www.w3.org/2000/svg">
<path d="M-8.01086e-05 18.0876H27.7505V22.8508H-8.01086e-05V18.0876Z" fill="#287094"/>
<path d="M56.3295 18.0876V7.13028C56.3295 6.52764 56.8286 6.07617 57.4312 6.07617H57.5078C57.5286 6.07617 57.5472 6.08032 57.5679 6.08239L57.572 6.07617H66.6365C67.9474 6.07617 68.4569 6.95425 68.9311 7.65216C69.9355 9.13288 70.9627 11.6739 70.9814 14.3102V14.3371L71 22.8508H28.5789V18.0876H56.3295Z" fill="#287094"/>
<path d="M57.158 7.11182V12.1338C57.158 12.1338 60.7863 13.9542 70.0186 15.1864C70.0186 15.1864 69.9958 9.18275 66.966 7.11182H57.158Z" fill="white"/>
<path d="M56.899 22.948C56.899 24.8884 58.4729 26.4644 60.4134 26.4644C62.3538 26.4644 63.9277 24.8905 63.9277 22.948C63.9277 21.0054 62.3538 19.4336 60.4134 19.4336C58.4729 19.4336 56.899 21.0075 56.899 22.948Z" fill="#287094" stroke="white" stroke-width="1.35238" stroke-miterlimit="10"/>
<path d="M58.1312 22.9481C58.1312 24.2093 59.1543 25.2323 60.4155 25.2323C61.6767 25.2323 62.6997 24.2093 62.6997 22.9481C62.6997 21.6869 61.6767 20.6638 60.4155 20.6638C59.1543 20.6638 58.1312 21.6869 58.1312 22.9481Z" fill="white"/>
<path d="M59.7488 22.9481C59.7488 23.3167 60.0471 23.6149 60.4157 23.6149C60.7843 23.6149 61.0825 23.3167 61.0825 22.9481C61.0825 22.5795 60.7843 22.2812 60.4157 22.2812C60.0471 22.2812 59.7488 22.5795 59.7488 22.9481Z" fill="white" stroke="#287094" stroke-width="1.35238" stroke-miterlimit="10"/>
<path d="M30.5816 22.948C30.5816 24.8884 32.1555 26.4644 34.096 26.4644C36.0364 26.4644 37.6104 24.8905 37.6104 22.948C37.6104 21.0054 36.0364 19.4336 34.096 19.4336C32.1555 19.4336 30.5816 21.0075 30.5816 22.948Z" fill="#287094" stroke="white" stroke-width="1.35238" stroke-miterlimit="10"/>
<path d="M31.8138 22.9481C31.8138 24.2093 32.8369 25.2323 34.0981 25.2323C35.3593 25.2323 36.3823 24.2093 36.3823 22.9481C36.3823 21.6869 35.3593 20.6638 34.0981 20.6638C32.8369 20.6638 31.8138 21.6869 31.8138 22.9481Z" fill="white"/>
<path d="M33.429 22.9481C33.429 23.3167 33.7272 23.6149 34.0959 23.6149C34.4645 23.6149 34.7627 23.3167 34.7627 22.9481C34.7627 22.5795 34.4645 22.2812 34.0959 22.2812C33.7272 22.2812 33.429 22.5795 33.429 22.9481Z" fill="white" stroke="#287094" stroke-width="1.35238" stroke-miterlimit="10"/>
<path d="M38.8486 22.948C38.8486 24.8884 40.4225 26.4644 42.365 26.4644C44.3076 26.4644 45.8794 24.8905 45.8794 22.948C45.8794 21.0054 44.3055 19.4336 42.365 19.4336C40.4245 19.4336 38.8486 21.0075 38.8486 22.948Z" fill="#287094" stroke="white" stroke-width="1.35238" stroke-miterlimit="10"/>
<path d="M40.0809 22.9481C40.0809 24.2093 41.104 25.2323 42.3652 25.2323C43.6264 25.2323 44.6494 24.2093 44.6494 22.9481C44.6494 21.6869 43.6264 20.6638 42.3652 20.6638C41.104 20.6638 40.0809 21.6869 40.0809 22.9481Z" fill="white"/>
<path d="M41.6985 22.9481C41.6985 23.3167 41.9968 23.6149 42.3654 23.6149C42.734 23.6149 43.0322 23.3167 43.0322 22.9481C43.0322 22.5795 42.734 22.2812 42.3654 22.2812C41.9968 22.2812 41.6985 22.5795 41.6985 22.9481Z" fill="white" stroke="#287094" stroke-width="1.35238" stroke-miterlimit="10"/>
<path d="M1.86174 22.948C1.86174 24.8884 3.43565 26.4644 5.37819 26.4644C7.32073 26.4644 8.89258 24.8905 8.89258 22.948C8.89258 21.0054 7.31866 19.4336 5.37819 19.4336C3.43772 19.4336 1.86174 21.0075 1.86174 22.948Z" fill="#287094" stroke="white" stroke-width="1.35238" stroke-miterlimit="10"/>
<path d="M3.09411 22.9481C3.09411 24.2093 4.11715 25.2323 5.37835 25.2323C6.63955 25.2323 7.6626 24.2093 7.6626 22.9481C7.6626 21.6869 6.63955 20.6638 5.37835 20.6638C4.11715 20.6638 3.09411 21.6869 3.09411 22.9481Z" fill="white"/>
<path d="M4.70928 22.9481C4.70928 23.3167 5.00749 23.6149 5.37612 23.6149C5.74475 23.6149 6.04297 23.3167 6.04297 22.9481C6.04297 22.5795 5.74475 22.2812 5.37612 22.2812C5.00749 22.2812 4.70928 22.5795 4.70928 22.9481Z" fill="white" stroke="#287094" stroke-width="1.35238" stroke-miterlimit="10"/>
<path d="M10.1288 22.948C10.1288 24.8884 11.7028 26.4644 13.6453 26.4644C15.5878 26.4644 17.1597 24.8905 17.1597 22.948C17.1597 21.0054 15.5858 19.4336 13.6453 19.4336C11.7048 19.4336 10.1288 21.0075 10.1288 22.948Z" fill="#287094" stroke="white" stroke-width="1.35238" stroke-miterlimit="10"/>
<path d="M11.3612 22.9481C11.3612 24.2093 12.3842 25.2323 13.6454 25.2323C14.9067 25.2323 15.9297 24.2093 15.9297 22.9481C15.9297 21.6869 14.9067 20.6638 13.6454 20.6638C12.3842 20.6638 11.3612 21.6869 11.3612 22.9481Z" fill="white"/>
<path d="M12.9788 22.9481C12.9788 23.3167 13.277 23.6149 13.6457 23.6149C14.0143 23.6149 14.3125 23.3167 14.3125 22.9481C14.3125 22.5795 14.0143 22.2812 13.6457 22.2812C13.277 22.2812 12.9788 22.5795 12.9788 22.9481Z" fill="white" stroke="#287094" stroke-width="1.35238" stroke-miterlimit="10"/>
<path d="M68.8669 21.1941C68.6142 21.1941 68.4071 21.3556 68.4071 21.6083C68.4071 21.8609 68.6122 22.0225 68.8669 22.0225H69.7512C70.0038 22.0225 70.2109 21.8609 70.2109 21.6083C70.2109 21.3556 70.0059 21.1941 69.7512 21.1941H68.8669Z" fill="white"/>
<path d="M25.4187 21.1941C25.166 21.1941 24.9589 21.3556 24.9589 21.6083C24.9589 21.8609 25.1639 22.0225 25.4187 22.0225H26.303C26.5556 22.0225 26.7627 21.8609 26.7627 21.6083C26.7627 21.3556 26.5577 21.1941 26.303 21.1941H25.4187Z" fill="white"/>
<path d="M1.11835 18.709C0.865699 18.709 0.660684 18.8705 0.660684 19.1232C0.660684 19.3758 0.865699 19.5374 1.11835 19.5374H2.00265C2.2553 19.5374 2.4624 19.3758 2.4624 19.1232C2.4624 18.8705 2.25737 18.709 2.00265 18.709H1.11835Z" fill="white"/>
<path d="M61.0925 6.90454H61.9209V13.9457H61.0925V6.90454Z" fill="#287094"/>
<path d="M1.00858 6.07617H54.0432C54.5527 6.07617 54.8799 6.46344 54.8799 6.97289V17.0521H3.05176e-05V6.97289C3.05176e-05 6.46551 0.405933 6.07617 1.00858 6.07617Z" fill="#287094"/>
<path d="M67.5166 5.45493C67.5166 5.45493 66.4045 -0.024767 56.3087 8.42732e-05C56.3087 8.42732e-05 56.025 3.99492 56.464 4.74667C56.464 4.74667 56.8016 5.45493 57.2137 5.45493H67.5166Z" fill="#287094"/>
<path d="M48.9363 7.73291H41.978C41.4416 7.73291 41.0046 8.16988 41.0046 8.70625V8.83051C41.0046 9.36688 41.4416 9.80385 41.978 9.80385H48.9363C49.4727 9.80385 49.9097 9.36688 49.9097 8.83051V8.70625C49.9097 8.16988 49.4727 7.73291 48.9363 7.73291Z" fill="white"/>
<path d="M29.9667 7.73291H36.9251C37.4627 7.73291 37.8984 8.16869 37.8984 8.70625V8.83051C37.8984 9.36807 37.4627 9.80385 36.9251 9.80385H29.9667C29.4292 9.80385 28.9934 9.36807 28.9934 8.83051V8.70625C28.9934 8.16869 29.4292 7.73291 29.9667 7.73291Z" fill="white"/>
<path d="M17.955 7.73291H24.9134C25.4509 7.73291 25.8867 8.16869 25.8867 8.70625V8.83051C25.8867 9.36807 25.4509 9.80385 24.9134 9.80385H17.955C17.4175 9.80385 16.9817 9.36807 16.9817 8.83051V8.70625C16.9817 8.16869 17.4175 7.73291 17.955 7.73291Z" fill="white"/>
<path d="M5.9438 7.73291H12.9021C13.4397 7.73291 13.8755 8.16869 13.8755 8.70625V8.83051C13.8755 9.36807 13.4397 9.80385 12.9021 9.80385H5.9438C5.40624 9.80385 4.97046 9.36807 4.97046 8.83051V8.70625C4.97046 8.16869 5.40624 7.73291 5.9438 7.73291Z" fill="white"/>
</svg>
