<svg width="22" height="36" viewBox="0 0 22 36" fill="none" xmlns="http://www.w3.org/2000/svg">
<path fill-rule="evenodd" clip-rule="evenodd" d="M8.1783 2.83938C10.078 1.02165 12.6547 0.000304151 15.3415 0H20.5519C20.9357 0 21.3039 0.145879 21.5753 0.405544C21.8467 0.66521 21.9992 1.01739 21.9992 1.38462V8.03077C21.9992 8.39799 21.8467 8.75017 21.5753 9.00984C21.3039 9.26951 20.9357 9.41538 20.5519 9.41538H15.3415C15.3035 9.41538 15.2659 9.42255 15.2308 9.43646C15.1957 9.45038 15.1637 9.47078 15.1369 9.49649C15.11 9.52221 15.0887 9.55274 15.0741 9.58633C15.0596 9.61993 15.0521 9.65594 15.0521 9.69231V13.2923H20.5519C20.7719 13.2922 20.9891 13.3401 21.1869 13.4323C21.3846 13.5245 21.5578 13.6587 21.6933 13.8246C21.8287 13.9905 21.9229 14.1837 21.9685 14.3896C22.0142 14.5956 22.0101 14.8087 21.9567 15.0129L20.22 21.6591C20.1416 21.9587 19.9608 22.2247 19.7062 22.4147C19.4516 22.6047 19.138 22.7079 18.8151 22.7077H15.0521V34.6154C15.0521 34.9826 14.8996 35.3348 14.6282 35.5945C14.3567 35.8541 13.9886 36 13.6048 36H6.65765C6.2738 36 5.90567 35.8541 5.63424 35.5945C5.36282 35.3348 5.21034 34.9826 5.21034 34.6154V22.7077H1.44732C1.06346 22.7077 0.695333 22.5618 0.423909 22.3021C0.152484 22.0425 0 21.6903 0 21.3231V14.6769C0 14.4951 0.0374358 14.315 0.11017 14.1471C0.182905 13.9791 0.289513 13.8264 0.423909 13.6979C0.558304 13.5693 0.717855 13.4673 0.893452 13.3977C1.06905 13.3281 1.25725 13.2923 1.44732 13.2923H5.21034V9.69231C5.21065 7.12186 6.27825 4.65681 8.1783 2.83938ZM15.3415 2.76923C13.4223 2.76923 11.5816 3.49862 10.2245 4.79695C8.86739 6.09528 8.10497 7.85619 8.10497 9.69231V14.6769C8.10497 15.0441 7.95248 15.3963 7.68106 15.656C7.40963 15.9157 7.0415 16.0615 6.65765 16.0615H2.89463V19.9385H6.65765C7.0415 19.9385 7.40963 20.0843 7.68106 20.344C7.95248 20.6037 8.10497 20.9559 8.10497 21.3231V33.2308H12.1574V21.3231C12.1574 20.9559 12.3099 20.6037 12.5814 20.344C12.8528 20.0843 13.2209 19.9385 13.6048 19.9385H17.6843L18.6974 16.0615H13.6048C13.2209 16.0615 12.8528 15.9157 12.5814 15.656C12.3099 15.3963 12.1574 15.0441 12.1574 14.6769V9.69231C12.1574 8.88442 12.4929 8.10962 13.09 7.53835C13.6872 6.96709 14.4971 6.64615 15.3415 6.64615H19.1046V2.76923H15.3415Z" fill="white"/>
</svg>
