<svg width="70" height="32" viewBox="0 0 70 32" fill="none" xmlns="http://www.w3.org/2000/svg">
<path d="M48.1142 17.8886V1.79502C48.1142 0.897508 48.8945 0 49.792 0H49.9062C49.937 0 49.9648 0.00925236 49.9956 0.00925236L50.0018 0H63.5015C65.4538 0 66.2125 1.41875 66.9188 2.45814C68.4178 4.66338 69.9445 8.50634 69.9722 12.4295V12.5405L70 25.2877H-7.62939e-06V17.8855H48.1142V17.8886Z" fill="#287094"/>
<path d="M49.3479 1.54199V9.24643C49.3479 9.24643 54.77 11.8434 68.5195 13.6785C68.5195 13.6785 68.5041 4.93466 63.9919 1.54199H49.3479Z" fill="white"/>
<path d="M49.0023 25.3525C49.0023 28.2425 51.3463 30.5865 54.2363 30.5865C57.1262 30.5865 59.4702 28.2425 59.4702 25.3525C59.4702 22.4626 57.1262 20.1155 54.2363 20.1155C51.3463 20.1155 49.0023 22.4595 49.0023 25.3525Z" fill="#287094" stroke="white" stroke-width="2" stroke-miterlimit="10"/>
<path d="M50.8343 25.3524C50.8343 27.2307 52.358 28.7543 54.2363 28.7543C56.1146 28.7543 57.6382 27.2307 57.6382 25.3524C57.6382 23.4741 56.1146 21.9504 54.2363 21.9504C52.358 21.9504 50.8343 23.4741 50.8343 25.3524Z" fill="white"/>
<path d="M53.2432 25.3525C53.2432 25.9015 53.6874 26.3456 54.2364 26.3456C54.7854 26.3456 55.2295 25.9015 55.2295 25.3525C55.2295 24.8035 54.7854 24.3594 54.2364 24.3594C53.6874 24.3594 53.2432 24.8035 53.2432 25.3525Z" fill="white" stroke="#287094" stroke-width="2" stroke-miterlimit="10"/>
<path d="M5.69061 25.3525C5.69061 28.2425 8.03464 30.5865 10.9277 30.5865C13.8207 30.5865 16.1616 28.2425 16.1616 25.3525C16.1616 22.4626 13.8176 20.1155 10.9277 20.1155C8.03772 20.1155 5.69061 22.4595 5.69061 25.3525Z" fill="#287094" stroke="white" stroke-width="2" stroke-miterlimit="10"/>
<path d="M7.52575 25.3524C7.52575 27.2307 9.04936 28.7543 10.9277 28.7543C12.806 28.7543 14.3296 27.2307 14.3296 25.3524C14.3296 23.4741 12.806 21.9504 10.9277 21.9504C9.04936 21.9504 7.52575 23.4741 7.52575 25.3524Z" fill="white"/>
<path d="M9.93464 25.3525C9.93464 25.9015 10.3788 26.3456 10.9278 26.3456C11.4768 26.3456 11.9209 25.9015 11.9209 25.3525C11.9209 24.8035 11.4768 24.3594 10.9278 24.3594C10.3788 24.3594 9.93464 24.8035 9.93464 25.3525Z" fill="white" stroke="#287094" stroke-width="2" stroke-miterlimit="10"/>
<path d="M18.006 25.3525C18.006 28.2425 20.3501 30.5865 23.2431 30.5865C26.1361 30.5865 28.4771 28.2425 28.4771 25.3525C28.4771 22.4626 26.133 20.1155 23.2431 20.1155C20.3532 20.1155 18.006 22.4595 18.006 25.3525Z" fill="#287094" stroke="white" stroke-width="2" stroke-miterlimit="10"/>
<path d="M19.8412 25.3524C19.8412 27.2307 21.3648 28.7543 23.2431 28.7543C25.1214 28.7543 26.645 27.2307 26.645 25.3524C26.645 23.4741 25.1214 21.9504 23.2431 21.9504C21.3648 21.9504 19.8412 23.4741 19.8412 25.3524Z" fill="white"/>
<path d="M22.2467 25.3525C22.2467 25.9015 22.6908 26.3456 23.2398 26.3456C23.7888 26.3456 24.2329 25.9015 24.2329 25.3525C24.2329 24.8035 23.7888 24.3594 23.2398 24.3594C22.6908 24.3594 22.2467 24.8035 22.2467 25.3525Z" fill="white" stroke="#287094" stroke-width="2" stroke-miterlimit="10"/>
<path d="M66.237 23.1317C66.237 23.4648 66.5424 23.7486 66.9217 23.7486H68.2665C68.6427 23.7486 68.9512 23.4648 68.9512 23.1317C68.9512 22.7986 68.6458 22.5149 68.2665 22.5149H66.9217C66.5455 22.5149 66.237 22.7986 66.237 23.1317Z" fill="white"/>
<path d="M1.14426 23.1317C1.14426 23.4648 1.4496 23.7486 1.82897 23.7486H3.1737C3.54997 23.7486 3.8584 23.4648 3.8584 23.1317C3.8584 22.7986 3.55306 22.5149 3.1737 22.5149H1.82897C1.45269 22.5149 1.14426 22.7986 1.14426 23.1317Z" fill="white"/>
<path d="M55.2082 1.23364H56.4419V11.7201H55.2082V1.23364Z" fill="#287094"/>
<path d="M0.000225067 13.8792H48.4229V15.4213H0.000225067V13.8792Z" fill="#287094"/>
<path d="M0.000225067 9.56128H48.4229V11.1034H0.000225067V9.56128Z" fill="#287094"/>
<path d="M0.000225067 4.93481H48.4229V6.78536H0.000225067V4.93481Z" fill="#287094"/>
<path d="M40.0951 0H42.5625V18.8139H40.0951V0Z" fill="#287094"/>
<path d="M26.8329 0H29.3003V18.8139H26.8329V0Z" fill="#287094"/>
<path d="M-0.000110149 0H2.46729V18.8139H-0.000110149V0Z" fill="#287094"/>
<path d="M13.2621 0H15.7295V18.8139H13.2621V0Z" fill="#287094"/>
</svg>
