<svg width="119" height="54" viewBox="0 0 119 54" fill="none" xmlns="http://www.w3.org/2000/svg">
<path d="M37.2059 30.4106V3.09876C37.2059 1.57298 35.8793 0 34.3535 0H34.1595C34.1071 0 34.0599 0.0105018 34.0075 0.015745L33.997 0H11.0475C7.7285 0 6.43867 2.4381 5.23797 4.20507C2.68977 7.94872 0.0943777 14.4975 0.0471888 21.1669V21.0777L0 42.47H119V30.4106H37.2059Z" fill="#287094"/>
<path d="M35.1084 2.62158V15.7663C35.1084 15.7663 25.8909 20.1601 2.5166 23.2799C2.5166 23.2799 2.54282 7.8648 10.2136 2.62158H35.1084Z" fill="#FBFBFB"/>
<path d="M35.6959 43.1465C35.6959 48.0647 31.711 52.0495 26.7981 52.0495C21.8852 52.0495 17.9004 48.0647 17.9004 43.1465C17.9004 38.2284 21.8852 34.2488 26.7981 34.2488C31.711 34.2488 35.6959 38.2336 35.6959 43.1465Z" fill="#287094" stroke="#FBFBFB" stroke-width="2" stroke-miterlimit="10"/>
<path d="M32.5812 43.1466C32.5812 46.3397 29.991 48.9298 26.7979 48.9298C23.6048 48.9298 21.0146 46.3397 21.0146 43.1466C21.0146 39.9534 23.6048 37.3633 26.7979 37.3633C29.991 37.3633 32.5812 39.9534 32.5812 43.1466Z" fill="#FBFBFB"/>
<path d="M28.486 43.1463C28.486 44.0796 27.731 44.8346 26.7977 44.8346C25.8644 44.8346 25.1094 44.0796 25.1094 43.1463C25.1094 42.213 25.8644 41.458 26.7977 41.458C27.731 41.458 28.486 42.213 28.486 43.1463Z" fill="#FBFBFB" stroke="#287094" stroke-width="2" stroke-miterlimit="10"/>
<path d="M109.326 43.1465C109.326 48.0647 105.341 52.0495 100.423 52.0495C95.505 52.0495 91.5254 48.0647 91.5254 43.1465C91.5254 38.2284 95.5102 34.2488 100.423 34.2488C105.336 34.2488 109.326 38.2336 109.326 43.1465Z" fill="#287094" stroke="#FBFBFB" stroke-width="2" stroke-miterlimit="10"/>
<path d="M106.206 43.1466C106.206 46.3397 103.616 48.9298 100.423 48.9298C97.2298 48.9298 94.6396 46.3397 94.6396 43.1466C94.6396 39.9534 97.2298 37.3633 100.423 37.3633C103.616 37.3633 106.206 39.9534 106.206 43.1466Z" fill="#FBFBFB"/>
<path d="M102.111 43.1463C102.111 44.0796 101.356 44.8346 100.423 44.8346C99.4894 44.8346 98.7344 44.0796 98.7344 43.1463C98.7344 42.213 99.4894 41.458 100.423 41.458C101.356 41.458 102.111 42.213 102.111 43.1463Z" fill="#FBFBFB" stroke="#287094" stroke-width="2" stroke-miterlimit="10"/>
<path d="M88.3901 43.1465C88.3901 48.0647 84.4052 52.0495 79.4871 52.0495C74.569 52.0495 70.5894 48.0647 70.5894 43.1465C70.5894 38.2284 74.5742 34.2488 79.4871 34.2488C84.4 34.2488 88.3901 38.2336 88.3901 43.1465Z" fill="#287094" stroke="#FBFBFB" stroke-width="2" stroke-miterlimit="10"/>
<path d="M85.2701 43.1466C85.2701 46.3397 82.68 48.9298 79.4869 48.9298C76.2938 48.9298 73.7036 46.3397 73.7036 43.1466C73.7036 39.9534 76.2938 37.3633 79.4869 37.3633C82.68 37.3633 85.2701 39.9534 85.2701 43.1466Z" fill="#FBFBFB"/>
<path d="M81.1803 43.1463C81.1803 44.0796 80.4253 44.8346 79.492 44.8346C78.5587 44.8346 77.8037 44.0796 77.8037 43.1463C77.8037 42.213 78.5587 41.458 79.492 41.458C80.4253 41.458 81.1803 42.213 81.1803 43.1463Z" fill="#FBFBFB" stroke="#287094" stroke-width="2" stroke-miterlimit="10"/>
<path d="M5.40041 38.2756C6.04008 38.2756 6.5644 38.6846 6.5644 39.3243C6.5644 39.9639 6.04532 40.3729 5.40041 40.3729H3.16155C2.52188 40.3729 1.99756 39.9639 1.99756 39.3243C1.99756 38.6846 2.51664 38.2756 3.16155 38.2756H5.40041Z" fill="#FBFBFB"/>
<path d="M115.87 38.2756C116.509 38.2756 117.034 38.6846 117.034 39.3243C117.034 39.9639 116.515 40.3729 115.87 40.3729H113.631C112.991 40.3729 112.467 39.9639 112.467 39.3243C112.467 38.6846 112.986 38.2756 113.631 38.2756H115.87Z" fill="#FBFBFB"/>
<path d="M25.1466 2.09717H23.0493V19.3998H25.1466V2.09717Z" fill="#287094"/>
<path d="M110.611 20.4487H69.1895V28.8379H110.611V20.4487Z" fill="#287094"/>
</svg>
