<svg width="126" height="42" viewBox="0 0 126 42" fill="none" xmlns="http://www.w3.org/2000/svg">
<path d="M0.765951 6.81313V6.05615C20.6802 12.8691 30.6372 22.2053 32.169 24.9808C38.9091 33.4591 31.6585 37.0928 27.5733 37.8499H0L3.06373 28.0087H26.0416C29.1054 27.4033 29.3607 25.2333 29.1054 24.224H16.0845C14.2974 24.4762 10.2635 24.0727 8.42524 20.439C6.58699 16.8054 8.16994 12.3644 9.19115 10.5981C5.36151 8.32711 2.29782 7.5701 0.765951 6.81313Z" fill="white"/>
<path d="M35.362 22.5955C29.1863 15.9776 10.3575 7.15978 1.39805 3.94301L1.39258 3.18604C25.3461 10.8889 35.3314 19.3295 39.1882 23.0872C52.286 35.8473 42.2717 42.2606 35.362 40.0385C48.8246 37.5205 40.7599 27.6038 35.362 22.5955Z" fill="white"/>
<path d="M9.06269 4.64551L7.54736 6.9273L9.06269 4.64551Z" fill="white"/>
<path d="M9.06269 4.64551L7.54736 6.9273" stroke="#287094"/>
<path d="M13.1828 6.12695L11.6675 8.40871L13.1828 6.12695Z" fill="white"/>
<path d="M13.1828 6.12695L11.6675 8.40871" stroke="#287094"/>
<path d="M18.2868 9.12207L16.7715 11.4039L18.2868 9.12207Z" fill="white"/>
<path d="M18.2868 9.12207L16.7715 11.4039" stroke="#287094"/>
<path d="M22.8932 10.6035L21.187 13.6028L22.8932 10.6035Z" fill="white"/>
<path d="M22.8932 10.6035L21.187 13.6028" stroke="#287094"/>
<path d="M27.5106 13.5991L25.9951 15.8809L27.5106 13.5991Z" fill="white"/>
<path d="M27.5106 13.5991L25.9951 15.8809" stroke="#287094"/>
<path d="M32.1279 16.5942L30.6128 18.876L32.1279 16.5942Z" fill="white"/>
<path d="M32.1279 16.5942L30.6128 18.876" stroke="#287094"/>
<path d="M36.7453 19.5894L34.8096 22.844L36.7453 19.5894Z" fill="white"/>
<path d="M36.7453 19.5894L34.8096 22.844" stroke="#287094"/>
<path d="M41.3736 24.0986L38.332 27.1484L41.3736 24.0986Z" fill="white"/>
<path d="M41.3736 24.0986L38.332 27.1484" stroke="#287094"/>
<path d="M45.1211 29.3403L41.4282 31.5801L45.1211 29.3403Z" fill="white"/>
<path d="M45.1211 29.3403L41.4282 31.5801" stroke="#287094"/>
<path d="M45.3644 37.2196L41.2725 35.8125L45.3644 37.2196Z" fill="white"/>
<path d="M45.3644 37.2196L41.2725 35.8125" stroke="#287094"/>
<path d="M42.1708 41.0678L38.7588 38.4287L42.1708 41.0678Z" fill="white"/>
<path d="M42.1708 41.0678L38.7588 38.4287" stroke="#287094"/>
<path d="M23.7436 0H47.4875L44.4236 9.84089H26.8075C37.5305 15.1398 45.9931 19.4407 49.7683 24.2911C55.0942 31.1337 53.2872 38.5569 44.4236 40.8394C51.988 36.5596 49.1102 27.2615 44.4236 23.4351C30.3305 11.9287 10.2122 4.2896 1.53174 1.51399V0.756975C2.29765 0.756975 7.65916 2.27096 11.4888 3.78495C15.1653 0.151396 20.6801 0 23.7436 0Z" fill="white"/>
<path d="M35.9991 27.2516C28.3395 16.6537 7.91479 7.56979 0.766113 5.29883V6.0558C19.761 12.7173 31.0202 22.7096 32.9352 26.4944C36.7647 34.0646 32.9352 37.0925 29.8713 38.6064C40.5943 37.8496 38.5521 30.2795 35.9991 27.2516Z" fill="white"/>
<path d="M56.2354 18.6797H63.6053L64.1188 31.7546L69.1629 18.6797H75.1434L75.9288 31.7546L81.0031 18.6797H84.1746L76.7141 37.8541H69.918L69.2837 27.0138L64.7531 37.8541H57.5039L56.2354 18.6797ZM88.9269 37.8541H82.4028L86.4804 18.6797H93.0348L88.9269 37.8541ZM96.3324 18.6797H109.049L108.565 20.9746H102.373L101.195 26.5005H106.36L105.877 28.8256H100.712L98.7789 37.8541H92.2547L96.3324 18.6797ZM125.486 20.9746H120.623L117.029 37.8541H110.505L114.099 20.9746H109.297L109.84 18.6797H126L125.486 20.9746Z" fill="white"/>
</svg>
