<svg width="412" height="297" viewBox="0 0 412 297" fill="none" xmlns="http://www.w3.org/2000/svg">
<path d="M290.534 243.145C283.785 249.234 277.4 253.159 272.356 256.262C213.057 292.724 142.891 282.096 127.979 279.5C105.958 275.667 63.3921 268.258 32.6185 237.244C-13.9404 190.321 -6.69093 116.398 29.4242 67.5993C36.0298 58.6734 70.9233 9.13186 141.846 1.18718C184.767 -3.62085 234.8 6.07606 271.032 32.0908C347.086 86.6961 341.671 197.009 290.535 243.145H290.534Z" fill="#287094" fill-opacity="0.22"/>
<path d="M130.246 157.247C130.246 157.247 129.57 62.6498 91.3485 3.5659C88.7791 -0.405425 82.1098 -0.388246 79.5982 3.61138C62.8059 30.3517 22.0331 113.467 130.246 157.247Z" fill="#5BA2C6"/>
<path opacity="0.5" d="M121.373 149.405C121.571 149.669 121.142 149.941 120.904 149.702C112.144 140.877 80.1749 99.7004 82.8244 30.7478C82.8327 30.5265 83.2183 30.5174 83.2324 30.7387C84.2524 47.0444 90.068 107.577 121.373 149.406V149.405Z" fill="white"/>
<path d="M106.498 156.073C107.746 156.978 99.6284 69.3263 41.7874 8.24562C38.4351 4.70578 31.9391 5.46872 30.122 9.75432C17.9756 38.4105 -8.43158 126.06 106.498 156.073Z" fill="#287094" fill-opacity="0.75"/>
<path opacity="0.24" d="M96.3527 149.386C96.5944 149.625 96.2135 149.948 95.9376 149.74C85.7391 142.064 46.9945 105.141 37.9303 36.3106C37.9009 36.0893 38.2829 36.0327 38.3336 36.251C42.1128 52.3232 58.1587 111.734 96.3527 149.387V149.386Z" fill="white"/>
<path d="M308.728 108.459C308.682 106.697 306.711 105.248 304.294 105.248H212.963C210.514 105.248 208.109 106.774 208.109 108.56V268.184C208.109 269.043 208.789 269.866 209.622 270.474C210.456 271.08 211.692 271.419 212.871 271.417L308.363 271.227C309.552 271.225 310.715 270.875 311.546 270.255C312.377 269.636 312.845 268.78 312.823 267.913L308.728 108.459Z" fill="#5BA2C6"/>
<path d="M241.469 124.057L215.45 124.032L215.243 114.305H241.287L241.469 124.057Z" fill="#287094" fill-opacity="0.75"/>
<path d="M270.632 124.053L244.64 124.026L244.462 114.305H270.48L270.632 124.053Z" fill="#287094" fill-opacity="0.75"/>
<path d="M299.764 124.048L273.798 124.022L273.648 114.305H299.639L299.764 124.048Z" fill="#287094" fill-opacity="0.75"/>
<path d="M241.794 141.515L215.82 141.527L215.615 131.865L241.613 131.857L241.794 141.515Z" fill="#287094" fill-opacity="0.75"/>
<path d="M270.906 141.502L244.959 141.514L244.782 131.856L270.754 131.849L270.906 141.502Z" fill="#287094" fill-opacity="0.75"/>
<path d="M299.992 141.488L274.07 141.5L273.922 131.848L299.868 131.84L299.992 141.488Z" fill="#287094" fill-opacity="0.75"/>
<path d="M242.117 158.854L216.19 158.874L215.984 149.245L241.938 149.229L242.117 158.854Z" fill="#287094" fill-opacity="0.75"/>
<path d="M271.179 158.831L245.276 158.852L245.1 149.227L271.027 149.211L271.179 158.831Z" fill="#287094" fill-opacity="0.75"/>
<path d="M300.213 158.809L274.336 158.829L274.188 149.209L300.089 149.194L300.213 158.809Z" fill="#287094" fill-opacity="0.75"/>
<path d="M242.44 176.133L216.558 176.16L216.353 166.564L242.261 166.541L242.44 176.133Z" fill="#287094" fill-opacity="0.75"/>
<path d="M271.451 176.101L245.594 176.13L245.418 166.538L271.3 166.515L271.451 176.101Z" fill="#287094" fill-opacity="0.75"/>
<path d="M300.434 176.071L274.604 176.098L274.455 166.512L300.312 166.488L300.434 176.071Z" fill="#287094" fill-opacity="0.75"/>
<path d="M242.761 193.352L216.924 193.386L216.72 183.824L242.582 183.792L242.761 193.352Z" fill="#287094" fill-opacity="0.75"/>
<path d="M271.722 193.313L245.91 193.347L245.734 183.79L271.571 183.758L271.722 193.313Z" fill="#287094" fill-opacity="0.75"/>
<path d="M300.655 193.273L274.868 193.307L274.721 183.754L300.532 183.724L300.655 193.273Z" fill="#287094" fill-opacity="0.75"/>
<path d="M243.083 210.51L217.289 210.554L217.086 201.024L242.905 200.985L243.083 210.51Z" fill="#287094" fill-opacity="0.75"/>
<path d="M271.994 210.463L246.226 210.506L246.052 200.98L271.843 200.942L271.994 210.463Z" fill="#287094" fill-opacity="0.75"/>
<path d="M300.878 210.415L275.136 210.458L274.988 200.937L300.755 200.898L300.878 210.415Z" fill="#287094" fill-opacity="0.75"/>
<path d="M243.402 227.611L217.653 227.661L217.451 218.164L243.224 218.119L243.402 227.611Z" fill="#287094" fill-opacity="0.75"/>
<path d="M272.262 227.555L246.54 227.605L246.365 218.113L272.112 218.066L272.262 227.555Z" fill="#287094" fill-opacity="0.75"/>
<path d="M301.099 227.498L275.4 227.549L275.254 218.061L300.976 218.014L301.099 227.498Z" fill="#287094" fill-opacity="0.75"/>
<path d="M243.719 244.653L218.015 244.71L217.813 235.246L243.543 235.192L243.719 244.653Z" fill="#287094" fill-opacity="0.75"/>
<path d="M272.53 244.588L246.852 244.646L246.679 235.186L272.382 235.133L272.53 244.588Z" fill="#287094" fill-opacity="0.75"/>
<path d="M301.314 244.523L275.662 244.581L275.516 235.125L301.193 235.072L301.314 244.523Z" fill="#287094" fill-opacity="0.75"/>
<path d="M244.037 261.636L218.377 261.701L218.176 252.269L243.861 252.208L244.037 261.636Z" fill="#287094" fill-opacity="0.75"/>
<path d="M272.799 261.563L247.166 261.628L246.992 252.201L272.651 252.14L272.799 261.563Z" fill="#287094" fill-opacity="0.75"/>
<path d="M301.531 261.49L275.922 261.555L275.777 252.132L301.411 252.071L301.531 261.49Z" fill="#287094" fill-opacity="0.75"/>
<path d="M130.033 87.9127C129.999 86.698 128.494 85.7198 126.651 85.7198H14.8648C12.997 85.7198 11.0137 86.7273 11.0137 87.9592V259.973C11.0137 260.893 11.8037 261.774 12.7907 262.423C13.7776 263.072 15.2339 263.435 16.6276 263.432L129.639 263.229C131.046 263.227 132.421 262.852 133.404 262.189C134.387 261.526 134.942 260.629 134.914 259.702L130.033 87.9127Z" fill="#4088AC"/>
<g style="mix-blend-mode:overlay">
<path d="M65.8365 97.9108L29.2686 97.8279L29.2815 94.8105L65.8094 94.8873L65.8365 97.9108Z" fill="#5D93AE"/>
</g>
<g style="mix-blend-mode:overlay">
<path d="M65.9366 109.022L29.2178 108.912L29.2319 105.871L65.9095 105.974L65.9366 109.022Z" fill="#5D93AE"/>
</g>
<g style="mix-blend-mode:overlay">
<path d="M66.037 120.226L29.166 120.088L29.1802 117.022L66.0087 117.152L66.037 120.226Z" fill="#5D93AE"/>
</g>
<g style="mix-blend-mode:overlay">
<path d="M66.1393 131.523L29.1162 131.357L29.1304 128.265L66.1122 128.422L66.1393 131.523Z" fill="#5D93AE"/>
</g>
<g style="mix-blend-mode:overlay">
<path d="M66.2418 142.913L29.0654 142.719L29.0796 139.601L66.2135 139.787L66.2418 142.913Z" fill="#5D93AE"/>
</g>
<g style="mix-blend-mode:overlay">
<path d="M66.451 165.981L28.9609 165.728L28.9763 162.558L66.4227 162.803L66.451 165.981Z" fill="#5D93AE"/>
</g>
<g style="mix-blend-mode:overlay">
<path d="M66.7683 201.32L28.8008 200.976L28.8161 197.725L66.7389 198.06L66.7683 201.32Z" fill="#5D93AE"/>
</g>
<g style="mix-blend-mode:overlay">
<path d="M66.3447 154.399L29.0127 154.175L29.0268 151.032L66.3164 151.247L66.3447 154.399Z" fill="#5D93AE"/>
</g>
<g style="mix-blend-mode:overlay">
<path d="M66.555 177.662L28.9082 177.379L28.9224 174.181L66.5267 174.456L66.555 177.662Z" fill="#5D93AE"/>
</g>
<g style="mix-blend-mode:overlay">
<path d="M66.6615 189.44L28.8555 189.128L28.8696 185.904L66.6332 186.208L66.6615 189.44Z" fill="#5D93AE"/>
</g>
<g style="mix-blend-mode:overlay">
<path d="M66.8772 213.301L28.748 212.926L28.7622 209.647L66.8477 210.013L66.8772 213.301Z" fill="#5D93AE"/>
</g>
<g style="mix-blend-mode:overlay">
<path d="M66.9864 225.384L28.6934 224.977L28.7087 221.67L66.9569 222.068L66.9864 225.384Z" fill="#5D93AE"/>
</g>
<g style="mix-blend-mode:overlay">
<path d="M67.0958 237.572L28.6377 237.133L28.6518 233.797L67.0651 234.227L67.0958 237.572Z" fill="#5D93AE"/>
</g>
<g style="mix-blend-mode:overlay">
<path d="M67.2074 249.865L28.583 249.393L28.5983 246.029L67.1767 246.492L67.2074 249.865Z" fill="#5D93AE"/>
</g>
<g style="mix-blend-mode:overlay">
<path d="M113.779 98.0199L76.9825 97.9361L76.9424 94.9106L113.698 94.9864L113.779 98.0199Z" fill="#5D93AE"/>
</g>
<g style="mix-blend-mode:overlay">
<path d="M114.077 109.167L77.128 109.056L77.0879 106.005L113.995 106.108L114.077 109.167Z" fill="#5D93AE"/>
</g>
<g style="mix-blend-mode:overlay">
<path d="M114.379 120.407L77.2756 120.267L77.2344 117.191L114.296 117.323L114.379 120.407Z" fill="#5D93AE"/>
</g>
<g style="mix-blend-mode:overlay">
<path d="M114.682 131.74L77.4241 131.573L77.3828 128.471L114.598 128.63L114.682 131.74Z" fill="#5D93AE"/>
</g>
<g style="mix-blend-mode:overlay">
<path d="M114.989 143.168L77.5745 142.972L77.5332 139.844L114.904 140.032L114.989 143.168Z" fill="#5D93AE"/>
</g>
<g style="mix-blend-mode:overlay">
<path d="M115.609 166.312L77.8782 166.058L77.8369 162.877L115.524 163.124L115.609 166.312Z" fill="#5D93AE"/>
</g>
<g style="mix-blend-mode:overlay">
<path d="M116.556 201.77L78.3425 201.424L78.2988 198.162L116.469 198.499L116.556 201.77Z" fill="#5D93AE"/>
</g>
<g style="mix-blend-mode:overlay">
<path d="M115.296 154.692L77.7249 154.466L77.6836 151.312L115.211 151.529L115.296 154.692Z" fill="#5D93AE"/>
</g>
<g style="mix-blend-mode:overlay">
<path d="M115.921 178.032L78.0317 177.748L77.9893 174.539L115.835 174.815L115.921 178.032Z" fill="#5D93AE"/>
</g>
<g style="mix-blend-mode:overlay">
<path d="M116.238 189.851L78.186 189.535L78.1436 186.301L116.151 186.607L116.238 189.851Z" fill="#5D93AE"/>
</g>
<g style="mix-blend-mode:overlay">
<path d="M116.88 213.792L78.5005 213.415L78.458 210.125L116.791 210.492L116.88 213.792Z" fill="#5D93AE"/>
</g>
<g style="mix-blend-mode:overlay">
<path d="M117.204 225.917L78.6589 225.508L78.6152 222.189L117.115 222.589L117.204 225.917Z" fill="#5D93AE"/>
</g>
<g style="mix-blend-mode:overlay">
<path d="M117.532 238.148L78.82 237.706L78.7764 234.359L117.442 234.791L117.532 238.148Z" fill="#5D93AE"/>
</g>
<g style="mix-blend-mode:overlay">
<path d="M117.863 250.485L78.9823 250.01L78.9375 246.632L117.772 247.098L117.863 250.485Z" fill="#5D93AE"/>
</g>
<path d="M258.752 45.9107C256.52 44.5647 255.982 41.9131 257.553 40.0002C259.123 38.0873 262.217 37.6265 264.449 38.9725C266.682 40.3185 267.219 42.9701 265.649 44.883C264.078 46.7959 260.984 47.2567 258.752 45.9107ZM259.883 44.5344C261.229 45.3458 263.095 45.0679 264.041 43.9149C264.988 42.7609 264.664 41.1623 263.319 40.3509C261.972 39.5394 260.107 39.8173 259.16 40.9703C258.213 42.1243 258.537 43.7229 259.883 44.5344Z" fill="white"/>
<path d="M252.967 37.2345C249.616 41.3149 250.763 46.9708 255.524 49.8427C255.819 50.0205 256.122 50.1822 256.43 50.3298C256.845 50.5278 256.939 51.0018 256.611 51.2968L255.54 52.2609C255.305 52.471 254.933 52.5104 254.642 52.3609C254.366 52.2194 254.094 52.0689 253.827 51.9082C247.737 48.235 246.27 41.0007 250.556 35.7814C250.881 35.3862 251.231 35.0144 251.601 34.6657C251.878 34.405 252.352 34.3919 252.645 34.6405L253.72 35.555C253.993 35.7864 254.003 36.1583 253.746 36.4018C253.47 36.6625 253.208 36.9394 252.967 37.2345Z" fill="white"/>
<path d="M246.741 33.4794C240.974 40.5015 242.949 50.2348 251.143 55.1772L251.15 55.1813C251.508 55.3975 251.566 55.833 251.263 56.1049L250.211 57.0507C249.853 57.081 249.623 57.1012 249.265 57.1316C239.895 51.3544 237.672 40.1347 244.332 32.0263C244.913 31.3189 245.545 30.6601 246.22 30.0477C246.494 29.7981 246.957 29.7991 247.241 30.0406L248.313 30.9531C248.587 31.1855 248.601 31.5635 248.338 31.804C247.769 32.3234 247.235 32.8812 246.743 33.4794H246.741Z" fill="white"/>
<path d="M240.515 29.7243C232.546 39.4283 235.001 52.7802 245.876 59.9468C246.218 60.1721 246.264 60.5965 245.967 60.8643L244.923 61.8021C244.67 62.0295 244.253 62.0608 243.963 61.8678C231.945 53.8625 229.255 39.0493 238.106 28.2701C238.938 27.2576 239.847 26.3198 240.816 25.4508C241.092 25.2032 241.555 25.2032 241.84 25.4447L242.91 26.3562C243.19 26.5937 243.19 26.9757 242.917 27.2202C242.059 27.9932 241.254 28.8259 240.515 29.7243Z" fill="white"/>
<path d="M275.313 37.3879H275.017C274.306 37.3879 273.729 37.8824 273.729 38.4924V55.1629C273.729 55.7729 274.306 56.2674 275.017 56.2674H275.313C276.025 56.2674 276.602 55.7729 276.602 55.1629V38.4924C276.602 37.8824 276.025 37.3879 275.313 37.3879Z" fill="#287094"/>
<path d="M284.513 71.9796L280.842 72.3358L281.673 78.6275L285.344 78.2713L284.513 71.9796Z" fill="#287094"/>
<path d="M288.393 65.2215C288.362 64.9901 288.165 64.8001 287.901 64.7466C287.637 64.693 287.361 64.788 287.213 64.9841L284.122 69.0807C283.734 69.595 283.578 70.2145 283.685 70.8198L285.135 79.0312C285.238 79.6173 285.58 80.1539 286.102 80.545L289.641 83.2016C289.841 83.3512 290.128 83.3805 290.363 83.2754C290.599 83.1703 290.733 82.951 290.704 82.7247L288.391 65.2205L288.393 65.2215Z" fill="#287094"/>
<path d="M265.939 71.9988L265.107 78.2905L268.778 78.6467L269.61 72.355L265.939 71.9988Z" fill="#287094"/>
<path d="M262.042 65.2216C262.072 64.9902 262.269 64.8002 262.533 64.7466C262.798 64.6931 263.073 64.7881 263.221 64.9841L266.313 69.0808C266.701 69.5951 266.856 70.2146 266.749 70.8199L265.3 79.0313C265.196 79.6174 264.854 80.154 264.333 80.5451L260.793 83.2017C260.594 83.3513 260.306 83.3806 260.071 83.2755C259.836 83.1704 259.701 82.9511 259.731 82.7247L262.043 65.2206L262.042 65.2216Z" fill="#287094"/>
<path d="M286.948 103.625L286.336 99.6751C286.336 99.6751 286.336 99.6701 286.336 99.668L279.561 55.8783C279.474 55.3165 278.915 54.8294 278.253 54.8294H271.744C271.071 54.8294 270.363 55.3306 270.292 55.9046L269.662 59.8203V59.8234L264.134 104.609C264.055 105.231 264.649 105.789 265.374 105.856C265.423 105.86 265.507 105.864 265.554 105.864C266.219 105.864 266.808 105.434 266.881 104.855L267.341 101.293L275.578 98.708L283.834 100.699L284.334 103.921C284.43 104.54 285.09 104.972 285.816 104.893C286.539 104.812 287.047 104.243 286.951 103.623L286.948 103.625ZM272.219 62.8044L273.4 64.0726L271.813 66.0158L272.219 62.8054V62.8044ZM277.694 82.2235L280.685 80.3803L281.279 84.2132L277.695 82.2235H277.694ZM280.528 86.4909L275.472 89.2739L270.293 86.787L275.394 83.6412L280.528 86.4909ZM275.316 80.9038L271.038 78.529L275.167 75.3126L279.522 78.3098L275.316 80.9038ZM277.145 73.7736L279.389 72.0264L279.959 75.7117L277.144 73.7746L277.145 73.7736ZM278.432 65.8491L276.694 63.9837L277.912 62.4932L278.432 65.8491ZM278.562 69.6143L275.061 72.3406L271.736 70.0528L275.115 65.9158L278.561 69.6153L278.562 69.6143ZM270.999 72.4447L273.084 73.8797L270.569 75.838L270.998 72.4447H270.999ZM269.964 80.6269L273.017 82.3215L269.472 84.5073L269.964 80.6269ZM268.938 88.7282L272.956 90.6583L268.374 93.1805L268.938 88.7292V88.7282ZM275.565 91.9103L281.098 94.568L275.472 96.3343L269.946 95.0025L275.564 91.9103H275.565ZM278.08 90.5259L281.927 88.4078L282.591 92.6924L278.079 90.5259H278.08ZM277.095 57.292L277.398 59.213L274.979 62.1577L272.624 59.6546L272.926 57.292H277.095ZM267.664 98.7859L267.908 96.8598L271.24 97.6632L267.664 98.7859ZM279.81 97.3802L283.155 96.3303L283.454 98.2594L279.81 97.3802Z" fill="#287094"/>
<path d="M226.934 267.957C226.882 272.375 222.453 275.958 217.04 275.968L86.1936 276.212C80.7412 276.222 76.2168 272.643 76.0871 268.207L69.9897 59.3524C69.8446 54.3867 74.4209 50.3709 80.2094 50.3941L219.101 50.9631C224.846 50.9863 229.453 55.0233 229.395 59.9668L226.934 267.957Z" fill="#023246"/>
<path d="M215.14 72.0212C215.179 67.2496 210.61 63.355 204.934 63.3338L94.6973 62.9185C88.9867 62.8973 84.454 66.7706 84.5766 71.5594L89.1081 249.135C89.219 253.485 93.708 256.997 99.1321 256.99L203.861 256.848C209.254 256.841 213.654 253.327 213.689 248.992L215.138 72.0212H215.14Z" fill="#287094"/>
<path d="M166.427 56.5765C166.429 57.5021 165.561 58.2489 164.486 58.2449L135.797 58.1337C134.721 58.1297 133.836 57.3748 133.823 56.4482C133.81 55.5205 134.674 54.7717 135.752 54.7758L164.474 54.891C165.551 54.895 166.425 55.6499 166.427 56.5765Z" fill="#287094"/>
<g opacity="0.48">
<path d="M191.584 197.978L208.11 183.917L207.498 213.581L191.619 198.011L191.584 197.978Z" fill="#5BA2C6"/>
<path d="M183.602 204.771L206.96 227.69L207.197 227.925L206.524 246.086C206.471 247.828 205.383 249.504 203.66 250.743C202.141 251.833 200.17 252.502 198.106 252.644L165.102 220.516L183.602 204.769V204.771Z" fill="#5BA2C6"/>
<path d="M203.188 174.75L184.324 190.866L176.365 197.667L157.862 213.473L127.442 183.866L127.447 183.862L145.878 167.85H145.825L145.725 167.805V167.801L153.758 160.907L153.833 160.914L153.852 160.92L153.866 160.914L153.878 160.907L172.753 144.527L210.366 111.928L208.947 165.403L203.188 174.75Z" fill="#5BA2C6"/>
<path d="M183.552 252.684L127.259 252.719L157.264 227.186L183.552 252.684Z" fill="#5BA2C6"/>
<path d="M150.03 220.168L111.916 252.729L108.434 252.731C106.114 252.732 103.865 252.061 102.177 250.857C100.484 249.653 99.4887 248.016 99.4168 246.304L97.832 209.59L119.617 190.664L150.031 220.168H150.03Z" fill="#5BA2C6"/>
<path d="M112.263 183.52L97.2958 196.589L96.0801 167.837L112.25 183.52H112.263Z" fill="#5BA2C6"/>
<path d="M173.395 130.194L143.146 100.049L175.015 71.7918L201.321 71.6473C206.921 71.616 211.297 75.4155 211.16 80.1649L210.66 97.6944L173.395 130.195V130.194Z" fill="#5BA2C6"/>
<path d="M115.12 72.1222L158.881 71.8807L135.643 92.57L115.12 72.1222Z" fill="#5BA2C6"/>
<path d="M135.108 107.177L165.352 137.207L146.501 153.65L138.568 160.571L120.374 176.67L96.0001 152.64V152.637L95.1959 142.792L95.1299 142.737L135.108 107.177Z" fill="#5BA2C6"/>
<path d="M100.069 72.38L127.604 99.7266L94.3579 129.32L92.2661 80.9664C92.081 76.7656 95.4404 73.2208 100.07 72.38H100.069Z" fill="#5BA2C6"/>
</g>
<path d="M148.722 80.9723H100.748C99.9003 80.9723 99.2129 81.5613 99.2129 82.288V82.2961C99.2129 83.0227 99.9003 83.6118 100.748 83.6118H148.722C149.57 83.6118 150.257 83.0227 150.257 82.2961V82.288C150.257 81.5613 149.57 80.9723 148.722 80.9723Z" fill="#5D93AE"/>
<path d="M148.722 88.1368H100.748C99.9003 88.1368 99.2129 88.7259 99.2129 89.4525V89.4606C99.2129 90.1873 99.9003 90.7763 100.748 90.7763H148.722C149.57 90.7763 150.257 90.1873 150.257 89.4606V89.4525C150.257 88.7259 149.57 88.1368 148.722 88.1368Z" fill="#5D93AE"/>
<path d="M148.722 95.3025H100.748C99.9003 95.3025 99.2129 95.8915 99.2129 96.6182V96.6263C99.2129 97.3529 99.9003 97.942 100.748 97.942H148.722C149.57 97.942 150.257 97.3529 150.257 96.6263V96.6182C150.257 95.8915 149.57 95.3025 148.722 95.3025Z" fill="#5D93AE"/>
<path d="M183.334 95.0428C181.599 95.0428 180.066 94.2647 179.233 92.9612C174.897 86.1836 169.728 77.2588 169.728 73.2288C169.728 66.7999 175.831 61.5685 183.334 61.5685C190.837 61.5685 196.94 66.7989 196.94 73.2288C196.94 77.2598 191.771 86.1836 187.435 92.9612C186.601 94.2647 185.068 95.0428 183.334 95.0428ZM183.334 63.4369C177.034 63.4369 171.908 67.8296 171.908 73.2288C171.908 76.0239 175.274 82.8883 181.144 92.0628C181.59 92.7591 182.408 93.1744 183.334 93.1744C184.259 93.1744 185.078 92.7591 185.523 92.0628C191.393 82.8883 194.76 76.0239 194.76 73.2288C194.76 67.8296 189.634 63.4369 183.334 63.4369Z" fill="url(#paint0_linear_75_1804)"/>
<path d="M183.333 80.557C178.784 80.557 175.084 77.385 175.084 73.4874C175.084 69.5899 178.785 66.4178 183.333 66.4178C187.881 66.4178 191.583 69.5899 191.583 73.4874C191.583 77.385 187.881 80.557 183.333 80.557ZM183.333 68.2853C179.987 68.2853 177.263 70.6186 177.263 73.4874C177.263 76.3563 179.986 78.6896 183.333 78.6896C186.681 78.6896 189.404 76.3563 189.404 73.4874C189.404 70.6186 186.681 68.2853 183.333 68.2853Z" fill="url(#paint1_linear_75_1804)"/>
<path d="M183.255 107.809C186.114 107.809 188.432 105.822 188.432 103.371C188.432 100.921 186.114 98.9342 183.255 98.9342C180.395 98.9342 178.077 100.921 178.077 103.371C178.077 105.822 180.395 107.809 183.255 107.809Z" fill="url(#paint2_linear_75_1804)"/>
<path d="M192.685 256.065C192.304 256.065 191.926 255.932 191.65 255.672L188.972 253.138C188.454 252.648 188.498 251.892 189.069 251.449C189.641 251.006 190.523 251.042 191.04 251.531L193.718 254.065C194.236 254.555 194.192 255.311 193.621 255.754C193.354 255.962 193.019 256.065 192.684 256.065H192.685ZM185.99 249.732C185.609 249.732 185.231 249.599 184.955 249.339L182.277 246.805C181.759 246.315 181.803 245.559 182.373 245.116C182.945 244.673 183.827 244.71 184.345 245.199L187.023 247.732C187.541 248.222 187.497 248.978 186.926 249.421C186.659 249.629 186.324 249.732 185.989 249.732H185.99ZM179.295 243.4C178.914 243.4 178.535 243.267 178.259 243.007L175.582 240.473C175.064 239.983 175.108 239.227 175.678 238.784C176.25 238.34 177.132 238.379 177.65 238.867L180.328 241.4C180.845 241.89 180.802 242.646 180.231 243.09C179.963 243.297 179.628 243.4 179.294 243.4H179.295ZM172.599 237.067C172.219 237.067 171.84 236.935 171.564 236.674L168.886 234.14C168.369 233.65 168.412 232.894 168.983 232.451C169.555 232.007 170.437 232.045 170.955 232.534L173.632 235.067C174.15 235.557 174.106 236.313 173.536 236.757C173.268 236.964 172.933 237.067 172.598 237.067H172.599ZM165.904 230.735C165.525 230.735 165.145 230.603 164.869 230.342L162.191 227.809C161.673 227.318 161.717 226.563 162.288 226.119C162.86 225.676 163.742 225.713 164.259 226.202L166.937 228.735C167.455 229.225 167.411 229.981 166.84 230.425C166.573 230.632 166.238 230.735 165.903 230.735H165.904ZM159.209 224.402C158.828 224.402 158.45 224.27 158.174 224.009L155.496 221.476C154.978 220.986 155.022 220.23 155.593 219.786C156.164 219.343 157.046 219.381 157.564 219.869L160.242 222.402C160.76 222.892 160.716 223.648 160.145 224.092C159.878 224.299 159.543 224.402 159.208 224.402H159.209ZM152.514 218.07C152.133 218.07 151.754 217.938 151.478 217.677L148.801 215.144C148.283 214.655 148.327 213.898 148.898 213.454C149.47 213.011 150.354 213.048 150.87 213.538L153.548 216.071C154.066 216.56 154.022 217.317 153.45 217.761C153.182 217.968 152.847 218.071 152.514 218.071V218.07ZM145.819 211.737C145.439 211.737 145.059 211.605 144.783 211.344L142.105 208.811C141.588 208.321 141.631 207.565 142.202 207.121C142.774 206.678 143.656 206.715 144.174 207.204L146.851 209.737C147.369 210.228 147.325 210.983 146.755 211.427C146.487 211.634 146.152 211.737 145.817 211.737H145.819ZM139.123 205.404C138.742 205.404 138.364 205.272 138.088 205.011L135.41 202.478C134.892 201.989 134.936 201.232 135.508 200.788C136.08 200.345 136.962 200.382 137.48 200.872L140.157 203.406C140.675 203.895 140.631 204.652 140.06 205.095C139.792 205.302 139.457 205.405 139.123 205.405V205.404ZM132.428 199.072C132.048 199.072 131.669 198.94 131.393 198.679L128.715 196.146C128.197 195.656 128.241 194.9 128.812 194.456C129.382 194.013 130.265 194.05 130.783 194.539L133.461 197.072C133.979 197.562 133.935 198.318 133.364 198.761C133.097 198.968 132.762 199.071 132.427 199.071L132.428 199.072ZM125.733 192.74C125.352 192.74 124.973 192.607 124.698 192.346L122.326 190.103C122.202 189.985 122.084 189.866 121.971 189.744C121.493 189.227 121.594 188.474 122.199 188.064C122.803 187.654 123.681 187.741 124.16 188.259C124.235 188.34 124.313 188.421 124.397 188.498L126.767 190.741C127.285 191.23 127.241 191.987 126.67 192.43C126.403 192.638 126.068 192.741 125.733 192.741V192.74ZM121.888 185.355C121.772 185.355 121.653 185.342 121.536 185.316C120.79 185.151 120.343 184.497 120.536 183.857C120.875 182.741 121.548 181.71 122.484 180.876L122.949 180.462C123.484 179.986 124.367 179.971 124.923 180.427C125.478 180.885 125.497 181.642 124.963 182.119L124.498 182.534C123.893 183.074 123.458 183.739 123.24 184.459C123.077 184.998 122.51 185.356 121.89 185.356L121.888 185.355ZM128.099 178.789C127.752 178.789 127.402 178.678 127.132 178.456C126.577 177.998 126.558 177.241 127.092 176.764L129.855 174.3C130.39 173.823 131.274 173.809 131.829 174.265C132.384 174.723 132.403 175.48 131.869 175.957L129.106 178.422C128.832 178.666 128.466 178.789 128.099 178.789ZM135.007 172.627C134.659 172.627 134.31 172.516 134.04 172.294C133.485 171.836 133.466 171.079 134 170.602L136.763 168.138C137.298 167.661 138.181 167.646 138.737 168.103C139.292 168.561 139.311 169.318 138.777 169.795L136.014 172.259C135.739 172.504 135.374 172.627 135.007 172.627ZM141.914 166.465C141.566 166.465 141.217 166.354 140.947 166.132C140.392 165.674 140.373 164.917 140.907 164.44L143.67 161.975C144.204 161.498 145.089 161.484 145.644 161.941C146.199 162.399 146.218 163.156 145.684 163.633L142.921 166.097C142.647 166.342 142.281 166.465 141.914 166.465ZM148.822 160.303C148.474 160.303 148.125 160.192 147.855 159.97C147.3 159.512 147.281 158.755 147.815 158.278L150.578 155.813C151.113 155.337 151.996 155.322 152.551 155.779C153.107 156.237 153.126 156.994 152.592 157.471L149.829 159.935C149.554 160.18 149.189 160.303 148.822 160.303ZM155.729 154.141C155.381 154.141 155.032 154.03 154.762 153.807C154.207 153.35 154.188 152.592 154.722 152.116L157.485 149.651C158.02 149.175 158.904 149.16 159.459 149.618C160.014 150.076 160.033 150.832 159.499 151.309L156.736 153.774C156.462 154.019 156.096 154.142 155.729 154.142V154.141ZM162.637 147.979C162.289 147.979 161.94 147.868 161.67 147.645C161.114 147.188 161.096 146.431 161.63 145.954L164.393 143.489C164.928 143.013 165.811 142.998 166.366 143.455C166.922 143.912 166.941 144.669 166.407 145.146L163.644 147.611C163.369 147.855 163.003 147.979 162.637 147.979ZM169.544 141.817C169.196 141.817 168.847 141.705 168.577 141.483C168.022 141.025 168.003 140.268 168.537 139.792L171.301 137.327C171.835 136.851 172.72 136.836 173.275 137.293C173.83 137.75 173.849 138.508 173.315 138.984L170.552 141.449C170.278 141.693 169.912 141.817 169.545 141.817H169.544ZM176.452 135.655C176.104 135.655 175.755 135.543 175.485 135.321C174.929 134.863 174.911 134.106 175.445 133.629L178.208 131.165C178.743 130.688 179.626 130.674 180.181 131.13C180.737 131.588 180.756 132.345 180.222 132.822L177.459 135.287C177.184 135.531 176.818 135.655 176.452 135.655ZM183.359 129.492C183.011 129.492 182.662 129.381 182.392 129.159C181.837 128.701 181.818 127.943 182.353 127.467L185.116 125.003C185.652 124.526 186.535 124.512 187.09 124.968C187.645 125.426 187.664 126.184 187.129 126.66L184.366 129.125C184.091 129.369 183.726 129.492 183.359 129.492ZM190.267 123.33C189.919 123.33 189.57 123.219 189.3 122.997C188.744 122.539 188.726 121.782 189.26 121.305L191.795 119.044C191.856 118.989 191.914 118.935 191.972 118.878C192.478 118.38 193.361 118.328 193.941 118.763C194.522 119.197 194.582 119.953 194.075 120.45C193.989 120.535 193.9 120.618 193.808 120.701L191.273 122.962C190.998 123.207 190.632 123.33 190.266 123.33H190.267ZM194.489 116.074C193.84 116.074 193.257 115.683 193.123 115.116C192.947 114.376 192.546 113.682 191.965 113.109L191.553 112.704C191.047 112.205 191.107 111.45 191.69 111.016C192.272 110.582 193.153 110.635 193.659 111.133L194.071 111.539C194.969 112.423 195.587 113.495 195.859 114.64C196.013 115.288 195.526 115.919 194.77 116.05C194.676 116.067 194.582 116.075 194.49 116.075L194.489 116.074ZM188.677 109.248C188.287 109.248 187.9 109.109 187.624 108.837L187.379 108.597C186.872 108.099 186.933 107.343 187.515 106.909C188.096 106.475 188.978 106.526 189.484 107.026L189.729 107.266C190.236 107.764 190.175 108.52 189.593 108.954C189.329 109.152 189.003 109.248 188.677 109.248Z" fill="url(#paint3_linear_75_1804)"/>
<path d="M346.922 279.219H405.225V237.5H316.453V252.309C316.453 266.866 329.946 278.787 346.922 279.219Z" fill="#363C4F"/>
<path d="M80.2349 251.689H77.7508C76.9567 251.689 76.3075 252.241 76.3075 252.926V259.714C76.3075 260.395 76.9514 260.951 77.7508 260.951H80.2349V251.693V251.689Z" fill="#FFC76B"/>
<path d="M86.8761 245.815H339.42V267.165H86.8707C83.0132 267.165 79.8853 264.484 79.8853 261.177V251.808C79.8853 248.501 83.0132 245.82 86.8707 245.82L86.8761 245.815Z" fill="#363C4F"/>
<path d="M376.579 267.45H407.461V282.71H376.579V267.45Z" fill="#C9C9C9"/>
<path d="M399.483 273.416H377.276" stroke="#F2F2F2" stroke-width="2" stroke-miterlimit="10" stroke-linecap="round"/>
<path d="M399.483 279.413H377.276" stroke="#F2F2F2" stroke-width="2" stroke-miterlimit="10" stroke-linecap="round"/>
<path d="M399.936 284.807H412.002V274.39L406.144 269.368H399.936V284.807Z" fill="#F2F2F2"/>
<path d="M406.606 273.507V278.263C406.606 279.095 405.817 279.766 404.852 279.766C403.285 279.766 402.019 278.681 402.019 277.338V274.427C402.019 273.084 403.285 271.998 404.852 271.998C405.823 271.998 406.606 272.674 406.606 273.502V273.507Z" fill="white"/>
<path d="M406.606 273.236V278.534C406.606 279.215 405.962 279.766 405.168 279.766H404.691V271.998H405.168C405.962 271.998 406.606 272.55 406.606 273.231V273.236Z" fill="#FFC76B"/>
<path d="M403.49 282.209C403.49 282.83 404.075 283.331 404.799 283.331C405.523 283.331 406.108 282.83 406.108 282.209C406.108 281.588 405.523 281.087 404.799 281.087C404.075 281.087 403.49 281.588 403.49 282.209Z" fill="#363C4F"/>
<path d="M410.608 282.154H408.172" stroke="#363C4F" stroke-width="1.5" stroke-miterlimit="10" stroke-linecap="round"/>
<path d="M410.608 280.135H408.172" stroke="#363C4F" stroke-width="1.5" stroke-miterlimit="10" stroke-linecap="round"/>
<path d="M410.608 278.115H408.172" stroke="#363C4F" stroke-width="1.5" stroke-miterlimit="10" stroke-linecap="round"/>
<path d="M410.608 276.096H408.172" stroke="#363C4F" stroke-width="1.5" stroke-miterlimit="10" stroke-linecap="round"/>
<path d="M211.952 255.418H277.139V278.414H211.952V255.418Z" fill="#F2F2F2"/>
<path d="M211.952 272.123H277.139V278.415H211.952V272.123Z" fill="#DEDEDE"/>
<path d="M262.176 255.418H265.937V278.414H262.176V255.418Z" fill="#134E67"/>
<path d="M223.15 255.418H226.911V278.414H223.15V255.418Z" fill="#134E67"/>
<path d="M270.722 276.073H216.416" stroke="#474E63" stroke-width="1.5" stroke-miterlimit="10"/>
<path d="M279.44 245.82H305.01V267.74H279.44V245.82Z" fill="#F2F2F2"/>
<path d="M279.44 245.82H305.01V251.307H279.44V245.82Z" fill="#DEDEDE"/>
<path d="M299.495 264.842H284.048" stroke="#474E63" stroke-width="1.5" stroke-miterlimit="10"/>
<path d="M300.198 261.834V254.609" stroke="#474E63" stroke-width="1.5" stroke-miterlimit="10"/>
<path d="M71.2158 157.055H312.096V246.551H71.2158V157.055Z" fill="#C9C9C9"/>
<path d="M74.7685 159.875H308.545V243.736H74.7685V159.875Z" fill="#F2F2F2"/>
<path d="M79.4941 243.736H74.7674V159.875H177.323L79.4941 243.736Z" fill="white"/>
<path d="M126.864 243.736H100.521L198.349 159.875H224.687L126.864 243.736Z" fill="white"/>
<path d="M309.553 164.226H73.6409" stroke="#C9C9C9" stroke-width="1.5" stroke-miterlimit="10" stroke-linecap="round"/>
<path d="M309.553 170.466H73.6409" stroke="#C9C9C9" stroke-width="1.5" stroke-miterlimit="10" stroke-linecap="round"/>
<path d="M309.553 176.708H73.6409" stroke="#C9C9C9" stroke-width="1.5" stroke-miterlimit="10" stroke-linecap="round"/>
<path d="M309.553 182.953H73.6409" stroke="#C9C9C9" stroke-width="1.5" stroke-miterlimit="10" stroke-linecap="round"/>
<path d="M309.553 189.194H73.6409" stroke="#C9C9C9" stroke-width="1.5" stroke-miterlimit="10" stroke-linecap="round"/>
<path d="M309.553 195.436H73.6409" stroke="#C9C9C9" stroke-width="1.5" stroke-miterlimit="10" stroke-linecap="round"/>
<path d="M309.553 201.677H73.6409" stroke="#C9C9C9" stroke-width="1.5" stroke-miterlimit="10" stroke-linecap="round"/>
<path d="M309.553 207.918H73.6409" stroke="#C9C9C9" stroke-width="1.5" stroke-miterlimit="10" stroke-linecap="round"/>
<path d="M309.553 214.159H73.6409" stroke="#C9C9C9" stroke-width="1.5" stroke-miterlimit="10" stroke-linecap="round"/>
<path d="M309.553 220.405H73.6409" stroke="#C9C9C9" stroke-width="1.5" stroke-miterlimit="10" stroke-linecap="round"/>
<path d="M309.553 226.646H73.6409" stroke="#C9C9C9" stroke-width="1.5" stroke-miterlimit="10" stroke-linecap="round"/>
<path d="M309.553 232.887H73.6409" stroke="#C9C9C9" stroke-width="1.5" stroke-miterlimit="10" stroke-linecap="round"/>
<path d="M309.553 239.128H73.6409" stroke="#C9C9C9" stroke-width="1.5" stroke-miterlimit="10" stroke-linecap="round"/>
<path d="M173.901 297C160.268 297 149.216 287.526 149.216 275.839C149.216 264.152 160.268 254.678 173.901 254.678C187.534 254.678 198.586 264.152 198.586 275.839C198.586 287.526 187.534 297 173.901 297Z" fill="#474E63"/>
<path d="M163.541 284.72C157.819 279.815 157.819 271.862 163.541 266.957C169.263 262.052 178.541 262.052 184.263 266.957C189.985 271.862 189.985 279.815 184.263 284.72C178.541 289.625 169.263 289.625 163.541 284.72Z" fill="white"/>
<path d="M167.572 280.6C164.516 277.607 164.87 273.057 168.362 270.437C171.853 267.818 177.162 268.121 180.217 271.114C183.273 274.107 182.92 278.658 179.428 281.277C175.936 283.897 170.628 283.594 167.572 280.6Z" fill="#C9C9C9"/>
<path d="M173.901 279.357C171.634 279.357 169.797 277.782 169.797 275.839C169.797 273.896 171.634 272.321 173.901 272.321C176.168 272.321 178.005 273.896 178.005 275.839C178.005 277.782 176.168 279.357 173.901 279.357Z" fill="#474E63"/>
<path d="M173.955 267.1C173.504 267.1 173.139 266.787 173.139 266.401C173.139 266.015 173.504 265.702 173.955 265.702C174.405 265.702 174.77 266.015 174.77 266.401C174.77 266.787 174.405 267.1 173.955 267.1Z" fill="#474E63"/>
<path d="M166.154 269.832C165.703 269.832 165.338 269.519 165.338 269.133C165.338 268.747 165.703 268.434 166.154 268.434C166.604 268.434 166.969 268.747 166.969 269.133C166.969 269.519 166.604 269.832 166.154 269.832Z" fill="#474E63"/>
<path d="M162.885 276.492C162.435 276.492 162.07 276.179 162.07 275.793C162.07 275.407 162.435 275.094 162.885 275.094C163.336 275.094 163.701 275.407 163.701 275.793C163.701 276.179 163.336 276.492 162.885 276.492Z" fill="#474E63"/>
<path d="M166.074 283.179C165.623 283.179 165.258 282.866 165.258 282.48C165.258 282.094 165.623 281.781 166.074 281.781C166.524 281.781 166.889 282.094 166.889 282.48C166.889 282.866 166.524 283.179 166.074 283.179Z" fill="#474E63"/>
<path d="M174.663 285.276C174.663 284.89 174.298 284.577 173.847 284.577C173.396 284.577 173.032 284.89 173.032 285.276C173.032 285.663 173.396 285.976 173.847 285.976C174.298 285.976 174.663 285.663 174.663 285.276Z" fill="#474E63"/>
<path d="M181.648 283.243C181.197 283.243 180.832 282.931 180.832 282.544C180.832 282.158 181.197 281.845 181.648 281.845C182.098 281.845 182.463 282.158 182.463 282.544C182.463 282.931 182.098 283.243 181.648 283.243Z" fill="#474E63"/>
<path d="M184.91 275.186C184.459 275.186 184.094 275.498 184.094 275.885C184.094 276.271 184.459 276.584 184.91 276.584C185.36 276.584 185.725 276.271 185.725 275.885C185.725 275.498 185.36 275.186 184.91 275.186Z" fill="#474E63"/>
<path d="M181.15 268.701C180.833 268.972 180.833 269.418 181.15 269.69C181.466 269.961 181.987 269.961 182.303 269.69C182.62 269.418 182.62 268.972 182.303 268.701C181.987 268.429 181.466 268.429 181.15 268.701Z" fill="#474E63"/>
<path d="M169.49 258.817C162.821 259.995 157.085 264.474 155.106 270.058" stroke="#363C4F" stroke-width="1.5" stroke-miterlimit="10"/>
<path d="M190.715 280.958C188.907 285.373 184.696 289.016 179.561 290.602" stroke="#363C4F" stroke-width="1.5" stroke-miterlimit="10"/>
<path d="M205.208 274.79C205.208 260.146 191.36 248.276 174.277 248.276C157.195 248.276 143.347 260.146 143.347 274.79" stroke="#474E63" stroke-width="10" stroke-miterlimit="10"/>
<path d="M164.062 248.837C157.935 250.847 152.505 254.397 148.616 258.928" stroke="#363C4F" stroke-width="1.5" stroke-miterlimit="10"/>
<path d="M143.347 274.79C143.347 260.146 129.5 248.276 112.417 248.276C95.3342 248.276 81.4866 260.146 81.4866 274.79" stroke="#474E63" stroke-width="10" stroke-miterlimit="10"/>
<path d="M99.3423 250.856C91.5789 253.271 85.2158 258.785 82.4795 265.468" stroke="#363C4F" stroke-width="1.5" stroke-miterlimit="10"/>
<path d="M112.282 297C98.6488 297 87.5969 287.526 87.5969 275.839C87.5969 264.152 98.6488 254.678 112.282 254.678C125.915 254.678 136.967 264.152 136.967 275.839C136.967 287.526 125.915 297 112.282 297Z" fill="#474E63"/>
<path d="M108.109 287.895C100.353 285.917 95.9362 278.923 98.244 272.275C100.552 265.626 108.71 261.84 116.466 263.818C124.223 265.796 128.639 272.79 126.332 279.439C124.024 286.088 115.865 289.874 108.109 287.895Z" fill="white"/>
<path d="M104.002 276.987C103.256 273.061 106.363 269.359 110.943 268.719C115.522 268.079 119.84 270.743 120.587 274.669C121.334 278.595 118.226 282.296 113.647 282.936C109.067 283.576 104.749 280.913 104.002 276.987Z" fill="#C9C9C9"/>
<path d="M112.282 279.357C110.015 279.357 108.177 277.782 108.177 275.839C108.177 273.896 110.015 272.321 112.282 272.321C114.549 272.321 116.386 273.896 116.386 275.839C116.386 277.782 114.549 279.357 112.282 279.357Z" fill="#474E63"/>
<path d="M112.335 267.1C111.885 267.1 111.52 266.787 111.52 266.401C111.52 266.015 111.885 265.702 112.335 265.702C112.786 265.702 113.151 266.015 113.151 266.401C113.151 266.787 112.786 267.1 112.335 267.1Z" fill="#474E63"/>
<path d="M104.534 269.832C104.083 269.832 103.718 269.519 103.718 269.133C103.718 268.747 104.083 268.434 104.534 268.434C104.984 268.434 105.349 268.747 105.349 269.133C105.349 269.519 104.984 269.832 104.534 269.832Z" fill="#474E63"/>
<path d="M101.273 276.492C100.822 276.492 100.457 276.179 100.457 275.793C100.457 275.407 100.822 275.094 101.273 275.094C101.723 275.094 102.088 275.407 102.088 275.793C102.088 276.179 101.723 276.492 101.273 276.492Z" fill="#474E63"/>
<path d="M104.46 283.179C104.01 283.179 103.645 282.866 103.645 282.48C103.645 282.094 104.01 281.781 104.46 281.781C104.911 281.781 105.276 282.094 105.276 282.48C105.276 282.866 104.911 283.179 104.46 283.179Z" fill="#474E63"/>
<path d="M113.044 285.276C113.044 284.89 112.68 284.577 112.229 284.577C111.778 284.577 111.413 284.89 111.413 285.276C111.413 285.663 111.778 285.976 112.229 285.976C112.68 285.976 113.044 285.663 113.044 285.276Z" fill="#474E63"/>
<path d="M120.609 282.052C120.292 281.781 119.772 281.781 119.455 282.052C119.139 282.324 119.139 282.77 119.455 283.041C119.772 283.313 120.292 283.313 120.609 283.041C120.925 282.77 120.925 282.324 120.609 282.052Z" fill="#474E63"/>
<path d="M123.291 276.584C122.841 276.584 122.476 276.271 122.476 275.885C122.476 275.499 122.841 275.186 123.291 275.186C123.742 275.186 124.107 275.499 124.107 275.885C124.107 276.271 123.742 276.584 123.291 276.584Z" fill="#474E63"/>
<path d="M120.104 269.897C119.654 269.897 119.288 269.584 119.288 269.198C119.288 268.811 119.654 268.498 120.104 268.498C120.554 268.498 120.919 268.811 120.919 269.198C120.919 269.584 120.554 269.897 120.104 269.897Z" fill="#474E63"/>
<path d="M105.633 260.174C101.014 261.802 97.092 264.838 94.7205 268.604" stroke="#363C4F" stroke-width="1.5" stroke-miterlimit="10"/>
<path d="M127.219 283.147C125.084 286.123 121.908 288.542 118.206 290.004" stroke="#363C4F" stroke-width="1.5" stroke-miterlimit="10"/>
<path d="M338.997 297C325.364 297 314.312 287.526 314.312 275.839C314.312 264.152 325.364 254.678 338.997 254.678C352.63 254.678 363.682 264.152 363.682 275.839C363.682 287.526 352.63 297 338.997 297Z" fill="#474E63"/>
<path d="M333.482 287.474C325.985 284.863 322.376 277.537 325.422 271.11C328.468 264.683 337.014 261.59 344.512 264.201C352.009 266.812 355.617 274.138 352.571 280.565C349.526 286.992 340.979 290.085 333.482 287.474Z" fill="white"/>
<path d="M330.712 276.988C329.966 273.062 333.073 269.361 337.653 268.721C342.232 268.08 346.55 270.744 347.297 274.67C348.044 278.596 344.936 282.297 340.357 282.938C335.777 283.578 331.459 280.914 330.712 276.988Z" fill="#C9C9C9"/>
<path d="M338.998 279.357C336.731 279.357 334.893 277.782 334.893 275.839C334.893 273.896 336.731 272.321 338.998 272.321C341.264 272.321 343.102 273.896 343.102 275.839C343.102 277.782 341.264 279.357 338.998 279.357Z" fill="#474E63"/>
<path d="M339.05 267.1C338.6 267.1 338.235 266.787 338.235 266.401C338.235 266.015 338.6 265.702 339.05 265.702C339.501 265.702 339.866 266.015 339.866 266.401C339.866 266.787 339.501 267.1 339.05 267.1Z" fill="#474E63"/>
<path d="M331.249 269.832C330.799 269.832 330.434 269.519 330.434 269.133C330.434 268.747 330.799 268.434 331.249 268.434C331.7 268.434 332.065 268.747 332.065 269.133C332.065 269.519 331.7 269.832 331.249 269.832Z" fill="#474E63"/>
<path d="M327.988 276.492C327.537 276.492 327.172 276.179 327.172 275.793C327.172 275.407 327.537 275.094 327.988 275.094C328.438 275.094 328.803 275.407 328.803 275.793C328.803 276.179 328.438 276.492 327.988 276.492Z" fill="#474E63"/>
<path d="M331.173 283.179C330.723 283.179 330.358 282.866 330.358 282.48C330.358 282.094 330.723 281.781 331.173 281.781C331.624 281.781 331.989 282.094 331.989 282.48C331.989 282.866 331.624 283.179 331.173 283.179Z" fill="#474E63"/>
<path d="M339.758 285.276C339.758 284.89 339.393 284.577 338.943 284.577C338.492 284.577 338.127 284.89 338.127 285.276C338.127 285.663 338.492 285.976 338.943 285.976C339.393 285.976 339.758 285.663 339.758 285.276Z" fill="#474E63"/>
<path d="M347.324 282.052C347.007 281.781 346.487 281.781 346.17 282.052C345.854 282.324 345.854 282.77 346.17 283.041C346.487 283.312 347.007 283.312 347.324 283.041C347.64 282.77 347.64 282.324 347.324 282.052Z" fill="#474E63"/>
<path d="M350.011 276.584C349.561 276.584 349.196 276.271 349.196 275.885C349.196 275.499 349.561 275.186 350.011 275.186C350.462 275.186 350.827 275.499 350.827 275.885C350.827 276.271 350.462 276.584 350.011 276.584Z" fill="#474E63"/>
<path d="M346.822 269.896C346.371 269.896 346.006 269.583 346.006 269.197C346.006 268.811 346.371 268.498 346.822 268.498C347.272 268.498 347.637 268.811 347.637 269.197C347.637 269.583 347.272 269.896 346.822 269.896Z" fill="#474E63"/>
<path d="M328.303 260.422C323.142 262.818 319.456 267.404 318.678 272.389" stroke="#363C4F" stroke-width="1.5" stroke-miterlimit="10"/>
<path d="M356.542 280.42C355.286 284.269 352.045 287.608 347.855 289.37" stroke="#363C4F" stroke-width="1.5" stroke-miterlimit="10"/>
<path d="M344.249 291.306H344.045" stroke="#363C4F" stroke-width="1.5" stroke-miterlimit="10"/>
<path d="M372.559 279.711V272.891C372.559 257.451 357.96 244.937 339.95 244.937H338.549C320.538 244.937 305.94 257.451 305.94 272.891V279.711" stroke="#474E63" stroke-width="10" stroke-miterlimit="10"/>
<path d="M328.752 245.41C318.076 248.322 309.277 255.874 305.891 265.026" stroke="#363C4F" stroke-width="1.5" stroke-miterlimit="10"/>
<path d="M342.729 239.634H316.456V189.471C316.456 189.471 319.933 183.367 330.518 182.889C364.045 181.367 377.978 184.798 382.909 186.651C384.304 187.176 385.441 188.091 386.134 189.259L407.616 225.703V265.482H375.58C374.116 250.861 359.844 239.634 342.729 239.634Z" fill="#287094"/>
<path opacity="0.2" d="M350.627 189.673V232.915H352.113C368.911 232.915 382.528 244.587 382.528 258.988H407.616V265.477H375.58C374.443 253.464 363.541 241.29 345.428 239.629H316.456V189.668H350.627V189.673ZM321.735 215.447H344.054V193.601H321.735V215.447Z" fill="#134E67"/>
<path d="M354.692 233.163V221.646H394.432V258.656H382.994L382.881 257.782C381.266 244.969 369.602 234.786 354.687 233.167L354.692 233.163Z" stroke="#134E67" stroke-width="1.5" stroke-miterlimit="10" stroke-linecap="round"/>
<path d="M386.293 189.471H316.932" stroke="#134E67" stroke-width="1.5" stroke-miterlimit="10" stroke-linecap="round"/>
<path d="M350.557 189.641V239.814" stroke="#134E67" stroke-width="1.5" stroke-miterlimit="10" stroke-linecap="round"/>
<path d="M404.038 224.696L401.473 221.283" stroke="#134E67" stroke-width="1.5" stroke-miterlimit="10" stroke-linecap="round"/>
<path d="M355.047 187.622H324.026" stroke="#134E67" stroke-width="1.5" stroke-miterlimit="10" stroke-linecap="round"/>
<path d="M375.42 218.882H354.786" stroke="#134E67" stroke-width="1.5" stroke-miterlimit="10" stroke-linecap="round"/>
<path d="M342.307 218.882H324.028" stroke="#134E67" stroke-width="1.5" stroke-miterlimit="10" stroke-linecap="round"/>
<path d="M342.307 232.482H324.028" stroke="#134E67" stroke-width="1.5" stroke-miterlimit="10" stroke-linecap="round"/>
<path d="M362.479 224.489H358.112C357.592 224.489 357.592 223.799 358.112 223.799H362.479C363 223.799 363 224.489 362.479 224.489Z" fill="#363C4F"/>
<path d="M383.139 186.164L382.763 186.486L385.931 189.202L386.307 188.88C386.887 188.382 386.887 187.576 386.307 187.078L385.241 186.164C384.66 185.667 383.72 185.667 383.139 186.164Z" fill="#363C4F"/>
<path d="M384.725 187.429L368.689 173.686" stroke="#363C4F" stroke-width="1.5" stroke-miterlimit="10" stroke-linecap="round"/>
<path d="M383.481 192.065H387.784L404.03 219.618H403.397C400.006 219.618 396.926 217.908 395.547 215.249L383.487 192.06L383.481 192.065Z" fill="white"/>
<path d="M374.403 215.852H354.691V192.198H380.492L392.784 215.944C393.659 217.636 392.215 219.54 390.053 219.54H378.695C378.695 217.503 376.769 215.852 374.392 215.852H374.403Z" fill="white"/>
<path d="M374.87 207.449L362.862 197.156" stroke="#287094" stroke-width="1.5" stroke-miterlimit="10" stroke-linecap="round"/>
<path d="M369.795 207.845L364.339 203.167" stroke="#287094" stroke-width="1.5" stroke-miterlimit="10" stroke-linecap="round"/>
<path d="M384.499 201.41L394.747 219.651H384.499V201.41Z" stroke="#363C4F" stroke-width="1.5" stroke-miterlimit="10"/>
<path d="M394.496 217.13H392.972C392.119 217.13 391.432 217.724 391.432 218.45V219.389C391.432 220.12 392.124 220.709 392.972 220.709H394.496C395.349 220.709 396.036 220.115 396.036 219.389V218.45C396.036 217.719 395.344 217.13 394.496 217.13Z" fill="#363C4F"/>
<path d="M383.321 195.703H381.701V214.927H383.321C384.635 214.927 385.698 214.012 385.698 212.89V197.74C385.698 196.613 384.63 195.703 383.321 195.703Z" fill="#363C4F"/>
<path d="M404.075 226.163H407.616V251.914H404.075V226.163Z" fill="white"/>
<path d="M400.924 226.158H401.423C401.814 226.158 402.131 226.43 402.131 226.765V251.33C402.131 251.665 401.814 251.937 401.423 251.937H400.924C400.533 251.937 400.216 251.665 400.216 251.33V226.765C400.216 226.43 400.533 226.158 400.924 226.158Z" fill="#363C4F"/>
<path d="M405.852 254.287V259.043C405.852 259.875 405.063 260.547 404.098 260.547C402.531 260.547 401.265 259.461 401.265 258.118V255.207C401.265 253.864 402.531 252.779 404.098 252.779C405.069 252.779 405.852 253.455 405.852 254.283V254.287Z" fill="white"/>
<path d="M405.852 254.02V259.319C405.852 259.999 405.208 260.551 404.414 260.551H403.937V252.783H404.414C405.208 252.783 405.852 253.335 405.852 254.016V254.02Z" fill="#FFC76B"/>
<path d="M407.616 227.534H404.075" stroke="#287094" stroke-width="1.5" stroke-miterlimit="10"/>
<path d="M407.616 230.371H404.075" stroke="#287094" stroke-width="1.5" stroke-miterlimit="10"/>
<path d="M407.616 233.209H404.075" stroke="#287094" stroke-width="1.5" stroke-miterlimit="10"/>
<path d="M407.616 236.047H404.075" stroke="#287094" stroke-width="1.5" stroke-miterlimit="10"/>
<path d="M407.616 238.885H404.075" stroke="#287094" stroke-width="1.5" stroke-miterlimit="10"/>
<path d="M407.616 241.722H404.075" stroke="#287094" stroke-width="1.5" stroke-miterlimit="10"/>
<path d="M407.616 244.56H404.075" stroke="#287094" stroke-width="1.5" stroke-miterlimit="10"/>
<path d="M407.616 247.402H404.075" stroke="#287094" stroke-width="1.5" stroke-miterlimit="10"/>
<path d="M407.616 250.24H404.075" stroke="#287094" stroke-width="1.5" stroke-miterlimit="10"/>
<path d="M296.492 240.379C295.618 237.932 294.679 235.402 293.493 232.983C293.198 232.381 292.501 231.999 291.739 232.008C290.397 232.017 289.485 233.19 290.006 234.248C291.132 236.538 292.007 238.944 292.844 241.271C293.557 243.267 297.211 242.389 296.492 240.383V240.379Z" fill="#FF977A"/>
<path d="M290.173 228.729C288.424 228.743 287.297 230.316 288.075 231.659C288.509 232.408 288.906 233.103 289.1 233.475C289.207 233.673 290.006 235.448 290.097 235.628L295.232 235.692C294.792 234.722 293.241 231.668 292.356 229.939C291.975 229.194 291.117 228.72 290.173 228.724V228.729Z" fill="#287094"/>
<path d="M295.349 236.092L290.355 236.028C290.153 236.026 289.992 235.884 289.995 235.711L289.999 235.486C290.002 235.313 290.168 235.175 290.369 235.178L295.364 235.241C295.565 235.244 295.726 235.386 295.723 235.558L295.719 235.784C295.716 235.956 295.55 236.094 295.349 236.092Z" fill="#023246"/>
<path d="M289.821 293.712L293.652 293.541L294.419 292.842L293.395 290.023L293.405 272.072L293.674 249.352H285.089L288.131 271.902L289.8 290.607L289.108 292.419L289.821 293.712Z" fill="#474E63"/>
<path d="M292.865 253.372C292.039 253.225 291.32 252.696 291.024 252.02" stroke="#363C4F" stroke-width="0.5" stroke-miterlimit="10" stroke-linecap="round"/>
<path d="M292.283 292.746C291.542 291.743 290.807 290.741 290.067 289.743" stroke="#363C4F" stroke-width="0.5" stroke-miterlimit="10" stroke-linecap="round"/>
<path d="M291.613 284.776C291.554 283.566 291.495 282.356 291.431 281.151" stroke="#363C4F" stroke-width="0.5" stroke-miterlimit="10" stroke-linecap="round"/>
<path d="M292.263 276.327H290.369" stroke="#363C4F" stroke-width="0.5" stroke-miterlimit="10" stroke-linecap="round"/>
<path d="M291.318 275.922H290.175" stroke="#363C4F" stroke-width="0.5" stroke-miterlimit="10" stroke-linecap="round"/>
<path d="M291.834 271.304C291.818 269.106 291.834 266.907 291.855 264.714" stroke="#363C4F" stroke-width="0.5" stroke-miterlimit="10" stroke-linecap="round"/>
<path d="M282.729 293.712L278.903 293.541L278.131 292.842L279.161 290.023L279.15 272.072L278.877 249.352H287.466L284.419 271.902L282.756 290.607L283.448 292.419L282.729 293.712Z" fill="#474E63"/>
<path d="M279.691 253.372C280.517 253.225 281.236 252.696 281.531 252.02" stroke="#363C4F" stroke-width="0.5" stroke-miterlimit="10" stroke-linecap="round"/>
<path d="M280.268 292.746C281.008 291.743 281.743 290.741 282.484 289.743" stroke="#363C4F" stroke-width="0.5" stroke-miterlimit="10" stroke-linecap="round"/>
<path d="M280.937 284.775C280.996 283.566 281.054 282.356 281.119 281.151" stroke="#363C4F" stroke-width="0.5" stroke-miterlimit="10" stroke-linecap="round"/>
<path d="M280.293 276.327H282.181" stroke="#363C4F" stroke-width="0.5" stroke-miterlimit="10" stroke-linecap="round"/>
<path d="M281.236 275.922H282.378" stroke="#363C4F" stroke-width="0.5" stroke-miterlimit="10" stroke-linecap="round"/>
<path d="M280.714 271.304C280.729 269.106 280.714 266.907 280.693 264.714" stroke="#363C4F" stroke-width="0.5" stroke-miterlimit="10" stroke-linecap="round"/>
<path d="M287.722 256.283H288.828V252.503" stroke="#363C4F" stroke-width="0.5" stroke-miterlimit="10" stroke-linecap="round"/>
<path d="M287.824 254.996V252.425" stroke="#363C4F" stroke-width="0.5" stroke-miterlimit="10" stroke-linecap="round"/>
<path d="M278.935 249.352H293.775V251.279H278.935V249.352Z" fill="#363C4F"/>
<path d="M278.935 250.07H293.775V251.072H278.935V250.07Z" fill="#FCB33A"/>
<path d="M282.879 250.07H283.394V251.215H282.879V250.07Z" fill="#363C4F"/>
<path d="M285.111 250.07H285.626V251.215H285.111V250.07Z" fill="#363C4F"/>
<path d="M290.641 250.07H291.156V251.215H290.641V250.07Z" fill="#363C4F"/>
<path d="M292.762 250.07H293.277V251.215H292.762V250.07Z" fill="#363C4F"/>
<path d="M289.193 251.27H287.535V249.927H289.193V251.27Z" stroke="#FFDDA6" stroke-width="0.62" stroke-miterlimit="10"/>
<path d="M276.771 295.905H282.646C282.821 295.905 282.962 296.027 282.962 296.177V296.729C282.962 296.878 282.821 297 282.646 297H276.771C276.596 297 276.454 296.878 276.454 296.729V296.177C276.454 296.027 276.596 295.905 276.771 295.905Z" fill="#474E63"/>
<path d="M276.553 295.28L279.348 293.344H282.385L283.205 294.953C283.576 295.68 282.953 296.499 282.03 296.499H277.052C276.3 296.499 275.962 295.685 276.547 295.28H276.553Z" fill="#363C4F"/>
<path d="M279.015 294.848H282.421" stroke="#474E63" stroke-width="0.5" stroke-miterlimit="10" stroke-linecap="round"/>
<path d="M289.886 295.905H295.761C295.936 295.905 296.078 296.027 296.078 296.177V296.729C296.078 296.878 295.936 297 295.761 297H289.886C289.711 297 289.57 296.878 289.57 296.729V296.177C289.57 296.027 289.711 295.905 289.886 295.905Z" fill="#474E63"/>
<path d="M295.996 295.28L293.201 293.344H290.164L289.343 294.953C288.973 295.68 289.596 296.499 290.518 296.499H295.497C296.248 296.499 296.586 295.685 296.002 295.28H295.996Z" fill="#363C4F"/>
<path d="M293.535 294.847H290.133" stroke="#474E63" stroke-width="0.5" stroke-miterlimit="10" stroke-linecap="round"/>
<path d="M282.909 220.216C282.909 220.216 285.205 218.758 288.585 218.602C291.965 218.445 294.964 219.926 291.772 220.837L289.701 221.196C289.701 221.196 289.32 219.011 288.848 218.97C288.848 218.97 287.63 219.066 286.085 220.189C284.813 220.957 282.903 220.216 282.903 220.216H282.909Z" fill="#023246"/>
<path d="M292.893 242.394L292.196 231.802C292.212 230.551 291.59 228.821 290.264 228.476L288.446 227.934L285.484 228.062L284.749 228.095L281.787 228.223L279.287 228.955C278.005 229.415 277.2 230.509 277.27 231.7L279.051 242.996L278.45 249.21C278.397 249.739 278.906 250.185 279.523 250.162L286.026 249.881L286.761 249.849L293.264 249.568C293.881 249.541 294.331 249.053 294.219 248.529L292.893 242.398V242.394Z" fill="#287094"/>
<path d="M280.603 236.267C282.609 241.202 286.552 245.544 291.644 248.428" stroke="#474E63" stroke-width="0.5" stroke-miterlimit="10" stroke-linecap="round"/>
<path d="M287.297 243.847C288.563 244.477 289.829 245.112 291.095 245.742" stroke="#474E63" stroke-width="0.5" stroke-miterlimit="10" stroke-linecap="round"/>
<path d="M288.22 229.373L285.87 230.9L283.375 229.58L283.005 223.284L287.85 223.072L288.22 229.373Z" fill="#FFCBB5"/>
<path d="M285.527 227.506C286.401 227.989 287.292 228.062 288.134 227.832L287.855 223.077L283.011 223.284L283.123 225.243C283.762 226.112 284.524 226.949 285.527 227.506Z" fill="#FFAB94"/>
<path d="M285.871 230.9L283.311 228.541L283.22 226.899L282.067 227.828L282.909 230.394L283.376 229.58L285.871 230.9Z" fill="#023246"/>
<path d="M285.871 230.9L288.167 228.329L288.07 226.692L289.326 227.52L288.784 230.141L288.231 229.373L285.871 230.9Z" fill="#023246"/>
<path d="M289.644 218.211C289.644 218.211 290.373 221.002 290.191 223.242C290.084 224.558 288.882 226.659 287.406 226.65C285.11 226.636 283.114 224.962 282.535 224.309C281.848 223.532 281.929 222.971 281.365 221.807C280.877 220.8 280.968 219.503 281.456 218.5C281.961 217.461 282.508 216.495 284.906 216.431C288.458 216.334 289.644 218.211 289.644 218.211Z" fill="#FFCBB5"/>
<path d="M282.701 220.069C283.211 220.432 283.796 220.864 284.472 220.947C285.663 221.094 286.634 220.326 287.729 220.083C288.539 219.903 289.311 219.945 290.025 220.147C289.859 219.039 289.644 218.215 289.644 218.215C289.644 218.215 288.458 216.339 284.907 216.435C282.508 216.5 281.961 217.466 281.457 218.505C281.403 218.62 281.349 218.74 281.306 218.864C281.72 219.31 282.192 219.71 282.707 220.073L282.701 220.069Z" fill="#FFAB94"/>
<path d="M288.795 217.843C288.859 217.829 288.923 217.834 288.988 217.843L289.455 217.824C289.031 217.227 287.732 216.035 284.991 216.109C282.593 216.173 281.568 217.438 281.063 218.482C280.575 219.489 280.629 220.63 281.117 221.637C281.428 222.276 281.772 223.045 282.126 223.739L282.77 223.615C282.77 223.615 283.478 221.665 282.952 219.931C282.678 219.02 282.426 218.611 282.759 218.409C284.202 217.521 285.238 218.524 286.815 218.464C287.947 218.422 287.909 218.008 288.795 217.857C288.795 217.857 288.795 217.857 288.8 217.857L288.795 217.843Z" fill="#474E63"/>
<path d="M287.298 221.729L288.285 223.302C288.339 223.385 288.285 223.491 288.173 223.514C287.883 223.564 287.572 223.615 287.572 223.615" fill="url(#paint4_linear_75_1804)"/>
<path d="M287.298 221.729L288.285 223.302C288.339 223.385 288.285 223.491 288.173 223.514C287.883 223.564 287.572 223.615 287.572 223.615" stroke="#FF977A" stroke-width="0.5" stroke-miterlimit="10" stroke-linecap="round"/>
<path d="M286.603 224.452C287.14 224.557 287.698 224.584 288.24 224.525" stroke="#474E63" stroke-width="0.57" stroke-miterlimit="10" stroke-linecap="round"/>
<path d="M287.049 225.114C287.269 225.123 287.489 225.137 287.708 225.146" stroke="#FF977A" stroke-width="0.5" stroke-miterlimit="10" stroke-linecap="round"/>
<path d="M284.872 222.644L286.144 222.594" stroke="#FF977A" stroke-width="0.5" stroke-miterlimit="10" stroke-linecap="round"/>
<path d="M285.999 221.909C285.956 221.706 285.736 221.568 285.495 221.605C285.258 221.642 285.097 221.835 285.14 222.037C285.178 222.226 285.376 222.355 285.591 222.346C285.607 222.346 285.629 222.346 285.645 222.341C285.757 222.323 285.859 222.272 285.929 222.189C285.999 222.106 286.02 222.01 286.004 221.909H285.999Z" fill="#474E63"/>
<path d="M284.304 220.846C284.685 220.676 285.656 220.566 286.08 220.612" stroke="#474E63" stroke-width="0.57" stroke-miterlimit="10" stroke-linecap="round"/>
<path d="M289.537 222.447L288.265 222.502" stroke="#FF977A" stroke-width="0.5" stroke-miterlimit="10" stroke-linecap="round"/>
<path d="M288.33 221.812C288.346 221.605 288.555 221.453 288.797 221.467C289.038 221.481 289.22 221.66 289.199 221.867C289.183 222.056 289 222.208 288.786 222.217C288.77 222.217 288.748 222.217 288.732 222.217C288.614 222.208 288.512 222.166 288.432 222.088C288.357 222.014 288.319 221.918 288.324 221.817L288.33 221.812Z" fill="#474E63"/>
<path d="M289.736 220.528C289.339 220.391 288.588 220.336 288.234 220.482" stroke="#474E63" stroke-width="0.57" stroke-miterlimit="10" stroke-linecap="round"/>
<path d="M282.576 221.881C282.324 221.582 281.884 221.371 281.466 221.463C281.09 221.541 280.822 221.849 280.715 222.171C280.586 222.557 280.656 222.99 280.897 223.335C281.139 223.679 281.552 223.932 282.008 224.02C282.351 224.084 282.759 224.034 282.963 223.79C283.183 223.523 283.043 223.174 283 222.879C282.952 222.53 282.823 222.176 282.576 221.886V221.881Z" fill="#FFCBB5"/>
<path d="M282.351 223.284C282.238 223.348 282.077 223.33 281.986 223.247C281.895 223.164 281.895 223.022 281.976 222.934C282.061 222.847 282.222 222.824 282.34 222.884C282.276 222.415 281.922 221.991 281.3 222.047" stroke="#FF977A" stroke-width="0.5" stroke-linecap="round" stroke-linejoin="round"/>
<path d="M288.993 218.321C288.951 217.631 288.269 217.098 287.459 217.135C286.654 217.172 286.032 217.756 286.075 218.45C286.096 218.818 286.3 219.14 286.606 219.356L287.545 218.91L288.913 218.809C288.977 218.657 289.004 218.496 288.999 218.321H288.993Z" fill="#F1F1F1"/>
<path d="M283.988 220.175L280.715 220.317C280.715 220.317 280.098 217.438 282.561 216.27C285.726 214.693 289.734 215.488 290.179 218.712L287.362 218.919L285.404 219.871L283.988 220.179V220.175Z" fill="#287094"/>
<path d="M290.093 218.712C290.093 218.653 290.093 218.593 290.093 218.528C290.018 217.208 288.709 216.197 287.169 216.261C285.629 216.325 284.449 217.448 284.524 218.768C284.551 219.209 284.717 219.614 284.98 219.959L285.404 219.867L287.362 218.915L290.093 218.712Z" fill="#F1F1F1"/>
<path d="M280.653 219.729C280.669 220.087 280.717 220.317 280.717 220.317L283.99 220.175L285.406 219.867L285.835 219.503L280.653 219.724V219.729Z" fill="#023246"/>
<path d="M282.561 219.945C282.438 218.639 282.937 215.87 284.798 215.511" stroke="#023246" stroke-width="0.4" stroke-miterlimit="10" stroke-linecap="round"/>
<path d="M288.231 219.103C288.838 218.892 289.546 218.717 290.324 218.662C289.776 218.597 289.192 218.574 288.591 218.602C285.211 218.758 282.914 220.216 282.914 220.216C282.914 220.216 284.824 220.957 286.096 220.189C286.096 220.189 286.16 220.143 286.262 220.074C287.062 219.522 287.765 219.241 288.237 219.103H288.231Z" fill="#287094"/>
<path d="M288.474 218.813C289.719 218.602 291.109 218.643 292.305 219.181C292.67 219.347 293.013 219.614 293.056 219.982" stroke="#287094" stroke-width="0.42" stroke-miterlimit="10" stroke-linecap="round"/>
<path d="M292.508 236.704L294.6 237.67L295.458 239.491L292.653 238.696L292.508 236.704Z" fill="#FFCBB5"/>
<path d="M285.539 236.985L282.197 239.712L285.046 240.126L286.521 237.964L285.539 236.985Z" fill="#FFAB94"/>
<path d="M293.559 242.347C290.887 240.935 284.642 238.259 284.642 238.259L285.554 236.976C285.554 236.976 292.969 238.617 295.067 239.1C296.091 239.542 297.036 240.756 296.435 241.593C295.759 242.541 294.584 242.789 293.554 242.347H293.559Z" fill="#FFAB94"/>
<path d="M284.558 242.968C287.235 241.267 293.544 237.919 293.544 237.919L292.509 236.704C292.509 236.704 284.912 239.114 282.766 239.818C281.73 240.365 280.834 241.694 281.516 242.49C282.283 243.387 283.522 243.516 284.563 242.968H284.558Z" fill="#FFCBB5"/>
<path d="M284.878 241.083C283.992 239.123 283.102 237.086 282.388 235.021C282.141 234.308 281.374 233.821 280.505 233.857C279.303 233.908 278.466 234.915 278.82 235.904C279.078 236.626 279.351 237.344 279.62 238.052C280.178 239.524 280.773 240.986 281.422 242.426C282.302 244.38 285.747 243.024 284.872 241.083H284.878Z" fill="#FFCBB5"/>
<path d="M279.22 236.994C279.354 237.348 279.488 237.698 279.622 238.052C279.821 238.572 280.025 239.091 280.234 239.611L283.287 237.426C282.933 236.557 282.6 235.679 282.299 234.796L279.22 236.999V236.994Z" fill="#FFAB94"/>
<path d="M279.7 230.822C278.23 230.886 277.183 232.073 277.516 233.305C278.015 235.136 278.696 237.15 279.179 238.452L283.123 235.633C283.064 235.444 282.468 233.581 282.404 233.37C282.307 233.048 282.21 232.726 282.119 232.404C281.856 231.443 280.848 230.771 279.694 230.822H279.7Z" fill="#287094"/>
<path d="M283.447 235.944L279.612 238.687C279.457 238.798 279.227 238.78 279.098 238.647L278.929 238.474C278.8 238.342 278.821 238.144 278.976 238.034L282.811 235.291C282.966 235.18 283.196 235.198 283.325 235.33L283.493 235.503C283.622 235.636 283.602 235.833 283.447 235.944Z" fill="#023246"/>
<path d="M291.509 232.917L288.498 233.047L288.463 232.459L291.475 232.329L291.509 232.917Z" fill="#F1F1F1"/>
<defs>
<linearGradient id="paint0_linear_75_1804" x1="169.728" y1="78.3067" x2="196.939" y2="78.3067" gradientUnits="userSpaceOnUse">
<stop stop-color="#DAE3FE"/>
<stop offset="1" stop-color="#E9EFFD"/>
</linearGradient>
<linearGradient id="paint1_linear_75_1804" x1="175.083" y1="73.4874" x2="191.583" y2="73.4874" gradientUnits="userSpaceOnUse">
<stop stop-color="#DAE3FE"/>
<stop offset="1" stop-color="#E9EFFD"/>
</linearGradient>
<linearGradient id="paint2_linear_75_1804" x1="178.077" y1="103.371" x2="188.432" y2="103.371" gradientUnits="userSpaceOnUse">
<stop stop-color="#DAE3FE"/>
<stop offset="1" stop-color="#E9EFFD"/>
</linearGradient>
<linearGradient id="paint3_linear_75_1804" x1="120.489" y1="181.338" x2="195.89" y2="181.338" gradientUnits="userSpaceOnUse">
<stop stop-color="#DAE3FE"/>
<stop offset="1" stop-color="#E9EFFD"/>
</linearGradient>
<linearGradient id="paint4_linear_75_1804" x1="288.07" y1="226.045" x2="287.686" y2="219.096" gradientUnits="userSpaceOnUse">
<stop stop-color="#FFDEC9"/>
<stop offset="0.29" stop-color="#FFD3BD"/>
<stop offset="0.81" stop-color="#FFB6A0"/>
<stop offset="1" stop-color="#FFAB94"/>
</linearGradient>
</defs>
</svg>
