<svg width="1281" height="732" viewBox="0 0 1281 732" fill="none" xmlns="http://www.w3.org/2000/svg">
<path d="M550.448 0C506.668 11.5586 468.675 36.9772 450.006 81.3256C422.785 153.411 469.439 218.108 518.041 273.566C545.262 306.84 549.138 349.354 541.368 390.017C529.704 439.92 471.386 441.771 426.679 449.177C378.077 456.566 321.706 467.657 302.272 512.023C284.786 547.149 298.378 589.663 282.839 624.789C234.583 731.844 102.553 663.946 0 666.645V732H1281V0H550.43H550.448Z" fill="#5BA2C6" fill-opacity="0.17"/>
<path d="M673.972 56.3217H770.703C770.703 56.3217 753.234 29.5991 710.979 35.0356C668.724 40.4722 681.822 53.2438 668.192 52.0645C654.577 50.8851 643.046 55.847 643.046 56.3217C643.046 56.7963 673.957 56.3217 673.957 56.3217H673.972Z" fill="white"/>
<path d="M865.907 111H985C985 111 973.13 95.5313 958.579 101.334C944.027 107.136 942.792 86.2633 917.225 87.0201C902.187 87.4716 897.31 105.782 888.122 103.843C878.934 101.905 865.723 103.458 865.145 106.552C864.566 109.646 865.907 111 865.907 111Z" fill="white"/>
<path d="M1131.89 47.4333H1236.33C1236.33 47.4333 1226.35 37.2505 1210.22 39.5517C1194.09 41.8529 1193.14 28.2184 1176.62 28.995C1160.11 29.7573 1153.98 41.105 1148.01 41.292C1142.06 41.479 1107.82 41.8673 1107.69 47.6347L1131.89 47.4477V47.4333Z" fill="white"/>
<path d="M982.393 332.701C987.509 325.577 989.299 316.46 988.667 307.707C987.872 296.758 984.17 286.025 978.395 276.72C972.351 266.983 963.52 259.711 955.712 251.47C946.1 241.329 938.077 229.546 933.096 216.484C926.284 198.64 927.024 181.309 931.453 163.075C933.405 155.022 935.815 147.09 938.521 139.266C939.113 137.555 940.581 129.987 942.263 129.031C944.969 135.212 952.104 139.495 957.462 143.063C968.689 150.551 979.539 157.513 989.192 167.088C998.898 176.716 1007.28 187.759 1013.4 200.027C1031.46 236.279 1024.96 280.06 1001.98 312.622C996.865 319.881 990.417 328.405 982.407 332.714L982.393 332.701Z" fill="#5BA2C6" fill-opacity="0.51"/>
<g opacity="0.6">
<path d="M942.56 133.448C942.56 133.448 942.775 134.256 943.166 135.791C943.556 137.313 944.121 139.562 944.983 142.377C945.804 145.191 946.868 148.598 948.227 152.463C948.927 154.389 949.627 156.436 950.516 158.55C950.947 159.614 951.377 160.705 951.822 161.822C952.306 162.927 952.804 164.044 953.302 165.203C955.308 169.808 957.785 174.656 960.585 179.666C963.466 184.689 966.657 189.806 969.941 195.22C973.24 200.593 976.605 206.222 979.701 212.147C982.811 218.005 985.813 224.106 988.505 230.327C989.852 233.452 991.131 236.603 992.315 239.781C993.473 242.973 994.509 246.205 995.438 249.423C997.269 255.968 998.4 262.499 998.979 268.882C999.558 275.266 999.692 281.46 999.356 287.305C999.033 293.149 998.373 298.657 997.323 303.667C996.313 308.676 995.008 313.201 993.446 317.053C991.925 320.918 990.188 324.136 988.505 326.6C986.836 329.078 985.167 330.748 983.955 331.772C982.744 332.795 982.017 333.226 982.017 333.226C982.017 333.226 982.69 332.714 983.78 331.583C984.871 330.452 986.284 328.634 987.738 326.116C989.179 323.597 990.606 320.338 991.79 316.474C992.961 312.595 993.984 308.138 994.698 303.209C995.384 298.28 995.869 292.893 995.936 287.184C995.99 281.474 995.775 275.454 995.034 269.286C994.281 263.132 993.163 256.789 991.373 250.581C989.502 244.333 987.227 238.098 984.628 231.97C982.017 225.829 979.136 219.837 976.228 213.898C973.307 208.027 970.157 202.357 967.114 196.836C964.045 191.341 961.097 185.928 958.539 180.757C955.914 175.558 953.626 170.549 951.808 165.822C951.351 164.637 950.906 163.479 950.462 162.361C950.058 161.216 949.668 160.099 949.291 159.008C948.497 156.84 947.891 154.739 947.258 152.773C946.612 150.82 946.154 148.948 945.67 147.238C945.171 145.528 944.808 143.939 944.485 142.498C943.785 139.629 943.354 137.354 943.044 135.818C942.735 134.27 942.573 133.448 942.573 133.448H942.56Z" fill="white"/>
</g>
<path d="M1132.9 429.755C1130.39 422.82 1131.24 414.282 1134.06 406.296C1137.58 396.29 1143.55 386.716 1150.91 378.595C1158.61 370.111 1168.05 364.105 1176.86 357.143C1187.71 348.565 1197.64 338.357 1205.3 326.735C1215.77 310.858 1219.66 294.873 1220.64 277.77C1221.07 270.216 1221.09 262.742 1220.83 255.335C1220.78 253.719 1221.49 246.649 1220.31 245.625C1216.39 251.093 1209.17 254.486 1203.67 257.355C1192.13 263.374 1181.05 268.936 1170.31 276.976C1159.51 285.069 1149.47 294.577 1141.06 305.377C1116.18 337.306 1110.3 378.057 1121.41 409.771C1123.89 416.841 1127.16 425.176 1132.88 429.755H1132.9Z" fill="#5BA2C6" fill-opacity="0.51"/>
<g opacity="0.6">
<path d="M1218.91 249.665C1218.91 249.665 1218.56 250.406 1217.91 251.78C1217.26 253.167 1216.32 255.2 1215.01 257.745C1213.76 260.317 1212.08 263.347 1210.11 266.822C1208.12 270.269 1205.81 274.134 1203.09 278.215C1200.41 282.335 1197.3 286.631 1193.84 291.116C1192.1 293.324 1190.33 295.587 1188.51 297.889C1186.68 300.192 1184.74 302.509 1182.79 304.865C1178.9 309.592 1174.87 314.427 1170.93 319.423C1168.92 321.887 1166.98 324.5 1165.04 327.072C1163.11 329.644 1161.15 332.243 1159.28 334.869C1155.5 340.121 1151.95 345.508 1148.67 350.935C1145.36 356.335 1142.67 361.91 1140.26 367.445C1137.86 372.98 1135.95 378.501 1134.34 383.78C1132.71 389.072 1131.55 394.19 1130.66 398.93C1128.95 408.424 1128.68 416.585 1129.77 422.119C1130.31 424.88 1131.09 426.967 1131.81 428.314C1132.17 428.987 1132.48 429.472 1132.71 429.795C1132.94 430.119 1133.06 430.28 1133.06 430.28C1133.06 430.28 1132.92 430.132 1132.65 429.836C1132.39 429.54 1132.01 429.082 1131.58 428.449C1130.7 427.183 1129.63 425.136 1128.86 422.335C1128.08 419.547 1127.53 416.046 1127.35 412.019C1127.14 407.993 1127.38 403.441 1127.96 398.526C1128.54 393.61 1129.57 388.332 1130.97 382.837C1132.37 377.343 1134.26 371.646 1136.55 365.896C1138.83 360.146 1141.69 354.342 1145.01 348.753C1148.28 343.137 1152.03 337.71 1155.89 332.405C1159.77 327.099 1163.79 321.954 1167.94 317.012C1170.04 314.561 1172.03 312.043 1174.16 309.713C1176.26 307.37 1178.33 305.054 1180.38 302.778C1182.42 300.515 1184.43 298.293 1186.39 296.112C1188.35 293.903 1190.26 291.749 1192.1 289.661C1195.63 285.392 1198.95 281.272 1201.78 277.299C1207.52 269.421 1211.72 262.432 1214.56 257.503C1216.01 255.052 1217.06 253.072 1217.79 251.726C1218.52 250.379 1218.91 249.665 1218.91 249.665Z" fill="white"/>
</g>
<path d="M805.073 321.335C799.957 314.211 798.167 305.094 798.799 296.341C799.594 285.392 803.296 274.66 809.071 265.354C815.115 255.618 823.946 248.346 831.754 240.104C841.366 229.964 849.389 218.18 854.37 205.118C861.182 187.274 860.441 169.943 856.013 151.709C854.061 143.656 851.651 135.724 848.945 127.9C848.353 126.19 846.885 118.621 845.203 117.665C842.497 123.846 835.362 128.129 830.004 131.697C818.777 139.185 807.926 146.147 798.274 155.722C788.568 165.351 780.181 176.393 774.07 188.661C756.004 224.914 762.506 268.694 785.485 301.256C790.614 308.515 797.049 317.039 805.059 321.348L805.073 321.335Z" fill="#5BA2C6" fill-opacity="0.51"/>
<g opacity="0.6">
<path d="M844.92 122.096C844.92 122.096 844.758 122.917 844.448 124.466C844.139 126.014 843.708 128.29 843.021 131.145C842.698 132.586 842.321 134.175 841.837 135.886C841.352 137.596 840.894 139.468 840.248 141.42C839.629 143.373 839.01 145.487 838.216 147.655C837.839 148.746 837.435 149.864 837.044 151.009C836.6 152.14 836.156 153.298 835.698 154.483C833.867 159.21 831.592 164.219 828.967 169.418C826.396 174.602 823.448 180.016 820.392 185.497C817.363 191.018 814.199 196.688 811.278 202.559C808.37 208.498 805.49 214.49 802.878 220.631C800.28 226.772 798.005 232.994 796.134 239.242C794.343 245.45 793.226 251.793 792.472 257.947C791.732 264.115 791.516 270.135 791.57 275.845C791.637 281.554 792.108 286.941 792.808 291.87C793.522 296.799 794.545 301.256 795.716 305.135C796.901 308.999 798.314 312.258 799.768 314.777C801.222 317.295 802.636 319.113 803.726 320.244C804.817 321.375 805.49 321.887 805.49 321.887C805.49 321.887 804.763 321.456 803.551 320.433C802.34 319.409 800.67 317.739 799.001 315.261C797.318 312.797 795.595 309.592 794.06 305.714C792.499 301.862 791.206 297.337 790.183 292.328C789.147 287.318 788.474 281.81 788.151 275.966C787.814 270.121 787.949 263.927 788.528 257.543C789.093 251.16 790.237 244.615 792.068 238.084C793.01 234.865 794.033 231.62 795.191 228.442C796.362 225.264 797.655 222.113 799.001 218.988C801.693 212.767 804.695 206.653 807.805 200.795C810.915 194.87 814.267 189.24 817.565 183.867C820.85 178.454 824.04 173.336 826.921 168.313C829.721 163.304 832.198 158.456 834.204 153.85C834.715 152.705 835.2 151.574 835.685 150.47C836.129 149.352 836.573 148.261 836.991 147.198C837.879 145.083 838.566 143.023 839.279 141.111C840.639 137.259 841.702 133.852 842.523 131.024C843.385 128.21 843.95 125.974 844.341 124.439C844.731 122.917 844.947 122.096 844.947 122.096H844.92Z" fill="white"/>
</g>
<path d="M1139.56 103.606C1139.21 107.484 1138.2 111.376 1136.52 115.686C1134.84 119.968 1132.51 124.654 1129.69 129.489C1126.14 135.495 1122.18 141.488 1117.79 147.332C1113.46 153.19 1108.76 158.914 1103.81 164.368C1093.51 175.774 1081.88 184.702 1071.2 195.785C1058.08 209.387 1046.77 226.637 1039.3 246.151C1034.22 259.456 1031.52 272.626 1030.57 285.608C1029.62 298.603 1030.44 311.41 1032.44 324.19C1034.21 335.475 1036.63 346.383 1039.49 356.941C1040.09 359.257 1041.77 369.653 1043.48 370.636C1045.96 361.317 1052.97 353.776 1058.29 347.689C1069.44 334.95 1080.33 323.328 1090.49 308.878C1100.72 294.348 1110.08 278.74 1118.04 262.661C1129.76 238.825 1137.18 215.177 1141.54 192.688C1142.59 187.045 1143.52 181.511 1144.17 176.003C1144.89 170.535 1145.34 165.081 1145.69 159.748C1145.77 158.415 1145.82 157.069 1145.88 155.735C1145.94 154.416 1146 153.096 1146.02 151.763C1146.05 149.096 1146.13 146.497 1146.08 143.871C1146.04 138.673 1145.82 133.327 1145.3 128.56C1144.83 124.25 1144.29 119.847 1143.41 115.645C1142.54 111.457 1141.39 107.444 1139.56 103.646V103.606Z" fill="#5BA2C6" fill-opacity="0.51"/>
<g opacity="0.6">
<path d="M1043.63 364.28C1046.2 338.936 1052.33 313.955 1061.76 291.156C1066.37 279.696 1071.69 268.761 1076.99 257.961C1082.33 247.228 1087.58 236.428 1093.08 225.978C1094.42 223.365 1095.77 220.739 1097.13 218.113C1098.5 215.5 1099.81 212.888 1101.13 210.275C1103.81 205.077 1106.43 199.893 1108.92 194.694C1113.85 184.258 1118.43 173.727 1122.67 163.196C1126.99 152.705 1131.08 142.269 1134.66 131.751C1136.38 126.445 1137.99 121.503 1139.01 116.817C1139.51 114.474 1139.91 112.198 1140.06 109.922C1140.22 107.646 1140.18 105.37 1139.63 103C1140.41 105.343 1140.72 107.7 1140.77 110.03C1140.81 112.359 1140.6 114.689 1140.27 117.1C1139.59 121.88 1138.44 126.984 1136.92 132.411C1133.89 143.238 1130.08 153.891 1126.07 164.637C1121.98 175.343 1117.64 186.157 1112.64 196.809C1107.63 207.488 1102.19 217.938 1096.67 228.469C1091.08 239.202 1085.59 249.787 1080.13 260.277C1074.54 270.902 1069.02 281.595 1063.96 292.624C1058.92 303.667 1054.72 315.288 1051.36 327.314C1047.99 339.34 1045.46 351.729 1043.6 364.267L1043.63 364.28Z" fill="white"/>
</g>
<path d="M786.845 380.225C783.937 377.639 781.42 374.488 778.983 370.569C776.547 366.664 774.191 361.991 771.997 356.846C769.304 350.396 766.854 343.649 764.794 336.647C762.694 329.671 760.904 322.48 759.477 315.261C756.475 300.179 756.246 285.527 753.742 270.35C750.673 251.699 743.578 232.32 732.392 214.679C724.745 202.667 715.793 192.634 705.952 184.123C696.098 175.612 685.342 168.61 673.9 162.59C663.803 157.271 653.599 152.705 643.435 148.692C641.214 147.79 631.871 142.942 630.067 143.723C636.071 151.278 637.929 161.405 639.625 169.31C643.193 185.847 646.02 201.536 651.539 218.315C657.086 235.202 664.018 252.022 672.163 268.007C684.279 291.654 698.818 311.72 714.245 328.647C718.149 332.849 722.012 336.902 726.051 340.713C729.995 344.565 734.101 348.174 738.18 351.635C739.203 352.497 740.253 353.345 741.29 354.18C742.313 355.029 743.336 355.85 744.386 356.671C746.513 358.287 748.546 359.903 750.686 361.439C754.873 364.509 759.302 367.526 763.435 369.95C767.164 372.145 771.027 374.34 774.904 376.144C778.795 377.949 782.685 379.417 786.818 380.225H786.845Z" fill="#5BA2C6" fill-opacity="0.51"/>
<g opacity="0.6">
<path d="M635.035 147.629C653.828 164.825 670.211 184.648 682.852 205.831C689.3 216.376 694.887 227.163 700.393 237.869C705.818 248.575 711.337 259.227 716.439 269.879C717.732 272.518 719.024 275.171 720.33 277.824C721.595 280.491 722.914 283.103 724.22 285.716C726.791 290.968 729.376 296.166 732.069 301.27C737.507 311.45 743.215 321.416 749.111 331.098C754.94 340.835 760.877 350.356 767.164 359.499C770.395 364.051 773.397 368.293 776.547 371.902C778.122 373.707 779.71 375.39 781.447 376.858C783.17 378.339 785.028 379.673 787.262 380.642C784.907 379.861 782.833 378.703 780.935 377.356C779.037 375.996 777.301 374.434 775.564 372.737C772.131 369.33 768.725 365.371 765.279 360.913C758.414 352.012 752.14 342.612 745.907 332.97C739.755 323.301 733.684 313.363 728.124 302.98C722.551 292.584 717.408 281.972 712.253 271.266C706.975 260.385 701.779 249.652 696.61 239C691.413 228.173 686.15 217.359 680.307 206.72C674.451 196.095 667.64 185.78 660.007 175.909C652.36 166.024 643.947 156.597 634.994 147.629H635.035Z" fill="white"/>
</g>
<path d="M822.849 306.108C867.063 306.108 902.905 270.266 902.905 226.052C902.905 181.839 867.063 145.996 822.849 145.996C778.636 145.996 742.794 181.839 742.794 226.052C742.794 270.266 778.636 306.108 822.849 306.108Z" fill="#023246"/>
<path d="M822.849 301.353C864.437 301.353 898.151 267.64 898.151 226.052C898.151 184.465 864.437 150.751 822.849 150.751C781.262 150.751 747.548 184.465 747.548 226.052C747.548 267.64 781.262 301.353 822.849 301.353Z" fill="#287094"/>
<mask id="mask0_1_120" style="mask-type:luminance" maskUnits="userSpaceOnUse" x="747" y="150" width="152" height="152">
<path d="M822.849 301.353C864.437 301.353 898.151 267.64 898.151 226.052C898.151 184.465 864.437 150.751 822.849 150.751C781.262 150.751 747.548 184.465 747.548 226.052C747.548 267.64 781.262 301.353 822.849 301.353Z" fill="white"/>
</mask>
<g mask="url(#mask0_1_120)">
<path d="M777.181 119.068H768.824V374.374H777.181V119.068Z" fill="#023246"/>
<path d="M827.422 119.942H819.065V375.247H827.422V119.942Z" fill="#023246"/>
<path d="M886.846 117.552H878.488V372.858H886.846V117.552Z" fill="#023246"/>
<path d="M946.73 190.464V182.106L691.425 182.106V190.464L946.73 190.464Z" fill="#023246"/>
<path d="M979.533 305.089L981.586 296.988L734.103 234.273L732.05 242.374L979.533 305.089Z" fill="#023246"/>
</g>
<path d="M828.94 135.694C822.155 135.694 816.649 141.368 816.649 148.373C816.649 155.379 828.94 171.543 828.94 171.543C828.94 171.543 841.231 155.379 841.231 148.373C841.231 141.368 835.731 135.694 828.94 135.694ZM828.94 154.51C825.499 154.51 822.712 151.635 822.712 148.086C822.712 144.536 825.499 141.661 828.94 141.661C832.381 141.661 835.168 144.536 835.168 148.086C835.168 151.635 832.381 154.51 828.94 154.51Z" fill="white"/>
<path d="M735.734 334.193L735.444 363.077H645.385C643.37 363.077 642.836 360.3 644.698 359.552L733.215 332.484C734.421 331.996 735.734 332.896 735.734 334.193Z" fill="#287094"/>
<path d="M583.006 518.884L578 519.206V532.117C578 540.388 584.395 547.249 592.622 547.785L649.613 551.538L749.049 549.026L748.118 511.364L722.171 477.792L644.622 499.449L583.021 518.9L583.006 518.884Z" fill="#023246"/>
<path d="M747 554.611H995.892V520.81H747V554.611Z" fill="#023246"/>
<path d="M990.771 546.417H1141.33V514.665H990.771V546.417Z" fill="#023246"/>
<path d="M747 521.835H1149.53V500.326L747 500.326V521.835Z" fill="#023246"/>
<path d="M1171.86 501.35L755.395 501.35C750.763 501.35 747 497.585 747 492.951V280.317C747 275.684 750.763 271.919 755.395 271.919L1171.86 271.919C1176.49 271.919 1180.26 275.684 1180.26 280.317V492.951C1180.26 497.585 1176.49 501.35 1171.86 501.35Z" fill="#287094"/>
<path d="M1161.63 490.083L766.655 490.083C762.027 490.083 758.267 486.316 758.267 481.679V290.565C758.267 285.929 762.027 282.161 766.655 282.161L1161.63 282.161C1166.25 282.161 1170.01 285.929 1170.01 290.565V481.679C1170.01 486.316 1166.25 490.083 1161.63 490.083Z" fill="#7AC0E3"/>
<path d="M734.518 363.077H629.501C627.357 363.077 625.425 364.35 624.588 366.306L584.933 458.445C584.659 459.067 584.522 459.734 584.507 460.401L583.123 513.24C583.047 516.242 585.465 518.714 588.462 518.714H648.85C649.991 518.714 651.101 518.35 652.014 517.683L683.379 494.667C684.352 493.954 685.539 493.591 686.755 493.636L723.171 495.016C724.95 495.076 726.578 496.032 727.521 497.548L739.005 516.136C739.948 517.668 741.606 518.623 743.401 518.668L746.611 518.759C750.702 518.881 753.41 514.544 751.493 510.936L743.447 495.804C743.051 495.076 742.854 494.258 742.823 493.439L739.857 368.307C739.796 365.412 737.423 363.107 734.518 363.107V363.077Z" fill="#7AC0E3"/>
<path d="M707.319 434.935L707.73 434.603C708.125 434.286 717.462 426.533 717.979 416.759C718.45 407.981 718.298 386.91 718.298 386.02V383.562H638.22L615.897 460.38L707.334 434.935H707.319Z" fill="#023246"/>
<path d="M716.244 385.61H640.548L619.994 457.307L706.59 432.889C706.59 432.889 715.469 425.539 715.94 416.615C716.412 407.691 716.244 385.625 716.244 385.625V385.61Z" fill="#287094"/>
<mask id="mask1_1_120" style="mask-type:luminance" maskUnits="userSpaceOnUse" x="619" y="385" width="98" height="73">
<path d="M716.158 385.606H640.374L619.796 457.046L706.493 432.715C706.493 432.715 715.382 425.391 715.854 416.499C716.326 407.607 716.158 385.621 716.158 385.621V385.606Z" fill="white"/>
</mask>
<g mask="url(#mask1_1_120)">
<path opacity="0.1" d="M654.575 459.894L646.021 459.878L670.039 373.334L678.578 373.349L654.575 459.894Z" fill="white"/>
<path opacity="0.1" d="M679.081 459.147L661.44 459.132L685.443 372.588L703.099 372.603L679.081 459.147Z" fill="white"/>
</g>
<path d="M656.867 544.88C656.867 567.231 674.744 585.338 696.812 585.338C718.88 585.338 736.758 567.231 736.758 544.88C736.758 522.529 718.88 504.423 696.812 504.423C674.744 504.423 656.867 522.545 656.867 544.88Z" fill="#023246"/>
<path d="M668.133 544.88C668.133 560.432 680.978 573.047 696.812 573.047C712.647 573.047 725.491 560.432 725.491 544.88C725.491 529.328 712.647 516.713 696.812 516.713C680.978 516.713 668.133 529.328 668.133 544.88Z" fill="#E9EFFD"/>
<path d="M674.279 544.88C674.279 557.617 684.373 567.926 696.812 567.926C709.251 567.926 719.346 557.602 719.346 544.88C719.346 532.159 709.251 521.835 696.812 521.835C684.373 521.835 674.279 532.159 674.279 544.88Z" fill="#287094" stroke="#E9EFFD" stroke-width="1.07" stroke-miterlimit="10"/>
<path d="M689.643 544.88C689.643 548.556 692.854 551.538 696.812 551.538C700.771 551.538 703.982 548.556 703.982 544.88C703.982 541.204 700.771 538.223 696.812 538.223C692.854 538.223 689.643 541.204 689.643 544.88Z" fill="#E9EFFD"/>
<path d="M1004.09 544.88C1004.09 567.231 1021.98 585.338 1044.03 585.338C1066.08 585.338 1083.98 567.231 1083.98 544.88C1083.98 522.529 1066.1 504.423 1044.03 504.423C1021.96 504.423 1004.09 522.545 1004.09 544.88Z" fill="#023246"/>
<path d="M1015.35 544.88C1015.35 560.432 1028.2 573.047 1044.03 573.047C1059.87 573.047 1072.71 560.432 1072.71 544.88C1072.71 529.328 1059.87 516.713 1044.03 516.713C1028.2 516.713 1015.35 529.328 1015.35 544.88Z" fill="#E9EFFD"/>
<path d="M1049.34 567.284C1061.68 564.349 1069.31 551.963 1066.38 539.617C1063.44 527.272 1051.06 519.643 1038.72 522.577C1026.38 525.511 1018.75 537.898 1021.69 550.243C1024.62 562.589 1037 570.218 1049.34 567.284Z" fill="#287094" stroke="#E9EFFD" stroke-width="1.07" stroke-miterlimit="10"/>
<path d="M1036.86 544.88C1036.86 548.556 1040.07 551.538 1044.03 551.538C1047.99 551.538 1051.2 548.556 1051.2 544.88C1051.2 541.204 1047.99 538.223 1044.03 538.223C1040.07 538.223 1036.86 541.204 1036.86 544.88Z" fill="#E9EFFD"/>
<path d="M1098.31 552.589H1090.25C1090.25 552.589 1089.48 499.955 1043.35 501.05C997.215 502.144 996.913 554.611 996.913 554.611H989.796C989.796 554.611 986.079 495.289 1043.2 494.195C1100.32 493.101 1098.31 552.589 1098.31 552.589Z" fill="#287094"/>
<path d="M1136.21 537.198H1159.77V516.713H1136.21V537.198Z" fill="#023246"/>
<path d="M1103.44 523.883H1127V497.253H1103.44V523.883Z" fill="#7AC0E3"/>
<path d="M943.655 522.859H966.189V497.253H943.655V522.859Z" fill="#7AC0E3"/>
<path d="M862.74 522.859H885.274V497.253H862.74V522.859Z" fill="#7AC0E3"/>
<path d="M781.825 522.859H804.358V497.253H781.825V522.859Z" fill="#7AC0E3"/>
<path d="M621.824 373.319L626.139 374.884L591.935 458.012L585.17 458.331L621.824 373.319Z" fill="#023246"/>
<path d="M1153.63 537.198H1162.84V515.689H1153.63V537.198Z" fill="#FBAE17"/>
<path d="M584.059 490.853C593.709 487.629 603.637 494.933 603.606 505.226V513.511L603.591 519.786H583.121L584.059 490.853Z" fill="#FFC147"/>
<path d="M708.883 476.323H713.662V452.402H708.883V476.323Z" fill="#023246"/>
<path d="M709.476 455.889H706.234C705.655 455.889 705.184 455.417 705.184 454.839V453.468C705.184 452.89 705.655 452.418 706.234 452.418H709.476C710.054 452.418 710.526 452.89 710.526 453.468V454.839C710.526 455.417 710.054 455.889 709.476 455.889Z" fill="#023246"/>
<path d="M709.476 476.262H706.234C705.655 476.262 705.184 475.79 705.184 475.211V473.841C705.184 473.262 705.655 472.79 706.234 472.79H709.476C710.054 472.79 710.526 473.262 710.526 473.841V475.211C710.526 475.79 710.054 476.262 709.476 476.262Z" fill="#023246"/>
<path d="M1116.75 336.446H866.837V354.883H1116.75V336.446Z" fill="#287094"/>
<path d="M1091.15 362.052H866.837V380.489H1091.15V362.052Z" fill="#287094"/>
<path d="M1073.73 387.659H866.837V405.071H1073.73V387.659Z" fill="#287094"/>
<path d="M1057.35 413.265H866.837V430.677H1057.35V413.265Z" fill="#287094"/>
<path d="M1004.99 542.911H930.728V617.175H1004.99V542.911Z" fill="#CBA367"/>
<path d="M1096.72 542.911H1005.01V617.175H1096.72V542.911Z" fill="#BE8D4F"/>
<path d="M930.728 617.174L930.245 580.032L929.972 542.889V542.134H930.728L972.217 542.029L1013.71 542.113L1055.19 542.365C1069.03 542.428 1082.87 542.721 1096.68 542.889C1082.85 543.057 1069.03 543.351 1055.19 543.414L1013.71 543.666L972.217 543.75L930.728 543.645L931.484 542.889L931.211 580.032L930.728 617.174Z" fill="#F5DEC3"/>
<path d="M972.28 542.911H951.893V577.765H972.28V542.911Z" fill="#F5DEC3"/>
<path d="M1069.77 542.911H1049.38V577.765H1069.77V542.911Z" fill="#F5DEC3"/>
<path d="M1039.36 591.958H1011.86V603.947H1039.36V591.958Z" fill="#252525"/>
<path d="M1039.36 606.508H1011.86V611.064H1039.36V606.508Z" fill="#252525"/>
<path d="M1039.36 550.007H1011.86V554.563H1039.36V550.007Z" fill="#252525"/>
<path d="M962.076 606.508H934.57V611.064H962.076V606.508Z" fill="#252525"/>
<path d="M1086.54 555.117H1012.27V629.381H1086.54V555.117Z" fill="#CBA367"/>
<path d="M1178.27 555.117H1086.56V629.381H1178.27V555.117Z" fill="#BE8D4F"/>
<path d="M1012.27 629.38L1011.79 592.238L1011.52 555.096V554.34H1012.27L1053.76 554.235L1095.25 554.319L1136.74 554.571C1150.58 554.634 1164.41 554.928 1178.23 555.096C1164.39 555.264 1150.58 555.558 1136.74 555.621L1095.25 555.872L1053.76 555.956L1012.27 555.851L1013.03 555.096L1012.76 592.238L1012.27 629.38Z" fill="#F5DEC3"/>
<path d="M1053.83 555.117H1033.44V589.971H1053.83V555.117Z" fill="#F5DEC3"/>
<path d="M1151.31 555.117H1130.92V589.971H1151.31V555.117Z" fill="#F5DEC3"/>
<path d="M1120.91 604.164H1093.4V616.153H1120.91V604.164Z" fill="#252525"/>
<path d="M1120.91 618.714H1093.4V623.27H1120.91V618.714Z" fill="#252525"/>
<path d="M1120.91 562.213H1093.4V566.769H1120.91V562.213Z" fill="#252525"/>
<path d="M1043.62 618.714H1016.12V623.27H1043.62V618.714Z" fill="#252525"/>
<path d="M1078.11 483.019H1003.85V557.283H1078.11V483.019Z" fill="#CBA367"/>
<path d="M1169.82 483.019H1078.11V557.283H1169.82V483.019Z" fill="#BE8D4F"/>
<path d="M1003.85 557.283L1003.37 520.141L1003.09 482.998V482.242H1003.85L1045.34 482.137L1086.83 482.221L1128.31 482.473C1142.15 482.536 1155.97 482.83 1169.8 482.998C1155.97 483.166 1142.13 483.46 1128.31 483.523L1086.83 483.775L1045.34 483.859L1003.85 483.754L1004.6 482.998L1004.33 520.141L1003.85 557.283Z" fill="#F5DEC3"/>
<path d="M1045.4 483.019H1025.01V517.873H1045.4V483.019Z" fill="#F5DEC3"/>
<path d="M1142.89 483.019H1122.5V517.873H1142.89V483.019Z" fill="#F5DEC3"/>
<path d="M1112.48 532.067H1084.98V544.055H1112.48V532.067Z" fill="#252525"/>
<path d="M1112.89 547.173H1085.38V551.729H1112.89V547.173Z" fill="#252525"/>
<path d="M1112.48 490.116H1084.98V494.672H1112.48V490.116Z" fill="#252525"/>
<path d="M1035.2 546.617H1007.69V551.173H1035.2V546.617Z" fill="#252525"/>
<path d="M1061.53 231.567C1062.23 230.608 1062.86 229.606 1063.44 228.59" stroke="#2A0E0E" stroke-width="0.75" stroke-miterlimit="10"/>
<path d="M1066.27 222.213C1071.8 205.425 1064.95 184.898 1051.83 172.173C1033.84 154.736 1004.93 149.206 982.234 159.815C959.534 170.424 945.13 196.989 949.729 221.621C951.634 231.821 956.769 241.739 965.29 247.664C973.811 253.589 985.944 254.718 994.55 248.934C1008.83 239.326 1006.88 216.852 997.174 202.646C978.17 174.853 935.226 167.348 907.885 186.986C885.256 203.224 876.806 235.447 885.905 261.405" stroke="#2A0E0E" stroke-width="0.75" stroke-miterlimit="10"/>
<path d="M887.161 264.678C887.612 265.764 888.106 266.836 888.614 267.895" stroke="#2A0E0E" stroke-width="0.75" stroke-miterlimit="10"/>
</svg>
