<svg width="41" height="40" viewBox="0 0 41 40" fill="none" xmlns="http://www.w3.org/2000/svg">
<path d="M29.75 9.71429H32.3929M12.5714 2H28.4286C31.2323 2 33.9212 3.08367 35.9037 5.01262C37.8862 6.94156 39 9.55777 39 12.2857V27.7143C39 30.4422 37.8862 33.0584 35.9037 34.9874C33.9212 36.9163 31.2323 38 28.4286 38H12.5714C9.76771 38 7.07883 36.9163 5.0963 34.9874C3.11377 33.0584 2 30.4422 2 27.7143V12.2857C2 9.55777 3.11377 6.94156 5.0963 5.01262C7.07883 3.08367 9.76771 2 12.5714 2ZM20.5 27.7143C18.3972 27.7143 16.3805 26.9015 14.8937 25.4548C13.4068 24.0081 12.5714 22.046 12.5714 20C12.5714 17.954 13.4068 15.9919 14.8937 14.5452C16.3805 13.0985 18.3972 12.2857 20.5 12.2857C22.6028 12.2857 24.6195 13.0985 26.1063 14.5452C27.5932 15.9919 28.4286 17.954 28.4286 20C28.4286 22.046 27.5932 24.0081 26.1063 25.4548C24.6195 26.9015 22.6028 27.7143 20.5 27.7143Z" stroke="white" stroke-width="3"/>
</svg>
