<svg width="31" height="51" viewBox="0 0 31 51" fill="none" xmlns="http://www.w3.org/2000/svg">
<path d="M0.000324971 0V1.01605C0.000324971 12.1034 4.12551 21.6402 10.4158 25.1685V25.8313C4.12541 29.3596 0.000216097 38.8964 0.000216097 49.9838V51H31V49.9838C31 38.8314 26.805 29.2917 20.4562 25.821V25.1788C26.8045 21.7078 31 12.168 31 1.01594V0H0H0.000324971ZM2.04757 2.03198H28.953C28.6852 12.5203 24.3322 21.12 19.0137 23.6629L15.5611 24.0369V27.0275L19.0138 27.34C24.332 29.8829 28.6848 38.4801 28.953 48.9677H2.04757C2.31308 38.5388 6.60162 29.9281 11.8719 27.3333L15.5611 27.0275V24.0369L11.8719 23.6665C6.60184 21.0717 2.31297 12.4608 2.04757 2.03198Z" fill="#287094"/>
</svg>
