<svg width="36" height="36" viewBox="0 0 36 36" fill="none" xmlns="http://www.w3.org/2000/svg">
<path fill-rule="evenodd" clip-rule="evenodd" d="M4.82927 0C3.54847 0 2.32012 0.508797 1.41446 1.41446C0.508797 2.32012 0 3.54847 0 4.82927C0 6.11007 0.508797 7.33841 1.41446 8.24408C2.32012 9.14974 3.54847 9.65854 4.82927 9.65854C6.11007 9.65854 7.33841 9.14974 8.24408 8.24408C9.14974 7.33841 9.65854 6.11007 9.65854 4.82927C9.65854 3.54847 9.14974 2.32012 8.24408 1.41446C7.33841 0.508797 6.11007 0 4.82927 0ZM2.63415 4.82927C2.63415 4.24709 2.86542 3.68875 3.27708 3.27708C3.68875 2.86542 4.24709 2.63415 4.82927 2.63415C5.41145 2.63415 5.96979 2.86542 6.38145 3.27708C6.79312 3.68875 7.02439 4.24709 7.02439 4.82927C7.02439 5.41145 6.79312 5.96979 6.38145 6.38145C5.96979 6.79312 5.41145 7.02439 4.82927 7.02439C4.24709 7.02439 3.68875 6.79312 3.27708 6.38145C2.86542 5.96979 2.63415 5.41145 2.63415 4.82927ZM0 11.8537C0 11.5043 0.138763 11.1693 0.385762 10.9223C0.632761 10.6753 0.967764 10.5366 1.31707 10.5366H8.34146C8.69077 10.5366 9.02578 10.6753 9.27277 10.9223C9.51977 11.1693 9.65854 11.5043 9.65854 11.8537V34.6829C9.65854 35.0322 9.51977 35.3672 9.27277 35.6142C9.02578 35.8612 8.69077 36 8.34146 36H1.31707C0.967764 36 0.632761 35.8612 0.385762 35.6142C0.138763 35.3672 0 35.0322 0 34.6829V11.8537ZM2.63415 13.1707V33.3659H7.02439V13.1707H2.63415ZM12.2927 11.8537C12.2927 11.5043 12.4314 11.1693 12.6784 10.9223C12.9254 10.6753 13.2604 10.5366 13.6098 10.5366H20.6341C20.9835 10.5366 21.3185 10.6753 21.5655 10.9223C21.8125 11.1693 21.9512 11.5043 21.9512 11.8537V12.6158L22.7151 12.2874C24.0323 11.7248 25.4296 11.3722 26.856 11.2425C31.7292 10.8 36 14.6283 36 19.5454V34.6829C36 35.0322 35.8612 35.3672 35.6142 35.6142C35.3672 35.8612 35.0322 36 34.6829 36H27.6585C27.3092 36 26.9742 35.8612 26.7272 35.6142C26.4802 35.3672 26.3415 35.0322 26.3415 34.6829V22.3902C26.3415 21.8081 26.1102 21.2497 25.6985 20.8381C25.2869 20.4264 24.7285 20.1951 24.1463 20.1951C23.5642 20.1951 23.0058 20.4264 22.5942 20.8381C22.1825 21.2497 21.9512 21.8081 21.9512 22.3902V34.6829C21.9512 35.0322 21.8125 35.3672 21.5655 35.6142C21.3185 35.8612 20.9835 36 20.6341 36H13.6098C13.2604 36 12.9254 35.8612 12.6784 35.6142C12.4314 35.3672 12.2927 35.0322 12.2927 34.6829V11.8537ZM14.9268 13.1707V33.3659H19.3171V22.3902C19.3171 21.1094 19.8259 19.8811 20.7315 18.9754C21.6372 18.0698 22.8655 17.561 24.1463 17.561C25.4271 17.561 26.6555 18.0698 27.5611 18.9754C28.4668 19.8811 28.9756 21.1094 28.9756 22.3902V33.3659H33.3659V19.5454C33.3659 16.2018 30.449 13.5606 27.0966 13.8661C25.9448 13.9706 24.8166 14.2551 23.753 14.7091L21.1539 15.8242C20.9535 15.9103 20.7348 15.9453 20.5175 15.9259C20.3001 15.9066 20.091 15.8336 19.9089 15.7135C19.7268 15.5933 19.5774 15.4298 19.4741 15.2377C19.3708 15.0455 19.3168 14.8307 19.3171 14.6125V13.1707H14.9268Z" fill="white"/>
</svg>
