<svg width="510" height="195" viewBox="0 0 510 195" fill="none" xmlns="http://www.w3.org/2000/svg">
<path d="M508.924 27.585V90.4905L486.458 41.252H162.476V98.9153H155.643L143.661 38.4437C133.775 40.0912 129.557 49.9889 128.683 54.7317H83.0953L61.7524 98.9153H0.999969L13.0756 90.4905H48.0854L75.981 38.4437H125.5C130.293 23.9156 150.088 7.42784 159.387 1V27.585H508.924Z" fill="black" stroke="black" stroke-width="0.187219"/>
<path d="M469.047 62.127L158.17 55.668V73.5473L469.047 62.127Z" fill="url(#paint0_linear_19_770)" stroke="black" stroke-width="0.187219"/>
<path d="M469.078 87.4351L158.202 80.9761V98.8555L469.078 87.4351Z" fill="url(#paint1_linear_19_770)" stroke="black" stroke-width="0.187219"/>
<path d="M123.378 123.189C122.581 111.997 127.644 103.818 130.275 101.127C126.29 109.368 128.614 117.321 130.275 120.268C126.167 123.712 123.965 123.65 123.378 123.189Z" fill="black"/>
<path d="M126.247 103.678C122.145 106.551 114.334 118.375 110.941 123.928C112.227 125.64 116.528 125.202 118.518 124.769C117.967 118.411 123.441 108.059 126.247 103.678Z" fill="black"/>
<path d="M112.217 119.387L119.735 120.931" stroke="white" stroke-width="1.71876"/>
<path d="M114.835 115.761L120.742 117.037" stroke="white" stroke-width="1.71876"/>
<path d="M117.386 112.136L122.353 113.211" stroke="white" stroke-width="1.71876"/>
<path d="M120.742 108.78L123.562 109.586" stroke="white" stroke-width="1.71876"/>
<path d="M123.025 105.692L125.24 106.363" stroke="white" stroke-width="1.71876"/>
<path d="M103.289 118.919L127.724 100.188L107.641 122.206L103.289 118.919Z" fill="black"/>
<path d="M133.314 94.7014C130.417 90.3879 125.925 87.4019 120.826 86.4004C115.728 85.3989 110.44 86.4639 106.127 89.361C101.813 92.2581 98.8271 96.7501 97.8256 101.849C96.8241 106.947 97.8891 112.235 100.786 116.549L117.05 105.625L133.314 94.7014Z" fill="#045CB4"/>
<path d="M51.9549 130.343V171.212H40.593V148.662L32.8831 171.212H23.3761L15.6082 148.488V171.212H4.24627V130.343H17.985L28.2455 156.893L38.2742 130.343H51.9549ZM99.0589 130.343V171.212H87.697V154.806H73.8424V171.212H62.4804V130.343H73.8424V145.705H87.697V130.343H99.0589ZM120.981 130.343V171.212H109.619V130.343H120.981Z" fill="black"/>
<path d="M171.072 130.343V139.387H160.174V171.212H148.812V139.387H138.03V130.343H171.072ZM198.29 171.212L190.174 156.14H188.956V171.212H177.595V130.343H195.507C198.792 130.343 201.574 130.923 203.855 132.082C206.135 133.203 207.854 134.768 209.014 136.778C210.173 138.749 210.753 140.971 210.753 143.444C210.753 146.227 209.98 148.681 208.434 150.807C206.927 152.893 204.705 154.381 201.768 155.27L210.985 171.212H198.29ZM188.956 148.372H194.58C196.125 148.372 197.285 148.005 198.058 147.27C198.831 146.536 199.217 145.473 199.217 144.082C199.217 142.768 198.811 141.744 198 141.01C197.227 140.237 196.087 139.85 194.58 139.85H188.956V148.372ZM244.093 164.545H229.601L227.398 171.212H215.456L230.354 130.343H243.455L258.295 171.212H246.296L244.093 164.545ZM241.252 155.85L236.847 142.633L232.499 155.85H241.252ZM302.171 171.212H290.809L275.679 148.372V171.212H264.317V130.343H275.679L290.809 153.473V130.343H302.171V171.212ZM326.382 171.617C321.628 171.617 317.725 170.497 314.672 168.255C311.619 165.975 309.977 162.729 309.745 158.516H321.86C321.976 159.946 322.401 160.99 323.136 161.647C323.87 162.304 324.817 162.632 325.976 162.632C327.02 162.632 327.87 162.381 328.527 161.879C329.222 161.338 329.57 160.603 329.57 159.676C329.57 158.478 329.01 157.55 327.889 156.893C326.768 156.236 324.952 155.502 322.44 154.69C319.773 153.802 317.609 152.951 315.947 152.14C314.324 151.29 312.894 150.072 311.658 148.488C310.46 146.865 309.861 144.758 309.861 142.169C309.861 139.541 310.518 137.3 311.832 135.445C313.146 133.551 314.962 132.121 317.281 131.155C319.6 130.189 322.227 129.706 325.165 129.706C329.918 129.706 333.705 130.826 336.527 133.068C339.386 135.271 340.913 138.382 341.106 142.401H328.759C328.72 141.164 328.334 140.237 327.599 139.618C326.904 139 325.995 138.691 324.875 138.691C324.025 138.691 323.329 138.942 322.788 139.445C322.247 139.947 321.976 140.662 321.976 141.589C321.976 142.362 322.266 143.039 322.846 143.618C323.464 144.159 324.218 144.642 325.107 145.068C325.995 145.454 327.309 145.956 329.049 146.575C331.638 147.464 333.763 148.352 335.425 149.241C337.126 150.092 338.575 151.309 339.773 152.893C341.01 154.439 341.628 156.41 341.628 158.806C341.628 161.241 341.01 163.424 339.773 165.357C338.575 167.289 336.816 168.816 334.498 169.936C332.218 171.057 329.512 171.617 326.382 171.617ZM381.517 143.966C381.517 146.44 380.938 148.7 379.778 150.749C378.658 152.758 376.938 154.381 374.619 155.618C372.339 156.816 369.537 157.415 366.214 157.415H360.591V171.212H349.229V130.343H366.214C369.498 130.343 372.281 130.923 374.561 132.082C376.88 133.242 378.619 134.846 379.778 136.894C380.938 138.942 381.517 141.3 381.517 143.966ZM365.112 148.372C368.32 148.372 369.924 146.903 369.924 143.966C369.924 140.99 368.32 139.503 365.112 139.503H360.591V148.372H365.112ZM407.994 171.617C404.168 171.617 400.652 170.729 397.444 168.951C394.236 167.135 391.686 164.642 389.792 161.473C387.937 158.265 387.01 154.652 387.01 150.633C387.01 146.613 387.937 143.019 389.792 139.85C391.686 136.643 394.236 134.15 397.444 132.372C400.652 130.595 404.168 129.706 407.994 129.706C411.859 129.706 415.376 130.595 418.545 132.372C421.752 134.15 424.284 136.643 426.139 139.85C427.994 143.019 428.921 146.613 428.921 150.633C428.921 154.652 427.994 158.265 426.139 161.473C424.284 164.642 421.752 167.135 418.545 168.951C415.337 170.729 411.82 171.617 407.994 171.617ZM407.994 161.067C410.893 161.067 413.173 160.12 414.835 158.227C416.535 156.333 417.385 153.802 417.385 150.633C417.385 147.386 416.535 144.836 414.835 142.981C413.173 141.087 410.893 140.14 407.994 140.14C405.057 140.14 402.758 141.087 401.096 142.981C399.434 144.836 398.603 147.386 398.603 150.633C398.603 153.84 399.434 156.391 401.096 158.285C402.758 160.14 405.057 161.067 407.994 161.067ZM457.043 171.212L448.927 156.14H447.71V171.212H436.348V130.343H454.26C457.545 130.343 460.328 130.923 462.608 132.082C464.888 133.203 466.608 134.768 467.767 136.778C468.926 138.749 469.506 140.971 469.506 143.444C469.506 146.227 468.733 148.681 467.187 150.807C465.68 152.893 463.458 154.381 460.521 155.27L469.738 171.212H457.043ZM447.71 148.372H453.333C454.879 148.372 456.038 148.005 456.811 147.27C457.584 146.536 457.97 145.473 457.97 144.082C457.97 142.768 457.564 141.744 456.753 141.01C455.98 140.237 454.84 139.85 453.333 139.85H447.71V148.372ZM507.773 130.343V139.387H496.875V171.212H485.513V139.387H474.731V130.343H507.773Z" fill="#045CB4"/>
<path d="M1 111.443H89.4393" stroke="#045CB4" stroke-width="6.77047"/>
<path d="M144.238 111.443H508.997" stroke="black" stroke-width="6.77047"/>
<defs>
<linearGradient id="paint0_linear_19_770" x1="469.047" y1="64.6077" x2="158.17" y2="64.6077" gradientUnits="userSpaceOnUse">
<stop stop-color="#D9D9D9"/>
<stop offset="1"/>
</linearGradient>
<linearGradient id="paint1_linear_19_770" x1="469.078" y1="89.9158" x2="158.202" y2="89.9158" gradientUnits="userSpaceOnUse">
<stop stop-color="#D9D9D9"/>
<stop offset="1"/>
</linearGradient>
</defs>
</svg>
