<svg width="34" height="37" viewBox="0 0 34 37" fill="none" xmlns="http://www.w3.org/2000/svg">
<path d="M3.50201 19.4514L8.86567 20.9208C9.32138 19.5772 9.84414 18.2545 10.4339 16.9527C11.0249 15.6518 11.6965 14.3882 12.4487 13.1621L9.18072 12.9436C8.95167 12.9368 8.74731 12.9732 8.56762 13.0527C8.38794 13.1323 8.23459 13.2562 8.10757 13.4246L3.50201 19.4514ZM10.676 22.0031L17.2949 27.064C18.8054 26.1174 20.3144 24.9726 21.8219 23.6298C23.3294 22.2869 24.735 20.7629 26.0388 19.0578C27.9346 16.5784 29.2995 14.0045 30.1336 11.3363C30.9676 8.66803 31.2342 5.67874 30.9334 2.3684C27.6583 2.94801 24.843 3.98939 22.4875 5.49253C20.132 6.99567 18.0059 8.98749 16.1092 11.468C14.8046 13.1742 13.7023 14.9302 12.8024 16.7359C11.9024 18.5415 11.1937 20.2973 10.676 22.0031ZM20.8938 15.4986C20.1955 14.9647 19.7892 14.2775 19.675 13.4369C19.5588 12.5967 19.7657 11.8299 20.2958 11.1367C20.8258 10.4435 21.5115 10.0428 22.3529 9.93467C23.1942 9.82655 23.9639 10.0385 24.662 10.5705C25.36 11.1025 25.7662 11.7897 25.8808 12.6322C25.9969 13.4724 25.79 14.2392 25.26 14.9324C24.7299 15.6256 24.0442 16.0263 23.2028 16.1344C22.3615 16.2425 21.5918 16.0306 20.8938 15.4986ZM21.6378 33.3184L26.2199 27.3258C26.3488 27.1571 26.433 26.9716 26.4724 26.7692C26.5104 26.564 26.4956 26.3513 26.4279 26.1312L25.3622 23.036C24.376 24.0833 23.2211 25.1526 21.8973 26.2437C20.5735 27.3349 19.5378 28.1065 18.79 28.5586L21.6378 33.3184ZM32.5914 0.200014C33.337 3.95976 33.2768 7.5078 32.4109 10.8441C31.5462 14.1813 29.9293 17.399 27.5604 20.4972C27.4641 20.6231 27.3691 20.7587 27.2755 20.9041C27.1819 21.0494 27.0675 21.1875 26.9324 21.3185L28.335 25.434C28.5372 25.9652 28.596 26.5135 28.5116 27.0789C28.4272 27.6443 28.2154 28.1487 27.8762 28.5923L21.449 36.9981L16.8761 29.347L8.55123 22.9815L0.000480652 20.598L6.45159 12.161C6.78989 11.7186 7.21624 11.3782 7.73064 11.1398C8.2431 10.9017 8.78214 10.8106 9.34774 10.8665L13.7197 11.1637L14.3226 10.3752C16.6924 7.27598 19.3738 4.87228 22.3668 3.16414C25.3595 1.45406 28.7677 0.466014 32.5914 0.200014Z" fill="#287094"/>
</svg>
