<svg width="1638" height="732" viewBox="0 0 1638 732" fill="none" xmlns="http://www.w3.org/2000/svg">
<path d="M703.851 0C647.871 11.5586 599.289 36.9772 575.417 81.3256C540.61 153.411 600.267 218.108 662.413 273.566C697.22 306.84 702.176 349.354 692.241 390.017C677.327 439.92 602.756 441.771 545.589 449.177C483.443 456.566 411.361 467.657 386.512 512.023C364.153 547.149 381.533 589.663 361.663 624.789C299.959 731.844 131.133 663.946 0 666.645V732H1638V0H703.828H703.851Z" fill="#5BA2C6" fill-opacity="0.17"/>
<path d="M1030.97 56.3217H1127.7C1127.7 56.3217 1110.23 29.5991 1067.98 35.0357C1025.72 40.4722 1038.82 53.2438 1025.19 52.0645C1011.58 50.8851 1000.05 55.8471 1000.05 56.3217C1000.05 56.7963 1030.96 56.3217 1030.96 56.3217H1030.97Z" fill="white"/>
<path d="M1222.91 111H1342C1342 111 1330.13 95.5313 1315.58 101.334C1301.03 107.136 1299.79 86.2633 1274.22 87.0201C1259.19 87.4716 1254.31 105.782 1245.12 103.843C1235.93 101.905 1222.72 103.458 1222.14 106.552C1221.57 109.646 1222.91 111 1222.91 111Z" fill="white"/>
<path d="M1488.89 47.4333H1593.33C1593.33 47.4333 1583.35 37.2505 1567.22 39.5517C1551.09 41.8529 1550.14 28.2184 1533.62 28.995C1517.11 29.7573 1510.98 41.105 1505.01 41.292C1499.06 41.479 1464.82 41.8673 1464.69 47.6347L1488.89 47.4477V47.4333Z" fill="white"/>
<path d="M1339.39 332.701C1344.51 325.577 1346.3 316.46 1345.67 307.707C1344.87 296.758 1341.17 286.025 1335.4 276.72C1329.35 266.983 1320.52 259.711 1312.71 251.47C1303.1 241.329 1295.08 229.546 1290.1 216.483C1283.28 198.64 1284.02 181.309 1288.45 163.075C1290.41 155.022 1292.82 147.09 1295.52 139.266C1296.11 137.555 1297.58 129.987 1299.26 129.031C1301.97 135.212 1309.1 139.495 1314.46 143.063C1325.69 150.551 1336.54 157.513 1346.19 167.088C1355.9 176.716 1364.28 187.759 1370.4 200.027C1388.46 236.279 1381.96 280.06 1358.98 312.622C1353.86 319.88 1347.42 328.405 1339.41 332.714L1339.39 332.701Z" fill="#5BA2C6" fill-opacity="0.51"/>
<g opacity="0.6">
<path d="M1299.56 133.448C1299.56 133.448 1299.78 134.256 1300.17 135.791C1300.56 137.313 1301.12 139.562 1301.98 142.377C1302.8 145.191 1303.87 148.598 1305.23 152.463C1305.93 154.389 1306.63 156.436 1307.52 158.55C1307.95 159.614 1308.38 160.705 1308.82 161.822C1309.31 162.927 1309.8 164.044 1310.3 165.203C1312.31 169.808 1314.79 174.656 1317.59 179.666C1320.47 184.689 1323.66 189.806 1326.94 195.22C1330.24 200.593 1333.61 206.222 1336.7 212.147C1339.81 218.005 1342.81 224.106 1345.51 230.327C1346.85 233.452 1348.13 236.603 1349.32 239.781C1350.47 242.973 1351.51 246.204 1352.44 249.423C1354.27 255.968 1355.4 262.499 1355.98 268.882C1356.56 275.266 1356.69 281.46 1356.36 287.305C1356.03 293.149 1355.37 298.657 1354.32 303.667C1353.31 308.676 1352.01 313.201 1350.45 317.053C1348.92 320.918 1347.19 324.136 1345.51 326.6C1343.84 329.078 1342.17 330.748 1340.96 331.772C1339.74 332.795 1339.02 333.226 1339.02 333.226C1339.02 333.226 1339.69 332.714 1340.78 331.583C1341.87 330.452 1343.28 328.634 1344.74 326.116C1346.18 323.597 1347.61 320.338 1348.79 316.474C1349.96 312.595 1350.98 308.138 1351.7 303.209C1352.38 298.28 1352.87 292.893 1352.94 287.184C1352.99 281.474 1352.77 275.454 1352.03 269.286C1351.28 263.132 1350.16 256.789 1348.37 250.581C1346.5 244.333 1344.23 238.098 1341.63 231.97C1339.02 225.829 1336.14 219.837 1333.23 213.898C1330.31 208.027 1327.16 202.357 1324.11 196.836C1321.05 191.341 1318.1 185.928 1315.54 180.757C1312.91 175.558 1310.63 170.549 1308.81 165.822C1308.35 164.637 1307.91 163.479 1307.46 162.361C1307.06 161.216 1306.67 160.099 1306.29 159.008C1305.5 156.84 1304.89 154.739 1304.26 152.773C1303.61 150.82 1303.15 148.948 1302.67 147.238C1302.17 145.528 1301.81 143.939 1301.48 142.498C1300.78 139.629 1300.35 137.354 1300.04 135.818C1299.73 134.27 1299.57 133.448 1299.57 133.448H1299.56Z" fill="white"/>
</g>
<path d="M1489.9 429.755C1487.39 422.82 1488.24 414.282 1491.06 406.296C1494.58 396.29 1500.55 386.716 1507.91 378.595C1515.61 370.111 1525.05 364.105 1533.86 357.143C1544.71 348.565 1554.64 338.357 1562.3 326.735C1572.77 310.858 1576.66 294.873 1577.64 277.77C1578.07 270.216 1578.09 262.742 1577.83 255.335C1577.78 253.719 1578.49 246.649 1577.31 245.625C1573.39 251.093 1566.17 254.487 1560.67 257.355C1549.13 263.375 1538.05 268.936 1527.31 276.976C1516.51 285.069 1506.47 294.577 1498.06 305.377C1473.18 337.306 1467.29 378.057 1478.41 409.771C1480.89 416.841 1484.16 425.176 1489.88 429.755H1489.9Z" fill="#5BA2C6" fill-opacity="0.51"/>
<g opacity="0.6">
<path d="M1575.91 249.665C1575.91 249.665 1575.56 250.406 1574.91 251.78C1574.26 253.167 1573.32 255.2 1572.01 257.745C1570.76 260.318 1569.08 263.348 1567.11 266.822C1565.12 270.269 1562.81 274.134 1560.09 278.215C1557.41 282.336 1554.3 286.631 1550.84 291.116C1549.1 293.324 1547.33 295.587 1545.51 297.89C1543.68 300.192 1541.74 302.509 1539.79 304.865C1535.9 309.592 1531.87 314.427 1527.93 319.423C1525.92 321.887 1523.98 324.5 1522.04 327.072C1520.11 329.644 1518.15 332.243 1516.28 334.869C1512.5 340.121 1508.95 345.508 1505.67 350.935C1502.36 356.335 1499.67 361.91 1497.26 367.445C1494.86 372.98 1492.95 378.501 1491.34 383.78C1489.71 389.072 1488.55 394.19 1487.66 398.93C1485.95 408.424 1485.68 416.585 1486.77 422.119C1487.31 424.88 1488.09 426.967 1488.81 428.314C1489.17 428.987 1489.48 429.472 1489.71 429.795C1489.94 430.119 1490.06 430.28 1490.06 430.28C1490.06 430.28 1489.92 430.132 1489.65 429.836C1489.39 429.54 1489.01 429.082 1488.58 428.449C1487.7 427.183 1486.63 425.136 1485.86 422.335C1485.08 419.547 1484.53 416.046 1484.35 412.019C1484.14 407.993 1484.38 403.441 1484.96 398.526C1485.54 393.611 1486.57 388.332 1487.97 382.837C1489.37 377.343 1491.26 371.646 1493.55 365.896C1495.83 360.146 1498.69 354.342 1502.01 348.753C1505.28 343.137 1509.03 337.71 1512.89 332.405C1516.77 327.099 1520.79 321.954 1524.94 317.012C1527.04 314.561 1529.03 312.043 1531.16 309.713C1533.26 307.37 1535.33 305.054 1537.38 302.778C1539.42 300.516 1541.43 298.293 1543.39 296.112C1545.35 293.903 1547.26 291.749 1549.1 289.661C1552.63 285.392 1555.95 281.272 1558.78 277.299C1564.52 269.421 1568.72 262.432 1571.56 257.503C1573.01 255.052 1574.06 253.072 1574.79 251.726C1575.51 250.379 1575.91 249.665 1575.91 249.665Z" fill="white"/>
</g>
<path d="M1162.07 321.335C1156.96 314.211 1155.17 305.094 1155.8 296.341C1156.59 285.392 1160.3 274.66 1166.07 265.354C1172.12 255.618 1180.95 248.346 1188.75 240.104C1198.37 229.964 1206.39 218.18 1211.37 205.118C1218.18 187.274 1217.44 169.943 1213.01 151.709C1211.06 143.656 1208.65 135.724 1205.94 127.9C1205.35 126.19 1203.89 118.621 1202.2 117.665C1199.5 123.846 1192.36 128.129 1187 131.697C1175.78 139.185 1164.93 146.147 1155.27 155.722C1145.57 165.351 1137.18 176.393 1131.07 188.661C1113 224.914 1119.51 268.694 1142.49 301.256C1147.61 308.515 1154.05 317.039 1162.06 321.348L1162.07 321.335Z" fill="#5BA2C6" fill-opacity="0.51"/>
<g opacity="0.6">
<path d="M1201.92 122.096C1201.92 122.096 1201.76 122.917 1201.45 124.466C1201.14 126.015 1200.71 128.29 1200.02 131.145C1199.7 132.586 1199.32 134.175 1198.84 135.886C1198.35 137.596 1197.89 139.468 1197.25 141.42C1196.63 143.373 1196.01 145.487 1195.22 147.655C1194.84 148.746 1194.43 149.864 1194.04 151.009C1193.6 152.14 1193.16 153.298 1192.7 154.483C1190.87 159.21 1188.59 164.219 1185.97 169.418C1183.4 174.602 1180.45 180.016 1177.39 185.497C1174.36 191.018 1171.2 196.688 1168.28 202.559C1165.37 208.498 1162.49 214.49 1159.88 220.631C1157.28 226.772 1155 232.994 1153.13 239.242C1151.34 245.45 1150.23 251.793 1149.47 257.947C1148.73 264.115 1148.52 270.135 1148.57 275.845C1148.64 281.554 1149.11 286.941 1149.81 291.87C1150.52 296.799 1151.54 301.256 1152.72 305.135C1153.9 308.999 1155.31 312.258 1156.77 314.777C1158.22 317.295 1159.64 319.113 1160.73 320.244C1161.82 321.375 1162.49 321.887 1162.49 321.887C1162.49 321.887 1161.76 321.456 1160.55 320.433C1159.34 319.409 1157.67 317.739 1156 315.261C1154.32 312.797 1152.59 309.592 1151.06 305.714C1149.5 301.862 1148.21 297.337 1147.18 292.328C1146.15 287.318 1145.47 281.81 1145.15 275.966C1144.81 270.121 1144.95 263.927 1145.53 257.543C1146.09 251.16 1147.24 244.615 1149.07 238.084C1150.01 234.865 1151.03 231.62 1152.19 228.442C1153.36 225.264 1154.65 222.113 1156 218.988C1158.69 212.767 1161.7 206.653 1164.8 200.795C1167.91 194.87 1171.27 189.24 1174.56 183.867C1177.85 178.454 1181.04 173.336 1183.92 168.313C1186.72 163.304 1189.2 158.456 1191.2 153.85C1191.72 152.705 1192.2 151.574 1192.68 150.47C1193.13 149.352 1193.57 148.261 1193.99 147.198C1194.88 145.083 1195.57 143.023 1196.28 141.111C1197.64 137.259 1198.7 133.852 1199.52 131.024C1200.38 128.21 1200.95 125.974 1201.34 124.439C1201.73 122.917 1201.95 122.096 1201.95 122.096H1201.92Z" fill="white"/>
</g>
<path d="M1496.56 103.606C1496.21 107.484 1495.2 111.376 1493.52 115.686C1491.84 119.968 1489.51 124.654 1486.69 129.489C1483.14 135.495 1479.18 141.488 1474.79 147.332C1470.46 153.19 1465.76 158.914 1460.81 164.368C1450.51 175.774 1438.88 184.702 1428.2 195.785C1415.08 209.387 1403.77 226.637 1396.3 246.151C1391.22 259.456 1388.52 272.626 1387.57 285.608C1386.62 298.603 1387.44 311.41 1389.44 324.19C1391.21 335.475 1393.63 346.383 1396.49 356.941C1397.09 359.257 1398.77 369.653 1400.48 370.636C1402.96 361.317 1409.97 353.776 1415.29 347.689C1426.44 334.95 1437.33 323.328 1447.49 308.878C1457.72 294.348 1467.08 278.74 1475.04 262.661C1486.76 238.825 1494.18 215.177 1498.54 192.688C1499.59 187.045 1500.52 181.511 1501.17 176.003C1501.89 170.535 1502.34 165.081 1502.69 159.749C1502.77 158.415 1502.82 157.069 1502.88 155.735C1502.94 154.416 1503 153.096 1503.02 151.763C1503.05 149.096 1503.13 146.497 1503.08 143.871C1503.04 138.673 1502.82 133.327 1502.3 128.56C1501.83 124.25 1501.29 119.847 1500.41 115.645C1499.54 111.457 1498.39 107.444 1496.56 103.646V103.606Z" fill="#5BA2C6" fill-opacity="0.51"/>
<g opacity="0.6">
<path d="M1400.63 364.28C1403.2 338.936 1409.33 313.955 1418.76 291.156C1423.37 279.696 1428.69 268.761 1433.99 257.961C1439.33 247.228 1444.58 236.428 1450.08 225.978C1451.42 223.365 1452.77 220.739 1454.13 218.113C1455.5 215.5 1456.81 212.888 1458.13 210.275C1460.81 205.077 1463.43 199.893 1465.92 194.694C1470.85 184.258 1475.43 173.727 1479.67 163.196C1483.99 152.705 1488.08 142.269 1491.66 131.751C1493.38 126.445 1494.99 121.503 1496.01 116.817C1496.51 114.474 1496.91 112.198 1497.06 109.922C1497.22 107.646 1497.18 105.37 1496.63 103C1497.41 105.343 1497.72 107.7 1497.77 110.03C1497.81 112.359 1497.6 114.689 1497.27 117.1C1496.59 121.88 1495.44 126.984 1493.92 132.411C1490.89 143.238 1487.08 153.891 1483.07 164.637C1478.98 175.343 1474.64 186.157 1469.64 196.809C1464.63 207.488 1459.19 217.938 1453.67 228.469C1448.08 239.202 1442.59 249.787 1437.13 260.277C1431.54 270.902 1426.02 281.595 1420.96 292.624C1415.92 303.667 1411.72 315.288 1408.36 327.314C1404.99 339.34 1402.46 351.729 1400.6 364.267L1400.63 364.28Z" fill="white"/>
</g>
<path d="M1143.85 380.225C1140.94 377.639 1138.42 374.488 1135.98 370.569C1133.55 366.664 1131.19 361.991 1129 356.846C1126.3 350.396 1123.85 343.649 1121.79 336.646C1119.69 329.671 1117.9 322.48 1116.48 315.261C1113.47 300.179 1113.25 285.527 1110.74 270.35C1107.67 251.699 1100.58 232.32 1089.39 214.679C1081.75 202.667 1072.79 192.634 1062.95 184.123C1053.1 175.612 1042.34 168.61 1030.9 162.59C1020.8 157.271 1010.6 152.705 1000.44 148.692C998.214 147.79 988.871 142.942 987.067 143.723C993.071 151.278 994.929 161.405 996.625 169.31C1000.19 185.847 1003.02 201.536 1008.54 218.315C1014.09 235.202 1021.02 252.022 1029.16 268.007C1041.28 291.654 1055.82 311.72 1071.24 328.647C1075.15 332.849 1079.01 336.902 1083.05 340.713C1087 344.565 1091.1 348.174 1095.18 351.635C1096.2 352.497 1097.25 353.345 1098.29 354.18C1099.31 355.028 1100.34 355.85 1101.39 356.671C1103.51 358.287 1105.55 359.903 1107.69 361.439C1111.87 364.509 1116.3 367.526 1120.43 369.95C1124.16 372.145 1128.03 374.34 1131.9 376.144C1135.79 377.949 1139.69 379.417 1143.82 380.225H1143.85Z" fill="#5BA2C6" fill-opacity="0.51"/>
<g opacity="0.6">
<path d="M992.035 147.629C1010.83 164.825 1027.21 184.648 1039.85 205.831C1046.3 216.376 1051.89 227.163 1057.39 237.869C1062.82 248.575 1068.34 259.227 1073.44 269.879C1074.73 272.518 1076.02 275.171 1077.33 277.824C1078.6 280.491 1079.91 283.103 1081.22 285.716C1083.79 290.968 1086.38 296.166 1089.07 301.27C1094.51 311.45 1100.21 321.416 1106.11 331.098C1111.94 340.835 1117.88 350.356 1124.16 359.499C1127.39 364.051 1130.4 368.293 1133.55 371.902C1135.12 373.707 1136.71 375.39 1138.45 376.858C1140.17 378.339 1142.03 379.673 1144.26 380.642C1141.91 379.861 1139.83 378.703 1137.94 377.356C1136.04 375.996 1134.3 374.434 1132.56 372.737C1129.13 369.33 1125.73 365.371 1122.28 360.913C1115.41 352.012 1109.14 342.612 1102.91 332.97C1096.76 323.301 1090.68 313.363 1085.12 302.98C1079.55 292.584 1074.41 281.972 1069.25 271.266C1063.98 260.385 1058.78 249.652 1053.61 239C1048.41 228.173 1043.15 217.359 1037.31 206.72C1031.45 196.095 1024.64 185.78 1017.01 175.909C1009.36 166.024 1000.95 156.597 991.994 147.629H992.035Z" fill="white"/>
</g>
<path d="M1179.85 306.108C1224.06 306.108 1259.91 270.266 1259.91 226.052C1259.91 181.839 1224.06 145.996 1179.85 145.996C1135.64 145.996 1099.79 181.839 1099.79 226.052C1099.79 270.266 1135.64 306.108 1179.85 306.108Z" fill="#023246"/>
<path d="M1179.85 301.353C1221.44 301.353 1255.15 267.64 1255.15 226.052C1255.15 184.465 1221.44 150.751 1179.85 150.751C1138.26 150.751 1104.55 184.465 1104.55 226.052C1104.55 267.64 1138.26 301.353 1179.85 301.353Z" fill="#287094"/>
<mask id="mask0_344_1113" style="mask-type:luminance" maskUnits="userSpaceOnUse" x="1104" y="150" width="152" height="152">
<path d="M1179.85 301.353C1221.44 301.353 1255.15 267.64 1255.15 226.052C1255.15 184.465 1221.44 150.751 1179.85 150.751C1138.26 150.751 1104.55 184.465 1104.55 226.052C1104.55 267.64 1138.26 301.353 1179.85 301.353Z" fill="white"/>
</mask>
<g mask="url(#mask0_344_1113)">
<path d="M1134.18 119.069H1125.82V374.374H1134.18V119.069Z" fill="#023246"/>
<path d="M1184.42 119.942H1176.06V375.247H1184.42V119.942Z" fill="#023246"/>
<path d="M1243.85 117.552H1235.49V372.858H1243.85V117.552Z" fill="#023246"/>
<path d="M1303.73 190.464V182.106L1048.42 182.106V190.464L1303.73 190.464Z" fill="#023246"/>
<path d="M1336.53 305.089L1338.59 296.988L1091.1 234.273L1089.05 242.374L1336.53 305.089Z" fill="#023246"/>
</g>
<path d="M1185.94 135.694C1179.16 135.694 1173.65 141.368 1173.65 148.373C1173.65 155.379 1185.94 171.543 1185.94 171.543C1185.94 171.543 1198.23 155.379 1198.23 148.373C1198.23 141.368 1192.73 135.694 1185.94 135.694ZM1185.94 154.51C1182.5 154.51 1179.71 151.635 1179.71 148.086C1179.71 144.536 1182.5 141.661 1185.94 141.661C1189.38 141.661 1192.17 144.536 1192.17 148.086C1192.17 151.635 1189.38 154.51 1185.94 154.51Z" fill="white"/>
<path d="M1092.73 334.193L1092.44 363.077H1002.38C1000.37 363.077 999.836 360.3 1001.7 359.552L1090.22 332.484C1091.42 331.996 1092.73 332.896 1092.73 334.193Z" fill="#287094"/>
<path d="M940.006 518.884L935 519.206V532.117C935 540.388 941.395 547.249 949.622 547.785L1006.61 551.538L1106.05 549.026L1105.12 511.364L1079.17 477.792L1001.62 499.449L940.021 518.9L940.006 518.884Z" fill="#023246"/>
<path d="M1104 554.61H1352.89V520.81H1104V554.61Z" fill="#023246"/>
<path d="M1347.77 546.417H1498.33V514.665H1347.77V546.417Z" fill="#023246"/>
<path d="M1104 521.835H1506.53V500.326L1104 500.326V521.835Z" fill="#023246"/>
<path d="M1528.86 501.35L1112.39 501.35C1107.76 501.35 1104 497.585 1104 492.951V280.317C1104 275.684 1107.76 271.919 1112.39 271.919L1528.86 271.919C1533.49 271.919 1537.26 275.684 1537.26 280.317V492.951C1537.26 497.585 1533.49 501.35 1528.86 501.35Z" fill="#287094"/>
<path d="M1518.63 490.083L1123.66 490.083C1119.03 490.083 1115.27 486.316 1115.27 481.679V290.565C1115.27 285.929 1119.03 282.161 1123.66 282.161L1518.63 282.161C1523.25 282.161 1527.01 285.929 1527.01 290.565V481.679C1527.01 486.316 1523.25 490.083 1518.63 490.083Z" fill="#7AC0E3"/>
<path d="M1091.52 363.077H986.501C984.357 363.077 982.425 364.35 981.588 366.306L941.933 458.445C941.659 459.067 941.523 459.734 941.507 460.401L940.123 513.24C940.047 516.243 942.466 518.714 945.462 518.714H1005.85C1006.99 518.714 1008.1 518.35 1009.01 517.683L1040.38 494.667C1041.35 493.954 1042.54 493.591 1043.76 493.636L1080.17 495.016C1081.95 495.076 1083.58 496.032 1084.52 497.548L1096.01 516.136C1096.95 517.668 1098.61 518.623 1100.4 518.668L1103.61 518.759C1107.7 518.881 1110.41 514.544 1108.49 510.936L1100.45 495.804C1100.05 495.076 1099.85 494.258 1099.82 493.439L1096.86 368.308C1096.8 365.412 1094.42 363.107 1091.52 363.107V363.077Z" fill="#7AC0E3"/>
<path d="M1064.32 434.935L1064.73 434.603C1065.12 434.286 1074.46 426.533 1074.98 416.759C1075.45 407.981 1075.3 386.91 1075.3 386.02V383.562H995.22L972.897 460.38L1064.33 434.935H1064.32Z" fill="#023246"/>
<path d="M1073.24 385.61H997.549L976.994 457.307L1063.59 432.889C1063.59 432.889 1072.47 425.539 1072.94 416.615C1073.41 407.691 1073.24 385.625 1073.24 385.625V385.61Z" fill="#287094"/>
<mask id="mask1_344_1113" style="mask-type:luminance" maskUnits="userSpaceOnUse" x="976" y="385" width="98" height="73">
<path d="M1073.16 385.606H997.374L976.796 457.046L1063.49 432.715C1063.49 432.715 1072.38 425.391 1072.85 416.499C1073.33 407.607 1073.16 385.621 1073.16 385.621V385.606Z" fill="white"/>
</mask>
<g mask="url(#mask1_344_1113)">
<path opacity="0.1" d="M1011.58 459.894L1003.02 459.878L1027.04 373.334L1035.58 373.349L1011.58 459.894Z" fill="white"/>
<path opacity="0.1" d="M1036.08 459.147L1018.44 459.132L1042.44 372.588L1060.1 372.603L1036.08 459.147Z" fill="white"/>
</g>
<path d="M1013.87 544.88C1013.87 567.231 1031.74 585.338 1053.81 585.338C1075.88 585.338 1093.76 567.231 1093.76 544.88C1093.76 522.529 1075.88 504.423 1053.81 504.423C1031.74 504.423 1013.87 522.545 1013.87 544.88Z" fill="#023246"/>
<path d="M1025.13 544.88C1025.13 560.432 1037.98 573.047 1053.81 573.047C1069.65 573.047 1082.49 560.432 1082.49 544.88C1082.49 529.328 1069.65 516.713 1053.81 516.713C1037.98 516.713 1025.13 529.328 1025.13 544.88Z" fill="#E9EFFD"/>
<path d="M1031.28 544.88C1031.28 557.617 1041.37 567.926 1053.81 567.926C1066.25 567.926 1076.35 557.602 1076.35 544.88C1076.35 532.159 1066.25 521.835 1053.81 521.835C1041.37 521.835 1031.28 532.159 1031.28 544.88Z" fill="#287094" stroke="#E9EFFD" stroke-width="1.07" stroke-miterlimit="10"/>
<path d="M1046.64 544.88C1046.64 548.556 1049.85 551.538 1053.81 551.538C1057.77 551.538 1060.98 548.556 1060.98 544.88C1060.98 541.204 1057.77 538.223 1053.81 538.223C1049.85 538.223 1046.64 541.204 1046.64 544.88Z" fill="#E9EFFD"/>
<path d="M1361.09 544.88C1361.09 567.231 1378.98 585.338 1401.03 585.338C1423.08 585.338 1440.98 567.231 1440.98 544.88C1440.98 522.529 1423.1 504.423 1401.03 504.423C1378.96 504.423 1361.09 522.545 1361.09 544.88Z" fill="#023246"/>
<path d="M1372.35 544.88C1372.35 560.432 1385.2 573.047 1401.03 573.047C1416.87 573.047 1429.71 560.432 1429.71 544.88C1429.71 529.328 1416.87 516.713 1401.03 516.713C1385.2 516.713 1372.35 529.328 1372.35 544.88Z" fill="#E9EFFD"/>
<path d="M1406.34 567.284C1418.68 564.349 1426.31 551.963 1423.38 539.617C1420.44 527.272 1408.06 519.643 1395.72 522.577C1383.38 525.511 1375.75 537.898 1378.69 550.243C1381.62 562.589 1394 570.218 1406.34 567.284Z" fill="#287094" stroke="#E9EFFD" stroke-width="1.07" stroke-miterlimit="10"/>
<path d="M1393.86 544.88C1393.86 548.556 1397.07 551.538 1401.03 551.538C1404.99 551.538 1408.2 548.556 1408.2 544.88C1408.2 541.204 1404.99 538.223 1401.03 538.223C1397.07 538.223 1393.86 541.204 1393.86 544.88Z" fill="#E9EFFD"/>
<path d="M1455.31 552.589H1447.25C1447.25 552.589 1446.48 499.955 1400.35 501.05C1354.22 502.144 1353.91 554.611 1353.91 554.611H1346.8C1346.8 554.611 1343.08 495.289 1400.2 494.195C1457.32 493.101 1455.31 552.589 1455.31 552.589Z" fill="#287094"/>
<path d="M1493.21 537.198H1516.77V516.713H1493.21V537.198Z" fill="#023246"/>
<path d="M1460.44 523.883H1484V497.253H1460.44V523.883Z" fill="#7AC0E3"/>
<path d="M1300.66 522.859H1323.19V497.253H1300.66V522.859Z" fill="#7AC0E3"/>
<path d="M1219.74 522.859H1242.27V497.253H1219.74V522.859Z" fill="#7AC0E3"/>
<path d="M1138.82 522.859H1161.36V497.253H1138.82V522.859Z" fill="#7AC0E3"/>
<path d="M978.824 373.319L983.139 374.884L948.935 458.012L942.169 458.331L978.824 373.319Z" fill="#023246"/>
<path d="M1510.63 537.198H1519.84V515.689H1510.63V537.198Z" fill="#FBAE17"/>
<path d="M941.059 490.853C950.71 487.63 960.637 494.933 960.606 505.226V513.511L960.591 519.786H940.121L941.059 490.853Z" fill="#FFC147"/>
<path d="M1065.88 476.323H1070.66V452.402H1065.88V476.323Z" fill="#023246"/>
<path d="M1066.48 455.889H1063.23C1062.66 455.889 1062.18 455.417 1062.18 454.838V453.468C1062.18 452.89 1062.66 452.418 1063.23 452.418H1066.48C1067.05 452.418 1067.53 452.89 1067.53 453.468V454.838C1067.53 455.417 1067.05 455.889 1066.48 455.889Z" fill="#023246"/>
<path d="M1066.48 476.262H1063.23C1062.66 476.262 1062.18 475.79 1062.18 475.211V473.841C1062.18 473.262 1062.66 472.79 1063.23 472.79H1066.48C1067.05 472.79 1067.53 473.262 1067.53 473.841V475.211C1067.53 475.79 1067.05 476.262 1066.48 476.262Z" fill="#023246"/>
<path d="M1473.75 336.446H1223.84V354.883H1473.75V336.446Z" fill="#287094"/>
<path d="M1448.15 362.052H1223.84V380.489H1448.15V362.052Z" fill="#287094"/>
<path d="M1430.73 387.658H1223.84V405.071H1430.73V387.658Z" fill="#287094"/>
<path d="M1414.35 413.265H1223.84V430.677H1414.35V413.265Z" fill="#287094"/>
<path d="M1361.99 542.911H1287.73V617.175H1361.99V542.911Z" fill="#CBA367"/>
<path d="M1453.72 542.911H1362.01V617.175H1453.72V542.911Z" fill="#BE8D4F"/>
<path d="M1287.73 617.174L1287.25 580.032L1286.97 542.889V542.134H1287.73L1329.22 542.029L1370.71 542.113L1412.19 542.365C1426.03 542.428 1439.87 542.721 1453.68 542.889C1439.85 543.057 1426.03 543.351 1412.19 543.414L1370.71 543.666L1329.22 543.75L1287.73 543.645L1288.48 542.889L1288.21 580.032L1287.73 617.174Z" fill="#F5DEC3"/>
<path d="M1329.28 542.911H1308.89V577.765H1329.28V542.911Z" fill="#F5DEC3"/>
<path d="M1426.77 542.911H1406.38V577.765H1426.77V542.911Z" fill="#F5DEC3"/>
<path d="M1396.36 591.958H1368.86V603.947H1396.36V591.958Z" fill="#252525"/>
<path d="M1396.36 606.508H1368.86V611.064H1396.36V606.508Z" fill="#252525"/>
<path d="M1396.36 550.007H1368.86V554.563H1396.36V550.007Z" fill="#252525"/>
<path d="M1319.08 606.508H1291.57V611.064H1319.08V606.508Z" fill="#252525"/>
<path d="M1443.54 555.117H1369.27V629.381H1443.54V555.117Z" fill="#CBA367"/>
<path d="M1535.27 555.117H1443.56V629.381H1535.27V555.117Z" fill="#BE8D4F"/>
<path d="M1369.27 629.38L1368.79 592.238L1368.52 555.096V554.34H1369.27L1410.76 554.235L1452.25 554.319L1493.74 554.571C1507.58 554.634 1521.41 554.928 1535.23 555.096C1521.39 555.264 1507.58 555.558 1493.74 555.621L1452.25 555.872L1410.76 555.956L1369.27 555.851L1370.03 555.096L1369.76 592.238L1369.27 629.38Z" fill="#F5DEC3"/>
<path d="M1410.83 555.117H1390.44V589.971H1410.83V555.117Z" fill="#F5DEC3"/>
<path d="M1508.31 555.117H1487.92V589.971H1508.31V555.117Z" fill="#F5DEC3"/>
<path d="M1477.91 604.164H1450.4V616.153H1477.91V604.164Z" fill="#252525"/>
<path d="M1477.91 618.714H1450.4V623.27H1477.91V618.714Z" fill="#252525"/>
<path d="M1477.91 562.213H1450.4V566.769H1477.91V562.213Z" fill="#252525"/>
<path d="M1400.62 618.714H1373.12V623.27H1400.62V618.714Z" fill="#252525"/>
<path d="M1435.11 483.019H1360.85V557.283H1435.11V483.019Z" fill="#CBA367"/>
<path d="M1526.82 483.019H1435.11V557.283H1526.82V483.019Z" fill="#BE8D4F"/>
<path d="M1360.85 557.283L1360.37 520.141L1360.09 482.998V482.242H1360.85L1402.34 482.137L1443.83 482.221L1485.31 482.473C1499.15 482.536 1512.97 482.83 1526.8 482.998C1512.97 483.166 1499.13 483.46 1485.31 483.523L1443.83 483.775L1402.34 483.859L1360.85 483.754L1361.6 482.998L1361.33 520.141L1360.85 557.283Z" fill="#F5DEC3"/>
<path d="M1402.4 483.019H1382.01V517.873H1402.4V483.019Z" fill="#F5DEC3"/>
<path d="M1499.89 483.019H1479.5V517.873H1499.89V483.019Z" fill="#F5DEC3"/>
<path d="M1469.48 532.067H1441.98V544.056H1469.48V532.067Z" fill="#252525"/>
<path d="M1469.89 547.173H1442.38V551.729H1469.89V547.173Z" fill="#252525"/>
<path d="M1469.48 490.116H1441.98V494.672H1469.48V490.116Z" fill="#252525"/>
<path d="M1392.2 546.617H1364.69V551.173H1392.2V546.617Z" fill="#252525"/>
<path d="M1418.53 231.567C1419.22 230.608 1419.86 229.606 1420.44 228.59" stroke="#2A0E0E" stroke-width="0.75" stroke-miterlimit="10"/>
<path d="M1423.27 222.213C1428.8 205.425 1421.95 184.898 1408.83 172.173C1390.84 154.736 1361.93 149.206 1339.23 159.815C1316.53 170.424 1302.13 196.989 1306.73 221.621C1308.63 231.821 1313.77 241.739 1322.29 247.664C1330.81 253.589 1342.94 254.718 1351.55 248.934C1365.83 239.326 1363.88 216.852 1354.17 202.646C1335.17 174.854 1292.23 167.348 1264.89 186.986C1242.26 203.224 1233.81 235.447 1242.91 261.405" stroke="#2A0E0E" stroke-width="0.75" stroke-miterlimit="10"/>
<path d="M1244.16 264.678C1244.61 265.764 1245.11 266.836 1245.61 267.895" stroke="#2A0E0E" stroke-width="0.75" stroke-miterlimit="10"/>
</svg>
