<svg width="421" height="396" viewBox="0 0 421 396" fill="none" xmlns="http://www.w3.org/2000/svg">
<path d="M63.6926 342.134C71.9749 350.374 79.8124 355.688 86.0048 359.886C158.79 409.236 244.915 394.851 263.219 391.338C290.248 386.151 342.495 376.123 380.268 334.146C437.416 270.641 428.517 170.587 384.19 104.542C376.081 92.4612 333.252 25.4083 246.199 14.6555C193.516 8.14737 132.105 21.2723 87.6324 56.4822C-5.71893 130.389 0.927063 279.691 63.6941 342.135L63.6926 342.134Z" fill="#287094" fill-opacity="0.31"/>
<path d="M414.992 14.2896C415.506 12.2284 412.433 10.858 410.55 12.2986C391.44 26.9178 345.527 70.6955 356.969 147.201C371.326 243.188 346.782 278.212 316.23 299.578C316.23 299.578 358.187 289.531 384.584 253.991C449.398 166.73 405.867 50.9359 414.992 14.2896Z" fill="#287094"/>
<g style="mix-blend-mode:soft-light">
<path d="M400.45 44.2695C398.06 54.955 395.929 65.6734 394.283 76.44C392.567 87.197 391.252 97.9925 390.352 108.806C389.503 119.621 388.904 130.446 388.87 141.278C388.777 152.108 389.254 162.929 389.779 173.792C390.23 184.652 390.761 195.589 389.918 206.605C389.089 217.597 386.636 228.687 381.769 239.082C380.553 241.673 379.274 244.256 377.82 246.752C376.423 249.27 374.889 251.74 373.3 254.185C370.093 259.064 366.484 263.777 362.462 268.252C354.386 277.186 344.649 285.11 333.92 291.817C332.792 292.523 331.173 292.35 330.307 291.429C329.456 290.527 329.646 289.239 330.722 288.525L330.729 288.519C333.282 286.828 335.808 285.115 338.232 283.316C339.461 282.432 340.639 281.505 341.84 280.597C342.996 279.653 344.198 278.745 345.316 277.773C349.873 273.948 354.092 269.867 357.922 265.551C365.623 256.961 371.788 247.387 376.459 237.464C378.727 232.479 380.54 227.366 381.863 222.159C383.181 216.949 384.011 211.649 384.469 206.305C385.388 195.613 384.972 184.784 384.618 173.923C384.279 163.059 384.031 152.139 384.336 141.228C384.47 135.773 384.724 130.321 385.098 124.875C385.265 122.151 385.497 119.431 385.725 116.711C385.983 113.992 386.26 111.274 386.563 108.56C387.804 97.7022 389.451 86.8791 391.515 76.1153C393.642 65.3597 396.119 54.6523 399.098 44.0411C399.183 43.7384 399.555 43.5486 399.927 43.6174C400.288 43.6848 400.517 43.9737 400.453 44.2668L400.45 44.2695Z" fill="white"/>
</g>
<path d="M362.869 222.046C364.758 224.732 368.941 224.725 370.856 222.055C381.425 207.332 407.317 163.151 388.518 104.38C372.642 54.75 369.033 26.4156 368.338 13.4448C368.191 10.7025 364.42 9.72976 362.811 12.0193C345.065 37.2702 294.428 124.738 362.869 222.044V222.046Z" fill="#5BA2C6"/>
<g style="mix-blend-mode:soft-light">
<path d="M367.371 221.04C367.451 221.068 367.534 221.087 367.62 221.101C368.348 221.208 369.03 220.737 369.143 220.051C369.271 219.272 381.786 141.411 363.016 71.4648C362.835 70.7919 362.11 70.3833 361.396 70.5539C360.681 70.7245 360.249 71.4083 360.43 72.0826C379.064 141.521 366.636 218.891 366.507 219.664C366.407 220.27 366.781 220.841 367.369 221.041L367.371 221.04Z" fill="white"/>
</g>
<path d="M137.017 79.987L256.541 69.9482L376.063 81.2996V322.767L256.541 316.79L137.017 323.417L17.6434 313.302V74.3732L137.017 79.987Z" fill="#287094"/>
<path d="M253.975 313.692L367.538 319.362V90.2969L253.975 79.5289V313.692Z" fill="#5BA2C6"/>
<path d="M140.413 317.572L253.975 311.285V77.1211L140.413 86.6439V317.572Z" fill="#5BA2C6"/>
<path d="M26.9926 307.976L140.413 317.572V86.644L26.9926 81.3192V307.976Z" fill="#5BA2C6"/>
<path opacity="0.47" d="M256.548 311.35H253.975V77.1211L256.548 79.529V311.35Z" fill="white"/>
<path d="M367.538 174.795C357.811 193.182 336.945 209.155 318.461 220.027C310.049 224.975 301.258 229.671 291.586 231.72C281.912 233.769 271.124 232.86 263.113 227.35C252.7 220.185 248.822 207.111 237.868 200.547C232.282 197.199 225.559 198.383 219.73 194.923C213.993 191.518 209.63 185.838 208.753 179.422C208.109 174.719 209.103 169.955 208.946 165.215C208.346 147.004 191.556 133.146 185.195 115.944C181.367 105.594 181.454 94.3724 181.582 83.4118C175.559 84.3199 169.445 84.6969 163.349 84.5373C167.148 100.429 171.005 116.479 178.486 131.162C182.265 138.577 186.962 145.635 189.558 153.489C190.629 156.728 191.327 160.201 190.509 163.503C189.691 166.806 187.047 169.886 183.506 170.479C177.223 171.531 170.717 165.294 165.874 162.353C159.655 158.574 153 155.368 145.84 153.521C138.895 151.729 131.638 150.444 125.521 146.861C116.044 141.311 110.828 131.176 106.999 121.292C102.319 109.212 98.9649 96.6743 97.0078 83.9456C85.4323 83.9305 77.5847 84.086 66.7997 83.1875C81.8738 102.852 92.965 124.687 97.7763 148.527C98.7068 153.139 99.4272 157.914 98.3684 162.5C95.2299 176.098 70.4792 185.369 59.776 193.596C47.7981 202.802 36.739 213.281 26.991 224.608V241.533C42.6033 225.832 60.8203 212.831 81.0251 202.843C88.4425 199.176 103.327 188.316 111.803 190.093C116.063 190.986 120.202 192.395 124.083 194.277C125.894 195.155 127.687 196.165 129.001 197.633C130.583 199.402 131.339 201.682 132.056 203.897C133.106 207.136 134.164 210.418 134.317 213.801C134.388 215.389 134.26 216.978 134.056 218.556C133.143 225.609 130.7 232.482 126.921 238.627C124.941 241.848 120.818 245.183 118.159 248.075C110.272 256.653 100.985 264.234 94.8376 273.996C90.5908 280.74 88.0079 288.222 84.5515 295.32C81.6011 301.165 76.8934 306.145 73.6688 311.884C77.4724 312.231 81.2759 312.576 85.0809 312.923C89.949 303.803 96.1765 295.33 103.522 287.831C107.67 283.598 111.176 279.523 116.04 275.818C125.89 268.315 136.124 260.559 148.213 256.54C161.052 252.272 171.398 259.889 182.541 265.528C198.654 273.683 216.112 277.728 234.267 278.893C241.791 279.376 245.951 283.753 253.049 285.75C260.708 287.904 267.885 286.332 274.398 282.077C298.226 266.511 320.957 249.003 340.05 228.342C349.861 217.727 368.243 204.454 367.796 190.252C367.457 179.453 368.284 175.271 367.54 174.796L367.538 174.795Z" fill="#287094"/>
<path d="M315.57 221.523C315.962 221.523 316.356 221.396 316.678 221.138C317.399 220.56 317.488 219.539 316.874 218.858C315.809 217.676 314.742 216.502 313.67 215.338C313.05 214.664 311.968 214.592 311.252 215.178C310.537 215.765 310.461 216.786 311.083 217.46C312.146 218.614 313.204 219.78 314.262 220.953C314.6 221.329 315.083 221.523 315.569 221.523H315.57ZM307.496 212.831C307.908 212.831 308.322 212.692 308.65 212.41C309.35 211.809 309.401 210.786 308.764 210.126C307.619 208.94 306.49 207.794 305.406 206.716C304.754 206.07 303.669 206.041 302.983 206.656C302.296 207.271 302.268 208.295 302.918 208.943C303.986 210.004 305.099 211.135 306.227 212.304C306.566 212.655 307.03 212.832 307.495 212.832L307.496 212.831ZM139.009 205.735C139.944 205.735 140.71 205.027 140.723 204.141C140.736 203.248 139.979 202.513 139.034 202.501C138.047 202.487 137.051 202.459 136.073 202.419C135.58 202.304 135.092 202.184 134.608 202.063C133.69 201.833 132.754 202.349 132.512 203.212C132.27 204.075 132.815 204.961 133.73 205.189C134.285 205.328 134.845 205.464 135.411 205.597L135.576 205.635L135.745 205.642C136.814 205.689 137.904 205.719 138.984 205.734C138.993 205.734 139 205.734 139.009 205.734V205.735ZM146.348 205.592C146.38 205.592 146.411 205.592 146.443 205.59C148.072 205.506 149.736 205.386 151.39 205.236C152.332 205.151 153.022 204.36 152.931 203.471C152.841 202.582 152.002 201.934 151.06 202.016C149.454 202.164 147.837 202.279 146.256 202.36C145.311 202.408 144.586 203.172 144.639 204.064C144.688 204.925 145.445 205.592 146.349 205.592H146.348ZM299.01 204.508C299.456 204.508 299.901 204.344 300.236 204.02C300.897 203.38 300.884 202.356 300.206 201.733C299.001 200.625 297.789 199.545 296.606 198.524C295.906 197.922 294.823 197.968 294.184 198.627C293.545 199.287 293.595 200.309 294.293 200.911C295.451 201.909 296.634 202.964 297.812 204.049C298.146 204.355 298.578 204.508 299.008 204.508H299.01ZM158.508 204.376C158.596 204.376 158.683 204.369 158.772 204.357C160.372 204.123 162.014 203.856 163.65 203.563C164.581 203.396 165.192 202.55 165.016 201.672C164.839 200.796 163.935 200.218 163.012 200.386C161.412 200.672 159.81 200.933 158.249 201.161C157.314 201.297 156.672 202.124 156.816 203.006C156.948 203.805 157.677 204.376 158.508 204.376ZM127.148 203.235C127.86 203.235 128.523 202.814 128.768 202.144C129.076 201.299 128.601 200.38 127.705 200.089C126.177 199.592 124.666 199.058 123.212 198.501C122.332 198.165 121.335 198.564 120.979 199.391C120.623 200.218 121.046 201.162 121.922 201.498C123.433 202.077 125.004 202.631 126.589 203.146C126.775 203.207 126.963 203.234 127.148 203.234V203.235ZM170.511 202.143C170.642 202.143 170.775 202.129 170.908 202.099C172.471 201.749 174.081 201.368 175.695 200.965C176.61 200.737 177.155 199.852 176.915 198.988C176.673 198.125 175.738 197.609 174.819 197.838C173.234 198.234 171.653 198.608 170.119 198.951C169.197 199.157 168.628 200.028 168.845 200.896C169.032 201.641 169.735 202.142 170.511 202.142V202.143ZM182.322 199.132C182.486 199.132 182.652 199.11 182.815 199.064C184.334 198.633 185.917 198.169 187.525 197.684C188.426 197.411 188.922 196.5 188.633 195.65C188.344 194.8 187.379 194.33 186.477 194.603C184.891 195.083 183.327 195.541 181.83 195.965C180.922 196.222 180.409 197.124 180.68 197.979C180.903 198.68 181.585 199.131 182.321 199.131L182.322 199.132ZM115.898 198.736C116.519 198.736 117.12 198.416 117.423 197.858C117.856 197.064 117.525 196.089 116.682 195.68C115.253 194.987 113.847 194.251 112.507 193.491C111.696 193.032 110.643 193.279 110.156 194.046C109.669 194.812 109.933 195.805 110.744 196.264C112.15 197.059 113.62 197.831 115.116 198.556C115.367 198.677 115.634 198.735 115.898 198.735V198.736ZM289.885 196.811C290.383 196.811 290.879 196.606 291.218 196.211C291.813 195.518 291.699 194.498 290.964 193.937C289.648 192.932 288.321 191.968 287.019 191.068C286.255 190.541 285.183 190.698 284.624 191.418C284.065 192.139 284.23 193.15 284.994 193.677C286.252 194.545 287.535 195.478 288.807 196.449C289.125 196.692 289.505 196.81 289.885 196.81V196.811ZM193.974 195.57C194.159 195.57 194.347 195.541 194.531 195.482C196.091 194.976 197.639 194.464 199.171 193.948C200.064 193.649 200.529 192.725 200.213 191.883C199.895 191.041 198.915 190.6 198.024 190.902C196.501 191.412 194.965 191.921 193.417 192.423C192.521 192.714 192.046 193.634 192.353 194.479C192.598 195.149 193.262 195.57 193.974 195.57ZM105.54 192.633C106.059 192.633 106.574 192.411 106.91 191.989C107.48 191.276 107.328 190.262 106.573 189.724C105.302 188.821 104.06 187.866 102.879 186.888C102.167 186.299 101.085 186.365 100.459 187.037C99.8349 187.708 99.9048 188.729 100.617 189.319C101.862 190.35 103.172 191.356 104.509 192.306C104.818 192.527 105.18 192.633 105.539 192.633H105.54ZM205.51 191.687C205.705 191.687 205.903 191.656 206.099 191.588L210.7 189.999C211.59 189.692 212.046 188.763 211.721 187.924C211.396 187.085 210.41 186.656 209.522 186.961L204.922 188.55C204.032 188.857 203.576 189.786 203.901 190.624C204.155 191.279 204.811 191.686 205.511 191.686L205.51 191.687ZM279.905 190.138C280.484 190.138 281.049 189.861 281.372 189.359C281.862 188.596 281.604 187.601 280.794 187.138C279.342 186.309 277.87 185.529 276.421 184.823C275.582 184.413 274.546 184.724 274.112 185.518C273.677 186.312 274.007 187.287 274.848 187.696C276.229 188.369 277.632 189.112 279.018 189.904C279.296 190.062 279.603 190.138 279.905 190.138ZM217.018 187.734C217.209 187.734 217.405 187.704 217.594 187.639C219.149 187.115 220.684 186.605 222.197 186.115C223.092 185.824 223.568 184.904 223.26 184.061C222.952 183.216 221.98 182.766 221.083 183.057C219.556 183.553 218.008 184.066 216.441 184.596C215.549 184.897 215.084 185.822 215.404 186.662C215.654 187.323 216.314 187.736 217.018 187.736V187.734ZM268.929 185.058C269.623 185.058 270.276 184.658 270.533 184.008C270.865 183.172 270.418 182.24 269.531 181.926C267.946 181.365 266.333 180.868 264.737 180.449C263.823 180.209 262.881 180.712 262.627 181.573C262.373 182.433 262.905 183.324 263.817 183.565C265.316 183.959 266.833 184.427 268.326 184.956C268.525 185.026 268.727 185.059 268.929 185.059V185.058ZM96.5214 184.867C96.9312 184.867 97.3424 184.729 97.6706 184.45C98.3735 183.851 98.4275 182.829 97.7931 182.166C96.7343 181.061 95.7076 179.903 94.7421 178.722C94.1646 178.015 93.0882 177.884 92.3386 178.43C91.589 178.977 91.4505 179.992 92.0295 180.698C93.0503 181.944 94.1339 183.169 95.2511 184.334C95.5894 184.688 96.0561 184.867 96.5228 184.867H96.5214ZM228.624 184.045C228.79 184.045 228.961 184.022 229.129 183.974C230.752 183.502 232.315 183.074 233.777 182.7C234.69 182.466 235.231 181.578 234.983 180.716C234.735 179.854 233.796 179.343 232.88 179.578C231.382 179.96 229.781 180.399 228.119 180.882C227.215 181.145 226.708 182.05 226.986 182.903C227.212 183.598 227.89 184.045 228.624 184.045ZM240.479 181.186C240.584 181.186 240.691 181.177 240.797 181.159C242.441 180.867 244.023 180.644 245.504 180.494C246.444 180.399 247.127 179.603 247.026 178.715C246.926 177.828 246.083 177.182 245.139 177.279C243.57 177.437 241.896 177.674 240.163 177.98C239.233 178.145 238.62 178.99 238.795 179.868C238.95 180.644 239.669 181.186 240.478 181.186H240.479ZM257.482 181.073C258.246 181.073 258.941 180.588 259.141 179.857C259.376 178.992 258.823 178.111 257.906 177.89C256.302 177.502 254.576 177.24 252.781 177.114C251.833 177.043 251.015 177.715 250.944 178.605C250.872 179.495 251.581 180.271 252.524 180.339C254.121 180.451 255.645 180.683 257.057 181.023C257.2 181.057 257.343 181.073 257.485 181.073H257.482ZM89.241 175.614C89.5428 175.614 89.8491 175.538 90.1262 175.38C90.9356 174.918 91.1952 173.924 90.7052 173.159C89.8929 171.893 89.1141 170.57 88.3878 169.225C87.9576 168.43 86.925 168.114 86.0821 168.518C85.2391 168.924 84.9036 169.897 85.3324 170.693C86.0952 172.107 86.9148 173.499 87.7695 174.831C88.0918 175.333 88.6576 175.611 89.238 175.611L89.241 175.614ZM83.8711 165.254C84.0768 165.254 84.2868 165.219 84.491 165.144C85.3733 164.821 85.8108 163.885 85.4695 163.052C84.9022 161.673 84.367 160.239 83.8784 158.789C83.5911 157.937 82.6285 157.467 81.7258 157.738C80.8245 158.009 80.3257 158.918 80.613 159.769C81.1235 161.282 81.682 162.779 82.2741 164.22C82.5381 164.861 83.1856 165.253 83.8725 165.253L83.8711 165.254ZM80.3199 154.21C80.4453 154.21 80.5736 154.196 80.702 154.169C81.6251 153.97 82.2027 153.104 81.9927 152.233C81.6427 150.784 81.3247 149.287 81.0447 147.782C80.8814 146.902 79.9961 146.312 79.0613 146.468C78.1293 146.622 77.5052 147.46 77.6685 148.339C77.9573 149.898 78.2883 151.448 78.6515 152.95C78.8323 153.699 79.5382 154.209 80.3214 154.209L80.3199 154.21ZM78.3321 142.814C78.3933 142.814 78.4546 142.812 78.5173 142.805C79.4579 142.71 80.1405 141.912 80.0384 141.024C79.8707 139.549 79.7292 138.022 79.6184 136.482C79.5542 135.591 78.7273 134.917 77.791 134.979C76.8474 135.039 76.1328 135.811 76.197 136.701C76.3107 138.282 76.4566 139.854 76.6286 141.37C76.7234 142.199 77.4658 142.814 78.3306 142.814H78.3321ZM77.6014 131.282C77.6116 131.282 77.6218 131.282 77.632 131.282C78.5786 131.266 79.3325 130.53 79.3165 129.637C79.3004 128.728 79.2932 127.831 79.2932 126.947C79.2932 126.312 79.2975 125.683 79.3048 125.062C79.315 124.169 78.5552 123.437 77.6102 123.428H77.5912C76.6535 123.428 75.8878 124.14 75.8776 125.028C75.8703 125.661 75.8659 126.301 75.8659 126.949C75.8659 127.851 75.8732 128.766 75.8907 129.694C75.9067 130.577 76.6709 131.283 77.6043 131.283L77.6014 131.282Z" fill="white"/>
<path d="M319.075 233.803C314.194 233.803 310.237 230.07 310.237 225.465C310.237 220.86 314.194 217.126 319.075 217.126C323.956 217.126 327.913 220.86 327.913 225.465C327.913 230.07 323.956 233.803 319.075 233.803Z" fill="white"/>
<path d="M296.606 163.369C283.565 151.066 283.565 131.118 296.606 118.815C309.647 106.512 330.79 106.512 343.831 118.815C356.872 131.118 356.872 151.066 343.831 163.369C330.79 175.672 309.647 175.672 296.606 163.369Z" fill="url(#paint0_linear_63_1407)"/>
<path d="M286.887 138.53H353.611C353.611 138.53 356.27 156.452 326.467 204.347C325.166 206.437 322.79 207.904 320.222 207.905C317.654 207.905 315.274 206.352 313.973 204.262C284.173 156.363 286.886 138.53 286.886 138.53H286.887Z" fill="#287094"/>
<path d="M319.615 209.146V209.281H320.222C323.128 209.281 325.841 207.794 327.302 205.446C344.723 177.451 351.106 159.759 353.393 149.854C354.045 147.575 354.42 145.346 354.538 143.057C354.739 140.713 354.586 139.73 354.567 139.625L354.48 139.123C353.133 122.2 338.205 109.03 320.219 109.03C302.232 109.03 286.932 122.387 285.914 139.445C285.888 139.668 285.84 140.235 285.858 141.181V141.298C285.857 144.393 286.321 147.457 287.234 150.408C289.599 160.305 295.713 177.832 312.836 205.356C314.306 207.718 316.879 209.146 319.616 209.146H319.615ZM352.699 140.596C352.706 140.596 352.692 141.855 352.604 142.871V142.923C352.49 145.093 352.136 147.209 351.515 149.372L351.503 149.423C349.251 159.193 342.933 176.681 325.629 204.489C324.515 206.279 322.141 207.393 319.92 207.393L319.615 208.31V207.395C318.52 207.395 315.295 206.273 314.171 204.468C297.157 177.12 290.603 159.741 288.414 149.976V149.92C287.318 147.128 287.212 144.226 287.212 141.297L287.318 141.167V141.158C287.318 140.246 287.587 139.753 287.603 139.624L287.727 139.57C288.675 123.469 302.954 110.857 320.157 110.857C337.361 110.857 351.576 123.535 352.554 139.776L352.636 140.594H352.699V140.596Z" fill="#023246"/>
<path d="M338.402 122.05C338.492 122.05 338.582 122.014 338.647 121.944C338.763 121.816 338.747 121.624 338.612 121.515C333.195 117.126 326.275 114.71 319.124 114.71C318.946 114.71 318.8 114.846 318.8 115.015C318.8 115.184 318.945 115.321 319.124 115.321C326.119 115.321 332.89 117.686 338.19 121.979C338.251 122.028 338.326 122.052 338.4 122.052L338.402 122.05Z" fill="white"/>
<path d="M348.726 143.245C348.904 143.245 349.05 143.109 349.05 142.94C349.05 137.671 347.502 132.533 344.574 128.078C344.479 127.935 344.281 127.891 344.129 127.979C343.977 128.069 343.931 128.256 344.024 128.399C346.89 132.756 348.404 137.784 348.404 142.938C348.404 143.106 348.548 143.244 348.727 143.244L348.726 143.245Z" fill="white"/>
<path d="M338.841 128.388L341.115 120.482L347.743 117.092L348.627 118.616L342.694 121.634L335.624 146.073L335.405 146.773H306.558C303.747 146.773 301.138 145.499 299.613 143.271L298.296 141.682C296.904 139.647 295.939 137.315 295.939 134.892V128.388H338.842H338.841ZM297.995 134.892C297.995 136.977 298.755 138.996 299.954 140.747L301.153 142.55C302.333 144.276 304.377 145.478 306.556 145.478H333.989L335.49 140.233L338.335 130.33H297.995V134.892Z" fill="white"/>
<path d="M299.922 155.643C299.922 156.124 300.337 156.613 300.851 156.613H334.697C335.211 156.613 335.599 155.929 335.599 155.447V140.389C335.599 140.223 335.564 140.24 335.479 140.108L333.991 145.479H333.541V154.671H300.851C300.337 154.671 299.922 155.16 299.922 155.644V155.643Z" fill="white"/>
<path d="M317.477 129.302H318.712V145.693H317.477V129.302Z" fill="white"/>
<path d="M328.391 129.302H329.626V145.693H328.391V129.302Z" fill="white"/>
<path d="M306.821 129.302H308.057V145.693H306.821V129.302Z" fill="white"/>
<path d="M297.679 134.123H337.865V135.166H297.679V134.123Z" fill="white"/>
<path d="M298.685 139.829H336.11V140.872H298.685V139.829Z" fill="white"/>
<path d="M330.362 157.81C332.566 157.81 334.353 159.495 334.353 161.574C334.353 163.653 332.566 165.339 330.362 165.339C328.159 165.339 326.372 163.653 326.372 161.574C326.372 159.495 328.159 157.81 330.362 157.81ZM330.362 163.847C331.692 163.847 332.772 162.83 332.772 161.574C332.772 160.318 331.692 159.301 330.362 159.301C329.032 159.301 327.953 160.318 327.953 161.574C327.953 162.83 329.031 163.847 330.362 163.847Z" fill="white"/>
<path d="M305.561 157.81C307.764 157.81 309.551 159.495 309.551 161.574C309.551 163.653 307.764 165.339 305.561 165.339C303.357 165.339 301.57 163.653 301.57 161.574C301.57 159.495 303.357 157.81 305.561 157.81ZM305.561 163.847C306.891 163.847 307.97 162.83 307.97 161.574C307.97 160.318 306.892 159.301 305.561 159.301C304.229 159.301 303.151 160.318 303.151 161.574C303.151 162.83 304.229 163.847 305.561 163.847Z" fill="white"/>
<path d="M343.631 118.615C343.631 119.592 344.471 120.384 345.507 120.384H351.746C352.781 120.384 353.621 119.592 353.621 118.615C353.621 117.638 352.781 116.845 351.746 116.845H345.507C344.471 116.845 343.631 117.638 343.631 118.615Z" fill="white"/>
<path d="M74.5712 138.595C69.6902 138.595 65.7333 134.862 65.7333 130.257C65.7333 125.652 69.6902 121.918 74.5712 121.918C79.4523 121.918 83.4092 125.652 83.4092 130.257C83.4092 134.862 79.4523 138.595 74.5712 138.595Z" fill="white"/>
<path d="M49.7041 69.2685C36.1876 56.5166 36.1876 35.8416 49.7041 23.0896C63.2205 10.3377 85.1349 10.3377 98.6513 23.0896C112.168 35.8416 112.168 56.5166 98.6514 69.2685C85.1349 82.0205 63.2205 82.0205 49.7041 69.2685Z" fill="#287094"/>
<path d="M39.6292 43.5225H108.788C108.788 43.5225 111.543 62.0988 80.6543 111.742C79.3067 113.908 76.8434 115.428 74.1818 115.43C71.5202 115.43 69.0526 113.818 67.7051 111.653C36.8174 62.0052 39.6292 43.5225 39.6292 43.5225Z" fill="#287094"/>
<path d="M73.5518 116.715V116.855H74.1804C77.1935 116.855 80.0053 115.313 81.5191 112.88C99.5757 83.8617 106.191 65.5247 108.561 55.259C109.236 52.8979 109.626 50.5877 109.748 48.2142C109.957 45.7857 109.798 44.7662 109.779 44.6575L109.688 44.136C108.294 26.5957 92.8203 12.9452 74.176 12.9452C55.5317 12.9452 39.6744 26.7897 38.6186 44.4703C38.5923 44.7015 38.5412 45.289 38.5617 46.2701V46.3911C38.5602 49.5984 39.04 52.7754 39.988 55.8327C42.4396 66.0902 48.7763 84.2579 66.5252 112.786C68.0492 115.235 70.7152 116.715 73.5518 116.715ZM107.843 45.6633C107.852 45.6633 107.836 46.969 107.744 48.0216L107.741 48.0766C107.626 50.3249 107.259 52.5195 106.615 54.7609L106.604 54.8132C104.269 64.94 97.722 83.0664 79.7865 111.889C78.6315 113.745 76.1711 114.9 73.8683 114.901L73.5518 115.85V114.902C72.4172 114.902 69.0745 113.74 67.9092 111.869C50.2741 83.5232 43.4809 65.5082 41.2116 55.3883V55.3291C40.077 52.4356 39.9661 49.4278 39.9661 46.3911L40.077 46.2577V46.2467C40.077 45.3014 40.3555 44.7909 40.3716 44.6561L40.4999 44.6011C41.4828 27.9125 56.2828 14.8398 74.1133 14.8398C91.9438 14.8398 106.678 27.9799 107.693 44.8143L107.778 45.6619H107.842L107.843 45.6633Z" fill="#023246"/>
<path d="M62.2034 80.9309H85.2769C89.55 80.9309 93.0254 77.652 93.0254 73.6206V46.8699H54.5292V73.6908C54.5292 77.6823 57.9711 80.9309 62.2034 80.9309ZM91.198 48.5939V73.6206C91.198 76.7013 88.5408 79.2068 85.2769 79.2068H62.2034C58.9803 79.2068 56.3566 76.7329 56.3566 73.6908V48.5939H91.198Z" fill="white"/>
<path d="M51.2038 47.7299H96.3445C97.1816 47.7299 97.9444 47.3377 98.3863 46.6786C98.7946 46.0719 98.8661 45.3261 98.5701 44.7345L98.4986 44.5914L74.4509 22.6853C72.9823 21.8515 71.3109 21.9464 70.3848 22.9137L49.5544 44.7001C49.0513 45.2257 48.9229 45.9453 49.2204 46.5782C49.55 47.2772 50.3288 47.7299 51.2038 47.7299ZM96.9235 45.5531C96.9177 45.6082 96.8944 45.6797 96.8448 45.7554C96.7675 45.8696 96.6187 46.0058 96.3445 46.0058H51.2038C50.9865 46.0058 50.8947 45.9013 50.8888 45.8724L71.7412 24.0695C72.0504 23.7475 72.7621 23.7709 73.4256 24.1176L96.9235 45.5531Z" fill="white"/>
<path d="M63.6369 80.1219H73.6299V57.8444H63.6369V80.1219ZM72.259 78.8286H65.0078V59.1364H72.259V78.8286Z" fill="white"/>
<path d="M77.5961 63.0702H86.9736V54.2244H77.5961V63.0702ZM85.6027 61.7768H78.967V55.5164H85.6027V61.7768Z" fill="white"/>
<path d="M392.138 238.004H388.132V344.824H392.138V238.004Z" fill="#252525"/>
<path d="M290.184 380.559C301.795 380.559 311.208 371.146 311.208 359.534C311.208 347.923 301.795 338.51 290.184 338.51C278.572 338.51 269.159 347.923 269.159 359.534C269.159 371.146 278.572 380.559 290.184 380.559Z" fill="#121212"/>
<path d="M296.26 338.51H290.184V380.559H296.26V338.51Z" fill="#121212"/>
<path d="M296.416 380.559C308.028 380.559 317.441 371.146 317.441 359.534C317.441 347.923 308.028 338.51 296.416 338.51C284.805 338.51 275.392 347.923 275.392 359.534C275.392 371.146 284.805 380.559 296.416 380.559Z" fill="#252525"/>
<path opacity="0.29" d="M308.611 342.412C305.174 339.959 300.961 338.51 296.416 338.51C284.801 338.51 275.392 347.92 275.392 359.534C275.392 362.888 276.178 366.056 277.576 368.872C285.36 357.588 296.396 348.437 308.611 342.412Z" fill="#575757"/>
<path d="M296.261 372.039C303.167 372.039 308.766 366.441 308.766 359.534C308.766 352.628 303.167 347.029 296.261 347.029C289.355 347.029 283.756 352.628 283.756 359.534C283.756 366.441 289.355 372.039 296.261 372.039Z" fill="#121212"/>
<path d="M303.492 366.854C307.486 362.859 307.486 356.384 303.492 352.39C299.498 348.395 293.022 348.395 289.028 352.39C285.034 356.384 285.034 362.859 289.028 366.854C293.022 370.848 299.498 370.848 303.492 366.854Z" fill="white"/>
<path d="M289.812 359.865C289.812 363.416 292.689 366.284 296.23 366.284C299.77 366.284 302.648 363.406 302.648 359.865C302.648 356.325 299.77 353.447 296.23 353.447C292.689 353.447 289.812 356.325 289.812 359.865Z" fill="#ABABAB"/>
<path d="M290.236 359.503C290.236 362.712 292.835 365.3 296.033 365.3C299.232 365.3 301.83 362.702 301.83 359.503C301.83 356.304 299.232 353.706 296.033 353.706C292.835 353.706 290.236 356.304 290.236 359.503Z" fill="#D5D5D5"/>
<path d="M294.802 351.004C294.802 351.812 295.454 352.464 296.261 352.464C297.069 352.464 297.721 351.812 297.721 351.004C297.721 350.197 297.069 349.545 296.261 349.545C295.454 349.545 294.802 350.197 294.802 351.004Z" fill="#808080"/>
<path d="M295.329 351.004C295.329 351.522 295.743 351.936 296.261 351.936C296.778 351.936 297.192 351.522 297.192 351.004C297.192 350.487 296.778 350.073 296.261 350.073C295.743 350.073 295.329 350.487 295.329 351.004Z" fill="#D5D5D5"/>
<path d="M294.802 368.24C294.802 369.047 295.454 369.699 296.261 369.699C297.069 369.699 297.721 369.047 297.721 368.24C297.721 367.432 297.069 366.78 296.261 366.78C295.454 366.78 294.802 367.432 294.802 368.24Z" fill="#808080"/>
<path d="M295.329 368.24C295.329 368.757 295.743 369.171 296.261 369.171C296.778 369.171 297.192 368.757 297.192 368.24C297.192 367.722 296.778 367.308 296.261 367.308C295.743 367.308 295.329 367.722 295.329 368.24Z" fill="#D5D5D5"/>
<path d="M303.403 359.627C303.403 360.435 304.056 361.087 304.863 361.087C305.67 361.087 306.323 360.435 306.323 359.627C306.323 358.82 305.67 358.168 304.863 358.168C304.056 358.168 303.403 358.82 303.403 359.627Z" fill="#808080"/>
<path d="M303.921 359.627C303.921 360.145 304.335 360.559 304.853 360.559C305.37 360.559 305.784 360.145 305.784 359.627C305.784 359.11 305.37 358.696 304.853 358.696C304.335 358.696 303.921 359.11 303.921 359.627Z" fill="#D5D5D5"/>
<path d="M287.597 361.087C288.403 361.087 289.057 360.433 289.057 359.627C289.057 358.821 288.403 358.168 287.597 358.168C286.791 358.168 286.138 358.821 286.138 359.627C286.138 360.433 286.791 361.087 287.597 361.087Z" fill="#808080"/>
<path d="M287.598 360.559C288.112 360.559 288.529 360.142 288.529 359.627C288.529 359.113 288.112 358.696 287.598 358.696C287.083 358.696 286.666 359.113 286.666 359.627C286.666 360.142 287.083 360.559 287.598 360.559Z" fill="#D5D5D5"/>
<path d="M301.313 352.516C300.743 353.085 300.743 354.006 301.313 354.576C301.882 355.145 302.803 355.145 303.373 354.576C303.942 354.006 303.942 353.085 303.373 352.516C302.803 351.946 301.882 351.946 301.313 352.516Z" fill="#808080"/>
<path d="M301.686 352.888C301.323 353.251 301.323 353.841 301.686 354.213C302.048 354.586 302.638 354.576 303.011 354.213C303.373 353.851 303.373 353.261 303.011 352.888C302.648 352.526 302.058 352.526 301.686 352.888Z" fill="#D5D5D5"/>
<path d="M289.127 364.71C288.558 365.279 288.558 366.201 289.127 366.77C289.697 367.339 290.618 367.339 291.187 366.77C291.757 366.201 291.757 365.279 291.187 364.71C290.618 364.141 289.697 364.141 289.127 364.71Z" fill="#808080"/>
<path d="M289.49 365.073C289.127 365.435 289.127 366.025 289.49 366.398C289.852 366.76 290.442 366.76 290.815 366.398C291.187 366.035 291.177 365.445 290.815 365.073C290.452 364.7 289.862 364.71 289.49 365.073Z" fill="#D5D5D5"/>
<path d="M301.301 364.699C300.732 365.269 300.732 366.19 301.301 366.76C301.87 367.329 302.792 367.329 303.361 366.76C303.93 366.19 303.93 365.269 303.361 364.699C302.792 364.13 301.87 364.13 301.301 364.699Z" fill="#808080"/>
<path d="M301.674 365.062C301.312 365.424 301.312 366.014 301.674 366.387C302.036 366.749 302.626 366.749 302.999 366.387C303.361 366.024 303.361 365.434 302.999 365.062C302.637 364.699 302.047 364.699 301.674 365.062Z" fill="#D5D5D5"/>
<path d="M289.098 352.495C288.529 353.064 288.529 353.986 289.098 354.555C289.667 355.124 290.589 355.124 291.158 354.555C291.727 353.986 291.727 353.064 291.158 352.495C290.589 351.926 289.667 351.926 289.098 352.495Z" fill="#808080"/>
<path d="M289.471 352.857C289.109 353.219 289.109 353.81 289.471 354.182C289.833 354.555 290.423 354.545 290.796 354.182C291.158 353.82 291.158 353.23 290.796 352.857C290.434 352.495 289.844 352.495 289.471 352.857Z" fill="#D5D5D5"/>
<path d="M291.748 359.503C291.748 361.874 293.674 363.799 296.044 363.799C298.415 363.799 300.34 361.874 300.34 359.503C300.34 357.132 298.415 355.207 296.044 355.207C293.674 355.207 291.748 357.132 291.748 359.503Z" fill="white"/>
<path d="M311.208 344.597C308.175 341.812 304.386 339.897 300.391 339.193C299.386 339.017 298.382 338.924 297.368 338.872C296.353 338.82 295.339 338.924 294.335 338.975C292.326 339.234 290.349 339.721 288.476 340.497C286.612 341.294 284.863 342.329 283.279 343.592C281.726 344.897 280.36 346.408 279.18 348.054C278.031 349.731 277.14 351.584 276.488 353.509C275.846 355.456 275.536 357.485 275.401 359.545C275.36 357.485 275.588 355.414 276.126 353.396C276.726 351.408 277.565 349.483 278.693 347.723C279.842 345.973 281.26 344.41 282.844 343.044C284.469 341.729 286.271 340.632 288.196 339.783C290.142 338.996 292.202 338.52 294.283 338.282C295.329 338.251 296.374 338.147 297.42 338.209C298.465 338.272 299.5 338.396 300.525 338.613C304.614 339.462 308.424 341.574 311.239 344.597H311.208Z" fill="#575757"/>
<path d="M169.563 380.559C181.174 380.559 190.587 371.146 190.587 359.534C190.587 347.923 181.174 338.51 169.563 338.51C157.951 338.51 148.538 347.923 148.538 359.534C148.538 371.146 157.951 380.559 169.563 380.559Z" fill="#121212"/>
<path d="M175.639 338.51H169.562V380.559H175.639V338.51Z" fill="#121212"/>
<path d="M175.805 380.559C187.416 380.559 196.83 371.146 196.83 359.534C196.83 347.923 187.416 338.51 175.805 338.51C164.193 338.51 154.78 347.923 154.78 359.534C154.78 371.146 164.193 380.559 175.805 380.559Z" fill="#252525"/>
<path opacity="0.29" d="M187.999 342.412C184.563 339.959 180.349 338.51 175.805 338.51C164.19 338.51 154.78 347.92 154.78 359.534C154.78 362.888 155.567 366.056 156.965 368.872C164.749 357.588 175.784 348.437 187.999 342.412Z" fill="#575757"/>
<path d="M175.639 372.039C182.545 372.039 188.144 366.441 188.144 359.534C188.144 352.628 182.545 347.029 175.639 347.029C168.732 347.029 163.134 352.628 163.134 359.534C163.134 366.441 168.732 372.039 175.639 372.039Z" fill="#121212"/>
<path d="M185.051 363.527C187.226 358.314 184.762 352.325 179.549 350.151C174.336 347.976 168.347 350.44 166.172 355.653C163.998 360.867 166.462 366.855 171.675 369.03C176.888 371.204 182.877 368.741 185.051 363.527Z" fill="white"/>
<path d="M175.608 366.284C179.152 366.284 182.026 363.41 182.026 359.865C182.026 356.321 179.152 353.447 175.608 353.447C172.063 353.447 169.189 356.321 169.189 359.865C169.189 363.41 172.063 366.284 175.608 366.284Z" fill="#ABABAB"/>
<path d="M169.625 359.503C169.625 362.712 172.223 365.3 175.422 365.3C178.621 365.3 181.219 362.702 181.219 359.503C181.219 356.304 178.621 353.706 175.422 353.706C172.223 353.706 169.625 356.304 169.625 359.503Z" fill="#D5D5D5"/>
<path d="M175.639 352.464C176.445 352.464 177.099 351.811 177.099 351.005C177.099 350.198 176.445 349.545 175.639 349.545C174.833 349.545 174.18 350.198 174.18 351.005C174.18 351.811 174.833 352.464 175.639 352.464Z" fill="#808080"/>
<path d="M175.64 351.936C176.154 351.936 176.571 351.519 176.571 351.005C176.571 350.49 176.154 350.073 175.64 350.073C175.125 350.073 174.708 350.49 174.708 351.005C174.708 351.519 175.125 351.936 175.64 351.936Z" fill="#D5D5D5"/>
<path d="M175.639 369.699C176.445 369.699 177.099 369.046 177.099 368.24C177.099 367.434 176.445 366.78 175.639 366.78C174.833 366.78 174.18 367.434 174.18 368.24C174.18 369.046 174.833 369.699 175.639 369.699Z" fill="#808080"/>
<path d="M175.64 369.171C176.154 369.171 176.571 368.754 176.571 368.24C176.571 367.725 176.154 367.308 175.64 367.308C175.125 367.308 174.708 367.725 174.708 368.24C174.708 368.754 175.125 369.171 175.64 369.171Z" fill="#D5D5D5"/>
<path d="M184.241 361.087C185.047 361.087 185.7 360.433 185.7 359.627C185.7 358.821 185.047 358.167 184.241 358.167C183.435 358.167 182.781 358.821 182.781 359.627C182.781 360.433 183.435 361.087 184.241 361.087Z" fill="#808080"/>
<path d="M184.241 360.559C184.756 360.559 185.173 360.142 185.173 359.627C185.173 359.113 184.756 358.696 184.241 358.696C183.727 358.696 183.31 359.113 183.31 359.627C183.31 360.142 183.727 360.559 184.241 360.559Z" fill="#D5D5D5"/>
<path d="M165.525 359.627C165.525 360.435 166.178 361.087 166.985 361.087C167.792 361.087 168.445 360.435 168.445 359.627C168.445 358.82 167.792 358.168 166.985 358.168C166.178 358.168 165.525 358.82 165.525 359.627Z" fill="#808080"/>
<path d="M166.043 359.627C166.043 360.145 166.457 360.559 166.975 360.559C167.492 360.559 167.906 360.145 167.906 359.627C167.906 359.11 167.492 358.696 166.975 358.696C166.457 358.696 166.043 359.11 166.043 359.627Z" fill="#D5D5D5"/>
<path d="M180.701 352.516C180.132 353.085 180.132 354.007 180.701 354.576C181.271 355.145 182.192 355.145 182.761 354.576C183.331 354.007 183.331 353.085 182.761 352.516C182.192 351.947 181.271 351.947 180.701 352.516Z" fill="#808080"/>
<path d="M181.064 352.888C180.701 353.251 180.701 353.841 181.064 354.213C181.426 354.576 182.016 354.576 182.389 354.213C182.761 353.851 182.751 353.261 182.389 352.888C182.026 352.516 181.436 352.526 181.064 352.888Z" fill="#D5D5D5"/>
<path d="M168.506 364.71C167.937 365.28 167.937 366.201 168.506 366.77C169.075 367.34 169.997 367.34 170.566 366.77C171.135 366.201 171.135 365.28 170.566 364.71C169.997 364.141 169.075 364.141 168.506 364.71Z" fill="#808080"/>
<path d="M169.541 366.667C170.056 366.667 170.473 366.25 170.473 365.735C170.473 365.221 170.056 364.803 169.541 364.803C169.026 364.803 168.609 365.221 168.609 365.735C168.609 366.25 169.026 366.667 169.541 366.667Z" fill="#D5D5D5"/>
<path d="M180.68 364.699C180.111 365.269 180.111 366.19 180.68 366.76C181.249 367.329 182.171 367.329 182.74 366.76C183.309 366.19 183.309 365.269 182.74 364.699C182.171 364.13 181.249 364.13 180.68 364.699Z" fill="#808080"/>
<path d="M181.053 365.062C180.691 365.424 180.691 366.014 181.053 366.387C181.415 366.749 182.005 366.749 182.378 366.387C182.74 366.024 182.74 365.434 182.378 365.062C182.016 364.689 181.426 364.699 181.053 365.062Z" fill="#D5D5D5"/>
<path d="M168.476 352.495C167.906 353.064 167.906 353.986 168.476 354.555C169.045 355.124 169.966 355.124 170.536 354.555C171.105 353.986 171.105 353.064 170.536 352.495C169.966 351.926 169.045 351.926 168.476 352.495Z" fill="#808080"/>
<path d="M169.511 354.451C170.025 354.451 170.442 354.034 170.442 353.52C170.442 353.005 170.025 352.588 169.511 352.588C168.996 352.588 168.579 353.005 168.579 353.52C168.579 354.034 168.996 354.451 169.511 354.451Z" fill="#D5D5D5"/>
<path d="M171.125 359.503C171.125 361.874 173.05 363.799 175.421 363.799C177.792 363.799 179.717 361.874 179.717 359.503C179.717 357.132 177.792 355.207 175.421 355.207C173.05 355.207 171.125 357.132 171.125 359.503Z" fill="white"/>
<path d="M190.587 344.597C187.554 341.812 183.765 339.897 179.77 339.193C178.765 339.017 177.761 338.924 176.747 338.872C175.732 338.82 174.718 338.924 173.714 338.975C171.705 339.234 169.728 339.721 167.855 340.497C165.991 341.294 164.242 342.329 162.658 343.592C161.105 344.897 159.739 346.408 158.559 348.054C157.41 349.731 156.519 351.584 155.867 353.509C155.225 355.456 154.915 357.485 154.78 359.545C154.739 357.485 154.966 355.414 155.505 353.396C156.105 351.408 156.944 349.483 158.072 347.723C159.221 345.973 160.639 344.41 162.223 343.044C163.848 341.729 165.65 340.632 167.575 339.783C169.521 338.996 171.581 338.52 173.662 338.282C174.707 338.251 175.753 338.147 176.799 338.209C177.844 338.272 178.879 338.396 179.904 338.613C183.993 339.462 187.803 341.574 190.618 344.597H190.587Z" fill="#575757"/>
<path d="M205.049 238.004H83.6221V357.464H205.049V238.004Z" fill="#B4B4B4"/>
<path d="M205.049 343.654H83.6221V357.505H205.049V343.654Z" fill="#777E7E"/>
<path d="M388.133 238.004H174.968V357.464H388.133V238.004Z" fill="#7E7E7E"/>
<path opacity="0.54" d="M333.858 238.004H287.358C249.863 269.515 213.166 301.729 174.968 334.1V357.453H222.804C259.511 317.319 294.169 275.146 333.868 237.993L333.858 238.004Z" fill="#B4B4B4"/>
<path opacity="0.54" d="M358.36 238.004C358.091 238.314 357.821 238.625 357.573 238.956C322.325 281.595 285.307 318.344 249.365 357.464H301.58C312.491 342.806 323.37 327.92 334.592 312.123C352.438 286.668 370.865 266.347 388.132 242.062V238.004H358.37H358.36Z" fill="#B4B4B4"/>
<path d="M388.133 343.654H174.968V357.505H388.133V343.654Z" fill="#50595A"/>
<path d="M388.133 343.654H174.968V344.824H388.133V343.654Z" fill="#DDDDDD"/>
<path d="M388.122 238.004H161.199V245.478H388.122V238.004Z" fill="#B4B4B4"/>
<path d="M388.121 238.004H83.6221V239.091H388.121V238.004Z" fill="#DDDDDD"/>
<path d="M36.6867 380.559C48.2983 380.559 57.7113 371.146 57.7113 359.534C57.7113 347.923 48.2983 338.51 36.6867 338.51C25.0751 338.51 15.6621 347.923 15.6621 359.534C15.6621 371.146 25.0751 380.559 36.6867 380.559Z" fill="#121212"/>
<path d="M42.7621 338.51H36.6855V380.559H42.7621V338.51Z" fill="#121212"/>
<path d="M42.9191 380.559C54.5307 380.559 63.9437 371.146 63.9437 359.534C63.9437 347.923 54.5307 338.51 42.9191 338.51C31.3076 338.51 21.8945 347.923 21.8945 359.534C21.8945 371.146 31.3076 380.559 42.9191 380.559Z" fill="#252525"/>
<path opacity="0.29" d="M55.1136 342.412C51.6768 339.959 47.4636 338.51 42.9191 338.51C31.3044 338.51 21.8945 347.92 21.8945 359.534C21.8945 362.888 22.6813 366.056 24.0788 368.872C31.8633 357.588 42.8984 348.437 55.1136 342.412Z" fill="#575757"/>
<path d="M42.7629 372.039C49.6692 372.039 55.2679 366.441 55.2679 359.534C55.2679 352.628 49.6692 347.029 42.7629 347.029C35.8565 347.029 30.2578 352.628 30.2578 359.534C30.2578 366.441 35.8565 372.039 42.7629 372.039Z" fill="#121212"/>
<path d="M45.119 369.537C50.6177 368.245 54.0272 362.739 52.7345 357.241C51.4417 351.742 45.9363 348.332 40.4376 349.625C34.939 350.918 31.5294 356.423 32.8221 361.922C34.1149 367.421 39.6204 370.83 45.119 369.537Z" fill="white"/>
<path d="M42.7316 366.284C46.2763 366.284 49.1498 363.41 49.1498 359.865C49.1498 356.321 46.2763 353.447 42.7316 353.447C39.187 353.447 36.3135 356.321 36.3135 359.865C36.3135 363.41 39.187 366.284 42.7316 366.284Z" fill="#ABABAB"/>
<path d="M36.7383 359.503C36.7383 362.712 39.3366 365.3 42.5353 365.3C45.734 365.3 48.3323 362.702 48.3323 359.503C48.3323 356.304 45.734 353.706 42.5353 353.706C39.3366 353.706 36.7383 356.304 36.7383 359.503Z" fill="#D5D5D5"/>
<path d="M41.3037 351.004C41.3037 351.811 41.9559 352.464 42.7633 352.464C43.5708 352.464 44.2229 351.811 44.2229 351.004C44.2229 350.197 43.5708 349.544 42.7633 349.544C41.9559 349.544 41.3037 350.197 41.3037 351.004Z" fill="#808080"/>
<path d="M41.8213 351.004C41.8213 351.522 42.2354 351.936 42.7529 351.936C43.2705 351.936 43.6846 351.522 43.6846 351.004C43.6846 350.487 43.2705 350.073 42.7529 350.073C42.2354 350.073 41.8213 350.487 41.8213 351.004Z" fill="#D5D5D5"/>
<path d="M41.3037 368.24C41.3037 369.047 41.9559 369.699 42.7633 369.699C43.5708 369.699 44.2229 369.047 44.2229 368.24C44.2229 367.432 43.5708 366.78 42.7633 366.78C41.9559 366.78 41.3037 367.432 41.3037 368.24Z" fill="#808080"/>
<path d="M41.8213 368.24C41.8213 368.757 42.2354 369.171 42.7529 369.171C43.2705 369.171 43.6846 368.757 43.6846 368.24C43.6846 367.722 43.2705 367.308 42.7529 367.308C42.2354 367.308 41.8213 367.722 41.8213 368.24Z" fill="#D5D5D5"/>
<path d="M49.9062 359.627C49.9062 360.435 50.5584 361.087 51.3659 361.087C52.1733 361.087 52.8255 360.435 52.8255 359.627C52.8255 358.82 52.1733 358.167 51.3659 358.167C50.5584 358.167 49.9062 358.82 49.9062 359.627Z" fill="#808080"/>
<path d="M50.4238 359.627C50.4238 360.145 50.8379 360.559 51.3555 360.559C51.8731 360.559 52.2871 360.145 52.2871 359.627C52.2871 359.11 51.8731 358.696 51.3555 358.696C50.8379 358.696 50.4238 359.11 50.4238 359.627Z" fill="#D5D5D5"/>
<path d="M34.0992 361.087C34.9054 361.087 35.5588 360.434 35.5588 359.628C35.5588 358.821 34.9054 358.168 34.0992 358.168C33.2931 358.168 32.6396 358.821 32.6396 359.628C32.6396 360.434 33.2931 361.087 34.0992 361.087Z" fill="#808080"/>
<path d="M34.0987 360.559C34.6132 360.559 35.0303 360.142 35.0303 359.627C35.0303 359.113 34.6132 358.696 34.0987 358.696C33.5841 358.696 33.167 359.113 33.167 359.627C33.167 360.142 33.5841 360.559 34.0987 360.559Z" fill="#D5D5D5"/>
<path d="M47.8157 352.515C47.2463 353.085 47.2463 354.006 47.8157 354.575C48.385 355.145 49.3064 355.145 49.8757 354.575C50.4451 354.006 50.4451 353.085 49.8757 352.515C49.3064 351.946 48.385 351.946 47.8157 352.515Z" fill="#808080"/>
<path d="M48.1878 352.888C47.8254 353.251 47.8254 353.841 48.1878 354.213C48.5501 354.576 49.1401 354.576 49.5128 354.213C49.8751 353.851 49.8751 353.261 49.5128 352.888C49.1505 352.526 48.5604 352.526 48.1878 352.888Z" fill="#D5D5D5"/>
<path d="M35.6311 364.71C35.0618 365.28 35.0618 366.201 35.6311 366.77C36.2005 367.34 37.1218 367.34 37.6911 366.77C38.2605 366.201 38.2605 365.28 37.6911 364.71C37.1218 364.141 36.2005 364.141 35.6311 364.71Z" fill="#808080"/>
<path d="M35.9924 365.073C35.6301 365.435 35.6301 366.025 35.9924 366.398C36.3548 366.76 36.9448 366.76 37.3175 366.398C37.6901 366.035 37.6798 365.445 37.3175 365.073C36.9552 364.7 36.3651 364.71 35.9924 365.073Z" fill="#D5D5D5"/>
<path d="M47.8049 364.699C47.2356 365.269 47.2356 366.19 47.8049 366.76C48.3743 367.329 49.2956 367.329 49.8649 366.76C50.4343 366.19 50.4343 365.269 49.8649 364.699C49.2956 364.13 48.3743 364.13 47.8049 364.699Z" fill="#808080"/>
<path d="M48.178 365.062C47.8157 365.424 47.8157 366.014 48.178 366.387C48.5403 366.749 49.1304 366.749 49.503 366.387C49.8653 366.025 49.8653 365.435 49.503 365.062C49.1407 364.7 48.5507 364.7 48.178 365.062Z" fill="#D5D5D5"/>
<path d="M35.5999 352.495C35.0305 353.064 35.0305 353.986 35.5999 354.555C36.1692 355.124 37.0905 355.124 37.6599 354.555C38.2292 353.986 38.2292 353.064 37.6599 352.495C37.0905 351.926 36.1692 351.926 35.5999 352.495Z" fill="#808080"/>
<path d="M35.9729 352.857C35.6106 353.219 35.6106 353.81 35.9729 354.182C36.3352 354.545 36.9253 354.545 37.2979 354.182C37.6706 353.82 37.6603 353.23 37.2979 352.857C36.9356 352.485 36.3456 352.495 35.9729 352.857Z" fill="#D5D5D5"/>
<path d="M38.2393 359.503C38.2393 361.874 40.1647 363.799 42.5353 363.799C44.9059 363.799 46.8313 361.874 46.8313 359.503C46.8313 357.132 44.9059 355.207 42.5353 355.207C40.1647 355.207 38.2393 357.132 38.2393 359.503Z" fill="white"/>
<path d="M57.7112 344.597C54.6781 341.812 50.8893 339.897 46.8935 339.193C45.8894 339.017 44.8853 338.924 43.8708 338.872C42.8563 338.82 41.8418 338.924 40.8377 338.975C38.8294 339.234 36.8522 339.721 34.9785 340.497C33.1152 341.294 31.3658 342.329 29.7819 343.592C28.2188 344.897 26.8627 346.408 25.6826 348.054C24.5336 349.731 23.6433 351.584 22.9911 353.509C22.3493 355.456 22.0387 357.485 21.9042 359.545C21.8628 357.485 22.0905 355.414 22.6288 353.396C23.2292 351.408 24.0677 349.483 25.1961 347.723C26.3451 345.973 27.7633 344.41 29.3471 343.044C30.9724 341.729 32.7736 340.632 34.6991 339.783C36.6452 338.996 38.7052 338.52 40.7859 338.282C41.8315 338.251 42.877 338.147 43.9226 338.209C44.9681 338.272 46.0033 338.396 47.0281 338.613C51.1171 339.462 54.9266 341.574 57.7423 344.597H57.7112Z" fill="#575757"/>
<path d="M58.0839 250.964C23.985 252.744 1.46973 305.57 1.46973 305.57V362.402H141.095V250.954H58.0839V250.964Z" fill="#AB333C"/>
<path d="M141.095 265.084V250.964H58.0833C48.0421 251.492 39.0152 256.44 31.2617 263.159C35.1954 262.32 39.1498 261.564 43.1456 260.954C76.2301 256.223 109.325 257.714 141.095 265.084Z" fill="#C14C5D"/>
<path d="M156.561 326.377H84.4814V362.412H156.561V326.377Z" fill="black"/>
<path d="M84.4811 337.919H1.46973V339.006H84.4811V337.919Z" fill="#121212"/>
<path d="M141.096 250.964C106.997 252.744 84.4814 305.57 84.4814 305.57V362.402H99.916C99.8746 361.791 99.8436 361.17 99.8436 360.549C99.8436 345.87 111.748 333.965 126.427 333.965C141.106 333.965 153.011 345.87 153.011 360.549C153.011 361.17 152.98 361.791 152.938 362.402H156.561V250.954H141.096V250.964Z" fill="#871A1F"/>
<path d="M152.886 358.085C152.959 358.903 153 359.721 153 360.559C153 361.18 152.969 361.801 152.928 362.412H156.551V358.085H152.876H152.886Z" fill="#50595A"/>
<path d="M99.9678 358.085H84.4814V362.412H99.916C99.8746 361.801 99.8436 361.18 99.8436 360.559C99.8436 359.721 99.885 358.903 99.9575 358.085H99.9678Z" fill="#50595A"/>
<path d="M205.608 357.505H261.664C261.664 357.505 259.138 330.249 234.304 330.249C209.47 330.249 205.608 357.505 205.608 357.505Z" fill="#1B2222"/>
<path d="M231.519 380.559C243.13 380.559 252.543 371.146 252.543 359.534C252.543 347.923 243.13 338.51 231.519 338.51C219.907 338.51 210.494 347.923 210.494 359.534C210.494 371.146 219.907 380.559 231.519 380.559Z" fill="#121212"/>
<path d="M237.595 338.51H231.519V380.559H237.595V338.51Z" fill="#121212"/>
<path d="M237.751 380.559C249.363 380.559 258.776 371.146 258.776 359.534C258.776 347.923 249.363 338.51 237.751 338.51C226.14 338.51 216.727 347.923 216.727 359.534C216.727 371.146 226.14 380.559 237.751 380.559Z" fill="#252525"/>
<path opacity="0.29" d="M249.946 342.412C246.509 339.959 242.296 338.51 237.751 338.51C226.136 338.51 216.727 347.92 216.727 359.534C216.727 362.888 217.513 366.056 218.911 368.872C226.695 357.588 237.73 348.437 249.946 342.412Z" fill="#575757"/>
<path d="M237.595 372.039C244.501 372.039 250.1 366.441 250.1 359.534C250.1 352.628 244.501 347.029 237.595 347.029C230.688 347.029 225.09 352.628 225.09 359.534C225.09 366.441 230.688 372.039 237.595 372.039Z" fill="#121212"/>
<path d="M247.006 363.53C249.181 358.317 246.717 352.328 241.504 350.153C236.291 347.979 230.302 350.442 228.127 355.656C225.953 360.869 228.417 366.858 233.63 369.032C238.843 371.207 244.832 368.743 247.006 363.53Z" fill="white"/>
<path d="M231.146 359.865C231.146 363.416 234.023 366.284 237.564 366.284C241.104 366.284 243.982 363.406 243.982 359.865C243.982 356.325 241.104 353.447 237.564 353.447C234.023 353.447 231.146 356.325 231.146 359.865Z" fill="#ABABAB"/>
<path d="M231.58 359.503C231.58 362.712 234.178 365.3 237.377 365.3C240.576 365.3 243.174 362.702 243.174 359.503C243.174 356.304 240.576 353.706 237.377 353.706C234.178 353.706 231.58 356.304 231.58 359.503Z" fill="#D5D5D5"/>
<path d="M236.137 351.004C236.137 351.812 236.789 352.464 237.596 352.464C238.404 352.464 239.056 351.812 239.056 351.004C239.056 350.197 238.404 349.545 237.596 349.545C236.789 349.545 236.137 350.197 236.137 351.004Z" fill="#808080"/>
<path d="M236.665 351.004C236.665 351.522 237.079 351.936 237.597 351.936C238.114 351.936 238.528 351.522 238.528 351.004C238.528 350.487 238.114 350.073 237.597 350.073C237.079 350.073 236.665 350.487 236.665 351.004Z" fill="#D5D5D5"/>
<path d="M236.137 368.24C236.137 369.048 236.789 369.7 237.596 369.7C238.404 369.7 239.056 369.048 239.056 368.24C239.056 367.433 238.404 366.781 237.596 366.781C236.789 366.781 236.137 367.433 236.137 368.24Z" fill="#808080"/>
<path d="M236.665 368.24C236.665 368.758 237.079 369.172 237.597 369.172C238.114 369.172 238.528 368.758 238.528 368.24C238.528 367.722 238.114 367.308 237.597 367.308C237.079 367.308 236.665 367.722 236.665 368.24Z" fill="#D5D5D5"/>
<path d="M246.197 361.087C247.003 361.087 247.657 360.434 247.657 359.628C247.657 358.821 247.003 358.168 246.197 358.168C245.391 358.168 244.737 358.821 244.737 359.628C244.737 360.434 245.391 361.087 246.197 361.087Z" fill="#808080"/>
<path d="M246.196 360.559C246.711 360.559 247.128 360.142 247.128 359.627C247.128 359.113 246.711 358.696 246.196 358.696C245.682 358.696 245.265 359.113 245.265 359.627C245.265 360.142 245.682 360.559 246.196 360.559Z" fill="#D5D5D5"/>
<path d="M227.481 359.627C227.481 360.435 228.134 361.087 228.941 361.087C229.748 361.087 230.401 360.435 230.401 359.627C230.401 358.82 229.748 358.168 228.941 358.168C228.134 358.168 227.481 358.82 227.481 359.627Z" fill="#808080"/>
<path d="M228 359.627C228 360.145 228.414 360.559 228.932 360.559C229.449 360.559 229.863 360.145 229.863 359.627C229.863 359.11 229.449 358.696 228.932 358.696C228.414 358.696 228 359.11 228 359.627Z" fill="#D5D5D5"/>
<path d="M242.647 352.516C242.077 353.085 242.077 354.006 242.647 354.576C243.216 355.145 244.137 355.145 244.707 354.576C245.276 354.006 245.276 353.085 244.707 352.516C244.137 351.946 243.216 351.946 242.647 352.516Z" fill="#808080"/>
<path d="M243.02 352.888C242.657 353.251 242.657 353.841 243.02 354.213C243.382 354.576 243.972 354.576 244.345 354.213C244.707 353.851 244.707 353.261 244.345 352.888C243.982 352.526 243.392 352.526 243.02 352.888Z" fill="#D5D5D5"/>
<path d="M230.463 364.71C229.894 365.28 229.894 366.201 230.463 366.77C231.032 367.34 231.954 367.34 232.523 366.77C233.093 366.201 233.093 365.28 232.523 364.71C231.954 364.141 231.032 364.141 230.463 364.71Z" fill="#808080"/>
<path d="M230.825 365.073C230.463 365.435 230.463 366.025 230.825 366.398C231.188 366.76 231.778 366.76 232.151 366.398C232.523 366.035 232.513 365.445 232.151 365.073C231.788 364.7 231.198 364.71 230.825 365.073Z" fill="#D5D5D5"/>
<path d="M242.636 364.699C242.067 365.269 242.067 366.19 242.636 366.76C243.205 367.329 244.127 367.329 244.696 366.76C245.265 366.19 245.265 365.269 244.696 364.699C244.127 364.13 243.205 364.13 242.636 364.699Z" fill="#808080"/>
<path d="M243.009 365.062C242.647 365.424 242.647 366.014 243.009 366.387C243.371 366.749 243.961 366.749 244.334 366.387C244.696 366.024 244.696 365.434 244.334 365.062C243.972 364.689 243.382 364.699 243.009 365.062Z" fill="#D5D5D5"/>
<path d="M230.431 352.495C229.862 353.064 229.862 353.986 230.431 354.555C231 355.124 231.922 355.124 232.491 354.555C233.06 353.986 233.06 353.064 232.491 352.495C231.922 351.926 231 351.926 230.431 352.495Z" fill="#808080"/>
<path d="M231.466 354.451C231.98 354.451 232.397 354.034 232.397 353.52C232.397 353.005 231.98 352.588 231.466 352.588C230.951 352.588 230.534 353.005 230.534 353.52C230.534 354.034 230.951 354.451 231.466 354.451Z" fill="#D5D5D5"/>
<path d="M233.081 359.503C233.081 361.874 235.007 363.799 237.377 363.799C239.748 363.799 241.673 361.874 241.673 359.503C241.673 357.132 239.748 355.207 237.377 355.207C235.007 355.207 233.081 357.132 233.081 359.503Z" fill="white"/>
<path d="M252.543 344.597C249.51 341.812 245.721 339.897 241.726 339.193C240.721 339.017 239.717 338.924 238.703 338.872C237.688 338.82 236.674 338.924 235.67 338.975C233.661 339.234 231.684 339.721 229.811 340.497C227.947 341.294 226.198 342.329 224.614 343.592C223.051 344.897 221.695 346.408 220.515 348.054C219.366 349.731 218.475 351.584 217.823 353.509C217.181 355.456 216.871 357.485 216.736 359.545C216.695 357.485 216.923 355.414 217.461 353.396C218.061 351.408 218.9 349.483 220.028 347.723C221.177 345.973 222.595 344.41 224.179 343.044C225.804 341.729 227.606 340.632 229.531 339.783C231.477 338.996 233.537 338.52 235.618 338.282C236.663 338.251 237.709 338.147 238.755 338.209C239.8 338.272 240.835 338.396 241.86 338.613C245.949 339.462 249.759 341.574 252.574 344.597H252.543Z" fill="#575757"/>
<path d="M209.221 357.505C209.221 357.391 209.221 357.277 209.221 357.164C209.221 343.116 220.608 331.739 234.645 331.739C248.682 331.739 260.069 343.126 260.069 357.164C260.069 357.277 260.069 357.391 260.069 357.505H267.781C267.781 357.391 267.781 357.277 267.781 357.164C267.781 338.862 252.947 324.027 234.645 324.027C216.343 324.027 201.509 338.862 201.509 357.164C201.509 357.277 201.509 357.391 201.509 357.505H209.221Z" fill="#50595A"/>
<path d="M261.332 337.526C259.562 335.239 257.491 333.189 255.214 331.439C252.947 329.68 250.462 328.179 247.812 327.071C242.533 324.835 236.694 323.945 231.011 324.628C228.165 324.928 225.359 325.591 222.688 326.615C220.018 327.651 217.502 329.059 215.173 330.725C212.844 332.402 210.732 334.379 208.91 336.605C207.057 338.81 205.494 341.263 204.272 343.882C205.39 341.212 206.85 338.675 208.62 336.367C210.411 334.069 212.502 332.019 214.831 330.249C219.479 326.709 225.121 324.504 230.939 323.862C236.746 323.23 242.73 324.141 248.061 326.533C250.721 327.733 253.206 329.297 255.452 331.15C257.678 333.013 259.665 335.166 261.342 337.526H261.332Z" fill="#DDDDDD"/>
<path d="M316.817 357.505H376.744C376.744 357.505 374.042 330.249 347.5 330.249C320.958 330.249 316.817 357.505 316.817 357.505Z" fill="#1B2222"/>
<path d="M342.729 380.559C354.34 380.559 363.753 371.146 363.753 359.534C363.753 347.923 354.34 338.51 342.729 338.51C331.117 338.51 321.704 347.923 321.704 359.534C321.704 371.146 331.117 380.559 342.729 380.559Z" fill="#121212"/>
<path d="M348.805 338.51H342.729V380.559H348.805V338.51Z" fill="#121212"/>
<path d="M348.961 380.559C360.573 380.559 369.986 371.146 369.986 359.534C369.986 347.923 360.573 338.51 348.961 338.51C337.35 338.51 327.937 347.923 327.937 359.534C327.937 371.146 337.35 380.559 348.961 380.559Z" fill="#252525"/>
<path opacity="0.29" d="M361.165 342.412C357.729 339.959 353.515 338.51 348.971 338.51C337.356 338.51 327.946 347.92 327.946 359.534C327.946 362.888 328.733 366.056 330.131 368.872C337.915 357.588 348.95 348.437 361.165 342.412Z" fill="#575757"/>
<path d="M348.806 372.039C355.712 372.039 361.311 366.441 361.311 359.534C361.311 352.628 355.712 347.029 348.806 347.029C341.899 347.029 336.301 352.628 336.301 359.534C336.301 366.441 341.899 372.039 348.806 372.039Z" fill="#121212"/>
<path d="M355.077 367.643C359.534 364.173 360.335 357.747 356.865 353.29C353.395 348.833 346.969 348.032 342.512 351.502C338.055 354.972 337.254 361.398 340.724 365.855C344.194 370.312 350.62 371.113 355.077 367.643Z" fill="white"/>
<path d="M342.356 359.865C342.356 363.416 345.234 366.284 348.775 366.284C352.315 366.284 355.193 363.406 355.193 359.865C355.193 356.325 352.315 353.447 348.775 353.447C345.234 353.447 342.356 356.325 342.356 359.865Z" fill="#ABABAB"/>
<path d="M342.791 359.503C342.791 362.712 345.389 365.3 348.588 365.3C351.787 365.3 354.385 362.702 354.385 359.503C354.385 356.304 351.787 353.706 348.588 353.706C345.389 353.706 342.791 356.304 342.791 359.503Z" fill="#D5D5D5"/>
<path d="M347.346 351.004C347.346 351.811 347.998 352.464 348.805 352.464C349.613 352.464 350.265 351.811 350.265 351.004C350.265 350.197 349.613 349.544 348.805 349.544C347.998 349.544 347.346 350.197 347.346 351.004Z" fill="#808080"/>
<path d="M347.874 351.004C347.874 351.522 348.288 351.936 348.806 351.936C349.323 351.936 349.737 351.522 349.737 351.004C349.737 350.487 349.323 350.073 348.806 350.073C348.288 350.073 347.874 350.487 347.874 351.004Z" fill="#D5D5D5"/>
<path d="M347.346 368.24C347.346 369.047 347.998 369.699 348.805 369.699C349.613 369.699 350.265 369.047 350.265 368.24C350.265 367.432 349.613 366.78 348.805 366.78C347.998 366.78 347.346 367.432 347.346 368.24Z" fill="#808080"/>
<path d="M347.874 368.24C347.874 368.757 348.288 369.171 348.806 369.171C349.323 369.171 349.737 368.757 349.737 368.24C349.737 367.722 349.323 367.308 348.806 367.308C348.288 367.308 347.874 367.722 347.874 368.24Z" fill="#D5D5D5"/>
<path d="M355.948 359.628C355.948 360.435 356.6 361.087 357.408 361.087C358.215 361.087 358.867 360.435 358.867 359.628C358.867 358.82 358.215 358.168 357.408 358.168C356.6 358.168 355.948 358.82 355.948 359.628Z" fill="#808080"/>
<path d="M356.477 359.627C356.477 360.145 356.891 360.559 357.408 360.559C357.926 360.559 358.34 360.145 358.34 359.627C358.34 359.11 357.926 358.696 357.408 358.696C356.891 358.696 356.477 359.11 356.477 359.627Z" fill="#D5D5D5"/>
<path d="M338.692 359.627C338.692 360.435 339.345 361.087 340.152 361.087C340.959 361.087 341.612 360.435 341.612 359.627C341.612 358.82 340.959 358.168 340.152 358.168C339.345 358.168 338.692 358.82 338.692 359.627Z" fill="#808080"/>
<path d="M339.21 359.627C339.21 360.145 339.624 360.559 340.142 360.559C340.659 360.559 341.073 360.145 341.073 359.627C341.073 359.11 340.659 358.696 340.142 358.696C339.624 358.696 339.21 359.11 339.21 359.627Z" fill="#D5D5D5"/>
<path d="M353.857 352.516C353.287 353.085 353.287 354.006 353.857 354.576C354.426 355.145 355.347 355.145 355.917 354.576C356.486 354.006 356.486 353.085 355.917 352.516C355.347 351.946 354.426 351.946 353.857 352.516Z" fill="#808080"/>
<path d="M354.23 352.888C353.867 353.251 353.867 353.841 354.23 354.213C354.592 354.586 355.182 354.576 355.555 354.213C355.917 353.851 355.917 353.261 355.555 352.888C355.192 352.526 354.602 352.526 354.23 352.888Z" fill="#D5D5D5"/>
<path d="M341.673 364.71C341.104 365.28 341.104 366.201 341.673 366.77C342.242 367.34 343.164 367.34 343.733 366.77C344.302 366.201 344.302 365.28 343.733 364.71C343.164 364.141 342.242 364.141 341.673 364.71Z" fill="#808080"/>
<path d="M342.045 365.073C341.683 365.435 341.683 366.025 342.045 366.398C342.407 366.77 342.998 366.76 343.37 366.398C343.733 366.035 343.733 365.445 343.37 365.073C343.008 364.71 342.418 364.71 342.045 365.073Z" fill="#D5D5D5"/>
<path d="M353.847 364.699C353.278 365.269 353.278 366.19 353.847 366.76C354.416 367.329 355.338 367.329 355.907 366.76C356.476 366.19 356.476 365.269 355.907 364.699C355.338 364.13 354.416 364.13 353.847 364.699Z" fill="#808080"/>
<path d="M354.219 365.062C353.857 365.424 353.857 366.014 354.219 366.387C354.581 366.759 355.171 366.749 355.544 366.387C355.906 366.024 355.906 365.434 355.544 365.062C355.182 364.689 354.592 364.699 354.219 365.062Z" fill="#D5D5D5"/>
<path d="M341.641 352.495C341.072 353.064 341.072 353.986 341.641 354.555C342.21 355.124 343.132 355.124 343.701 354.555C344.27 353.986 344.27 353.064 343.701 352.495C343.132 351.926 342.21 351.926 341.641 352.495Z" fill="#808080"/>
<path d="M342.014 352.857C341.652 353.219 341.652 353.81 342.014 354.182C342.376 354.545 342.966 354.545 343.339 354.182C343.701 353.82 343.701 353.23 343.339 352.857C342.977 352.495 342.387 352.495 342.014 352.857Z" fill="#D5D5D5"/>
<path d="M344.292 359.503C344.292 361.874 346.217 363.799 348.588 363.799C350.959 363.799 352.884 361.874 352.884 359.503C352.884 357.132 350.959 355.207 348.588 355.207C346.217 355.207 344.292 357.132 344.292 359.503Z" fill="white"/>
<path d="M363.753 344.597C360.72 341.812 356.931 339.897 352.936 339.193C351.931 339.017 350.927 338.924 349.913 338.872C348.898 338.82 347.884 338.924 346.88 338.975C344.871 339.234 342.894 339.721 341.021 340.497C339.157 341.294 337.408 342.329 335.824 343.592C334.261 344.897 332.905 346.408 331.725 348.054C330.576 349.731 329.685 351.584 329.033 353.509C328.391 355.456 328.081 357.485 327.946 359.545C327.905 357.485 328.133 355.414 328.671 353.396C329.271 351.408 330.11 349.483 331.238 347.723C332.387 345.973 333.805 344.41 335.389 343.044C337.014 341.729 338.816 340.632 340.741 339.783C342.687 338.996 344.747 338.52 346.828 338.282C347.873 338.251 348.919 338.147 349.965 338.209C351.01 338.272 352.045 338.396 353.07 338.613C357.159 339.462 360.969 341.574 363.784 344.597H363.753Z" fill="#575757"/>
<path d="M320.43 357.505C320.43 357.391 320.43 357.277 320.43 357.164C320.43 343.116 331.817 331.739 345.854 331.739C359.891 331.739 371.278 343.126 371.278 357.164C371.278 357.277 371.278 357.391 371.278 357.505H378.99C378.99 357.391 378.99 357.277 378.99 357.164C378.99 338.862 364.156 324.027 345.854 324.027C327.552 324.027 312.718 338.862 312.718 357.164C312.718 357.277 312.718 357.391 312.718 357.505H320.43Z" fill="#50595A"/>
<path d="M372.542 337.526C370.772 335.239 368.701 333.189 366.424 331.439C364.157 329.68 361.672 328.179 359.022 327.071C353.743 324.835 347.904 323.945 342.221 324.628C339.374 324.928 336.569 325.591 333.898 326.615C331.228 327.651 328.712 329.059 326.383 330.725C324.054 332.402 321.942 334.379 320.12 336.605C318.267 338.81 316.704 341.263 315.482 343.882C316.6 341.212 318.06 338.675 319.83 336.367C321.621 334.069 323.712 332.019 326.041 330.249C330.689 326.709 336.331 324.504 342.149 323.862C347.956 323.23 353.939 324.141 359.271 326.533C361.931 327.733 364.416 329.297 366.662 331.15C368.888 333.013 370.875 335.166 372.552 337.526H372.542Z" fill="#DDDDDD"/>
<path d="M123.31 380.559C134.921 380.559 144.334 371.146 144.334 359.534C144.334 347.923 134.921 338.51 123.31 338.51C111.698 338.51 102.285 347.923 102.285 359.534C102.285 371.146 111.698 380.559 123.31 380.559Z" fill="#121212"/>
<path d="M129.385 338.51H123.309V380.559H129.385V338.51Z" fill="#121212"/>
<path d="M129.542 380.559C141.154 380.559 150.567 371.146 150.567 359.534C150.567 347.923 141.154 338.51 129.542 338.51C117.931 338.51 108.518 347.923 108.518 359.534C108.518 371.146 117.931 380.559 129.542 380.559Z" fill="#252525"/>
<path opacity="0.29" d="M141.746 342.412C138.31 339.959 134.096 338.51 129.552 338.51C117.937 338.51 108.527 347.92 108.527 359.534C108.527 362.888 109.314 366.056 110.712 368.872C118.496 357.588 129.531 348.437 141.746 342.412Z" fill="#575757"/>
<path d="M129.386 372.039C136.292 372.039 141.891 366.441 141.891 359.534C141.891 352.628 136.292 347.029 129.386 347.029C122.48 347.029 116.881 352.628 116.881 359.534C116.881 366.441 122.48 372.039 129.386 372.039Z" fill="#121212"/>
<path d="M132.463 369.383C137.849 367.682 140.837 361.937 139.137 356.55C137.437 351.164 131.691 348.176 126.305 349.876C120.918 351.577 117.93 357.322 119.631 362.708C121.331 368.095 127.076 371.083 132.463 369.383Z" fill="white"/>
<path d="M129.355 366.284C132.899 366.284 135.773 363.41 135.773 359.865C135.773 356.321 132.899 353.447 129.355 353.447C125.81 353.447 122.937 356.321 122.937 359.865C122.937 363.41 125.81 366.284 129.355 366.284Z" fill="#ABABAB"/>
<path d="M123.371 359.503C123.371 362.712 125.969 365.3 129.168 365.3C132.367 365.3 134.965 362.702 134.965 359.503C134.965 356.304 132.367 353.706 129.168 353.706C125.969 353.706 123.371 356.304 123.371 359.503Z" fill="#D5D5D5"/>
<path d="M127.928 351.004C127.928 351.812 128.58 352.464 129.387 352.464C130.195 352.464 130.847 351.812 130.847 351.004C130.847 350.197 130.195 349.545 129.387 349.545C128.58 349.545 127.928 350.197 127.928 351.004Z" fill="#808080"/>
<path d="M128.456 351.004C128.456 351.522 128.87 351.936 129.388 351.936C129.905 351.936 130.319 351.522 130.319 351.004C130.319 350.487 129.905 350.073 129.388 350.073C128.87 350.073 128.456 350.487 128.456 351.004Z" fill="#D5D5D5"/>
<path d="M127.928 368.24C127.928 369.047 128.58 369.699 129.387 369.699C130.195 369.699 130.847 369.047 130.847 368.24C130.847 367.432 130.195 366.78 129.387 366.78C128.58 366.78 127.928 367.432 127.928 368.24Z" fill="#808080"/>
<path d="M128.456 368.24C128.456 368.757 128.87 369.171 129.388 369.171C129.905 369.171 130.319 368.757 130.319 368.24C130.319 367.722 129.905 367.308 129.388 367.308C128.87 367.308 128.456 367.722 128.456 368.24Z" fill="#D5D5D5"/>
<path d="M137.988 361.087C138.794 361.087 139.447 360.433 139.447 359.627C139.447 358.821 138.794 358.167 137.988 358.167C137.182 358.167 136.528 358.821 136.528 359.627C136.528 360.433 137.182 361.087 137.988 361.087Z" fill="#808080"/>
<path d="M137.988 360.559C138.503 360.559 138.92 360.142 138.92 359.627C138.92 359.113 138.503 358.696 137.988 358.696C137.474 358.696 137.057 359.113 137.057 359.627C137.057 360.142 137.474 360.559 137.988 360.559Z" fill="#D5D5D5"/>
<path d="M120.731 361.087C121.537 361.087 122.191 360.433 122.191 359.627C122.191 358.821 121.537 358.168 120.731 358.168C119.925 358.168 119.271 358.821 119.271 359.627C119.271 360.433 119.925 361.087 120.731 361.087Z" fill="#808080"/>
<path d="M120.731 360.559C121.246 360.559 121.663 360.142 121.663 359.627C121.663 359.113 121.246 358.696 120.731 358.696C120.217 358.696 119.8 359.113 119.8 359.627C119.8 360.142 120.217 360.559 120.731 360.559Z" fill="#D5D5D5"/>
<path d="M134.448 352.516C133.879 353.085 133.879 354.007 134.448 354.576C135.018 355.145 135.939 355.145 136.509 354.576C137.078 354.007 137.078 353.085 136.509 352.516C135.939 351.947 135.018 351.947 134.448 352.516Z" fill="#808080"/>
<path d="M134.811 352.889C134.448 353.251 134.448 353.841 134.811 354.214C135.173 354.576 135.763 354.576 136.136 354.214C136.498 353.851 136.498 353.261 136.136 352.889C135.774 352.526 135.183 352.526 134.811 352.889Z" fill="#D5D5D5"/>
<path d="M122.253 364.71C121.684 365.28 121.684 366.201 122.253 366.77C122.823 367.34 123.744 367.34 124.313 366.77C124.883 366.201 124.883 365.28 124.313 364.71C123.744 364.141 122.823 364.141 122.253 364.71Z" fill="#808080"/>
<path d="M122.626 365.073C122.264 365.435 122.264 366.025 122.626 366.398C122.989 366.76 123.579 366.76 123.951 366.398C124.324 366.035 124.314 365.445 123.951 365.073C123.589 364.7 122.999 364.71 122.626 365.073Z" fill="#D5D5D5"/>
<path d="M134.427 364.699C133.858 365.269 133.858 366.19 134.427 366.76C134.996 367.329 135.918 367.329 136.487 366.76C137.056 366.19 137.056 365.269 136.487 364.699C135.918 364.13 134.996 364.13 134.427 364.699Z" fill="#808080"/>
<path d="M134.8 365.062C134.438 365.424 134.438 366.014 134.8 366.387C135.162 366.749 135.752 366.749 136.125 366.387C136.487 366.025 136.487 365.435 136.125 365.062C135.763 364.7 135.173 364.7 134.8 365.062Z" fill="#D5D5D5"/>
<path d="M122.223 352.495C121.654 353.064 121.654 353.986 122.223 354.555C122.792 355.124 123.714 355.124 124.283 354.555C124.852 353.986 124.852 353.064 124.283 352.495C123.714 351.926 122.792 351.926 122.223 352.495Z" fill="#808080"/>
<path d="M122.596 352.857C122.234 353.219 122.234 353.809 122.596 354.182C122.958 354.544 123.548 354.544 123.921 354.182C124.294 353.82 124.283 353.23 123.921 352.857C123.559 352.484 122.969 352.495 122.596 352.857Z" fill="#D5D5D5"/>
<path d="M124.872 359.503C124.872 361.874 126.797 363.799 129.168 363.799C131.539 363.799 133.464 361.874 133.464 359.503C133.464 357.132 131.539 355.207 129.168 355.207C126.797 355.207 124.872 357.132 124.872 359.503Z" fill="white"/>
<path d="M144.334 344.597C141.301 341.812 137.512 339.897 133.517 339.193C132.512 339.017 131.508 338.924 130.494 338.872C129.479 338.82 128.465 338.924 127.461 338.975C125.452 339.234 123.475 339.721 121.602 340.497C119.738 341.294 117.989 342.329 116.405 343.592C114.852 344.897 113.486 346.408 112.306 348.054C111.157 349.731 110.266 351.584 109.614 353.509C108.972 355.456 108.662 357.485 108.527 359.545C108.486 357.485 108.714 355.414 109.252 353.396C109.852 351.408 110.691 349.483 111.819 347.723C112.968 345.973 114.386 344.41 115.97 343.044C117.595 341.729 119.397 340.632 121.322 339.783C123.268 338.996 125.328 338.52 127.409 338.282C128.454 338.251 129.5 338.147 130.546 338.209C131.591 338.272 132.626 338.396 133.651 338.613C137.74 339.462 141.55 341.574 144.365 344.597H144.334Z" fill="#575757"/>
<path d="M27.7638 274.359C14.2236 288.22 7.82617 304.349 7.82617 304.349V309.99H80.8273V304.349C80.8273 304.349 86.9142 288.728 98.912 274.359H27.7638Z" fill="#6AAFC0"/>
<path d="M80.8273 304.576H7.82617V309.99H80.8273V304.576Z" fill="#416F76"/>
<path d="M93.5502 281.357C95.1858 279.038 96.9663 276.678 98.9124 274.349H27.7642C25.5179 276.647 23.4682 279.018 21.6152 281.357H93.5502Z" fill="#252525"/>
<g style="mix-blend-mode:overlay">
<path d="M39.6162 274.359C29.8855 286.212 20.279 298.138 10.6104 309.99H29.5335C39.3781 298.531 48.7362 286.606 57.6077 274.359H39.6266H39.6162Z" fill="white"/>
</g>
<g style="mix-blend-mode:overlay">
<path d="M69.3887 274.359C59.658 286.212 50.0514 298.138 40.3828 309.99H49.3475C59.1921 298.531 68.5502 286.606 77.4217 274.359H69.399H69.3887Z" fill="white"/>
</g>
<path d="M94.1182 331.563H126.965C138.879 331.563 148.538 321.905 148.538 309.99H94.1182V331.563Z" fill="#620D15"/>
<path d="M136.913 314.452H125.795C124.943 314.452 124.253 315.142 124.253 315.994V317.961C124.253 318.813 124.943 319.504 125.795 319.504H136.913C137.765 319.504 138.456 318.813 138.456 317.961V315.994C138.456 315.142 137.765 314.452 136.913 314.452Z" fill="#871A1F"/>
<path d="M18.7266 322.92H63.8709C63.8709 329.11 58.8503 334.131 52.6599 334.131H29.9376C23.7472 334.131 18.7266 329.11 18.7266 322.92Z" fill="#121212"/>
<path d="M79.9265 346.118H62.6389C61.5698 346.118 60.7031 346.985 60.7031 348.054V353.085C60.7031 354.154 61.5698 355.021 62.6389 355.021H79.9265C80.9956 355.021 81.8623 354.154 81.8623 353.085V348.054C81.8623 346.985 80.9956 346.118 79.9265 346.118Z" fill="white"/>
<path d="M23.3952 346.118H6.10766C5.03855 346.118 4.17188 346.985 4.17188 348.054V353.085C4.17188 354.154 5.03855 355.021 6.10766 355.021H23.3952C24.4643 355.021 25.331 354.154 25.331 353.085V348.054C25.331 346.985 24.4643 346.118 23.3952 346.118Z" fill="white"/>
<path d="M57.4524 343.002H28.2395C27.7993 343.002 27.4424 343.359 27.4424 343.8V344.524C27.4424 344.964 27.7993 345.321 28.2395 345.321H57.4524C57.8926 345.321 58.2495 344.964 58.2495 344.524V343.8C58.2495 343.359 57.8926 343.002 57.4524 343.002Z" fill="#121212"/>
<path d="M57.4524 346.18H28.2395C27.7993 346.18 27.4424 346.537 27.4424 346.978V347.702C27.4424 348.142 27.7993 348.499 28.2395 348.499H57.4524C57.8926 348.499 58.2495 348.142 58.2495 347.702V346.978C58.2495 346.537 57.8926 346.18 57.4524 346.18Z" fill="#121212"/>
<path d="M57.4524 349.369H28.2395C27.7993 349.369 27.4424 349.726 27.4424 350.166V350.89C27.4424 351.331 27.7993 351.687 28.2395 351.687H57.4524C57.8926 351.687 58.2495 351.331 58.2495 350.89V350.166C58.2495 349.726 57.8926 349.369 57.4524 349.369Z" fill="#121212"/>
<path d="M57.4524 352.557H28.2395C27.7993 352.557 27.4424 352.914 27.4424 353.354V354.079C27.4424 354.519 27.7993 354.876 28.2395 354.876H57.4524C57.8926 354.876 58.2495 354.519 58.2495 354.079V353.354C58.2495 352.914 57.8926 352.557 57.4524 352.557Z" fill="#121212"/>
<path d="M114.058 274.359C100.518 288.22 94.1201 304.349 94.1201 304.349V309.99H148.54V274.359H114.058Z" fill="#6AAFC0"/>
<path d="M148.54 304.576H94.1201V309.99H148.54V304.576Z" fill="#416F76"/>
<g style="mix-blend-mode:overlay">
<path d="M126.904 274.359C122.505 286.378 117.691 298.22 112.712 309.99H128.146C132.67 298.158 136.997 286.254 141.314 274.359H126.904Z" fill="white"/>
</g>
<path d="M94.9877 312.206H94.1182V358.075H94.9877V312.206Z" fill="#AB333C"/>
<path d="M110.774 312.205H94.1182V304.379H110.774C112.938 304.379 114.687 306.129 114.687 308.292C114.687 310.456 112.938 312.205 110.774 312.205Z" fill="#AB333C"/>
<path d="M89.0258 358.085H0V362.412H89.0258V358.085Z" fill="#777E7E"/>
<path d="M89.0258 358.085H0V359.514H89.0258V358.085Z" fill="#A0A0A0"/>
<defs>
<linearGradient id="paint0_linear_63_1407" x1="322.126" y1="100.478" x2="317.548" y2="209.991" gradientUnits="userSpaceOnUse">
<stop stop-color="#287094"/>
<stop offset="1" stop-color="#287094"/>
</linearGradient>
</defs>
</svg>
