<svg width="41" height="50" viewBox="0 0 41 50" fill="none" xmlns="http://www.w3.org/2000/svg">
<path d="M9.47559 4.4C9.47559 3.55992 9.47559 3.13988 9.63908 2.81901C9.78289 2.53677 10.0124 2.3073 10.2946 2.16349C10.6155 2 11.0355 2 11.8756 2H26.8815C27.2484 2 27.4318 2 27.6045 2.04145C27.7575 2.07819 27.9038 2.1388 28.038 2.22104C28.1894 2.3138 28.3191 2.44352 28.5786 2.70294L38.6727 12.7971C38.9321 13.0565 39.0618 13.1862 39.1546 13.3376C39.2368 13.4718 39.2974 13.6181 39.3342 13.7712C39.3756 13.9438 39.3756 14.1272 39.3756 14.4941V38.7001C39.3756 39.5401 39.3756 39.9602 39.2121 40.281C39.0683 40.5633 38.8389 40.7928 38.5566 40.9366C38.2357 41.1001 37.8157 41.1001 36.9756 41.1001H11.8756C11.0355 41.1001 10.6155 41.1001 10.2946 40.9366C10.0124 40.7928 9.78289 40.5633 9.63908 40.281C9.47559 39.9602 9.47559 39.5401 9.47559 38.7001V4.4Z" stroke="#287094" stroke-width="3"/>
<path d="M20.4 15.8V6.59998H6C4.11438 6.59998 3.17157 6.59998 2.58579 7.18576C2 7.77155 2 8.71436 2 10.6V44C2 45.8857 2 46.8285 2.58579 47.4143C3.17157 48 4.11438 48 6 48H30.2C32.0857 48 33.0285 48 33.6143 47.4143C34.2 46.8285 34.2 45.8857 34.2 44V20.4H25C22.8316 20.4 21.7473 20.4 21.0737 19.7263C20.4 19.0527 20.4 17.9685 20.4 15.8Z" fill="white"/>
<path d="M20.7946 6.59998H11.2C6.86309 6.59998 4.69462 6.59998 3.34731 7.94729C2 9.2946 2 11.4631 2 15.8V38.8C2 43.137 2 45.3054 3.34731 46.6527C4.69462 48 6.86309 48 11.2 48H25C29.337 48 31.5054 48 32.8527 46.6527C34.2 45.3054 34.2 43.137 34.2 38.8V20.0054C34.2 19.0653 34.2 18.5952 34.025 18.1725C33.8499 17.7498 33.5175 17.4175 32.8527 16.7527L24.0473 7.94729C23.3826 7.28252 23.0502 6.95013 22.6275 6.77505C22.2048 6.59998 21.7348 6.59998 20.7946 6.59998Z" stroke="#287094" stroke-width="3"/>
<path d="M11.2002 29.6L25.0002 29.6" stroke="#287094" stroke-width="3" stroke-linecap="round"/>
<path d="M11.2002 38.8L20.4002 38.8" stroke="#287094" stroke-width="3" stroke-linecap="round"/>
<path d="M20.3994 6.59998V15.8C20.3994 17.9685 20.3994 19.0527 21.0731 19.7263C21.7467 20.4 22.831 20.4 24.9994 20.4H34.1994" stroke="#287094" stroke-width="3"/>
</svg>
