<svg width="38" height="38" viewBox="0 0 38 38" fill="none" xmlns="http://www.w3.org/2000/svg">
<circle cx="19" cy="19" r="18" stroke="#287094" stroke-width="2"/>
<path d="M24.7616 20.68L26.8225 22.7409C27.1163 23.0346 27.1163 23.5109 26.8225 23.8047C25.2342 25.3929 22.7198 25.5716 20.9229 24.224L20.0091 23.5386C18.3148 22.2679 16.8097 20.7628 15.539 19.0685L14.8536 18.1546C13.5059 16.3577 13.6846 13.8433 15.2729 12.2551C15.5666 11.9613 16.0429 11.9613 16.3367 12.2551L18.3976 14.3159C18.7881 14.7065 18.7881 15.3396 18.3976 15.7301L17.6789 16.4488C17.545 16.5827 17.5118 16.7872 17.5965 16.9566C18.5755 18.9145 20.1631 20.5021 22.121 21.481C22.2903 21.5657 22.4949 21.5325 22.6287 21.3986L23.3474 20.68C23.7379 20.2895 24.3711 20.2895 24.7616 20.68Z" stroke="#023246"/>
</svg>
