<svg width="29" height="32" viewBox="0 0 29 32" fill="none" xmlns="http://www.w3.org/2000/svg">
<path d="M14.9715 1.20613L26.6547 4.32165C27.0925 4.43839 27.3971 4.83484 27.3971 5.28789V18.9065C27.3971 20.9127 26.3945 22.786 24.7253 23.8988L14.7532 30.5469C14.4173 30.7708 13.9797 30.7708 13.6438 30.5469L3.6718 23.8988C2.00261 22.7861 1 20.9127 1 18.9065V5.28789C1 4.83484 1.30458 4.43839 1.74234 4.32165L13.4255 1.20613C13.932 1.07107 14.465 1.07107 14.9715 1.20613Z" stroke="#287094" stroke-width="2" stroke-linecap="round"/>
<path d="M9.7991 15.0784L13.1419 18.4213C13.2396 18.5189 13.3979 18.5189 13.4955 18.4213L19.478 12.4387" stroke="#287094" stroke-width="2" stroke-linecap="round"/>
</svg>
