<svg width="126" height="42" viewBox="0 0 126 42" fill="none" xmlns="http://www.w3.org/2000/svg">
<path d="M0.765951 6.81288V6.05591C20.6802 12.8688 30.6372 22.205 32.169 24.9806C38.9091 33.4588 31.6585 37.0925 27.5733 37.8497H0L3.06373 28.0085H26.0416C29.1054 27.403 29.3607 25.2331 29.1054 24.2238H16.0845C14.2974 24.4759 10.2635 24.0724 8.42524 20.4387C6.58699 16.8052 8.16994 12.3641 9.19115 10.5978C5.36151 8.32687 2.29782 7.56986 0.765951 6.81288Z" fill="#287094"/>
<path d="M35.362 22.5956C29.1863 15.9777 10.3575 7.15984 1.39805 3.94307L1.39258 3.1861C25.3461 10.889 35.3314 19.3296 39.1882 23.0873C52.286 35.8474 42.2717 42.2606 35.362 40.0386C48.8246 37.5206 40.7599 27.6039 35.362 22.5956Z" fill="black"/>
<path d="M9.06269 4.64569L7.54736 6.92748" stroke="#F6F6F6"/>
<path d="M13.1828 6.12701L11.6675 8.40877" stroke="#F6F6F6"/>
<path d="M18.2868 9.12225L16.7715 11.404" stroke="#F6F6F6"/>
<path d="M22.8932 10.6036L21.187 13.6029" stroke="#F6F6F6"/>
<path d="M27.5106 13.5989L25.9951 15.8807" stroke="#F6F6F6"/>
<path d="M32.1279 16.5941L30.6128 18.8759" stroke="#F6F6F6"/>
<path d="M36.7453 19.5894L34.8096 22.844" stroke="#F6F6F6"/>
<path d="M41.3736 24.0985L38.332 27.1483" stroke="#F6F6F6"/>
<path d="M45.1211 29.3401L41.4282 31.5799" stroke="#F6F6F6"/>
<path d="M45.3644 37.2194L41.2725 35.8123" stroke="#F6F6F6"/>
<path d="M42.1708 41.0678L38.7588 38.4287" stroke="#F6F6F6"/>
<path d="M23.7436 0H47.4875L44.4236 9.84089H26.8075C37.5305 15.1398 45.9931 19.4407 49.7683 24.2911C55.0942 31.1337 53.2872 38.5569 44.4236 40.8394C51.988 36.5596 49.1102 27.2615 44.4236 23.4351C30.3305 11.9287 10.2122 4.2896 1.53174 1.51399V0.756975C2.29765 0.756975 7.65916 2.27096 11.4888 3.78495C15.1653 0.151396 20.6801 0 23.7436 0Z" fill="#287094"/>
<path d="M35.9991 27.2517C28.3395 16.6538 7.91479 7.56991 0.766113 5.29895V6.05592C19.761 12.7175 31.0202 22.7097 32.9352 26.4946C36.7647 34.0647 32.9352 37.0926 29.8713 38.6065C40.5943 37.8498 38.5521 30.2796 35.9991 27.2517Z" fill="#D4D4CE"/>
<path d="M56.2354 18.6798H63.6053L64.1188 31.7547L69.1629 18.6798H75.1434L75.9288 31.7547L81.0031 18.6798H84.1746L76.7141 37.8543H69.918L69.2837 27.0139L64.7531 37.8543H57.5039L56.2354 18.6798ZM88.9269 37.8543H82.4028L86.4804 18.6798H93.0348L88.9269 37.8543ZM96.3324 18.6798H109.049L108.565 20.9747H102.373L101.195 26.5006H106.36L105.877 28.8257H100.712L98.7789 37.8543H92.2547L96.3324 18.6798ZM125.486 20.9747H120.623L117.029 37.8543H110.505L114.099 20.9747H109.297L109.84 18.6798H126L125.486 20.9747Z" fill="#287094"/>
</svg>
