<svg width="32" height="29" viewBox="0 0 32 29" fill="none" xmlns="http://www.w3.org/2000/svg">
<path d="M1 12.4736C1 11.3691 1.89543 10.4736 3 10.4736H29C30.1046 10.4736 31 11.3691 31 12.4736V13.2105C31 14.315 30.1046 15.2105 29 15.2105H3C1.89543 15.2105 1 14.315 1 13.2105V12.4736Z" stroke="#287094" stroke-width="1.5" stroke-linecap="round"/>
<path d="M4.1582 15.2106V27.0422C4.1582 27.3222 4.1582 27.4622 4.2127 27.5691C4.26064 27.6632 4.33713 27.7397 4.43121 27.7877C4.53816 27.8422 4.67818 27.8422 4.9582 27.8422H27.0424C27.3224 27.8422 27.4625 27.8422 27.5694 27.7877C27.6635 27.7397 27.74 27.6632 27.7879 27.5691C27.8424 27.4622 27.8424 27.3222 27.8424 27.0422V15.2106" stroke="#287094" stroke-width="1.5" stroke-linecap="round"/>
<path d="M18.3681 5V10.4737H11.3154C9.10629 10.4737 7.31543 8.68282 7.31543 6.47368V5C7.31543 2.79086 9.10629 1 11.3154 1H14.3681C16.5772 1 18.3681 2.79086 18.3681 5Z" stroke="#287094" stroke-width="1.5" stroke-linecap="round"/>
<path d="M18.368 5.57898V10.4737H23.2627C24.9195 10.4737 26.2627 9.13057 26.2627 7.47371V5.57898C26.2627 3.92213 24.9195 2.57898 23.2627 2.57898H21.368C19.7111 2.57898 18.368 3.92213 18.368 5.57898Z" stroke="#287094" stroke-width="1.5" stroke-linecap="round"/>
<path d="M18.3682 15.2106V27.8422" stroke="#287094" stroke-width="1.5" stroke-linecap="round"/>
</svg>
